%TF.GenerationSoftware,KiCad,Pcbnew,9.0.2*%
%TF.CreationDate,2025-07-11T05:31:08-04:00*%
%TF.ProjectId,am9511-6502,616d3935-3131-42d3-9635-30322e6b6963,rev?*%
%TF.SameCoordinates,Original*%
%TF.FileFunction,Copper,L2,Bot*%
%TF.FilePolarity,Positive*%
%FSLAX46Y46*%
G04 Gerber Fmt 4.6, Leading zero omitted, Abs format (unit mm)*
G04 Created by KiCad (PCBNEW 9.0.2) date 2025-07-11 05:31:08*
%MOMM*%
%LPD*%
G01*
G04 APERTURE LIST*
G04 Aperture macros list*
%AMRoundRect*
0 Rectangle with rounded corners*
0 $1 Rounding radius*
0 $2 $3 $4 $5 $6 $7 $8 $9 X,Y pos of 4 corners*
0 Add a 4 corners polygon primitive as box body*
4,1,4,$2,$3,$4,$5,$6,$7,$8,$9,$2,$3,0*
0 Add four circle primitives for the rounded corners*
1,1,$1+$1,$2,$3*
1,1,$1+$1,$4,$5*
1,1,$1+$1,$6,$7*
1,1,$1+$1,$8,$9*
0 Add four rect primitives between the rounded corners*
20,1,$1+$1,$2,$3,$4,$5,0*
20,1,$1+$1,$4,$5,$6,$7,0*
20,1,$1+$1,$6,$7,$8,$9,0*
20,1,$1+$1,$8,$9,$2,$3,0*%
G04 Aperture macros list end*
%TA.AperFunction,ComponentPad*%
%ADD10C,1.600000*%
%TD*%
%TA.AperFunction,ComponentPad*%
%ADD11R,1.800000X1.800000*%
%TD*%
%TA.AperFunction,ComponentPad*%
%ADD12C,1.800000*%
%TD*%
%TA.AperFunction,ComponentPad*%
%ADD13RoundRect,0.250000X-0.550000X0.550000X-0.550000X-0.550000X0.550000X-0.550000X0.550000X0.550000X0*%
%TD*%
%TA.AperFunction,ComponentPad*%
%ADD14RoundRect,0.250000X0.550000X0.550000X-0.550000X0.550000X-0.550000X-0.550000X0.550000X-0.550000X0*%
%TD*%
%TA.AperFunction,ComponentPad*%
%ADD15C,3.800000*%
%TD*%
%TA.AperFunction,ComponentPad*%
%ADD16R,1.700000X1.700000*%
%TD*%
%TA.AperFunction,ComponentPad*%
%ADD17C,1.700000*%
%TD*%
%TA.AperFunction,ComponentPad*%
%ADD18RoundRect,0.250000X-0.550000X-0.550000X0.550000X-0.550000X0.550000X0.550000X-0.550000X0.550000X0*%
%TD*%
%TA.AperFunction,ComponentPad*%
%ADD19R,1.600000X1.600000*%
%TD*%
%TA.AperFunction,ComponentPad*%
%ADD20O,1.700000X1.700000*%
%TD*%
%TA.AperFunction,ViaPad*%
%ADD21C,0.800000*%
%TD*%
%TA.AperFunction,Conductor*%
%ADD22C,0.300000*%
%TD*%
%TA.AperFunction,Conductor*%
%ADD23C,0.500000*%
%TD*%
G04 APERTURE END LIST*
D10*
%TO.P,R3,1*%
%TO.N,Net-(D3-K)*%
X152400000Y-25600000D03*
%TO.P,R3,2*%
%TO.N,GND*%
X160020000Y-25600000D03*
%TD*%
%TO.P,R1,1*%
%TO.N,VCC*%
X129190000Y-60800000D03*
%TO.P,R1,2*%
%TO.N,Net-(U5A-RCext)*%
X136810000Y-60800000D03*
%TD*%
D11*
%TO.P,D3,1,K*%
%TO.N,Net-(D3-K)*%
X170800000Y-26200000D03*
D12*
%TO.P,D3,2,A*%
%TO.N,VCC*%
X168260000Y-26200000D03*
%TD*%
D13*
%TO.P,D1,1,K*%
%TO.N,Net-(D1-K)*%
X110200000Y-53390000D03*
D10*
%TO.P,D1,2,A*%
%TO.N,/RDY*%
X110200000Y-61010000D03*
%TD*%
D14*
%TO.P,C7,1*%
%TO.N,VCC*%
X169205113Y-33800000D03*
D10*
%TO.P,C7,2*%
%TO.N,GND*%
X166705113Y-33800000D03*
%TD*%
D15*
%TO.P,H3,1,1*%
%TO.N,GND*%
X105000000Y-82440000D03*
%TD*%
%TO.P,H1,1,1*%
%TO.N,GND*%
X105000000Y-25040000D03*
%TD*%
%TO.P,H4,1,1*%
%TO.N,GND*%
X177082262Y-82522267D03*
%TD*%
D10*
%TO.P,C5,1*%
%TO.N,VCC*%
X125500000Y-68760000D03*
%TO.P,C5,2*%
%TO.N,GND*%
X128000000Y-68760000D03*
%TD*%
D16*
%TO.P,J1,1,Pin_1*%
%TO.N,VCC*%
X173790364Y-32560000D03*
D17*
%TO.P,J1,2,Pin_2*%
%TO.N,GND*%
X173790364Y-35100000D03*
%TO.P,J1,3,Pin_3*%
%TO.N,/D0*%
X173790364Y-37640000D03*
%TO.P,J1,4,Pin_4*%
%TO.N,/D1*%
X173790364Y-40180000D03*
%TO.P,J1,5,Pin_5*%
%TO.N,/D2*%
X173790364Y-42720000D03*
%TO.P,J1,6,Pin_6*%
%TO.N,/D3*%
X173790364Y-45260000D03*
%TO.P,J1,7,Pin_7*%
%TO.N,/D4*%
X173790364Y-47800000D03*
%TO.P,J1,8,Pin_8*%
%TO.N,/D5*%
X173790364Y-50340000D03*
%TO.P,J1,9,Pin_9*%
%TO.N,/D6*%
X173790364Y-52880000D03*
%TO.P,J1,10,Pin_10*%
%TO.N,/D7*%
X173790364Y-55420000D03*
%TO.P,J1,11,Pin_11*%
%TO.N,/A0*%
X173790364Y-57960000D03*
%TO.P,J1,12,Pin_12*%
%TO.N,/~{CS}*%
X173790364Y-60500000D03*
%TO.P,J1,13,Pin_13*%
%TO.N,/R{slash}~{W}*%
X173790364Y-63040000D03*
%TO.P,J1,14,Pin_14*%
%TO.N,/~{RESET}*%
X173790364Y-65580000D03*
%TO.P,J1,15,Pin_15*%
%TO.N,/RDY*%
X173790364Y-68120000D03*
%TO.P,J1,16,Pin_16*%
%TO.N,/PHI2*%
X173790364Y-70660000D03*
%TO.P,J1,17,Pin_17*%
%TO.N,/~{IRQ}*%
X173790364Y-73200000D03*
%TO.P,J1,18,Pin_18*%
%TO.N,GND*%
X173790364Y-75740000D03*
%TD*%
D15*
%TO.P,H2,1,1*%
%TO.N,GND*%
X177000000Y-25040000D03*
%TD*%
D18*
%TO.P,U3,1,C*%
%TO.N,/CLK1*%
X110440000Y-32120000D03*
D10*
%TO.P,U3,2,K*%
%TO.N,GND*%
X110440000Y-34660000D03*
%TO.P,U3,3,J*%
%TO.N,VCC*%
X110440000Y-37200000D03*
%TO.P,U3,4,~{S}*%
X110440000Y-39740000D03*
%TO.P,U3,5,Q*%
%TO.N,/Q1*%
X110440000Y-42280000D03*
%TO.P,U3,6,~{Q}*%
%TO.N,Net-(D1-K)*%
X110440000Y-44820000D03*
%TO.P,U3,7,~{Q}*%
%TO.N,Net-(U3A-~{R})*%
X110440000Y-47360000D03*
%TO.P,U3,8,GND*%
%TO.N,GND*%
X110440000Y-49900000D03*
%TO.P,U3,9,Q*%
%TO.N,/Q2*%
X118060000Y-49900000D03*
%TO.P,U3,10,~{S}*%
%TO.N,VCC*%
X118060000Y-47360000D03*
%TO.P,U3,11,J*%
%TO.N,/Q1*%
X118060000Y-44820000D03*
%TO.P,U3,12,K*%
%TO.N,Net-(D1-K)*%
X118060000Y-42280000D03*
%TO.P,U3,13,C*%
%TO.N,/PHI2*%
X118060000Y-39740000D03*
%TO.P,U3,14,~{R}*%
%TO.N,/~{PAUSE}*%
X118060000Y-37200000D03*
%TO.P,U3,15,~{R}*%
%TO.N,Net-(U3A-~{R})*%
X118060000Y-34660000D03*
%TO.P,U3,16,VCC*%
%TO.N,VCC*%
X118060000Y-32120000D03*
%TD*%
D11*
%TO.P,D2,1,K*%
%TO.N,Net-(D2-K)*%
X165600000Y-26200000D03*
D12*
%TO.P,D2,2,A*%
%TO.N,/RESET*%
X163060000Y-26200000D03*
%TD*%
D18*
%TO.P,U1,1,VSS*%
%TO.N,GND*%
X148010000Y-37010000D03*
D10*
%TO.P,U1,2,VCC*%
%TO.N,VCC*%
X148010000Y-39550000D03*
%TO.P,U1,3,~{EACK}*%
X148010000Y-42090000D03*
%TO.P,U1,4,~{SVACK}*%
X148010000Y-44630000D03*
%TO.P,U1,5,SVREQ*%
%TO.N,unconnected-(U1-SVREQ-Pad5)*%
X148010000Y-47170000D03*
%TO.P,U1,6,NC*%
%TO.N,unconnected-(U1-NC-Pad6)*%
X148010000Y-49710000D03*
%TO.P,U1,7,NC*%
%TO.N,unconnected-(U1-NC-Pad7)*%
X148010000Y-52250000D03*
%TO.P,U1,8,D0*%
%TO.N,/D0*%
X148010000Y-54790000D03*
%TO.P,U1,9,D1*%
%TO.N,/D1*%
X148010000Y-57330000D03*
%TO.P,U1,10,D2*%
%TO.N,/D2*%
X148010000Y-59870000D03*
%TO.P,U1,11,D3*%
%TO.N,/D3*%
X148010000Y-62410000D03*
%TO.P,U1,12,D4*%
%TO.N,/D4*%
X148010000Y-64950000D03*
%TO.P,U1,13,D5*%
%TO.N,/D5*%
X163250000Y-64950000D03*
%TO.P,U1,14,D6*%
%TO.N,/D6*%
X163250000Y-62410000D03*
%TO.P,U1,15,D7*%
%TO.N,/D7*%
X163250000Y-59870000D03*
%TO.P,U1,16,VDD*%
%TO.N,Net-(U1-VDD)*%
X163250000Y-57330000D03*
%TO.P,U1,17,~{PAUSE}*%
%TO.N,/~{PAUSE}*%
X163250000Y-54790000D03*
%TO.P,U1,18,~{CS}*%
%TO.N,/~{CS}*%
X163250000Y-52250000D03*
%TO.P,U1,19,~{WR}*%
%TO.N,/~{WR}*%
X163250000Y-49710000D03*
%TO.P,U1,20,~{RD}*%
%TO.N,/~{RD}*%
X163250000Y-47170000D03*
%TO.P,U1,21,C/~{D}*%
%TO.N,/A0*%
X163250000Y-44630000D03*
%TO.P,U1,22,RESET*%
%TO.N,/RESET*%
X163250000Y-42090000D03*
%TO.P,U1,23,CLK*%
%TO.N,Net-(U1-CLK)*%
X163250000Y-39550000D03*
%TO.P,U1,24,~{END}*%
%TO.N,/~{IRQ}*%
X163250000Y-37010000D03*
%TD*%
%TO.P,C3,1*%
%TO.N,VCC*%
X117000000Y-28760000D03*
%TO.P,C3,2*%
%TO.N,GND*%
X119500000Y-28760000D03*
%TD*%
%TO.P,C6,1*%
%TO.N,VCC*%
X144750000Y-39510000D03*
%TO.P,C6,2*%
%TO.N,GND*%
X144750000Y-37010000D03*
%TD*%
D19*
%TO.P,X1,1,EN*%
%TO.N,VCC*%
X127130000Y-80880000D03*
D10*
%TO.P,X1,4,GND*%
%TO.N,GND*%
X134750000Y-80880000D03*
%TO.P,X1,5,OUT*%
%TO.N,Net-(U1-CLK)*%
X134750000Y-73260000D03*
%TO.P,X1,8,Vcc*%
%TO.N,VCC*%
X127130000Y-73260000D03*
%TD*%
%TO.P,C4,1*%
%TO.N,VCC*%
X116750000Y-60760000D03*
%TO.P,C4,2*%
%TO.N,GND*%
X119250000Y-60760000D03*
%TD*%
D16*
%TO.P,U4,1,GND*%
%TO.N,GND*%
X162283931Y-80802577D03*
D20*
%TO.P,U4,2,12V*%
%TO.N,Net-(U1-VDD)*%
X162283931Y-78262577D03*
%TO.P,U4,3,IN*%
%TO.N,VCC*%
X162283931Y-75722577D03*
%TO.P,U4,4,EN*%
X162283931Y-73182577D03*
%TD*%
D18*
%TO.P,U5,1,A*%
%TO.N,/~{WTRG}*%
X110380000Y-64180000D03*
D10*
%TO.P,U5,2,B*%
%TO.N,VCC*%
X110380000Y-66720000D03*
%TO.P,U5,3,Clr*%
X110380000Y-69260000D03*
%TO.P,U5,4,~{Q}*%
%TO.N,/~{WR}*%
X110380000Y-71800000D03*
%TO.P,U5,5,Q*%
%TO.N,unconnected-(U5B-Q-Pad5)*%
X110380000Y-74340000D03*
%TO.P,U5,6,Cext*%
%TO.N,GND*%
X110380000Y-76880000D03*
%TO.P,U5,7,RCext*%
X110380000Y-79420000D03*
%TO.P,U5,8,GND*%
X110380000Y-81960000D03*
%TO.P,U5,9,A*%
X118000000Y-81960000D03*
%TO.P,U5,10,B*%
X118000000Y-79420000D03*
%TO.P,U5,11,Clr*%
%TO.N,VCC*%
X118000000Y-76880000D03*
%TO.P,U5,12,~{Q}*%
%TO.N,unconnected-(U5B-~{Q}-Pad12)*%
X118000000Y-74340000D03*
%TO.P,U5,13,Q*%
%TO.N,unconnected-(U5A-Q-Pad13)*%
X118000000Y-71800000D03*
%TO.P,U5,14,Cext*%
%TO.N,Net-(U5A-Cext)*%
X118000000Y-69260000D03*
%TO.P,U5,15,RCext*%
%TO.N,Net-(U5A-RCext)*%
X118000000Y-66720000D03*
%TO.P,U5,16,VCC*%
%TO.N,VCC*%
X118000000Y-64180000D03*
%TD*%
%TO.P,C1,1*%
%TO.N,Net-(U5A-RCext)*%
X122000000Y-60760000D03*
%TO.P,C1,2*%
%TO.N,Net-(U5A-Cext)*%
X127000000Y-60760000D03*
%TD*%
%TO.P,C2,1*%
%TO.N,VCC*%
X134750000Y-29010000D03*
%TO.P,C2,2*%
%TO.N,GND*%
X137250000Y-29010000D03*
%TD*%
%TO.P,R2,1*%
%TO.N,Net-(D2-K)*%
X160000000Y-28600000D03*
%TO.P,R2,2*%
%TO.N,GND*%
X152380000Y-28600000D03*
%TD*%
D18*
%TO.P,U2,1,I1/CLK*%
%TO.N,/PHI2*%
X128190000Y-32180000D03*
D10*
%TO.P,U2,2,I2*%
%TO.N,/~{CS}*%
X128190000Y-34720000D03*
%TO.P,U2,3,I3*%
%TO.N,/R{slash}~{W}*%
X128190000Y-37260000D03*
%TO.P,U2,4,I4*%
%TO.N,/~{RESET}*%
X128190000Y-39800000D03*
%TO.P,U2,5,I5*%
%TO.N,/Q1*%
X128190000Y-42340000D03*
%TO.P,U2,6,I6*%
%TO.N,/Q2*%
X128190000Y-44880000D03*
%TO.P,U2,7,I7*%
%TO.N,GND*%
X128190000Y-47420000D03*
%TO.P,U2,8,I8*%
X128190000Y-49960000D03*
%TO.P,U2,9,I9*%
X128190000Y-52500000D03*
%TO.P,U2,10,GND*%
X128190000Y-55040000D03*
%TO.P,U2,11,I10/~{OE}*%
X135810000Y-55040000D03*
%TO.P,U2,12,IO8*%
%TO.N,unconnected-(U2-IO8-Pad12)*%
X135810000Y-52500000D03*
%TO.P,U2,13,IO7*%
%TO.N,unconnected-(U2-IO7-Pad13)*%
X135810000Y-49960000D03*
%TO.P,U2,14,IO6*%
%TO.N,/~{RD}*%
X135810000Y-47420000D03*
%TO.P,U2,15,IO5*%
%TO.N,/~{WTRG}*%
X135810000Y-44880000D03*
%TO.P,U2,16,IO4*%
%TO.N,/RESET*%
X135810000Y-42340000D03*
%TO.P,U2,17,I03*%
%TO.N,/CLK1*%
X135810000Y-39800000D03*
%TO.P,U2,18,IO2*%
%TO.N,unconnected-(U2-IO2-Pad18)*%
X135810000Y-37260000D03*
%TO.P,U2,19,IO1*%
%TO.N,unconnected-(U2-IO1-Pad19)*%
X135810000Y-34720000D03*
%TO.P,U2,20,VCC*%
%TO.N,VCC*%
X135810000Y-32180000D03*
%TD*%
D21*
%TO.N,/~{CS}*%
X145199000Y-42760000D03*
X145250000Y-61021000D03*
%TO.N,/RDY*%
X121095000Y-55415000D03*
X119220000Y-53540000D03*
%TO.N,/D5*%
X166000000Y-56260000D03*
%TO.N,/PHI2*%
X120125000Y-56135000D03*
%TO.N,/R{slash}~{W}*%
X146000000Y-45010000D03*
X146000000Y-66260000D03*
%TO.N,/~{RESET}*%
X131750000Y-55760000D03*
%TO.N,Net-(U1-CLK)*%
X153000000Y-71040000D03*
%TO.N,/~{PAUSE}*%
X144600000Y-63561000D03*
X144250000Y-44760000D03*
%TO.N,/~{WR}*%
X143600000Y-58719000D03*
%TD*%
D22*
%TO.N,Net-(U5A-RCext)*%
X118000000Y-66720000D02*
X122000000Y-62720000D01*
X122000000Y-62720000D02*
X122000000Y-60760000D01*
X118000000Y-66260000D02*
X118000000Y-66720000D01*
%TO.N,Net-(U5A-Cext)*%
X118000000Y-68760000D02*
X118000000Y-69260000D01*
X118000000Y-69260000D02*
X126500000Y-60760000D01*
X126500000Y-60760000D02*
X127000000Y-60760000D01*
D23*
%TO.N,VCC*%
X110440000Y-39740000D02*
X110440000Y-37200000D01*
X173740364Y-32510000D02*
X173790364Y-32560000D01*
X125500000Y-68760000D02*
X125000000Y-68760000D01*
D22*
%TO.N,/RESET*%
X164401000Y-38661000D02*
X164000000Y-38260000D01*
X162872240Y-38260000D02*
X161835000Y-37222760D01*
X163250000Y-42090000D02*
X164401000Y-40939000D01*
X161835000Y-37222760D02*
X161835000Y-27465000D01*
X161835000Y-27465000D02*
X163060000Y-26240000D01*
X164401000Y-40939000D02*
X164401000Y-38661000D01*
X164000000Y-38260000D02*
X162872240Y-38260000D01*
%TO.N,/~{CS}*%
X165540364Y-52250000D02*
X173790364Y-60500000D01*
X145250000Y-61021000D02*
X145199000Y-60970000D01*
X163250000Y-52250000D02*
X165540364Y-52250000D01*
X145199000Y-60970000D02*
X145199000Y-42811000D01*
%TO.N,/RDY*%
X121095000Y-55415000D02*
X119220000Y-53540000D01*
%TO.N,/D5*%
X166000000Y-56260000D02*
X165919000Y-56179000D01*
X165919000Y-56179000D02*
X162773240Y-56179000D01*
X162099000Y-56853240D02*
X162099000Y-63799000D01*
X162773240Y-56179000D02*
X162099000Y-56853240D01*
X162099000Y-63799000D02*
X163250000Y-64950000D01*
%TO.N,/PHI2*%
X116400000Y-52410000D02*
X116400000Y-41400000D01*
X120125000Y-56135000D02*
X116400000Y-52410000D01*
X118060000Y-39740000D02*
X120630000Y-39740000D01*
X120630000Y-39740000D02*
X128190000Y-32180000D01*
X116400000Y-41400000D02*
X118060000Y-39740000D01*
%TO.N,/A0*%
X164500000Y-45880000D02*
X164500000Y-49460000D01*
X164500000Y-49460000D02*
X173000000Y-57960000D01*
X163250000Y-44630000D02*
X164500000Y-45880000D01*
%TO.N,/R{slash}~{W}*%
X146000000Y-66260000D02*
X146000000Y-45010000D01*
%TO.N,/~{IRQ}*%
X173790364Y-73260000D02*
X173790364Y-73200000D01*
X165250000Y-49368471D02*
X172640529Y-56759000D01*
X174991364Y-57462529D02*
X174991364Y-71999000D01*
X165250000Y-37878630D02*
X165250000Y-49368471D01*
X163250000Y-37010000D02*
X164381370Y-37010000D01*
X174287835Y-56759000D02*
X174991364Y-57462529D01*
X174991364Y-71999000D02*
X173790364Y-73200000D01*
X164381370Y-37010000D02*
X165250000Y-37878630D01*
X172640529Y-56759000D02*
X174287835Y-56759000D01*
%TO.N,/~{RESET}*%
X131750000Y-55760000D02*
X131750000Y-43360000D01*
X131750000Y-43360000D02*
X128190000Y-39800000D01*
D23*
%TO.N,Net-(U1-VDD)*%
X164501000Y-58581000D02*
X164501000Y-76045508D01*
X164501000Y-76045508D02*
X162283931Y-78262577D01*
X163250000Y-57330000D02*
X164501000Y-58581000D01*
D22*
%TO.N,Net-(U1-CLK)*%
X153000000Y-71040000D02*
X158750000Y-65290000D01*
X158750000Y-65290000D02*
X158750000Y-44050000D01*
X158750000Y-44050000D02*
X163250000Y-39550000D01*
%TO.N,/~{PAUSE}*%
X144600000Y-63561000D02*
X144550000Y-63561000D01*
X144400000Y-63411000D02*
X144400000Y-44910000D01*
X144550000Y-63561000D02*
X144400000Y-63411000D01*
X144400000Y-44910000D02*
X144250000Y-44760000D01*
%TO.N,/~{WR}*%
X143600000Y-63910000D02*
X137099000Y-70411000D01*
X143600000Y-58719000D02*
X143600000Y-63910000D01*
X111769000Y-70411000D02*
X110380000Y-71800000D01*
X137099000Y-70411000D02*
X111769000Y-70411000D01*
%TO.N,Net-(D1-K)*%
X110250000Y-53450000D02*
X111591000Y-52109000D01*
X111591000Y-45971000D02*
X110440000Y-44820000D01*
X111591000Y-52109000D02*
X111591000Y-45971000D01*
%TD*%
%TA.AperFunction,Conductor*%
%TO.N,GND*%
G36*
X177067132Y-20558384D02*
G01*
X177451203Y-20575149D01*
X177461976Y-20576091D01*
X177840431Y-20625912D01*
X177851038Y-20627782D01*
X178223731Y-20710403D01*
X178234168Y-20713200D01*
X178346902Y-20748744D01*
X178598211Y-20827980D01*
X178608376Y-20831680D01*
X178669066Y-20856818D01*
X178961029Y-20977751D01*
X178970809Y-20982311D01*
X179309401Y-21158569D01*
X179318766Y-21163975D01*
X179640700Y-21369069D01*
X179649561Y-21375274D01*
X179952386Y-21607640D01*
X179960673Y-21614594D01*
X180242091Y-21872466D01*
X180249735Y-21880109D01*
X180507618Y-22161541D01*
X180514571Y-22169828D01*
X180746931Y-22472646D01*
X180753136Y-22481507D01*
X180958226Y-22803438D01*
X180963635Y-22812807D01*
X181139887Y-23151387D01*
X181144449Y-23161170D01*
X181290526Y-23513840D01*
X181294222Y-23523996D01*
X181409000Y-23888036D01*
X181411800Y-23898485D01*
X181494414Y-24271145D01*
X181496292Y-24281800D01*
X181546108Y-24660233D01*
X181547051Y-24671009D01*
X181563825Y-25055307D01*
X181563943Y-25060674D01*
X181563943Y-25063492D01*
X181563943Y-25123652D01*
X181563963Y-25123730D01*
X181563966Y-25131668D01*
X181563966Y-25131670D01*
X181581727Y-82519517D01*
X181581609Y-82524962D01*
X181564846Y-82908991D01*
X181563903Y-82919767D01*
X181514087Y-83298200D01*
X181512209Y-83308855D01*
X181429595Y-83681515D01*
X181426795Y-83691964D01*
X181312016Y-84056003D01*
X181308316Y-84066168D01*
X181162251Y-84418809D01*
X181157680Y-84428613D01*
X180981428Y-84767194D01*
X180976019Y-84776563D01*
X180770928Y-85098493D01*
X180764723Y-85107354D01*
X180532358Y-85410180D01*
X180525404Y-85418467D01*
X180267531Y-85699886D01*
X180259882Y-85707535D01*
X179978464Y-85965407D01*
X179970177Y-85972361D01*
X179667352Y-86204726D01*
X179658490Y-86210931D01*
X179336558Y-86416021D01*
X179327190Y-86421430D01*
X178988609Y-86597682D01*
X178978805Y-86602253D01*
X178626161Y-86748320D01*
X178615995Y-86752020D01*
X178251961Y-86866795D01*
X178241512Y-86869595D01*
X177868849Y-86952208D01*
X177858196Y-86954086D01*
X177479763Y-87003903D01*
X177468986Y-87004846D01*
X177084863Y-87021613D01*
X177079425Y-87021731D01*
X105073962Y-87003983D01*
X105073962Y-87003982D01*
X105065945Y-87003980D01*
X105065891Y-87003966D01*
X105002675Y-87003966D01*
X105002672Y-87003965D01*
X104997296Y-87003848D01*
X104613249Y-86987080D01*
X104602474Y-86986137D01*
X104514353Y-86974535D01*
X104224045Y-86936315D01*
X104213393Y-86934437D01*
X103840731Y-86851820D01*
X103830281Y-86849020D01*
X103466246Y-86734239D01*
X103456081Y-86730539D01*
X103103434Y-86584467D01*
X103093630Y-86579895D01*
X102755065Y-86403648D01*
X102745697Y-86398240D01*
X102423770Y-86193150D01*
X102414908Y-86186945D01*
X102112081Y-85954576D01*
X102103794Y-85947622D01*
X101822377Y-85689749D01*
X101814728Y-85682100D01*
X101556852Y-85400675D01*
X101549899Y-85392388D01*
X101456392Y-85270527D01*
X101317532Y-85089560D01*
X101311335Y-85080709D01*
X101106246Y-84758779D01*
X101100838Y-84749412D01*
X100924586Y-84410833D01*
X100920027Y-84401059D01*
X100773944Y-84048375D01*
X100770250Y-84038224D01*
X100744714Y-83957235D01*
X100655466Y-83674171D01*
X100652675Y-83663757D01*
X100570053Y-83291065D01*
X100568180Y-83280434D01*
X100518359Y-82901994D01*
X100517417Y-82891219D01*
X100500617Y-82506366D01*
X100500499Y-82500956D01*
X100500500Y-82438577D01*
X100500499Y-82438573D01*
X100500499Y-63579983D01*
X109079500Y-63579983D01*
X109079500Y-64780001D01*
X109079501Y-64780018D01*
X109090000Y-64882796D01*
X109090001Y-64882799D01*
X109145185Y-65049331D01*
X109145187Y-65049336D01*
X109149836Y-65056873D01*
X109237288Y-65198656D01*
X109361344Y-65322712D01*
X109510666Y-65414814D01*
X109592570Y-65441954D01*
X109650015Y-65481727D01*
X109676838Y-65546243D01*
X109664523Y-65615018D01*
X109626451Y-65659978D01*
X109532787Y-65728028D01*
X109532782Y-65728032D01*
X109388028Y-65872786D01*
X109267715Y-66038386D01*
X109174781Y-66220776D01*
X109111522Y-66415465D01*
X109080695Y-66610104D01*
X109079500Y-66617648D01*
X109079500Y-66822352D01*
X109081351Y-66834038D01*
X109111522Y-67024534D01*
X109174781Y-67219223D01*
X109267715Y-67401613D01*
X109388028Y-67567213D01*
X109532786Y-67711971D01*
X109687749Y-67824556D01*
X109698390Y-67832287D01*
X109789840Y-67878883D01*
X109791080Y-67879515D01*
X109841876Y-67927490D01*
X109858671Y-67995311D01*
X109836134Y-68061446D01*
X109791080Y-68100485D01*
X109698386Y-68147715D01*
X109532786Y-68268028D01*
X109388028Y-68412786D01*
X109267715Y-68578386D01*
X109174781Y-68760776D01*
X109111522Y-68955465D01*
X109083445Y-69132741D01*
X109079500Y-69157648D01*
X109079500Y-69362352D01*
X109082838Y-69383425D01*
X109111522Y-69564534D01*
X109174781Y-69759223D01*
X109267715Y-69941613D01*
X109388028Y-70107213D01*
X109532786Y-70251971D01*
X109687749Y-70364556D01*
X109698390Y-70372287D01*
X109789840Y-70418883D01*
X109791080Y-70419515D01*
X109841876Y-70467490D01*
X109858671Y-70535311D01*
X109836134Y-70601446D01*
X109791080Y-70640485D01*
X109698386Y-70687715D01*
X109532786Y-70808028D01*
X109388028Y-70952786D01*
X109267715Y-71118386D01*
X109174781Y-71300776D01*
X109111522Y-71495465D01*
X109079500Y-71697648D01*
X109079500Y-71902351D01*
X109111522Y-72104534D01*
X109174781Y-72299223D01*
X109232643Y-72412781D01*
X109264223Y-72474761D01*
X109267715Y-72481613D01*
X109388028Y-72647213D01*
X109532786Y-72791971D01*
X109687749Y-72904556D01*
X109698390Y-72912287D01*
X109789840Y-72958883D01*
X109791080Y-72959515D01*
X109841876Y-73007490D01*
X109858671Y-73075311D01*
X109836134Y-73141446D01*
X109791080Y-73180485D01*
X109698386Y-73227715D01*
X109532786Y-73348028D01*
X109388028Y-73492786D01*
X109267715Y-73658386D01*
X109174781Y-73840776D01*
X109111522Y-74035465D01*
X109079500Y-74237648D01*
X109079500Y-74442351D01*
X109111522Y-74644534D01*
X109174781Y-74839223D01*
X109238691Y-74964653D01*
X109264223Y-75014761D01*
X109267715Y-75021613D01*
X109388028Y-75187213D01*
X109532786Y-75331971D01*
X109698385Y-75452284D01*
X109698387Y-75452285D01*
X109698390Y-75452287D01*
X109791080Y-75499515D01*
X109791630Y-75499795D01*
X109842426Y-75547770D01*
X109859221Y-75615591D01*
X109836684Y-75681725D01*
X109791630Y-75720765D01*
X109698644Y-75768143D01*
X109654077Y-75800523D01*
X109654077Y-75800524D01*
X110333554Y-76480000D01*
X110327339Y-76480000D01*
X110225606Y-76507259D01*
X110134394Y-76559920D01*
X110059920Y-76634394D01*
X110007259Y-76725606D01*
X109980000Y-76827339D01*
X109980000Y-76833553D01*
X109300524Y-76154077D01*
X109300523Y-76154077D01*
X109268143Y-76198644D01*
X109175244Y-76380968D01*
X109112009Y-76575582D01*
X109080000Y-76777682D01*
X109080000Y-76982317D01*
X109112009Y-77184417D01*
X109175244Y-77379031D01*
X109268141Y-77561350D01*
X109268147Y-77561359D01*
X109300523Y-77605921D01*
X109300524Y-77605922D01*
X109980000Y-76926446D01*
X109980000Y-76932661D01*
X110007259Y-77034394D01*
X110059920Y-77125606D01*
X110134394Y-77200080D01*
X110225606Y-77252741D01*
X110327339Y-77280000D01*
X110333553Y-77280000D01*
X109654076Y-77959474D01*
X109698650Y-77991859D01*
X109792180Y-78039515D01*
X109842976Y-78087489D01*
X109859771Y-78155310D01*
X109837234Y-78221445D01*
X109792180Y-78260485D01*
X109698644Y-78308143D01*
X109654077Y-78340523D01*
X109654077Y-78340524D01*
X110333554Y-79020000D01*
X110327339Y-79020000D01*
X110225606Y-79047259D01*
X110134394Y-79099920D01*
X110059920Y-79174394D01*
X110007259Y-79265606D01*
X109980000Y-79367339D01*
X109980000Y-79373553D01*
X109300524Y-78694077D01*
X109300523Y-78694077D01*
X109268143Y-78738644D01*
X109175244Y-78920968D01*
X109112009Y-79115582D01*
X109080000Y-79317682D01*
X109080000Y-79522317D01*
X109112009Y-79724417D01*
X109175244Y-79919031D01*
X109268141Y-80101350D01*
X109268147Y-80101359D01*
X109300523Y-80145921D01*
X109300524Y-80145922D01*
X109980000Y-79466446D01*
X109980000Y-79472661D01*
X110007259Y-79574394D01*
X110059920Y-79665606D01*
X110134394Y-79740080D01*
X110225606Y-79792741D01*
X110327339Y-79820000D01*
X110333553Y-79820000D01*
X109654076Y-80499474D01*
X109698650Y-80531859D01*
X109792180Y-80579515D01*
X109842976Y-80627489D01*
X109859771Y-80695310D01*
X109837234Y-80761445D01*
X109792180Y-80800485D01*
X109698644Y-80848143D01*
X109654077Y-80880523D01*
X109654077Y-80880524D01*
X110333554Y-81560000D01*
X110327339Y-81560000D01*
X110225606Y-81587259D01*
X110134394Y-81639920D01*
X110059920Y-81714394D01*
X110007259Y-81805606D01*
X109980000Y-81907339D01*
X109980000Y-81913553D01*
X109300524Y-81234077D01*
X109300523Y-81234077D01*
X109268143Y-81278644D01*
X109175244Y-81460968D01*
X109112009Y-81655582D01*
X109080000Y-81857682D01*
X109080000Y-82062317D01*
X109112009Y-82264417D01*
X109175244Y-82459031D01*
X109268141Y-82641350D01*
X109268147Y-82641359D01*
X109300523Y-82685921D01*
X109300524Y-82685922D01*
X109980000Y-82006446D01*
X109980000Y-82012661D01*
X110007259Y-82114394D01*
X110059920Y-82205606D01*
X110134394Y-82280080D01*
X110225606Y-82332741D01*
X110327339Y-82360000D01*
X110333553Y-82360000D01*
X109654076Y-83039474D01*
X109698650Y-83071859D01*
X109880968Y-83164755D01*
X110075582Y-83227990D01*
X110277683Y-83260000D01*
X110482317Y-83260000D01*
X110684417Y-83227990D01*
X110879031Y-83164755D01*
X111061349Y-83071859D01*
X111105921Y-83039474D01*
X110426447Y-82360000D01*
X110432661Y-82360000D01*
X110534394Y-82332741D01*
X110625606Y-82280080D01*
X110700080Y-82205606D01*
X110752741Y-82114394D01*
X110780000Y-82012661D01*
X110780000Y-82006447D01*
X111459474Y-82685921D01*
X111491859Y-82641349D01*
X111584755Y-82459031D01*
X111647990Y-82264417D01*
X111680000Y-82062317D01*
X111680000Y-81857682D01*
X111647990Y-81655582D01*
X111584755Y-81460968D01*
X111491859Y-81278650D01*
X111459474Y-81234077D01*
X111459474Y-81234076D01*
X110780000Y-81913551D01*
X110780000Y-81907339D01*
X110752741Y-81805606D01*
X110700080Y-81714394D01*
X110625606Y-81639920D01*
X110534394Y-81587259D01*
X110432661Y-81560000D01*
X110426446Y-81560000D01*
X111105922Y-80880524D01*
X111105921Y-80880523D01*
X111061359Y-80848147D01*
X111061350Y-80848141D01*
X110967819Y-80800485D01*
X110917023Y-80752511D01*
X110900228Y-80684690D01*
X110922765Y-80618555D01*
X110967820Y-80579515D01*
X111061346Y-80531861D01*
X111061347Y-80531861D01*
X111105921Y-80499474D01*
X110426447Y-79820000D01*
X110432661Y-79820000D01*
X110534394Y-79792741D01*
X110625606Y-79740080D01*
X110700080Y-79665606D01*
X110752741Y-79574394D01*
X110780000Y-79472661D01*
X110780000Y-79466447D01*
X111459474Y-80145921D01*
X111491859Y-80101349D01*
X111584755Y-79919031D01*
X111647990Y-79724417D01*
X111680000Y-79522317D01*
X111680000Y-79317682D01*
X111647990Y-79115582D01*
X111584755Y-78920968D01*
X111491859Y-78738650D01*
X111459474Y-78694077D01*
X111459474Y-78694076D01*
X110780000Y-79373551D01*
X110780000Y-79367339D01*
X110752741Y-79265606D01*
X110700080Y-79174394D01*
X110625606Y-79099920D01*
X110534394Y-79047259D01*
X110432661Y-79020000D01*
X110426446Y-79020000D01*
X111105922Y-78340524D01*
X111105921Y-78340523D01*
X111061359Y-78308147D01*
X111061350Y-78308141D01*
X110967819Y-78260485D01*
X110917023Y-78212511D01*
X110900228Y-78144690D01*
X110922765Y-78078555D01*
X110967820Y-78039515D01*
X111061346Y-77991861D01*
X111061347Y-77991861D01*
X111105921Y-77959474D01*
X110426447Y-77280000D01*
X110432661Y-77280000D01*
X110534394Y-77252741D01*
X110625606Y-77200080D01*
X110700080Y-77125606D01*
X110752741Y-77034394D01*
X110780000Y-76932661D01*
X110780000Y-76926447D01*
X111459474Y-77605921D01*
X111491859Y-77561349D01*
X111584755Y-77379031D01*
X111647990Y-77184417D01*
X111680000Y-76982317D01*
X111680000Y-76777682D01*
X111647990Y-76575582D01*
X111584755Y-76380968D01*
X111491859Y-76198650D01*
X111459474Y-76154077D01*
X111459474Y-76154076D01*
X110780000Y-76833551D01*
X110780000Y-76827339D01*
X110752741Y-76725606D01*
X110700080Y-76634394D01*
X110625606Y-76559920D01*
X110534394Y-76507259D01*
X110432661Y-76480000D01*
X110426446Y-76480000D01*
X111105922Y-75800524D01*
X111105921Y-75800523D01*
X111061359Y-75768147D01*
X111061350Y-75768141D01*
X110968369Y-75720765D01*
X110917573Y-75672790D01*
X110900778Y-75604969D01*
X110923315Y-75538835D01*
X110968370Y-75499795D01*
X110968920Y-75499515D01*
X111061610Y-75452287D01*
X111152233Y-75386446D01*
X111227213Y-75331971D01*
X111227215Y-75331968D01*
X111227219Y-75331966D01*
X111371966Y-75187219D01*
X111371968Y-75187215D01*
X111371971Y-75187213D01*
X111428322Y-75109651D01*
X111492287Y-75021610D01*
X111585220Y-74839219D01*
X111648477Y-74644534D01*
X111680500Y-74442352D01*
X111680500Y-74237648D01*
X111648477Y-74035466D01*
X111585220Y-73840781D01*
X111585218Y-73840778D01*
X111585218Y-73840776D01*
X111533465Y-73739207D01*
X111492287Y-73658390D01*
X111484556Y-73647749D01*
X111371971Y-73492786D01*
X111227213Y-73348028D01*
X111061614Y-73227715D01*
X111055006Y-73224348D01*
X110968917Y-73180483D01*
X110918123Y-73132511D01*
X110901328Y-73064690D01*
X110923865Y-72998555D01*
X110968917Y-72959516D01*
X111061610Y-72912287D01*
X111100874Y-72883760D01*
X111227213Y-72791971D01*
X111227215Y-72791968D01*
X111227219Y-72791966D01*
X111371966Y-72647219D01*
X111371968Y-72647215D01*
X111371971Y-72647213D01*
X111428322Y-72569651D01*
X111492287Y-72481610D01*
X111585220Y-72299219D01*
X111648477Y-72104534D01*
X111680500Y-71902352D01*
X111680500Y-71697648D01*
X111652345Y-71519887D01*
X111661300Y-71450594D01*
X111687137Y-71412808D01*
X112002127Y-71097819D01*
X112063450Y-71064334D01*
X112089808Y-71061500D01*
X116714350Y-71061500D01*
X116781389Y-71081185D01*
X116827144Y-71133989D01*
X116837088Y-71203147D01*
X116824835Y-71241795D01*
X116794781Y-71300776D01*
X116731522Y-71495465D01*
X116699500Y-71697648D01*
X116699500Y-71902351D01*
X116731522Y-72104534D01*
X116794781Y-72299223D01*
X116852643Y-72412781D01*
X116884223Y-72474761D01*
X116887715Y-72481613D01*
X117008028Y-72647213D01*
X117152786Y-72791971D01*
X117307749Y-72904556D01*
X117318390Y-72912287D01*
X117409840Y-72958883D01*
X117411080Y-72959515D01*
X117461876Y-73007490D01*
X117478671Y-73075311D01*
X117456134Y-73141446D01*
X117411080Y-73180485D01*
X117318386Y-73227715D01*
X117152786Y-73348028D01*
X117008028Y-73492786D01*
X116887715Y-73658386D01*
X116794781Y-73840776D01*
X116731522Y-74035465D01*
X116699500Y-74237648D01*
X116699500Y-74442351D01*
X116731522Y-74644534D01*
X116794781Y-74839223D01*
X116858691Y-74964653D01*
X116884223Y-75014761D01*
X116887715Y-75021613D01*
X117008028Y-75187213D01*
X117152786Y-75331971D01*
X117291834Y-75432993D01*
X117318390Y-75452287D01*
X117409840Y-75498883D01*
X117411080Y-75499515D01*
X117461876Y-75547490D01*
X117478671Y-75615311D01*
X117456134Y-75681446D01*
X117411080Y-75720485D01*
X117318386Y-75767715D01*
X117152786Y-75888028D01*
X117008028Y-76032786D01*
X116887715Y-76198386D01*
X116794781Y-76380776D01*
X116731522Y-76575465D01*
X116699500Y-76777648D01*
X116699500Y-76982351D01*
X116731522Y-77184534D01*
X116794781Y-77379223D01*
X116858691Y-77504653D01*
X116887585Y-77561359D01*
X116887715Y-77561613D01*
X117008028Y-77727213D01*
X117152786Y-77871971D01*
X117318385Y-77992284D01*
X117318387Y-77992285D01*
X117318390Y-77992287D01*
X117411080Y-78039515D01*
X117411630Y-78039795D01*
X117462426Y-78087770D01*
X117479221Y-78155591D01*
X117456684Y-78221725D01*
X117411630Y-78260765D01*
X117318644Y-78308143D01*
X117274077Y-78340523D01*
X117274077Y-78340524D01*
X117953554Y-79020000D01*
X117947339Y-79020000D01*
X117845606Y-79047259D01*
X117754394Y-79099920D01*
X117679920Y-79174394D01*
X117627259Y-79265606D01*
X117600000Y-79367339D01*
X117600000Y-79373553D01*
X116920524Y-78694077D01*
X116920523Y-78694077D01*
X116888143Y-78738644D01*
X116795244Y-78920968D01*
X116732009Y-79115582D01*
X116700000Y-79317682D01*
X116700000Y-79522317D01*
X116732009Y-79724417D01*
X116795244Y-79919031D01*
X116888141Y-80101350D01*
X116888147Y-80101359D01*
X116920523Y-80145921D01*
X116920524Y-80145922D01*
X117600000Y-79466446D01*
X117600000Y-79472661D01*
X117627259Y-79574394D01*
X117679920Y-79665606D01*
X117754394Y-79740080D01*
X117845606Y-79792741D01*
X117947339Y-79820000D01*
X117953553Y-79820000D01*
X117274076Y-80499474D01*
X117318650Y-80531859D01*
X117412180Y-80579515D01*
X117462976Y-80627489D01*
X117479771Y-80695310D01*
X117457234Y-80761445D01*
X117412180Y-80800485D01*
X117318644Y-80848143D01*
X117274077Y-80880523D01*
X117274077Y-80880524D01*
X117953554Y-81560000D01*
X117947339Y-81560000D01*
X117845606Y-81587259D01*
X117754394Y-81639920D01*
X117679920Y-81714394D01*
X117627259Y-81805606D01*
X117600000Y-81907339D01*
X117600000Y-81913553D01*
X116920524Y-81234077D01*
X116920523Y-81234077D01*
X116888143Y-81278644D01*
X116795244Y-81460968D01*
X116732009Y-81655582D01*
X116700000Y-81857682D01*
X116700000Y-82062317D01*
X116732009Y-82264417D01*
X116795244Y-82459031D01*
X116888141Y-82641350D01*
X116888147Y-82641359D01*
X116920523Y-82685921D01*
X116920524Y-82685922D01*
X117600000Y-82006446D01*
X117600000Y-82012661D01*
X117627259Y-82114394D01*
X117679920Y-82205606D01*
X117754394Y-82280080D01*
X117845606Y-82332741D01*
X117947339Y-82360000D01*
X117953553Y-82360000D01*
X117274076Y-83039474D01*
X117318650Y-83071859D01*
X117500968Y-83164755D01*
X117695582Y-83227990D01*
X117897683Y-83260000D01*
X118102317Y-83260000D01*
X118304417Y-83227990D01*
X118499031Y-83164755D01*
X118681349Y-83071859D01*
X118725921Y-83039474D01*
X118046447Y-82360000D01*
X118052661Y-82360000D01*
X118154394Y-82332741D01*
X118245606Y-82280080D01*
X118320080Y-82205606D01*
X118372741Y-82114394D01*
X118400000Y-82012661D01*
X118400000Y-82006448D01*
X119079474Y-82685922D01*
X119079474Y-82685921D01*
X119111859Y-82641349D01*
X119204755Y-82459031D01*
X119267990Y-82264417D01*
X119300000Y-82062317D01*
X119300000Y-81857682D01*
X119267990Y-81655582D01*
X119204755Y-81460968D01*
X119111859Y-81278650D01*
X119079474Y-81234077D01*
X119079474Y-81234076D01*
X118400000Y-81913551D01*
X118400000Y-81907339D01*
X118372741Y-81805606D01*
X118320080Y-81714394D01*
X118245606Y-81639920D01*
X118154394Y-81587259D01*
X118052661Y-81560000D01*
X118046446Y-81560000D01*
X118725922Y-80880524D01*
X118725921Y-80880523D01*
X118681359Y-80848147D01*
X118681350Y-80848141D01*
X118587819Y-80800485D01*
X118537023Y-80752511D01*
X118520228Y-80684690D01*
X118542765Y-80618555D01*
X118587820Y-80579515D01*
X118681346Y-80531861D01*
X118681347Y-80531861D01*
X118725921Y-80499474D01*
X118046447Y-79820000D01*
X118052661Y-79820000D01*
X118154394Y-79792741D01*
X118245606Y-79740080D01*
X118320080Y-79665606D01*
X118372741Y-79574394D01*
X118400000Y-79472661D01*
X118400000Y-79466448D01*
X119079474Y-80145922D01*
X119079474Y-80145921D01*
X119111859Y-80101349D01*
X119147126Y-80032135D01*
X125829500Y-80032135D01*
X125829500Y-81727870D01*
X125829501Y-81727876D01*
X125835908Y-81787483D01*
X125886202Y-81922328D01*
X125886206Y-81922335D01*
X125972452Y-82037544D01*
X125972455Y-82037547D01*
X126087664Y-82123793D01*
X126087671Y-82123797D01*
X126222517Y-82174091D01*
X126222516Y-82174091D01*
X126229444Y-82174835D01*
X126282127Y-82180500D01*
X127977872Y-82180499D01*
X128037483Y-82174091D01*
X128172331Y-82123796D01*
X128287546Y-82037546D01*
X128373796Y-81922331D01*
X128384113Y-81894670D01*
X128393732Y-81868881D01*
X128393733Y-81868879D01*
X128424090Y-81787485D01*
X128424091Y-81787483D01*
X128430500Y-81727873D01*
X128430499Y-80777682D01*
X133450000Y-80777682D01*
X133450000Y-80982317D01*
X133482009Y-81184417D01*
X133545244Y-81379031D01*
X133638141Y-81561350D01*
X133638147Y-81561359D01*
X133670523Y-81605921D01*
X133670524Y-81605922D01*
X134350000Y-80926446D01*
X134350000Y-80932661D01*
X134377259Y-81034394D01*
X134429920Y-81125606D01*
X134504394Y-81200080D01*
X134595606Y-81252741D01*
X134697339Y-81280000D01*
X134703553Y-81280000D01*
X134024076Y-81959474D01*
X134068650Y-81991859D01*
X134250968Y-82084755D01*
X134445582Y-82147990D01*
X134647683Y-82180000D01*
X134852317Y-82180000D01*
X135054417Y-82147990D01*
X135249031Y-82084755D01*
X135431349Y-81991859D01*
X135475921Y-81959474D01*
X134796447Y-81280000D01*
X134802661Y-81280000D01*
X134904394Y-81252741D01*
X134995606Y-81200080D01*
X135070080Y-81125606D01*
X135122741Y-81034394D01*
X135150000Y-80932661D01*
X135150000Y-80926448D01*
X135829474Y-81605922D01*
X135829474Y-81605921D01*
X135861859Y-81561349D01*
X135954755Y-81379031D01*
X136017990Y-81184417D01*
X136050000Y-80982315D01*
X136050000Y-80777682D01*
X136017990Y-80575582D01*
X135954755Y-80380968D01*
X135861859Y-80198650D01*
X135829474Y-80154077D01*
X135829474Y-80154076D01*
X135150000Y-80833551D01*
X135150000Y-80827339D01*
X135122741Y-80725606D01*
X135070080Y-80634394D01*
X134995606Y-80559920D01*
X134904394Y-80507259D01*
X134802661Y-80480000D01*
X134796446Y-80480000D01*
X135475922Y-79800524D01*
X135475921Y-79800523D01*
X135431359Y-79768147D01*
X135431350Y-79768141D01*
X135249031Y-79675244D01*
X135054417Y-79612009D01*
X134852317Y-79580000D01*
X134647683Y-79580000D01*
X134445582Y-79612009D01*
X134250968Y-79675244D01*
X134068644Y-79768143D01*
X134024077Y-79800523D01*
X134024077Y-79800524D01*
X134703554Y-80480000D01*
X134697339Y-80480000D01*
X134595606Y-80507259D01*
X134504394Y-80559920D01*
X134429920Y-80634394D01*
X134377259Y-80725606D01*
X134350000Y-80827339D01*
X134350000Y-80833553D01*
X133670524Y-80154077D01*
X133670523Y-80154077D01*
X133638143Y-80198644D01*
X133545244Y-80380968D01*
X133482009Y-80575582D01*
X133450000Y-80777682D01*
X128430499Y-80777682D01*
X128430499Y-80032128D01*
X128424091Y-79972517D01*
X128424088Y-79972509D01*
X128393731Y-79891116D01*
X128373797Y-79837671D01*
X128373793Y-79837664D01*
X128287547Y-79722455D01*
X128287544Y-79722452D01*
X128172335Y-79636206D01*
X128172328Y-79636202D01*
X128037482Y-79585908D01*
X128037483Y-79585908D01*
X127977883Y-79579501D01*
X127977881Y-79579500D01*
X127977873Y-79579500D01*
X127977864Y-79579500D01*
X126282129Y-79579500D01*
X126282123Y-79579501D01*
X126222516Y-79585908D01*
X126087671Y-79636202D01*
X126087664Y-79636206D01*
X125972455Y-79722452D01*
X125972452Y-79722455D01*
X125886206Y-79837664D01*
X125886202Y-79837671D01*
X125835908Y-79972517D01*
X125829501Y-80032116D01*
X125829501Y-80032123D01*
X125829500Y-80032135D01*
X119147126Y-80032135D01*
X119177506Y-79972511D01*
X119177507Y-79972509D01*
X119204754Y-79919034D01*
X119267990Y-79724417D01*
X119300000Y-79522317D01*
X119300000Y-79317682D01*
X119267990Y-79115582D01*
X119204755Y-78920968D01*
X119111859Y-78738650D01*
X119079474Y-78694077D01*
X119079474Y-78694076D01*
X118400000Y-79373551D01*
X118400000Y-79367339D01*
X118372741Y-79265606D01*
X118320080Y-79174394D01*
X118245606Y-79099920D01*
X118154394Y-79047259D01*
X118052661Y-79020000D01*
X118046446Y-79020000D01*
X118725922Y-78340524D01*
X118725921Y-78340523D01*
X118681359Y-78308147D01*
X118681350Y-78308141D01*
X118588369Y-78260765D01*
X118537573Y-78212790D01*
X118520778Y-78144969D01*
X118543315Y-78078835D01*
X118588370Y-78039795D01*
X118588920Y-78039515D01*
X118681610Y-77992287D01*
X118744859Y-77946334D01*
X118847213Y-77871971D01*
X118847215Y-77871968D01*
X118847219Y-77871966D01*
X118991966Y-77727219D01*
X118991968Y-77727215D01*
X118991971Y-77727213D01*
X119044732Y-77654590D01*
X119112287Y-77561610D01*
X119205220Y-77379219D01*
X119268477Y-77184534D01*
X119300500Y-76982352D01*
X119300500Y-76777648D01*
X119291422Y-76720330D01*
X119268477Y-76575465D01*
X119226916Y-76447554D01*
X119205220Y-76380781D01*
X119205218Y-76380778D01*
X119205218Y-76380776D01*
X119171503Y-76314607D01*
X119112287Y-76198390D01*
X119080092Y-76154077D01*
X118991971Y-76032786D01*
X118847213Y-75888028D01*
X118681614Y-75767715D01*
X118627218Y-75739999D01*
X118588917Y-75720483D01*
X118538123Y-75672511D01*
X118521328Y-75604690D01*
X118543865Y-75538555D01*
X118588917Y-75499516D01*
X118681610Y-75452287D01*
X118720724Y-75423869D01*
X118847213Y-75331971D01*
X118847215Y-75331968D01*
X118847219Y-75331966D01*
X118991966Y-75187219D01*
X118991968Y-75187215D01*
X118991971Y-75187213D01*
X119048322Y-75109651D01*
X119112287Y-75021610D01*
X119205220Y-74839219D01*
X119268477Y-74644534D01*
X119300500Y-74442352D01*
X119300500Y-74237648D01*
X119268477Y-74035466D01*
X119205220Y-73840781D01*
X119205218Y-73840778D01*
X119205218Y-73840776D01*
X119153465Y-73739207D01*
X119112287Y-73658390D01*
X119104556Y-73647749D01*
X118991971Y-73492786D01*
X118847219Y-73348034D01*
X118721923Y-73257002D01*
X118681610Y-73227713D01*
X118586167Y-73179082D01*
X118583487Y-73177544D01*
X118564420Y-73157648D01*
X125829500Y-73157648D01*
X125829500Y-73362351D01*
X125861522Y-73564534D01*
X125924781Y-73759223D01*
X126017715Y-73941613D01*
X126138028Y-74107213D01*
X126282786Y-74251971D01*
X126406828Y-74342091D01*
X126448390Y-74372287D01*
X126564607Y-74431503D01*
X126630776Y-74465218D01*
X126630778Y-74465218D01*
X126630781Y-74465220D01*
X126735137Y-74499127D01*
X126825465Y-74528477D01*
X126909090Y-74541722D01*
X127027648Y-74560500D01*
X127027649Y-74560500D01*
X127232351Y-74560500D01*
X127232352Y-74560500D01*
X127434534Y-74528477D01*
X127629219Y-74465220D01*
X127811610Y-74372287D01*
X127904590Y-74304732D01*
X127977213Y-74251971D01*
X127977215Y-74251968D01*
X127977219Y-74251966D01*
X128121966Y-74107219D01*
X128121968Y-74107215D01*
X128121971Y-74107213D01*
X128174732Y-74034590D01*
X128242287Y-73941610D01*
X128335220Y-73759219D01*
X128398477Y-73564534D01*
X128430500Y-73362352D01*
X128430500Y-73157648D01*
X133449500Y-73157648D01*
X133449500Y-73362351D01*
X133481522Y-73564534D01*
X133544781Y-73759223D01*
X133637715Y-73941613D01*
X133758028Y-74107213D01*
X133902786Y-74251971D01*
X134026828Y-74342091D01*
X134068390Y-74372287D01*
X134184607Y-74431503D01*
X134250776Y-74465218D01*
X134250778Y-74465218D01*
X134250781Y-74465220D01*
X134355137Y-74499127D01*
X134445465Y-74528477D01*
X134529090Y-74541722D01*
X134647648Y-74560500D01*
X134647649Y-74560500D01*
X134852351Y-74560500D01*
X134852352Y-74560500D01*
X135054534Y-74528477D01*
X135249219Y-74465220D01*
X135431610Y-74372287D01*
X135524590Y-74304732D01*
X135597213Y-74251971D01*
X135597215Y-74251968D01*
X135597219Y-74251966D01*
X135741966Y-74107219D01*
X135741968Y-74107215D01*
X135741971Y-74107213D01*
X135794732Y-74034590D01*
X135862287Y-73941610D01*
X135955220Y-73759219D01*
X136018477Y-73564534D01*
X136050500Y-73362352D01*
X136050500Y-73157648D01*
X136036618Y-73070000D01*
X136018477Y-72955465D01*
X135965354Y-72791971D01*
X135955220Y-72760781D01*
X135955218Y-72760778D01*
X135955218Y-72760776D01*
X135914869Y-72681588D01*
X135862287Y-72578390D01*
X135854556Y-72567749D01*
X135741971Y-72412786D01*
X135597213Y-72268028D01*
X135431613Y-72147715D01*
X135431612Y-72147714D01*
X135431610Y-72147713D01*
X135346867Y-72104534D01*
X135249223Y-72054781D01*
X135054534Y-71991522D01*
X134879995Y-71963878D01*
X134852352Y-71959500D01*
X134647648Y-71959500D01*
X134623329Y-71963351D01*
X134445465Y-71991522D01*
X134250776Y-72054781D01*
X134068386Y-72147715D01*
X133902786Y-72268028D01*
X133758028Y-72412786D01*
X133637715Y-72578386D01*
X133544781Y-72760776D01*
X133481522Y-72955465D01*
X133449500Y-73157648D01*
X128430500Y-73157648D01*
X128416618Y-73070000D01*
X128398477Y-72955465D01*
X128345354Y-72791971D01*
X128335220Y-72760781D01*
X128335218Y-72760778D01*
X128335218Y-72760776D01*
X128294869Y-72681588D01*
X128242287Y-72578390D01*
X128234556Y-72567749D01*
X128121971Y-72412786D01*
X127977213Y-72268028D01*
X127811613Y-72147715D01*
X127811612Y-72147714D01*
X127811610Y-72147713D01*
X127726867Y-72104534D01*
X127629223Y-72054781D01*
X127434534Y-71991522D01*
X127259995Y-71963878D01*
X127232352Y-71959500D01*
X127027648Y-71959500D01*
X127003329Y-71963351D01*
X126825465Y-71991522D01*
X126630776Y-72054781D01*
X126448386Y-72147715D01*
X126282786Y-72268028D01*
X126138028Y-72412786D01*
X126017715Y-72578386D01*
X125924781Y-72760776D01*
X125861522Y-72955465D01*
X125829500Y-73157648D01*
X118564420Y-73157648D01*
X118561372Y-73154468D01*
X118538123Y-73132511D01*
X118537354Y-73129407D01*
X118535143Y-73127100D01*
X118529013Y-73095724D01*
X118521328Y-73064690D01*
X118522359Y-73061664D01*
X118521746Y-73058526D01*
X118533554Y-73028812D01*
X118543865Y-72998555D01*
X118546478Y-72996290D01*
X118547549Y-72993596D01*
X118559281Y-72985195D01*
X118588917Y-72959516D01*
X118681610Y-72912287D01*
X118720874Y-72883760D01*
X118847213Y-72791971D01*
X118847215Y-72791968D01*
X118847219Y-72791966D01*
X118991966Y-72647219D01*
X118991968Y-72647215D01*
X118991971Y-72647213D01*
X119048322Y-72569651D01*
X119112287Y-72481610D01*
X119205220Y-72299219D01*
X119268477Y-72104534D01*
X119300500Y-71902352D01*
X119300500Y-71697648D01*
X119268477Y-71495466D01*
X119259078Y-71466540D01*
X119227001Y-71367816D01*
X119205220Y-71300781D01*
X119205218Y-71300778D01*
X119205218Y-71300776D01*
X119175165Y-71241795D01*
X119162269Y-71173126D01*
X119188545Y-71108386D01*
X119245651Y-71068128D01*
X119285650Y-71061500D01*
X137163071Y-71061500D01*
X137252206Y-71043769D01*
X137288744Y-71036501D01*
X137407127Y-70987465D01*
X137412856Y-70983637D01*
X137424390Y-70975931D01*
X137461246Y-70951304D01*
X152099500Y-70951304D01*
X152099500Y-71128695D01*
X152134103Y-71302658D01*
X152134106Y-71302667D01*
X152201983Y-71466540D01*
X152201990Y-71466553D01*
X152300535Y-71614034D01*
X152300538Y-71614038D01*
X152425961Y-71739461D01*
X152425965Y-71739464D01*
X152573446Y-71838009D01*
X152573459Y-71838016D01*
X152696363Y-71888923D01*
X152737334Y-71905894D01*
X152737336Y-71905894D01*
X152737341Y-71905896D01*
X152911304Y-71940499D01*
X152911307Y-71940500D01*
X152911309Y-71940500D01*
X153088693Y-71940500D01*
X153088694Y-71940499D01*
X153146682Y-71928964D01*
X153262658Y-71905896D01*
X153262661Y-71905894D01*
X153262666Y-71905894D01*
X153426547Y-71838013D01*
X153574035Y-71739464D01*
X153699464Y-71614035D01*
X153798013Y-71466547D01*
X153865894Y-71302666D01*
X153900500Y-71128691D01*
X153900500Y-71110808D01*
X153920185Y-71043769D01*
X153936819Y-71023127D01*
X159255273Y-65704673D01*
X159255277Y-65704669D01*
X159326465Y-65598127D01*
X159375501Y-65479744D01*
X159380368Y-65455277D01*
X159400500Y-65354069D01*
X159400500Y-44370807D01*
X159420185Y-44303768D01*
X159436814Y-44283131D01*
X161737819Y-41982125D01*
X161799142Y-41948641D01*
X161868834Y-41953625D01*
X161924767Y-41995497D01*
X161949184Y-42060961D01*
X161949500Y-42069807D01*
X161949500Y-42192351D01*
X161981522Y-42394534D01*
X162044781Y-42589223D01*
X162137715Y-42771613D01*
X162258028Y-42937213D01*
X162402786Y-43081971D01*
X162557749Y-43194556D01*
X162568390Y-43202287D01*
X162659840Y-43248883D01*
X162661080Y-43249515D01*
X162711876Y-43297490D01*
X162728671Y-43365311D01*
X162706134Y-43431446D01*
X162661080Y-43470485D01*
X162568386Y-43517715D01*
X162402786Y-43638028D01*
X162258028Y-43782786D01*
X162137715Y-43948386D01*
X162044781Y-44130776D01*
X161981522Y-44325465D01*
X161949500Y-44527648D01*
X161949500Y-44732351D01*
X161981522Y-44934534D01*
X162044781Y-45129223D01*
X162137715Y-45311613D01*
X162258028Y-45477213D01*
X162402786Y-45621971D01*
X162557749Y-45734556D01*
X162568390Y-45742287D01*
X162644869Y-45781255D01*
X162661080Y-45789515D01*
X162711876Y-45837490D01*
X162728671Y-45905311D01*
X162706134Y-45971446D01*
X162661080Y-46010485D01*
X162568386Y-46057715D01*
X162402786Y-46178028D01*
X162258028Y-46322786D01*
X162137715Y-46488386D01*
X162044781Y-46670776D01*
X161981522Y-46865465D01*
X161949500Y-47067648D01*
X161949500Y-47272351D01*
X161981522Y-47474534D01*
X162044781Y-47669223D01*
X162137715Y-47851613D01*
X162258028Y-48017213D01*
X162402786Y-48161971D01*
X162557749Y-48274556D01*
X162568390Y-48282287D01*
X162650500Y-48324124D01*
X162661080Y-48329515D01*
X162711876Y-48377490D01*
X162728671Y-48445311D01*
X162706134Y-48511446D01*
X162661080Y-48550485D01*
X162568386Y-48597715D01*
X162402786Y-48718028D01*
X162258028Y-48862786D01*
X162137715Y-49028386D01*
X162044781Y-49210776D01*
X161981522Y-49405465D01*
X161949500Y-49607648D01*
X161949500Y-49812351D01*
X161981522Y-50014534D01*
X162044781Y-50209223D01*
X162096197Y-50310130D01*
X162117384Y-50351713D01*
X162137715Y-50391613D01*
X162258028Y-50557213D01*
X162402786Y-50701971D01*
X162557749Y-50814556D01*
X162568390Y-50822287D01*
X162659840Y-50868883D01*
X162661080Y-50869515D01*
X162711876Y-50917490D01*
X162728671Y-50985311D01*
X162706134Y-51051446D01*
X162661080Y-51090485D01*
X162568386Y-51137715D01*
X162402786Y-51258028D01*
X162258028Y-51402786D01*
X162137715Y-51568386D01*
X162044781Y-51750776D01*
X161981522Y-51945465D01*
X161949500Y-52147648D01*
X161949500Y-52352351D01*
X161981522Y-52554534D01*
X162044781Y-52749223D01*
X162137715Y-52931613D01*
X162258028Y-53097213D01*
X162402786Y-53241971D01*
X162557749Y-53354556D01*
X162568390Y-53362287D01*
X162659840Y-53408883D01*
X162661080Y-53409515D01*
X162711876Y-53457490D01*
X162728671Y-53525311D01*
X162706134Y-53591446D01*
X162661080Y-53630485D01*
X162568386Y-53677715D01*
X162402786Y-53798028D01*
X162258028Y-53942786D01*
X162137715Y-54108386D01*
X162044781Y-54290776D01*
X161981522Y-54485465D01*
X161949500Y-54687648D01*
X161949500Y-54892351D01*
X161981522Y-55094534D01*
X162044781Y-55289223D01*
X162096197Y-55390130D01*
X162132811Y-55461990D01*
X162137715Y-55471613D01*
X162253451Y-55630912D01*
X162276931Y-55696718D01*
X162261105Y-55764772D01*
X162240814Y-55791478D01*
X161593726Y-56438566D01*
X161522534Y-56545114D01*
X161473499Y-56663495D01*
X161473497Y-56663501D01*
X161448500Y-56789168D01*
X161448500Y-56789171D01*
X161448500Y-63863069D01*
X161459783Y-63919792D01*
X161461144Y-63926631D01*
X161461144Y-63926633D01*
X161473497Y-63988736D01*
X161473499Y-63988744D01*
X161507201Y-64070109D01*
X161522535Y-64107127D01*
X161590628Y-64209037D01*
X161593726Y-64213673D01*
X161942862Y-64562809D01*
X161976347Y-64624132D01*
X161977654Y-64669888D01*
X161949500Y-64847648D01*
X161949500Y-65052351D01*
X161981522Y-65254534D01*
X162044781Y-65449223D01*
X162137715Y-65631613D01*
X162258028Y-65797213D01*
X162402786Y-65941971D01*
X162535493Y-66038386D01*
X162568390Y-66062287D01*
X162684607Y-66121503D01*
X162750776Y-66155218D01*
X162750778Y-66155218D01*
X162750781Y-66155220D01*
X162800289Y-66171306D01*
X162945465Y-66218477D01*
X163046557Y-66234488D01*
X163147648Y-66250500D01*
X163147649Y-66250500D01*
X163352351Y-66250500D01*
X163352352Y-66250500D01*
X163554534Y-66218477D01*
X163554539Y-66218475D01*
X163554541Y-66218475D01*
X163588180Y-66207545D01*
X163658021Y-66205548D01*
X163717854Y-66241628D01*
X163748684Y-66304328D01*
X163750500Y-66325475D01*
X163750500Y-72569651D01*
X163730815Y-72636690D01*
X163678011Y-72682445D01*
X163608853Y-72692389D01*
X163545297Y-72663364D01*
X163516015Y-72625946D01*
X163447859Y-72492184D01*
X163438982Y-72474761D01*
X163394601Y-72413675D01*
X163314040Y-72302790D01*
X163163717Y-72152467D01*
X162991751Y-72027528D01*
X162802345Y-71931021D01*
X162802344Y-71931020D01*
X162802343Y-71931020D01*
X162600174Y-71865331D01*
X162600172Y-71865330D01*
X162600171Y-71865330D01*
X162427671Y-71838009D01*
X162390218Y-71832077D01*
X162177644Y-71832077D01*
X162140191Y-71838009D01*
X161967691Y-71865330D01*
X161765516Y-71931021D01*
X161576110Y-72027528D01*
X161404144Y-72152467D01*
X161253821Y-72302790D01*
X161128882Y-72474756D01*
X161032375Y-72664162D01*
X160966684Y-72866337D01*
X160946102Y-72996290D01*
X160933431Y-73076290D01*
X160933431Y-73288864D01*
X160936191Y-73306287D01*
X160965728Y-73492781D01*
X160966685Y-73498820D01*
X161018531Y-73658386D01*
X161032375Y-73700991D01*
X161128882Y-73890397D01*
X161253821Y-74062363D01*
X161404144Y-74212686D01*
X161576113Y-74337627D01*
X161584877Y-74342093D01*
X161635673Y-74390068D01*
X161652467Y-74457889D01*
X161629929Y-74524024D01*
X161584877Y-74563061D01*
X161576113Y-74567526D01*
X161404144Y-74692467D01*
X161253821Y-74842790D01*
X161128882Y-75014756D01*
X161032375Y-75204162D01*
X160966684Y-75406337D01*
X160933431Y-75616290D01*
X160933431Y-75828863D01*
X160965728Y-76032781D01*
X160966685Y-76038820D01*
X161018615Y-76198644D01*
X161032375Y-76240991D01*
X161128882Y-76430397D01*
X161253821Y-76602363D01*
X161404144Y-76752686D01*
X161576113Y-76877627D01*
X161584877Y-76882093D01*
X161635673Y-76930068D01*
X161652467Y-76997889D01*
X161629929Y-77064024D01*
X161584877Y-77103061D01*
X161576113Y-77107526D01*
X161404144Y-77232467D01*
X161253821Y-77382790D01*
X161128882Y-77554756D01*
X161032375Y-77744162D01*
X160966684Y-77946337D01*
X160935268Y-78144690D01*
X160933431Y-78156290D01*
X160933431Y-78368864D01*
X160966685Y-78578820D01*
X161018615Y-78738644D01*
X161032375Y-78780991D01*
X161128882Y-78970397D01*
X161253821Y-79142363D01*
X161367749Y-79256291D01*
X161401234Y-79317614D01*
X161396250Y-79387306D01*
X161354378Y-79443239D01*
X161323402Y-79460154D01*
X161191843Y-79509223D01*
X161191837Y-79509226D01*
X161076743Y-79595386D01*
X161076740Y-79595389D01*
X160990580Y-79710483D01*
X160990576Y-79710490D01*
X160940334Y-79845197D01*
X160940332Y-79845204D01*
X160933931Y-79904732D01*
X160933931Y-80552577D01*
X161850919Y-80552577D01*
X161818006Y-80609584D01*
X161783931Y-80736751D01*
X161783931Y-80868403D01*
X161818006Y-80995570D01*
X161850919Y-81052577D01*
X160933931Y-81052577D01*
X160933931Y-81700421D01*
X160940332Y-81759949D01*
X160940334Y-81759956D01*
X160990576Y-81894663D01*
X160990580Y-81894670D01*
X161076740Y-82009764D01*
X161076743Y-82009767D01*
X161191837Y-82095927D01*
X161191844Y-82095931D01*
X161326551Y-82146173D01*
X161326558Y-82146175D01*
X161386086Y-82152576D01*
X161386103Y-82152577D01*
X162033931Y-82152577D01*
X162033931Y-81235589D01*
X162090938Y-81268502D01*
X162218105Y-81302577D01*
X162349757Y-81302577D01*
X162476924Y-81268502D01*
X162533931Y-81235589D01*
X162533931Y-82152577D01*
X163181759Y-82152577D01*
X163181775Y-82152576D01*
X163241303Y-82146175D01*
X163241310Y-82146173D01*
X163376017Y-82095931D01*
X163376024Y-82095927D01*
X163491118Y-82009767D01*
X163491121Y-82009764D01*
X163577281Y-81894670D01*
X163577285Y-81894663D01*
X163627527Y-81759956D01*
X163627529Y-81759949D01*
X163633930Y-81700421D01*
X163633931Y-81700404D01*
X163633931Y-81052577D01*
X162716943Y-81052577D01*
X162749856Y-80995570D01*
X162783931Y-80868403D01*
X162783931Y-80736751D01*
X162749856Y-80609584D01*
X162716943Y-80552577D01*
X163633931Y-80552577D01*
X163633931Y-79904749D01*
X163633930Y-79904732D01*
X163627529Y-79845204D01*
X163627527Y-79845197D01*
X163577285Y-79710490D01*
X163577281Y-79710483D01*
X163491121Y-79595389D01*
X163491118Y-79595386D01*
X163376024Y-79509226D01*
X163376019Y-79509223D01*
X163244459Y-79460154D01*
X163188526Y-79418282D01*
X163164109Y-79352818D01*
X163178961Y-79284545D01*
X163200106Y-79256297D01*
X163314035Y-79142369D01*
X163438982Y-78970393D01*
X163535488Y-78780989D01*
X163601177Y-78578820D01*
X163634431Y-78368864D01*
X163634431Y-78156290D01*
X163619313Y-78060845D01*
X163628267Y-77991556D01*
X163654102Y-77953772D01*
X164241493Y-77366382D01*
X164887547Y-76720330D01*
X165083947Y-76523929D01*
X165083948Y-76523928D01*
X165083948Y-76523927D01*
X165083952Y-76523924D01*
X165146446Y-76430393D01*
X165166084Y-76401003D01*
X165222658Y-76264421D01*
X165235793Y-76198390D01*
X165251500Y-76119428D01*
X165251500Y-58507079D01*
X165222659Y-58362092D01*
X165222658Y-58362091D01*
X165222658Y-58362087D01*
X165222656Y-58362082D01*
X165166087Y-58225511D01*
X165166080Y-58225498D01*
X165083952Y-58102585D01*
X165083951Y-58102584D01*
X164979416Y-57998049D01*
X164576473Y-57595106D01*
X164542988Y-57533783D01*
X164541681Y-57488028D01*
X164550500Y-57432352D01*
X164550500Y-57227648D01*
X164518477Y-57025466D01*
X164518475Y-57025462D01*
X164518475Y-57025457D01*
X164507545Y-56991817D01*
X164505550Y-56921976D01*
X164541631Y-56862144D01*
X164604332Y-56831316D01*
X164625476Y-56829500D01*
X165244639Y-56829500D01*
X165311678Y-56849185D01*
X165332315Y-56865814D01*
X165388477Y-56921976D01*
X165425966Y-56959465D01*
X165573446Y-57058009D01*
X165573459Y-57058016D01*
X165696363Y-57108923D01*
X165737334Y-57125894D01*
X165737336Y-57125894D01*
X165737341Y-57125896D01*
X165911304Y-57160499D01*
X165911307Y-57160500D01*
X165911309Y-57160500D01*
X166088693Y-57160500D01*
X166088694Y-57160499D01*
X166146682Y-57148964D01*
X166262658Y-57125896D01*
X166262661Y-57125894D01*
X166262666Y-57125894D01*
X166426547Y-57058013D01*
X166574035Y-56959464D01*
X166699464Y-56834035D01*
X166798013Y-56686547D01*
X166865894Y-56522666D01*
X166878467Y-56459461D01*
X166900499Y-56348695D01*
X166900500Y-56348693D01*
X166900500Y-56171306D01*
X166900499Y-56171304D01*
X166865896Y-55997341D01*
X166865893Y-55997332D01*
X166798016Y-55833459D01*
X166798009Y-55833446D01*
X166699464Y-55685965D01*
X166699461Y-55685961D01*
X166574038Y-55560538D01*
X166574034Y-55560535D01*
X166426553Y-55461990D01*
X166426540Y-55461983D01*
X166262667Y-55394106D01*
X166262658Y-55394103D01*
X166088694Y-55359500D01*
X166088691Y-55359500D01*
X165911309Y-55359500D01*
X165911306Y-55359500D01*
X165737341Y-55394103D01*
X165737332Y-55394106D01*
X165573459Y-55461983D01*
X165573452Y-55461987D01*
X165541920Y-55483056D01*
X165505184Y-55507602D01*
X165438510Y-55528480D01*
X165436295Y-55528500D01*
X164535650Y-55528500D01*
X164468611Y-55508815D01*
X164422856Y-55456011D01*
X164412912Y-55386853D01*
X164425165Y-55348205D01*
X164429842Y-55339027D01*
X164455220Y-55289219D01*
X164518477Y-55094534D01*
X164550500Y-54892352D01*
X164550500Y-54687648D01*
X164550310Y-54686446D01*
X164518477Y-54485465D01*
X164455218Y-54290776D01*
X164421503Y-54224607D01*
X164362287Y-54108390D01*
X164312248Y-54039516D01*
X164241971Y-53942786D01*
X164097213Y-53798028D01*
X163931614Y-53677715D01*
X163895894Y-53659515D01*
X163838917Y-53630483D01*
X163788123Y-53582511D01*
X163771328Y-53514690D01*
X163793865Y-53448555D01*
X163838917Y-53409516D01*
X163931610Y-53362287D01*
X164016911Y-53300313D01*
X164097213Y-53241971D01*
X164097215Y-53241968D01*
X164097219Y-53241966D01*
X164241966Y-53097219D01*
X164347753Y-52951613D01*
X164403082Y-52908949D01*
X164448071Y-52900500D01*
X165219556Y-52900500D01*
X165286595Y-52920185D01*
X165307237Y-52936819D01*
X172439706Y-60069288D01*
X172473191Y-60130611D01*
X172472683Y-60178755D01*
X172473880Y-60178945D01*
X172439864Y-60393713D01*
X172439864Y-60606286D01*
X172472550Y-60812661D01*
X172473118Y-60816243D01*
X172537361Y-61013963D01*
X172538808Y-61018414D01*
X172635315Y-61207820D01*
X172760254Y-61379786D01*
X172910577Y-61530109D01*
X173082546Y-61655050D01*
X173091310Y-61659516D01*
X173142106Y-61707491D01*
X173158900Y-61775312D01*
X173136362Y-61841447D01*
X173091310Y-61880484D01*
X173082546Y-61884949D01*
X172910577Y-62009890D01*
X172760254Y-62160213D01*
X172635315Y-62332179D01*
X172538808Y-62521585D01*
X172473117Y-62723760D01*
X172446787Y-62890001D01*
X172439864Y-62933713D01*
X172439864Y-63146287D01*
X172442249Y-63161344D01*
X172469402Y-63332786D01*
X172473118Y-63356243D01*
X172527069Y-63522287D01*
X172538808Y-63558414D01*
X172635315Y-63747820D01*
X172760254Y-63919786D01*
X172910577Y-64070109D01*
X173082546Y-64195050D01*
X173091310Y-64199516D01*
X173142106Y-64247491D01*
X173158900Y-64315312D01*
X173136362Y-64381447D01*
X173091310Y-64420484D01*
X173082546Y-64424949D01*
X172910577Y-64549890D01*
X172760254Y-64700213D01*
X172635315Y-64872179D01*
X172538808Y-65061585D01*
X172473117Y-65263760D01*
X172453880Y-65385220D01*
X172439864Y-65473713D01*
X172439864Y-65686287D01*
X172442776Y-65704673D01*
X172469402Y-65872786D01*
X172473118Y-65896243D01*
X172527069Y-66062287D01*
X172538808Y-66098414D01*
X172635315Y-66287820D01*
X172760254Y-66459786D01*
X172910577Y-66610109D01*
X173082546Y-66735050D01*
X173091310Y-66739516D01*
X173142106Y-66787491D01*
X173158900Y-66855312D01*
X173136362Y-66921447D01*
X173091310Y-66960484D01*
X173082546Y-66964949D01*
X172910577Y-67089890D01*
X172760254Y-67240213D01*
X172635315Y-67412179D01*
X172538808Y-67601585D01*
X172473117Y-67803760D01*
X172439864Y-68013713D01*
X172439864Y-68226286D01*
X172469402Y-68412786D01*
X172473118Y-68436243D01*
X172519303Y-68578386D01*
X172538808Y-68638414D01*
X172635315Y-68827820D01*
X172760254Y-68999786D01*
X172910577Y-69150109D01*
X173082546Y-69275050D01*
X173091310Y-69279516D01*
X173142106Y-69327491D01*
X173158900Y-69395312D01*
X173136362Y-69461447D01*
X173091310Y-69500484D01*
X173082546Y-69504949D01*
X172910577Y-69629890D01*
X172760254Y-69780213D01*
X172635315Y-69952179D01*
X172538808Y-70141585D01*
X172473117Y-70343760D01*
X172439864Y-70553713D01*
X172439864Y-70766286D01*
X172473068Y-70975931D01*
X172473118Y-70976243D01*
X172537089Y-71173126D01*
X172538808Y-71178414D01*
X172635315Y-71367820D01*
X172760254Y-71539786D01*
X172910577Y-71690109D01*
X173082546Y-71815050D01*
X173091310Y-71819516D01*
X173142106Y-71867491D01*
X173158900Y-71935312D01*
X173136362Y-72001447D01*
X173091310Y-72040484D01*
X173082546Y-72044949D01*
X172910577Y-72169890D01*
X172760254Y-72320213D01*
X172635315Y-72492179D01*
X172538808Y-72681585D01*
X172473117Y-72883760D01*
X172439864Y-73093713D01*
X172439864Y-73306286D01*
X172470357Y-73498816D01*
X172473118Y-73516243D01*
X172519303Y-73658386D01*
X172538808Y-73718414D01*
X172635315Y-73907820D01*
X172760254Y-74079786D01*
X172910577Y-74230109D01*
X173082543Y-74355048D01*
X173082545Y-74355049D01*
X173082548Y-74355051D01*
X173091857Y-74359794D01*
X173142654Y-74407766D01*
X173159451Y-74475587D01*
X173136916Y-74541722D01*
X173091869Y-74580760D01*
X173082810Y-74585376D01*
X173082804Y-74585380D01*
X173028646Y-74624727D01*
X173028646Y-74624728D01*
X173660955Y-75257037D01*
X173597371Y-75274075D01*
X173483357Y-75339901D01*
X173390265Y-75432993D01*
X173324439Y-75547007D01*
X173307401Y-75610591D01*
X172675092Y-74978282D01*
X172675091Y-74978282D01*
X172635744Y-75032439D01*
X172539268Y-75221782D01*
X172473606Y-75423869D01*
X172473606Y-75423872D01*
X172440364Y-75633753D01*
X172440364Y-75846246D01*
X172473606Y-76056127D01*
X172473606Y-76056130D01*
X172539268Y-76258217D01*
X172635739Y-76447550D01*
X172675092Y-76501716D01*
X173307401Y-75869408D01*
X173324439Y-75932993D01*
X173390265Y-76047007D01*
X173483357Y-76140099D01*
X173597371Y-76205925D01*
X173660954Y-76222962D01*
X173028646Y-76855269D01*
X173028646Y-76855270D01*
X173082813Y-76894624D01*
X173272146Y-76991095D01*
X173474234Y-77056757D01*
X173684118Y-77090000D01*
X173896610Y-77090000D01*
X174106491Y-77056757D01*
X174106494Y-77056757D01*
X174308581Y-76991095D01*
X174497918Y-76894622D01*
X174552080Y-76855270D01*
X174552081Y-76855270D01*
X173919772Y-76222962D01*
X173983357Y-76205925D01*
X174097371Y-76140099D01*
X174190463Y-76047007D01*
X174256289Y-75932993D01*
X174273326Y-75869408D01*
X174905634Y-76501717D01*
X174905634Y-76501716D01*
X174944986Y-76447554D01*
X175041459Y-76258217D01*
X175107121Y-76056130D01*
X175107121Y-76056127D01*
X175140364Y-75846246D01*
X175140364Y-75633753D01*
X175107121Y-75423872D01*
X175107121Y-75423869D01*
X175041459Y-75221782D01*
X174944988Y-75032449D01*
X174905634Y-74978282D01*
X174905633Y-74978282D01*
X174273326Y-75610590D01*
X174256289Y-75547007D01*
X174190463Y-75432993D01*
X174097371Y-75339901D01*
X173983357Y-75274075D01*
X173919773Y-75257037D01*
X174552080Y-74624728D01*
X174497911Y-74585373D01*
X174497911Y-74585372D01*
X174488864Y-74580763D01*
X174438070Y-74532788D01*
X174421276Y-74464966D01*
X174443815Y-74398832D01*
X174488872Y-74359793D01*
X174498180Y-74355051D01*
X174577371Y-74297515D01*
X174670150Y-74230109D01*
X174670152Y-74230106D01*
X174670156Y-74230104D01*
X174820468Y-74079792D01*
X174820470Y-74079788D01*
X174820473Y-74079786D01*
X174945412Y-73907820D01*
X174945411Y-73907820D01*
X174945415Y-73907816D01*
X175041921Y-73718412D01*
X175107610Y-73516243D01*
X175140864Y-73306287D01*
X175140864Y-73093713D01*
X175112128Y-72912284D01*
X175106848Y-72878945D01*
X175108490Y-72878684D01*
X175111618Y-72816137D01*
X175141021Y-72769288D01*
X175496635Y-72413675D01*
X175496635Y-72413674D01*
X175496640Y-72413670D01*
X175532234Y-72360398D01*
X175567828Y-72307129D01*
X175569625Y-72302790D01*
X175616865Y-72188744D01*
X175624080Y-72152473D01*
X175641864Y-72063069D01*
X175641864Y-57398460D01*
X175641864Y-57398457D01*
X175616866Y-57272790D01*
X175616865Y-57272789D01*
X175616865Y-57272785D01*
X175567829Y-57154402D01*
X175538888Y-57111088D01*
X175538888Y-57111087D01*
X175496643Y-57047863D01*
X175496637Y-57047855D01*
X174865100Y-56416319D01*
X174831615Y-56354996D01*
X174836599Y-56285305D01*
X174852458Y-56255761D01*
X174945415Y-56127816D01*
X175041921Y-55938412D01*
X175107610Y-55736243D01*
X175140864Y-55526287D01*
X175140864Y-55313713D01*
X175107610Y-55103757D01*
X175041921Y-54901588D01*
X174945415Y-54712184D01*
X174945413Y-54712181D01*
X174945412Y-54712179D01*
X174820473Y-54540213D01*
X174670150Y-54389890D01*
X174498184Y-54264951D01*
X174497479Y-54264591D01*
X174489418Y-54260485D01*
X174438623Y-54212512D01*
X174421827Y-54144692D01*
X174444363Y-54078556D01*
X174489418Y-54039515D01*
X174498180Y-54035051D01*
X174560166Y-53990016D01*
X174670150Y-53910109D01*
X174670152Y-53910106D01*
X174670156Y-53910104D01*
X174820468Y-53759792D01*
X174820470Y-53759788D01*
X174820473Y-53759786D01*
X174945412Y-53587820D01*
X174945411Y-53587820D01*
X174945415Y-53587816D01*
X175041921Y-53398412D01*
X175107610Y-53196243D01*
X175140864Y-52986287D01*
X175140864Y-52773713D01*
X175107610Y-52563757D01*
X175041921Y-52361588D01*
X174945415Y-52172184D01*
X174945413Y-52172181D01*
X174945412Y-52172179D01*
X174820473Y-52000213D01*
X174670150Y-51849890D01*
X174498184Y-51724951D01*
X174497479Y-51724591D01*
X174489418Y-51720485D01*
X174438623Y-51672512D01*
X174421827Y-51604692D01*
X174444363Y-51538556D01*
X174489418Y-51499515D01*
X174498180Y-51495051D01*
X174561369Y-51449142D01*
X174670150Y-51370109D01*
X174670152Y-51370106D01*
X174670156Y-51370104D01*
X174820468Y-51219792D01*
X174820470Y-51219788D01*
X174820473Y-51219786D01*
X174945412Y-51047820D01*
X174945411Y-51047820D01*
X174945415Y-51047816D01*
X175041921Y-50858412D01*
X175107610Y-50656243D01*
X175140864Y-50446287D01*
X175140864Y-50233713D01*
X175107610Y-50023757D01*
X175041921Y-49821588D01*
X174945415Y-49632184D01*
X174945413Y-49632181D01*
X174945412Y-49632179D01*
X174820473Y-49460213D01*
X174670150Y-49309890D01*
X174498184Y-49184951D01*
X174497479Y-49184591D01*
X174489418Y-49180485D01*
X174438623Y-49132512D01*
X174421827Y-49064692D01*
X174444363Y-48998556D01*
X174489418Y-48959515D01*
X174498180Y-48955051D01*
X174597499Y-48882892D01*
X174670150Y-48830109D01*
X174670152Y-48830106D01*
X174670156Y-48830104D01*
X174820468Y-48679792D01*
X174820470Y-48679788D01*
X174820473Y-48679786D01*
X174945412Y-48507820D01*
X174945411Y-48507820D01*
X174945415Y-48507816D01*
X175041921Y-48318412D01*
X175107610Y-48116243D01*
X175140864Y-47906287D01*
X175140864Y-47693713D01*
X175107610Y-47483757D01*
X175041921Y-47281588D01*
X174945415Y-47092184D01*
X174945413Y-47092181D01*
X174945412Y-47092179D01*
X174820473Y-46920213D01*
X174670150Y-46769890D01*
X174498184Y-46644951D01*
X174497479Y-46644591D01*
X174489418Y-46640485D01*
X174438623Y-46592512D01*
X174421827Y-46524692D01*
X174444363Y-46458556D01*
X174489418Y-46419515D01*
X174498180Y-46415051D01*
X174597499Y-46342892D01*
X174670150Y-46290109D01*
X174670152Y-46290106D01*
X174670156Y-46290104D01*
X174820468Y-46139792D01*
X174820470Y-46139788D01*
X174820473Y-46139786D01*
X174945412Y-45967820D01*
X174945411Y-45967820D01*
X174945415Y-45967816D01*
X175041921Y-45778412D01*
X175107610Y-45576243D01*
X175140864Y-45366287D01*
X175140864Y-45153713D01*
X175107610Y-44943757D01*
X175041921Y-44741588D01*
X174945415Y-44552184D01*
X174945413Y-44552181D01*
X174945412Y-44552179D01*
X174820473Y-44380213D01*
X174670150Y-44229890D01*
X174498184Y-44104951D01*
X174497479Y-44104591D01*
X174489418Y-44100485D01*
X174438623Y-44052512D01*
X174421827Y-43984692D01*
X174444363Y-43918556D01*
X174489418Y-43879515D01*
X174498180Y-43875051D01*
X174625180Y-43782781D01*
X174670150Y-43750109D01*
X174670152Y-43750106D01*
X174670156Y-43750104D01*
X174820468Y-43599792D01*
X174820470Y-43599788D01*
X174820473Y-43599786D01*
X174945412Y-43427820D01*
X174945411Y-43427820D01*
X174945415Y-43427816D01*
X175041921Y-43238412D01*
X175107610Y-43036243D01*
X175140864Y-42826287D01*
X175140864Y-42613713D01*
X175107610Y-42403757D01*
X175041921Y-42201588D01*
X174945415Y-42012184D01*
X174945413Y-42012181D01*
X174945412Y-42012179D01*
X174820473Y-41840213D01*
X174670150Y-41689890D01*
X174498184Y-41564951D01*
X174497479Y-41564591D01*
X174489418Y-41560485D01*
X174438623Y-41512512D01*
X174421827Y-41444692D01*
X174444363Y-41378556D01*
X174489418Y-41339515D01*
X174498180Y-41335051D01*
X174625180Y-41242781D01*
X174670150Y-41210109D01*
X174670152Y-41210106D01*
X174670156Y-41210104D01*
X174820468Y-41059792D01*
X174820470Y-41059788D01*
X174820473Y-41059786D01*
X174945412Y-40887820D01*
X174945411Y-40887820D01*
X174945415Y-40887816D01*
X175041921Y-40698412D01*
X175107610Y-40496243D01*
X175140864Y-40286287D01*
X175140864Y-40073713D01*
X175107610Y-39863757D01*
X175041921Y-39661588D01*
X174945415Y-39472184D01*
X174945413Y-39472181D01*
X174945412Y-39472179D01*
X174820473Y-39300213D01*
X174670150Y-39149890D01*
X174498184Y-39024951D01*
X174497479Y-39024591D01*
X174489418Y-39020485D01*
X174438623Y-38972512D01*
X174421827Y-38904692D01*
X174444363Y-38838556D01*
X174489418Y-38799515D01*
X174498180Y-38795051D01*
X174562902Y-38748028D01*
X174670150Y-38670109D01*
X174670152Y-38670106D01*
X174670156Y-38670104D01*
X174820468Y-38519792D01*
X174820470Y-38519788D01*
X174820473Y-38519786D01*
X174945412Y-38347820D01*
X174945411Y-38347820D01*
X174945415Y-38347816D01*
X175041921Y-38158412D01*
X175107610Y-37956243D01*
X175140864Y-37746287D01*
X175140864Y-37533713D01*
X175107610Y-37323757D01*
X175041921Y-37121588D01*
X174945415Y-36932184D01*
X174945413Y-36932181D01*
X174945412Y-36932179D01*
X174820473Y-36760213D01*
X174670150Y-36609890D01*
X174498181Y-36484949D01*
X174488868Y-36480204D01*
X174438071Y-36432230D01*
X174421276Y-36364409D01*
X174443813Y-36298274D01*
X174488871Y-36259232D01*
X174497919Y-36254622D01*
X174552080Y-36215270D01*
X174552081Y-36215270D01*
X173919772Y-35582962D01*
X173983357Y-35565925D01*
X174097371Y-35500099D01*
X174190463Y-35407007D01*
X174256289Y-35292993D01*
X174273326Y-35229409D01*
X174905634Y-35861717D01*
X174905634Y-35861716D01*
X174944986Y-35807554D01*
X175041459Y-35618217D01*
X175107121Y-35416130D01*
X175107121Y-35416127D01*
X175140364Y-35206246D01*
X175140364Y-34993753D01*
X175107121Y-34783872D01*
X175107121Y-34783869D01*
X175041459Y-34581782D01*
X174944988Y-34392449D01*
X174905634Y-34338282D01*
X174905633Y-34338282D01*
X174273326Y-34970590D01*
X174256289Y-34907007D01*
X174190463Y-34792993D01*
X174097371Y-34699901D01*
X173983357Y-34634075D01*
X173919773Y-34617037D01*
X174589991Y-33946818D01*
X174651314Y-33913333D01*
X174677671Y-33910499D01*
X174688236Y-33910499D01*
X174747847Y-33904091D01*
X174882695Y-33853796D01*
X174997910Y-33767546D01*
X175084160Y-33652331D01*
X175134455Y-33517483D01*
X175140864Y-33457873D01*
X175140863Y-31662128D01*
X175134455Y-31602517D01*
X175126053Y-31579991D01*
X175084161Y-31467671D01*
X175084157Y-31467664D01*
X174997911Y-31352455D01*
X174997908Y-31352452D01*
X174882699Y-31266206D01*
X174882692Y-31266202D01*
X174747846Y-31215908D01*
X174747847Y-31215908D01*
X174688247Y-31209501D01*
X174688245Y-31209500D01*
X174688237Y-31209500D01*
X174688228Y-31209500D01*
X172892493Y-31209500D01*
X172892487Y-31209501D01*
X172832880Y-31215908D01*
X172698035Y-31266202D01*
X172698028Y-31266206D01*
X172582819Y-31352452D01*
X172582816Y-31352455D01*
X172496570Y-31467664D01*
X172496566Y-31467671D01*
X172446272Y-31602517D01*
X172444309Y-31620781D01*
X172439865Y-31662123D01*
X172439864Y-31662135D01*
X172439864Y-33457870D01*
X172439865Y-33457876D01*
X172446272Y-33517483D01*
X172496566Y-33652328D01*
X172496570Y-33652335D01*
X172582816Y-33767544D01*
X172582819Y-33767547D01*
X172698028Y-33853793D01*
X172698035Y-33853797D01*
X172742982Y-33870561D01*
X172832881Y-33904091D01*
X172892491Y-33910500D01*
X172903049Y-33910499D01*
X172970087Y-33930179D01*
X172990736Y-33946818D01*
X173660955Y-34617037D01*
X173597371Y-34634075D01*
X173483357Y-34699901D01*
X173390265Y-34792993D01*
X173324439Y-34907007D01*
X173307401Y-34970591D01*
X172675092Y-34338282D01*
X172675091Y-34338282D01*
X172635744Y-34392439D01*
X172539268Y-34581782D01*
X172473606Y-34783869D01*
X172473606Y-34783872D01*
X172440364Y-34993753D01*
X172440364Y-35206246D01*
X172473606Y-35416127D01*
X172473606Y-35416130D01*
X172539268Y-35618217D01*
X172635739Y-35807550D01*
X172675092Y-35861716D01*
X173307401Y-35229408D01*
X173324439Y-35292993D01*
X173390265Y-35407007D01*
X173483357Y-35500099D01*
X173597371Y-35565925D01*
X173660954Y-35582962D01*
X173028646Y-36215269D01*
X173028646Y-36215270D01*
X173082816Y-36254626D01*
X173082815Y-36254626D01*
X173091859Y-36259234D01*
X173142656Y-36307208D01*
X173159451Y-36375029D01*
X173136914Y-36441164D01*
X173091863Y-36480202D01*
X173082546Y-36484949D01*
X172910577Y-36609890D01*
X172760254Y-36760213D01*
X172635315Y-36932179D01*
X172538808Y-37121585D01*
X172473117Y-37323760D01*
X172439864Y-37533713D01*
X172439864Y-37746286D01*
X172470800Y-37941613D01*
X172473118Y-37956243D01*
X172522173Y-38107219D01*
X172538808Y-38158414D01*
X172635315Y-38347820D01*
X172760254Y-38519786D01*
X172910577Y-38670109D01*
X173082546Y-38795050D01*
X173091310Y-38799516D01*
X173142106Y-38847491D01*
X173158900Y-38915312D01*
X173136362Y-38981447D01*
X173091310Y-39020484D01*
X173082546Y-39024949D01*
X172910577Y-39149890D01*
X172760254Y-39300213D01*
X172635315Y-39472179D01*
X172538808Y-39661585D01*
X172473117Y-39863760D01*
X172439864Y-40073713D01*
X172439864Y-40286286D01*
X172470800Y-40481613D01*
X172473118Y-40496243D01*
X172527069Y-40662287D01*
X172538808Y-40698414D01*
X172635315Y-40887820D01*
X172760254Y-41059786D01*
X172910577Y-41210109D01*
X173082546Y-41335050D01*
X173091310Y-41339516D01*
X173142106Y-41387491D01*
X173158900Y-41455312D01*
X173136362Y-41521447D01*
X173091310Y-41560484D01*
X173082546Y-41564949D01*
X172910577Y-41689890D01*
X172760254Y-41840213D01*
X172635315Y-42012179D01*
X172538808Y-42201585D01*
X172473117Y-42403760D01*
X172443743Y-42589219D01*
X172439864Y-42613713D01*
X172439864Y-42826287D01*
X172443413Y-42848693D01*
X172470967Y-43022667D01*
X172473118Y-43036243D01*
X172527069Y-43202287D01*
X172538808Y-43238414D01*
X172635315Y-43427820D01*
X172760254Y-43599786D01*
X172910577Y-43750109D01*
X173082546Y-43875050D01*
X173091310Y-43879516D01*
X173142106Y-43927491D01*
X173158900Y-43995312D01*
X173136362Y-44061447D01*
X173091310Y-44100484D01*
X173082546Y-44104949D01*
X172910577Y-44229890D01*
X172760254Y-44380213D01*
X172635315Y-44552179D01*
X172538808Y-44741585D01*
X172473117Y-44943760D01*
X172439864Y-45153713D01*
X172439864Y-45366286D01*
X172472901Y-45574877D01*
X172473118Y-45576243D01*
X172527069Y-45742287D01*
X172538808Y-45778414D01*
X172635315Y-45967820D01*
X172760254Y-46139786D01*
X172910577Y-46290109D01*
X173082546Y-46415050D01*
X173091310Y-46419516D01*
X173142106Y-46467491D01*
X173158900Y-46535312D01*
X173136362Y-46601447D01*
X173091310Y-46640484D01*
X173082546Y-46644949D01*
X172910577Y-46769890D01*
X172760254Y-46920213D01*
X172635315Y-47092179D01*
X172538808Y-47281585D01*
X172473117Y-47483760D01*
X172444316Y-47665606D01*
X172439864Y-47693713D01*
X172439864Y-47906287D01*
X172441912Y-47919219D01*
X172470800Y-48101613D01*
X172473118Y-48116243D01*
X172527069Y-48282287D01*
X172538808Y-48318414D01*
X172635315Y-48507820D01*
X172760254Y-48679786D01*
X172910577Y-48830109D01*
X173082546Y-48955050D01*
X173091310Y-48959516D01*
X173142106Y-49007491D01*
X173158900Y-49075312D01*
X173136362Y-49141447D01*
X173091310Y-49180484D01*
X173082546Y-49184949D01*
X172910577Y-49309890D01*
X172760254Y-49460213D01*
X172635315Y-49632179D01*
X172538808Y-49821585D01*
X172473117Y-50023760D01*
X172444316Y-50205606D01*
X172439864Y-50233713D01*
X172439864Y-50446287D01*
X172441912Y-50459219D01*
X172470800Y-50641613D01*
X172473118Y-50656243D01*
X172527069Y-50822287D01*
X172538808Y-50858414D01*
X172635315Y-51047820D01*
X172760254Y-51219786D01*
X172910577Y-51370109D01*
X173082546Y-51495050D01*
X173091310Y-51499516D01*
X173142106Y-51547491D01*
X173158900Y-51615312D01*
X173136362Y-51681447D01*
X173091310Y-51720484D01*
X173082546Y-51724949D01*
X172910577Y-51849890D01*
X172760254Y-52000213D01*
X172635315Y-52172179D01*
X172538808Y-52361585D01*
X172473117Y-52563760D01*
X172444889Y-52741987D01*
X172439864Y-52773713D01*
X172439864Y-52986287D01*
X172441912Y-52999219D01*
X172470800Y-53181613D01*
X172473118Y-53196243D01*
X172527069Y-53362287D01*
X172538808Y-53398414D01*
X172635315Y-53587820D01*
X172760254Y-53759786D01*
X172910577Y-53910109D01*
X173082546Y-54035050D01*
X173091310Y-54039516D01*
X173142106Y-54087491D01*
X173158900Y-54155312D01*
X173136362Y-54221447D01*
X173091310Y-54260484D01*
X173082546Y-54264949D01*
X172910577Y-54389890D01*
X172760254Y-54540213D01*
X172635315Y-54712179D01*
X172538808Y-54901585D01*
X172473117Y-55103760D01*
X172439864Y-55313713D01*
X172439864Y-55339027D01*
X172420179Y-55406066D01*
X172367375Y-55451821D01*
X172298217Y-55461765D01*
X172234661Y-55432740D01*
X172228183Y-55426708D01*
X165936819Y-49135344D01*
X165903334Y-49074021D01*
X165900500Y-49047663D01*
X165900500Y-37814558D01*
X165875502Y-37688891D01*
X165875501Y-37688890D01*
X165875501Y-37688886D01*
X165826465Y-37570503D01*
X165822477Y-37564534D01*
X165755276Y-37463960D01*
X165755274Y-37463957D01*
X164796043Y-36504726D01*
X164796039Y-36504723D01*
X164689497Y-36433535D01*
X164686346Y-36432230D01*
X164571114Y-36384499D01*
X164571108Y-36384497D01*
X164445441Y-36359499D01*
X164439379Y-36358903D01*
X164439566Y-36357002D01*
X164381032Y-36339815D01*
X164347754Y-36308386D01*
X164241966Y-36162781D01*
X164097219Y-36018034D01*
X164097213Y-36018028D01*
X163931613Y-35897715D01*
X163931612Y-35897714D01*
X163931610Y-35897713D01*
X163859514Y-35860978D01*
X163749223Y-35804781D01*
X163554534Y-35741522D01*
X163367921Y-35711966D01*
X163352352Y-35709500D01*
X163147648Y-35709500D01*
X163132079Y-35711966D01*
X162945465Y-35741522D01*
X162750773Y-35804782D01*
X162665794Y-35848082D01*
X162597125Y-35860978D01*
X162532385Y-35834701D01*
X162492128Y-35777595D01*
X162485500Y-35737597D01*
X162485500Y-33697682D01*
X165405113Y-33697682D01*
X165405113Y-33902317D01*
X165437122Y-34104417D01*
X165500357Y-34299031D01*
X165593254Y-34481350D01*
X165593260Y-34481359D01*
X165625636Y-34525921D01*
X165625637Y-34525922D01*
X166305113Y-33846446D01*
X166305113Y-33852661D01*
X166332372Y-33954394D01*
X166385033Y-34045606D01*
X166459507Y-34120080D01*
X166550719Y-34172741D01*
X166652452Y-34200000D01*
X166658666Y-34200000D01*
X165979189Y-34879474D01*
X166023763Y-34911859D01*
X166206081Y-35004755D01*
X166400695Y-35067990D01*
X166602796Y-35100000D01*
X166807430Y-35100000D01*
X167009530Y-35067990D01*
X167204144Y-35004755D01*
X167386462Y-34911859D01*
X167431034Y-34879474D01*
X166751560Y-34200000D01*
X166757774Y-34200000D01*
X166859507Y-34172741D01*
X166950719Y-34120080D01*
X167025193Y-34045606D01*
X167077854Y-33954394D01*
X167105113Y-33852661D01*
X167105113Y-33846447D01*
X167784586Y-34525921D01*
X167822393Y-34522946D01*
X167890771Y-34537310D01*
X167940528Y-34586361D01*
X167949827Y-34607556D01*
X167967206Y-34660001D01*
X167970299Y-34669333D01*
X167970300Y-34669336D01*
X167989095Y-34699807D01*
X168062401Y-34818656D01*
X168186457Y-34942712D01*
X168335779Y-35034814D01*
X168502316Y-35089999D01*
X168605104Y-35100500D01*
X169805121Y-35100499D01*
X169907910Y-35089999D01*
X170074447Y-35034814D01*
X170223769Y-34942712D01*
X170347825Y-34818656D01*
X170439927Y-34669334D01*
X170495112Y-34502797D01*
X170505613Y-34400009D01*
X170505612Y-33199992D01*
X170499346Y-33138656D01*
X170495112Y-33097203D01*
X170495111Y-33097200D01*
X170487448Y-33074076D01*
X170439927Y-32930666D01*
X170347825Y-32781344D01*
X170223769Y-32657288D01*
X170131001Y-32600069D01*
X170074449Y-32565187D01*
X170074444Y-32565185D01*
X170072975Y-32564698D01*
X169907910Y-32510001D01*
X169907908Y-32510000D01*
X169805123Y-32499500D01*
X168605111Y-32499500D01*
X168605094Y-32499501D01*
X168502316Y-32510000D01*
X168502313Y-32510001D01*
X168335781Y-32565185D01*
X168335776Y-32565187D01*
X168186455Y-32657289D01*
X168062402Y-32781342D01*
X167970300Y-32930663D01*
X167970299Y-32930666D01*
X167950859Y-32989334D01*
X167949830Y-32992438D01*
X167910057Y-33049883D01*
X167845541Y-33076706D01*
X167822396Y-33077052D01*
X167784587Y-33074076D01*
X167105113Y-33753551D01*
X167105113Y-33747339D01*
X167077854Y-33645606D01*
X167025193Y-33554394D01*
X166950719Y-33479920D01*
X166859507Y-33427259D01*
X166757774Y-33400000D01*
X166751559Y-33400000D01*
X167431035Y-32720524D01*
X167431034Y-32720523D01*
X167386472Y-32688147D01*
X167386463Y-32688141D01*
X167204144Y-32595244D01*
X167009530Y-32532009D01*
X166807430Y-32500000D01*
X166602796Y-32500000D01*
X166400695Y-32532009D01*
X166206081Y-32595244D01*
X166023757Y-32688143D01*
X165979190Y-32720523D01*
X165979190Y-32720524D01*
X166658667Y-33400000D01*
X166652452Y-33400000D01*
X166550719Y-33427259D01*
X166459507Y-33479920D01*
X166385033Y-33554394D01*
X166332372Y-33645606D01*
X166305113Y-33747339D01*
X166305113Y-33753553D01*
X165625637Y-33074077D01*
X165625636Y-33074077D01*
X165593256Y-33118644D01*
X165500357Y-33300968D01*
X165437122Y-33495582D01*
X165405113Y-33697682D01*
X162485500Y-33697682D01*
X162485500Y-27785807D01*
X162494144Y-27756366D01*
X162500668Y-27726380D01*
X162504422Y-27721364D01*
X162505185Y-27718768D01*
X162521815Y-27698130D01*
X162619950Y-27599994D01*
X162681273Y-27566510D01*
X162726959Y-27567006D01*
X162727237Y-27565253D01*
X162834905Y-27582305D01*
X162949778Y-27600500D01*
X162949779Y-27600500D01*
X163170221Y-27600500D01*
X163170222Y-27600500D01*
X163387951Y-27566015D01*
X163597606Y-27497895D01*
X163794022Y-27397815D01*
X163972365Y-27268242D01*
X164022536Y-27218070D01*
X164083857Y-27184586D01*
X164153548Y-27189570D01*
X164209482Y-27231441D01*
X164226398Y-27262419D01*
X164256202Y-27342328D01*
X164256206Y-27342335D01*
X164342452Y-27457544D01*
X164342455Y-27457547D01*
X164457664Y-27543793D01*
X164457671Y-27543797D01*
X164592517Y-27594091D01*
X164592516Y-27594091D01*
X164599444Y-27594835D01*
X164652127Y-27600500D01*
X166547872Y-27600499D01*
X166607483Y-27594091D01*
X166742331Y-27543796D01*
X166857546Y-27457546D01*
X166943796Y-27342331D01*
X166994091Y-27207483D01*
X166994808Y-27200813D01*
X167021543Y-27136263D01*
X167078933Y-27096413D01*
X167148758Y-27093917D01*
X167205778Y-27126385D01*
X167347636Y-27268243D01*
X167347641Y-27268247D01*
X167390658Y-27299500D01*
X167525978Y-27397815D01*
X167647040Y-27459500D01*
X167722393Y-27497895D01*
X167722396Y-27497896D01*
X167792037Y-27520523D01*
X167932049Y-27566015D01*
X168149778Y-27600500D01*
X168149779Y-27600500D01*
X168370221Y-27600500D01*
X168370222Y-27600500D01*
X168587951Y-27566015D01*
X168797606Y-27497895D01*
X168994022Y-27397815D01*
X169172365Y-27268242D01*
X169222536Y-27218070D01*
X169283857Y-27184586D01*
X169353548Y-27189570D01*
X169409482Y-27231441D01*
X169426398Y-27262419D01*
X169456202Y-27342328D01*
X169456206Y-27342335D01*
X169542452Y-27457544D01*
X169542455Y-27457547D01*
X169657664Y-27543793D01*
X169657671Y-27543797D01*
X169792517Y-27594091D01*
X169792516Y-27594091D01*
X169799444Y-27594835D01*
X169852127Y-27600500D01*
X171747872Y-27600499D01*
X171807483Y-27594091D01*
X171942331Y-27543796D01*
X172057546Y-27457546D01*
X172143796Y-27342331D01*
X172194091Y-27207483D01*
X172200500Y-27147873D01*
X172200499Y-25252128D01*
X172194091Y-25192517D01*
X172173601Y-25137581D01*
X172143797Y-25057671D01*
X172143793Y-25057664D01*
X172057547Y-24942455D01*
X172057544Y-24942452D01*
X171942335Y-24856206D01*
X171942328Y-24856202D01*
X171807482Y-24805908D01*
X171807483Y-24805908D01*
X171747883Y-24799501D01*
X171747881Y-24799500D01*
X171747873Y-24799500D01*
X171747864Y-24799500D01*
X169852129Y-24799500D01*
X169852123Y-24799501D01*
X169792516Y-24805908D01*
X169657671Y-24856202D01*
X169657664Y-24856206D01*
X169542455Y-24942452D01*
X169542452Y-24942455D01*
X169456206Y-25057664D01*
X169456203Y-25057669D01*
X169426398Y-25137581D01*
X169384526Y-25193514D01*
X169319062Y-25217931D01*
X169250789Y-25203079D01*
X169222535Y-25181928D01*
X169172363Y-25131756D01*
X169172358Y-25131752D01*
X168994025Y-25002187D01*
X168994024Y-25002186D01*
X168994022Y-25002185D01*
X168876791Y-24942452D01*
X168797606Y-24902104D01*
X168797603Y-24902103D01*
X168587952Y-24833985D01*
X168479086Y-24816742D01*
X168370222Y-24799500D01*
X168149778Y-24799500D01*
X168077201Y-24810995D01*
X167932047Y-24833985D01*
X167722396Y-24902103D01*
X167722393Y-24902104D01*
X167525974Y-25002187D01*
X167347642Y-25131751D01*
X167205779Y-25273614D01*
X167144456Y-25307098D01*
X167074764Y-25302114D01*
X167018831Y-25260242D01*
X166994808Y-25199186D01*
X166994733Y-25198496D01*
X166994091Y-25192517D01*
X166943796Y-25057669D01*
X166943795Y-25057668D01*
X166943793Y-25057664D01*
X166857547Y-24942455D01*
X166857544Y-24942452D01*
X166742335Y-24856206D01*
X166742328Y-24856202D01*
X166607482Y-24805908D01*
X166607483Y-24805908D01*
X166547883Y-24799501D01*
X166547881Y-24799500D01*
X166547873Y-24799500D01*
X166547864Y-24799500D01*
X164652129Y-24799500D01*
X164652123Y-24799501D01*
X164592516Y-24805908D01*
X164457671Y-24856202D01*
X164457664Y-24856206D01*
X164342455Y-24942452D01*
X164342452Y-24942455D01*
X164256206Y-25057664D01*
X164256203Y-25057669D01*
X164226398Y-25137581D01*
X164184526Y-25193514D01*
X164119062Y-25217931D01*
X164050789Y-25203079D01*
X164022535Y-25181928D01*
X163972363Y-25131756D01*
X163972358Y-25131752D01*
X163794025Y-25002187D01*
X163794024Y-25002186D01*
X163794022Y-25002185D01*
X163676791Y-24942452D01*
X163597606Y-24902104D01*
X163597603Y-24902103D01*
X163387952Y-24833985D01*
X163279086Y-24816742D01*
X163170222Y-24799500D01*
X162949778Y-24799500D01*
X162877201Y-24810995D01*
X162732047Y-24833985D01*
X162522396Y-24902103D01*
X162522393Y-24902104D01*
X162325974Y-25002187D01*
X162147641Y-25131752D01*
X162147636Y-25131756D01*
X161991756Y-25287636D01*
X161991752Y-25287641D01*
X161862187Y-25465974D01*
X161762104Y-25662393D01*
X161762103Y-25662396D01*
X161693985Y-25872047D01*
X161681076Y-25953553D01*
X161659500Y-26089778D01*
X161659500Y-26310222D01*
X161661987Y-26325922D01*
X161693985Y-26527954D01*
X161709279Y-26575025D01*
X161711274Y-26644866D01*
X161679029Y-26701023D01*
X161329726Y-27050326D01*
X161329723Y-27050331D01*
X161264549Y-27147872D01*
X161264542Y-27147883D01*
X161258536Y-27156871D01*
X161258534Y-27156873D01*
X161209499Y-27275255D01*
X161209497Y-27275261D01*
X161184500Y-27400928D01*
X161184500Y-27645953D01*
X161164815Y-27712992D01*
X161112011Y-27758747D01*
X161042853Y-27768691D01*
X160979297Y-27739666D01*
X160972819Y-27733634D01*
X160847213Y-27608028D01*
X160681613Y-27487715D01*
X160681612Y-27487714D01*
X160681610Y-27487713D01*
X160622400Y-27457544D01*
X160499223Y-27394781D01*
X160304534Y-27331522D01*
X160129995Y-27303878D01*
X160102352Y-27299500D01*
X159897648Y-27299500D01*
X159873329Y-27303351D01*
X159695465Y-27331522D01*
X159500776Y-27394781D01*
X159318386Y-27487715D01*
X159152786Y-27608028D01*
X159008028Y-27752786D01*
X158887715Y-27918386D01*
X158794781Y-28100776D01*
X158731522Y-28295465D01*
X158699500Y-28497648D01*
X158699500Y-28702351D01*
X158731522Y-28904534D01*
X158794781Y-29099223D01*
X158827988Y-29164394D01*
X158887585Y-29281359D01*
X158887715Y-29281613D01*
X159008028Y-29447213D01*
X159152786Y-29591971D01*
X159289934Y-29691613D01*
X159318390Y-29712287D01*
X159434607Y-29771503D01*
X159500776Y-29805218D01*
X159500778Y-29805218D01*
X159500781Y-29805220D01*
X159605137Y-29839127D01*
X159695465Y-29868477D01*
X159796557Y-29884488D01*
X159897648Y-29900500D01*
X159897649Y-29900500D01*
X160102351Y-29900500D01*
X160102352Y-29900500D01*
X160304534Y-29868477D01*
X160499219Y-29805220D01*
X160681610Y-29712287D01*
X160774590Y-29644732D01*
X160847213Y-29591971D01*
X160847215Y-29591968D01*
X160847219Y-29591966D01*
X160972819Y-29466366D01*
X161034142Y-29432881D01*
X161103834Y-29437865D01*
X161159767Y-29479737D01*
X161184184Y-29545201D01*
X161184500Y-29554047D01*
X161184500Y-37286829D01*
X161184500Y-37286831D01*
X161184499Y-37286831D01*
X161209497Y-37412498D01*
X161209499Y-37412504D01*
X161258535Y-37530887D01*
X161329723Y-37637429D01*
X161329726Y-37637433D01*
X161329727Y-37637434D01*
X162240815Y-38548521D01*
X162274300Y-38609844D01*
X162269316Y-38679535D01*
X162253452Y-38709087D01*
X162137715Y-38868386D01*
X162044781Y-39050776D01*
X161981522Y-39245465D01*
X161955835Y-39407648D01*
X161949500Y-39447648D01*
X161949500Y-39652352D01*
X161950963Y-39661588D01*
X161977654Y-39830111D01*
X161968699Y-39899405D01*
X161942862Y-39937190D01*
X158244725Y-43635328D01*
X158244724Y-43635329D01*
X158244723Y-43635331D01*
X158199795Y-43702573D01*
X158196361Y-43707712D01*
X158196359Y-43707714D01*
X158173539Y-43741864D01*
X158173533Y-43741875D01*
X158124499Y-43860255D01*
X158124497Y-43860261D01*
X158099500Y-43985928D01*
X158099500Y-64969192D01*
X158079815Y-65036231D01*
X158063181Y-65056873D01*
X153016873Y-70103181D01*
X152955550Y-70136666D01*
X152929192Y-70139500D01*
X152911306Y-70139500D01*
X152737341Y-70174103D01*
X152737332Y-70174106D01*
X152573459Y-70241983D01*
X152573446Y-70241990D01*
X152425965Y-70340535D01*
X152425961Y-70340538D01*
X152300538Y-70465961D01*
X152300535Y-70465965D01*
X152201990Y-70613446D01*
X152201983Y-70613459D01*
X152134106Y-70777332D01*
X152134103Y-70777341D01*
X152099500Y-70951304D01*
X137461246Y-70951304D01*
X137483774Y-70936251D01*
X137513669Y-70916277D01*
X137513674Y-70916272D01*
X137572411Y-70857536D01*
X142391560Y-66038386D01*
X144042375Y-64387570D01*
X144103696Y-64354087D01*
X144173388Y-64359071D01*
X144177506Y-64360692D01*
X144212556Y-64375210D01*
X144337334Y-64426894D01*
X144337336Y-64426894D01*
X144337341Y-64426896D01*
X144511304Y-64461499D01*
X144511307Y-64461500D01*
X144511309Y-64461500D01*
X144688693Y-64461500D01*
X144688694Y-64461499D01*
X144746682Y-64449964D01*
X144862658Y-64426896D01*
X144862661Y-64426894D01*
X144862666Y-64426894D01*
X145021844Y-64360961D01*
X145026540Y-64359016D01*
X145026540Y-64359015D01*
X145026547Y-64359013D01*
X145151971Y-64275207D01*
X145156609Y-64272108D01*
X145223286Y-64251230D01*
X145290666Y-64269714D01*
X145337357Y-64321693D01*
X145349500Y-64375210D01*
X145349500Y-65585638D01*
X145329815Y-65652677D01*
X145313181Y-65673319D01*
X145300538Y-65685961D01*
X145300535Y-65685965D01*
X145201990Y-65833446D01*
X145201983Y-65833459D01*
X145134106Y-65997332D01*
X145134103Y-65997341D01*
X145099500Y-66171304D01*
X145099500Y-66348695D01*
X145134103Y-66522658D01*
X145134106Y-66522667D01*
X145201983Y-66686540D01*
X145201990Y-66686553D01*
X145300535Y-66834034D01*
X145300538Y-66834038D01*
X145425961Y-66959461D01*
X145425965Y-66959464D01*
X145573446Y-67058009D01*
X145573459Y-67058016D01*
X145650426Y-67089896D01*
X145737334Y-67125894D01*
X145737336Y-67125894D01*
X145737341Y-67125896D01*
X145911304Y-67160499D01*
X145911307Y-67160500D01*
X145911309Y-67160500D01*
X146088693Y-67160500D01*
X146088694Y-67160499D01*
X146146682Y-67148964D01*
X146262658Y-67125896D01*
X146262661Y-67125894D01*
X146262666Y-67125894D01*
X146426547Y-67058013D01*
X146574035Y-66959464D01*
X146699464Y-66834035D01*
X146798013Y-66686547D01*
X146865894Y-66522666D01*
X146878401Y-66459792D01*
X146900499Y-66348695D01*
X146900500Y-66348693D01*
X146900500Y-66171306D01*
X146900499Y-66171304D01*
X146865896Y-65997341D01*
X146865894Y-65997336D01*
X146865894Y-65997334D01*
X146855371Y-65971930D01*
X146847903Y-65902463D01*
X146879178Y-65839984D01*
X146939267Y-65804332D01*
X147009092Y-65806826D01*
X147057614Y-65836799D01*
X147162786Y-65941971D01*
X147295493Y-66038386D01*
X147328390Y-66062287D01*
X147444607Y-66121503D01*
X147510776Y-66155218D01*
X147510778Y-66155218D01*
X147510781Y-66155220D01*
X147560289Y-66171306D01*
X147705465Y-66218477D01*
X147806557Y-66234488D01*
X147907648Y-66250500D01*
X147907649Y-66250500D01*
X148112351Y-66250500D01*
X148112352Y-66250500D01*
X148314534Y-66218477D01*
X148509219Y-66155220D01*
X148691610Y-66062287D01*
X148815973Y-65971933D01*
X148857213Y-65941971D01*
X148857215Y-65941968D01*
X148857219Y-65941966D01*
X149001966Y-65797219D01*
X149001968Y-65797215D01*
X149001971Y-65797213D01*
X149082799Y-65685961D01*
X149122287Y-65631610D01*
X149215220Y-65449219D01*
X149278477Y-65254534D01*
X149310500Y-65052352D01*
X149310500Y-64847648D01*
X149287148Y-64700213D01*
X149278477Y-64645465D01*
X149226187Y-64484534D01*
X149215220Y-64450781D01*
X149215218Y-64450778D01*
X149215218Y-64450776D01*
X149181503Y-64384607D01*
X149122287Y-64268390D01*
X149082533Y-64213673D01*
X149001971Y-64102786D01*
X148857213Y-63958028D01*
X148691614Y-63837715D01*
X148685006Y-63834348D01*
X148598917Y-63790483D01*
X148548123Y-63742511D01*
X148531328Y-63674690D01*
X148553865Y-63608555D01*
X148598917Y-63569516D01*
X148691610Y-63522287D01*
X148753662Y-63477204D01*
X148857213Y-63401971D01*
X148857215Y-63401968D01*
X148857219Y-63401966D01*
X149001966Y-63257219D01*
X149001968Y-63257215D01*
X149001971Y-63257213D01*
X149054732Y-63184590D01*
X149122287Y-63091610D01*
X149214047Y-62911522D01*
X149215218Y-62909223D01*
X149215218Y-62909222D01*
X149215220Y-62909219D01*
X149278477Y-62714534D01*
X149310500Y-62512352D01*
X149310500Y-62307648D01*
X149287148Y-62160213D01*
X149278477Y-62105465D01*
X149242256Y-61993989D01*
X149215220Y-61910781D01*
X149215218Y-61910778D01*
X149215218Y-61910776D01*
X149181503Y-61844607D01*
X149122287Y-61728390D01*
X149069003Y-61655050D01*
X149001971Y-61562786D01*
X148857213Y-61418028D01*
X148691614Y-61297715D01*
X148685006Y-61294348D01*
X148598917Y-61250483D01*
X148548123Y-61202511D01*
X148531328Y-61134690D01*
X148553865Y-61068555D01*
X148598917Y-61029516D01*
X148691610Y-60982287D01*
X148712770Y-60966913D01*
X148857213Y-60861971D01*
X148857215Y-60861968D01*
X148857219Y-60861966D01*
X149001966Y-60717219D01*
X149001968Y-60717215D01*
X149001971Y-60717213D01*
X149103978Y-60576810D01*
X149122287Y-60551610D01*
X149215220Y-60369219D01*
X149278477Y-60174534D01*
X149310500Y-59972352D01*
X149310500Y-59767648D01*
X149278477Y-59565466D01*
X149275005Y-59554781D01*
X149244209Y-59460000D01*
X149215220Y-59370781D01*
X149215218Y-59370778D01*
X149215218Y-59370776D01*
X149169454Y-59280961D01*
X149122287Y-59188390D01*
X149099536Y-59157075D01*
X149001971Y-59022786D01*
X148857213Y-58878028D01*
X148691614Y-58757715D01*
X148685006Y-58754348D01*
X148598917Y-58710483D01*
X148548123Y-58662511D01*
X148531328Y-58594690D01*
X148553865Y-58528555D01*
X148598917Y-58489516D01*
X148691610Y-58442287D01*
X148802004Y-58362082D01*
X148857213Y-58321971D01*
X148857215Y-58321968D01*
X148857219Y-58321966D01*
X149001966Y-58177219D01*
X149001968Y-58177215D01*
X149001971Y-58177213D01*
X149099536Y-58042924D01*
X149122287Y-58011610D01*
X149215220Y-57829219D01*
X149278477Y-57634534D01*
X149310500Y-57432352D01*
X149310500Y-57227648D01*
X149299865Y-57160500D01*
X149278477Y-57025465D01*
X149244851Y-56921976D01*
X149215220Y-56830781D01*
X149215218Y-56830778D01*
X149215218Y-56830776D01*
X149160897Y-56724166D01*
X149122287Y-56648390D01*
X149059197Y-56561553D01*
X149001971Y-56482786D01*
X148857213Y-56338028D01*
X148691614Y-56217715D01*
X148630443Y-56186547D01*
X148598917Y-56170483D01*
X148548123Y-56122511D01*
X148531328Y-56054690D01*
X148553865Y-55988555D01*
X148598917Y-55949516D01*
X148691610Y-55902287D01*
X148765374Y-55848695D01*
X148857213Y-55781971D01*
X148857215Y-55781968D01*
X148857219Y-55781966D01*
X149001966Y-55637219D01*
X149001968Y-55637215D01*
X149001971Y-55637213D01*
X149098976Y-55503695D01*
X149122287Y-55471610D01*
X149215220Y-55289219D01*
X149278477Y-55094534D01*
X149310500Y-54892352D01*
X149310500Y-54687648D01*
X149310310Y-54686446D01*
X149278477Y-54485465D01*
X149215218Y-54290776D01*
X149181503Y-54224607D01*
X149122287Y-54108390D01*
X149072248Y-54039516D01*
X149001971Y-53942786D01*
X148857213Y-53798028D01*
X148691614Y-53677715D01*
X148655894Y-53659515D01*
X148598917Y-53630483D01*
X148548123Y-53582511D01*
X148531328Y-53514690D01*
X148553865Y-53448555D01*
X148598917Y-53409516D01*
X148691610Y-53362287D01*
X148776911Y-53300313D01*
X148857213Y-53241971D01*
X148857215Y-53241968D01*
X148857219Y-53241966D01*
X149001966Y-53097219D01*
X149001968Y-53097215D01*
X149001971Y-53097213D01*
X149054732Y-53024590D01*
X149122287Y-52931610D01*
X149215220Y-52749219D01*
X149278477Y-52554534D01*
X149310500Y-52352352D01*
X149310500Y-52147648D01*
X149287148Y-52000213D01*
X149278477Y-51945465D01*
X149215218Y-51750776D01*
X149181503Y-51684607D01*
X149122287Y-51568390D01*
X149086283Y-51518834D01*
X149001971Y-51402786D01*
X148857213Y-51258028D01*
X148691614Y-51137715D01*
X148655894Y-51119515D01*
X148598917Y-51090483D01*
X148548123Y-51042511D01*
X148531328Y-50974690D01*
X148553865Y-50908555D01*
X148598917Y-50869516D01*
X148691610Y-50822287D01*
X148712770Y-50806913D01*
X148857213Y-50701971D01*
X148857215Y-50701968D01*
X148857219Y-50701966D01*
X149001966Y-50557219D01*
X149001968Y-50557215D01*
X149001971Y-50557213D01*
X149054732Y-50484590D01*
X149122287Y-50391610D01*
X149215220Y-50209219D01*
X149278477Y-50014534D01*
X149310500Y-49812352D01*
X149310500Y-49607648D01*
X149287148Y-49460213D01*
X149278477Y-49405465D01*
X149222789Y-49234076D01*
X149215220Y-49210781D01*
X149215218Y-49210778D01*
X149215218Y-49210776D01*
X149181503Y-49144607D01*
X149122287Y-49028390D01*
X149099536Y-48997075D01*
X149001971Y-48862786D01*
X148857213Y-48718028D01*
X148691614Y-48597715D01*
X148655894Y-48579515D01*
X148598917Y-48550483D01*
X148548123Y-48502511D01*
X148531328Y-48434690D01*
X148553865Y-48368555D01*
X148598917Y-48329516D01*
X148691610Y-48282287D01*
X148712770Y-48266913D01*
X148857213Y-48161971D01*
X148857215Y-48161968D01*
X148857219Y-48161966D01*
X149001966Y-48017219D01*
X149001968Y-48017215D01*
X149001971Y-48017213D01*
X149054732Y-47944590D01*
X149122287Y-47851610D01*
X149215220Y-47669219D01*
X149278477Y-47474534D01*
X149310500Y-47272352D01*
X149310500Y-47067648D01*
X149287148Y-46920213D01*
X149278477Y-46865465D01*
X149215218Y-46670776D01*
X149181503Y-46604607D01*
X149122287Y-46488390D01*
X149099536Y-46457075D01*
X149001971Y-46322786D01*
X148857213Y-46178028D01*
X148691614Y-46057715D01*
X148632294Y-46027490D01*
X148598917Y-46010483D01*
X148548123Y-45962511D01*
X148531328Y-45894690D01*
X148553865Y-45828555D01*
X148598917Y-45789516D01*
X148691610Y-45742287D01*
X148771339Y-45684361D01*
X148857213Y-45621971D01*
X148857215Y-45621968D01*
X148857219Y-45621966D01*
X149001966Y-45477219D01*
X149001968Y-45477215D01*
X149001971Y-45477213D01*
X149062967Y-45393258D01*
X149122287Y-45311610D01*
X149215220Y-45129219D01*
X149278477Y-44934534D01*
X149310500Y-44732352D01*
X149310500Y-44527648D01*
X149287148Y-44380213D01*
X149278477Y-44325465D01*
X149233149Y-44185961D01*
X149215220Y-44130781D01*
X149215218Y-44130778D01*
X149215218Y-44130776D01*
X149181503Y-44064607D01*
X149122287Y-43948390D01*
X149093631Y-43908948D01*
X149001971Y-43782786D01*
X148857213Y-43638028D01*
X148691614Y-43517715D01*
X148632294Y-43487490D01*
X148598917Y-43470483D01*
X148548123Y-43422511D01*
X148531328Y-43354690D01*
X148553865Y-43288555D01*
X148598917Y-43249516D01*
X148691610Y-43202287D01*
X148713284Y-43186540D01*
X148857213Y-43081971D01*
X148857215Y-43081968D01*
X148857219Y-43081966D01*
X149001966Y-42937219D01*
X149001968Y-42937215D01*
X149001971Y-42937213D01*
X149066285Y-42848691D01*
X149122287Y-42771610D01*
X149215220Y-42589219D01*
X149278477Y-42394534D01*
X149310500Y-42192352D01*
X149310500Y-41987648D01*
X149287148Y-41840213D01*
X149278477Y-41785465D01*
X149247422Y-41689890D01*
X149215220Y-41590781D01*
X149215218Y-41590778D01*
X149215218Y-41590776D01*
X149181503Y-41524607D01*
X149122287Y-41408390D01*
X149100612Y-41378556D01*
X149001971Y-41242786D01*
X148857213Y-41098028D01*
X148691614Y-40977715D01*
X148632294Y-40947490D01*
X148598917Y-40930483D01*
X148548123Y-40882511D01*
X148531328Y-40814690D01*
X148553865Y-40748555D01*
X148598917Y-40709516D01*
X148691610Y-40662287D01*
X148746670Y-40622284D01*
X148857213Y-40541971D01*
X148857215Y-40541968D01*
X148857219Y-40541966D01*
X149001966Y-40397219D01*
X149001968Y-40397215D01*
X149001971Y-40397213D01*
X149062792Y-40313498D01*
X149122287Y-40231610D01*
X149215220Y-40049219D01*
X149278477Y-39854534D01*
X149310500Y-39652352D01*
X149310500Y-39447648D01*
X149287148Y-39300213D01*
X149278477Y-39245465D01*
X149237186Y-39118386D01*
X149215220Y-39050781D01*
X149215218Y-39050778D01*
X149215218Y-39050776D01*
X149181503Y-38984607D01*
X149122287Y-38868390D01*
X149093223Y-38828386D01*
X149001971Y-38702786D01*
X148857217Y-38558032D01*
X148857212Y-38558028D01*
X148763051Y-38489616D01*
X148720385Y-38434286D01*
X148714406Y-38364673D01*
X148747012Y-38302878D01*
X148796933Y-38271592D01*
X148879117Y-38244359D01*
X148879124Y-38244356D01*
X149028345Y-38152315D01*
X149152315Y-38028345D01*
X149244356Y-37879124D01*
X149244358Y-37879119D01*
X149299505Y-37712697D01*
X149299506Y-37712690D01*
X149309999Y-37609986D01*
X149310000Y-37609973D01*
X149310000Y-37260000D01*
X148325686Y-37260000D01*
X148330080Y-37255606D01*
X148382741Y-37164394D01*
X148410000Y-37062661D01*
X148410000Y-36957339D01*
X148382741Y-36855606D01*
X148330080Y-36764394D01*
X148325686Y-36760000D01*
X149309999Y-36760000D01*
X149309999Y-36410028D01*
X149309998Y-36410013D01*
X149299505Y-36307302D01*
X149244358Y-36140880D01*
X149244356Y-36140875D01*
X149152315Y-35991654D01*
X149028345Y-35867684D01*
X148879124Y-35775643D01*
X148879119Y-35775641D01*
X148712697Y-35720494D01*
X148712690Y-35720493D01*
X148609986Y-35710000D01*
X148260000Y-35710000D01*
X148260000Y-36694314D01*
X148255606Y-36689920D01*
X148164394Y-36637259D01*
X148062661Y-36610000D01*
X147957339Y-36610000D01*
X147855606Y-36637259D01*
X147764394Y-36689920D01*
X147760000Y-36694314D01*
X147760000Y-35710000D01*
X147410028Y-35710000D01*
X147410012Y-35710001D01*
X147307302Y-35720494D01*
X147140880Y-35775641D01*
X147140875Y-35775643D01*
X146991654Y-35867684D01*
X146867684Y-35991654D01*
X146775643Y-36140875D01*
X146775641Y-36140880D01*
X146720494Y-36307302D01*
X146720493Y-36307309D01*
X146710000Y-36410013D01*
X146710000Y-36760000D01*
X147694314Y-36760000D01*
X147689920Y-36764394D01*
X147637259Y-36855606D01*
X147610000Y-36957339D01*
X147610000Y-37062661D01*
X147637259Y-37164394D01*
X147689920Y-37255606D01*
X147694314Y-37260000D01*
X146710001Y-37260000D01*
X146710001Y-37609986D01*
X146720494Y-37712697D01*
X146775641Y-37879119D01*
X146775643Y-37879124D01*
X146867684Y-38028345D01*
X146991654Y-38152315D01*
X147140875Y-38244356D01*
X147140882Y-38244359D01*
X147223067Y-38271592D01*
X147280512Y-38311364D01*
X147307336Y-38375880D01*
X147295021Y-38444656D01*
X147256949Y-38489616D01*
X147162787Y-38558028D01*
X147162782Y-38558032D01*
X147018028Y-38702786D01*
X146897715Y-38868386D01*
X146804781Y-39050776D01*
X146741522Y-39245465D01*
X146709500Y-39447648D01*
X146709500Y-39652351D01*
X146741522Y-39854534D01*
X146804781Y-40049223D01*
X146844508Y-40127190D01*
X146877333Y-40191613D01*
X146897715Y-40231613D01*
X147018028Y-40397213D01*
X147162786Y-40541971D01*
X147317749Y-40654556D01*
X147328390Y-40662287D01*
X147419840Y-40708883D01*
X147421080Y-40709515D01*
X147471876Y-40757490D01*
X147488671Y-40825311D01*
X147466134Y-40891446D01*
X147421080Y-40930485D01*
X147328386Y-40977715D01*
X147162786Y-41098028D01*
X147018028Y-41242786D01*
X146897715Y-41408386D01*
X146804781Y-41590776D01*
X146741522Y-41785465D01*
X146709500Y-41987648D01*
X146709500Y-42192351D01*
X146741522Y-42394534D01*
X146804781Y-42589223D01*
X146897715Y-42771613D01*
X147018028Y-42937213D01*
X147162786Y-43081971D01*
X147317749Y-43194556D01*
X147328390Y-43202287D01*
X147419840Y-43248883D01*
X147421080Y-43249515D01*
X147471876Y-43297490D01*
X147488671Y-43365311D01*
X147466134Y-43431446D01*
X147421080Y-43470485D01*
X147328386Y-43517715D01*
X147162786Y-43638028D01*
X147018028Y-43782786D01*
X146897715Y-43948386D01*
X146804781Y-44130776D01*
X146766239Y-44249397D01*
X146726801Y-44307072D01*
X146662442Y-44334270D01*
X146593596Y-44322355D01*
X146579518Y-44313293D01*
X146579100Y-44313920D01*
X146426553Y-44211990D01*
X146426540Y-44211983D01*
X146262667Y-44144106D01*
X146262658Y-44144103D01*
X146088694Y-44109500D01*
X146088691Y-44109500D01*
X145973500Y-44109500D01*
X145906461Y-44089815D01*
X145860706Y-44037011D01*
X145849500Y-43985500D01*
X145849500Y-43434361D01*
X145869185Y-43367322D01*
X145885816Y-43346682D01*
X145898464Y-43334035D01*
X145997013Y-43186547D01*
X146064894Y-43022666D01*
X146080279Y-42945324D01*
X146099499Y-42848695D01*
X146099500Y-42848693D01*
X146099500Y-42671306D01*
X146099499Y-42671304D01*
X146064896Y-42497341D01*
X146064893Y-42497332D01*
X145997016Y-42333459D01*
X145997009Y-42333446D01*
X145898464Y-42185965D01*
X145898461Y-42185961D01*
X145773038Y-42060538D01*
X145773034Y-42060535D01*
X145625553Y-41961990D01*
X145625540Y-41961983D01*
X145461667Y-41894106D01*
X145461658Y-41894103D01*
X145287694Y-41859500D01*
X145287691Y-41859500D01*
X145110309Y-41859500D01*
X145110306Y-41859500D01*
X144936341Y-41894103D01*
X144936332Y-41894106D01*
X144772459Y-41961983D01*
X144772446Y-41961990D01*
X144624965Y-42060535D01*
X144624961Y-42060538D01*
X144499538Y-42185961D01*
X144499535Y-42185965D01*
X144400990Y-42333446D01*
X144400983Y-42333459D01*
X144333106Y-42497332D01*
X144333103Y-42497341D01*
X144298500Y-42671304D01*
X144298500Y-42848695D01*
X144333103Y-43022658D01*
X144333106Y-43022667D01*
X144400983Y-43186540D01*
X144400990Y-43186553D01*
X144499534Y-43334033D01*
X144499535Y-43334034D01*
X144499536Y-43334035D01*
X144512180Y-43346679D01*
X144545665Y-43407999D01*
X144548500Y-43434361D01*
X144548500Y-43750139D01*
X144528815Y-43817178D01*
X144476011Y-43862933D01*
X144406853Y-43872877D01*
X144400309Y-43871756D01*
X144338694Y-43859500D01*
X144338691Y-43859500D01*
X144161309Y-43859500D01*
X144161306Y-43859500D01*
X143987341Y-43894103D01*
X143987332Y-43894106D01*
X143823459Y-43961983D01*
X143823446Y-43961990D01*
X143675965Y-44060535D01*
X143675961Y-44060538D01*
X143550538Y-44185961D01*
X143550535Y-44185965D01*
X143451990Y-44333446D01*
X143451983Y-44333459D01*
X143384106Y-44497332D01*
X143384103Y-44497341D01*
X143349500Y-44671304D01*
X143349500Y-44848695D01*
X143384103Y-45022658D01*
X143384106Y-45022667D01*
X143451983Y-45186540D01*
X143451990Y-45186553D01*
X143550535Y-45334034D01*
X143550538Y-45334038D01*
X143675959Y-45459459D01*
X143675964Y-45459463D01*
X143675965Y-45459464D01*
X143694389Y-45471774D01*
X143739195Y-45525385D01*
X143749500Y-45574877D01*
X143749500Y-57694500D01*
X143729815Y-57761539D01*
X143677011Y-57807294D01*
X143625500Y-57818500D01*
X143511306Y-57818500D01*
X143337341Y-57853103D01*
X143337332Y-57853106D01*
X143173459Y-57920983D01*
X143173446Y-57920990D01*
X143025965Y-58019535D01*
X143025961Y-58019538D01*
X142900538Y-58144961D01*
X142900535Y-58144965D01*
X142801990Y-58292446D01*
X142801983Y-58292459D01*
X142734106Y-58456332D01*
X142734103Y-58456341D01*
X142699500Y-58630304D01*
X142699500Y-58807695D01*
X142734103Y-58981658D01*
X142734106Y-58981667D01*
X142801983Y-59145540D01*
X142801990Y-59145553D01*
X142900534Y-59293033D01*
X142900535Y-59293034D01*
X142900536Y-59293035D01*
X142913180Y-59305679D01*
X142946665Y-59366999D01*
X142949500Y-59393361D01*
X142949500Y-63589192D01*
X142929815Y-63656231D01*
X142913181Y-63676873D01*
X136865873Y-69724181D01*
X136804550Y-69757666D01*
X136778192Y-69760500D01*
X129123347Y-69760500D01*
X129056308Y-69740815D01*
X129010553Y-69688011D01*
X129000609Y-69618853D01*
X129023029Y-69563615D01*
X129111857Y-69441352D01*
X129204755Y-69259031D01*
X129267990Y-69064417D01*
X129300000Y-68862317D01*
X129300000Y-68657682D01*
X129267990Y-68455582D01*
X129204755Y-68260968D01*
X129111859Y-68078650D01*
X129079474Y-68034077D01*
X129079474Y-68034076D01*
X128400000Y-68713551D01*
X128400000Y-68707339D01*
X128372741Y-68605606D01*
X128320080Y-68514394D01*
X128245606Y-68439920D01*
X128154394Y-68387259D01*
X128052661Y-68360000D01*
X128046446Y-68360000D01*
X128725922Y-67680524D01*
X128725921Y-67680523D01*
X128681359Y-67648147D01*
X128681350Y-67648141D01*
X128499031Y-67555244D01*
X128304417Y-67492009D01*
X128102317Y-67460000D01*
X127897683Y-67460000D01*
X127695582Y-67492009D01*
X127500968Y-67555244D01*
X127318644Y-67648143D01*
X127274077Y-67680523D01*
X127274077Y-67680524D01*
X127953554Y-68360000D01*
X127947339Y-68360000D01*
X127845606Y-68387259D01*
X127754394Y-68439920D01*
X127679920Y-68514394D01*
X127627259Y-68605606D01*
X127600000Y-68707339D01*
X127600000Y-68713553D01*
X126920524Y-68034077D01*
X126920523Y-68034077D01*
X126888143Y-68078644D01*
X126860765Y-68132378D01*
X126812790Y-68183174D01*
X126744969Y-68199969D01*
X126678834Y-68177431D01*
X126639795Y-68132378D01*
X126612284Y-68078385D01*
X126491971Y-67912786D01*
X126347213Y-67768028D01*
X126181613Y-67647715D01*
X126181612Y-67647714D01*
X126181610Y-67647713D01*
X126091079Y-67601585D01*
X125999223Y-67554781D01*
X125804534Y-67491522D01*
X125629995Y-67463878D01*
X125602352Y-67459500D01*
X125397648Y-67459500D01*
X125373329Y-67463351D01*
X125195465Y-67491522D01*
X125000776Y-67554781D01*
X124818386Y-67647715D01*
X124652786Y-67768028D01*
X124508028Y-67912786D01*
X124387715Y-68078386D01*
X124294781Y-68260776D01*
X124231522Y-68455465D01*
X124202547Y-68638412D01*
X124199500Y-68657648D01*
X124199500Y-68862352D01*
X124202704Y-68882580D01*
X124231522Y-69064534D01*
X124294781Y-69259223D01*
X124387712Y-69441609D01*
X124476354Y-69563615D01*
X124499833Y-69629422D01*
X124484007Y-69697476D01*
X124433901Y-69746170D01*
X124376035Y-69760500D01*
X119375476Y-69760500D01*
X119308437Y-69740815D01*
X119262682Y-69688011D01*
X119252738Y-69618853D01*
X119257545Y-69598183D01*
X119268475Y-69564542D01*
X119268475Y-69564538D01*
X119268477Y-69564534D01*
X119300500Y-69362352D01*
X119300500Y-69157648D01*
X119285752Y-69064534D01*
X119272345Y-68979886D01*
X119281300Y-68910593D01*
X119307134Y-68872810D01*
X126247578Y-61932366D01*
X126308899Y-61898883D01*
X126378591Y-61903867D01*
X126391546Y-61909562D01*
X126436969Y-61932706D01*
X126500774Y-61965217D01*
X126500777Y-61965217D01*
X126500781Y-61965220D01*
X126635245Y-62008910D01*
X126695465Y-62028477D01*
X126796557Y-62044488D01*
X126897648Y-62060500D01*
X126897649Y-62060500D01*
X127102351Y-62060500D01*
X127102352Y-62060500D01*
X127304534Y-62028477D01*
X127499219Y-61965220D01*
X127681610Y-61872287D01*
X127847219Y-61751966D01*
X127991828Y-61607356D01*
X128053147Y-61573874D01*
X128122839Y-61578858D01*
X128178773Y-61620729D01*
X128179826Y-61622157D01*
X128198032Y-61647217D01*
X128342786Y-61791971D01*
X128470762Y-61884949D01*
X128508390Y-61912287D01*
X128598244Y-61958070D01*
X128690776Y-62005218D01*
X128690778Y-62005218D01*
X128690781Y-62005220D01*
X128760860Y-62027990D01*
X128885465Y-62068477D01*
X128986557Y-62084488D01*
X129087648Y-62100500D01*
X129087649Y-62100500D01*
X129292351Y-62100500D01*
X129292352Y-62100500D01*
X129494534Y-62068477D01*
X129689219Y-62005220D01*
X129871610Y-61912287D01*
X129971829Y-61839474D01*
X130037213Y-61791971D01*
X130037215Y-61791968D01*
X130037219Y-61791966D01*
X130181966Y-61647219D01*
X130181968Y-61647215D01*
X130181971Y-61647213D01*
X130243313Y-61562781D01*
X130302287Y-61481610D01*
X130395220Y-61299219D01*
X130458477Y-61104534D01*
X130490500Y-60902352D01*
X130490500Y-60697648D01*
X135509500Y-60697648D01*
X135509500Y-60902351D01*
X135541522Y-61104534D01*
X135604781Y-61299223D01*
X135665316Y-61418028D01*
X135677333Y-61441613D01*
X135697715Y-61481613D01*
X135818028Y-61647213D01*
X135962786Y-61791971D01*
X136090762Y-61884949D01*
X136128390Y-61912287D01*
X136218244Y-61958070D01*
X136310776Y-62005218D01*
X136310778Y-62005218D01*
X136310781Y-62005220D01*
X136380860Y-62027990D01*
X136505465Y-62068477D01*
X136606557Y-62084488D01*
X136707648Y-62100500D01*
X136707649Y-62100500D01*
X136912351Y-62100500D01*
X136912352Y-62100500D01*
X137114534Y-62068477D01*
X137309219Y-62005220D01*
X137491610Y-61912287D01*
X137591829Y-61839474D01*
X137657213Y-61791971D01*
X137657215Y-61791968D01*
X137657219Y-61791966D01*
X137801966Y-61647219D01*
X137801968Y-61647215D01*
X137801971Y-61647213D01*
X137863313Y-61562781D01*
X137922287Y-61481610D01*
X138015220Y-61299219D01*
X138078477Y-61104534D01*
X138110500Y-60902352D01*
X138110500Y-60697648D01*
X138096030Y-60606287D01*
X138078477Y-60495465D01*
X138034461Y-60360000D01*
X138015220Y-60300781D01*
X138015218Y-60300778D01*
X138015218Y-60300776D01*
X137981503Y-60234607D01*
X137922287Y-60118390D01*
X137914556Y-60107749D01*
X137801971Y-59952786D01*
X137657213Y-59808028D01*
X137491613Y-59687715D01*
X137491612Y-59687714D01*
X137491610Y-59687713D01*
X137434653Y-59658691D01*
X137309223Y-59594781D01*
X137114534Y-59531522D01*
X136939995Y-59503878D01*
X136912352Y-59499500D01*
X136707648Y-59499500D01*
X136683329Y-59503351D01*
X136505465Y-59531522D01*
X136310776Y-59594781D01*
X136128386Y-59687715D01*
X135962786Y-59808028D01*
X135818028Y-59952786D01*
X135697715Y-60118386D01*
X135604781Y-60300776D01*
X135541522Y-60495465D01*
X135509500Y-60697648D01*
X130490500Y-60697648D01*
X130476030Y-60606287D01*
X130458477Y-60495465D01*
X130414461Y-60360000D01*
X130395220Y-60300781D01*
X130395218Y-60300778D01*
X130395218Y-60300776D01*
X130361503Y-60234607D01*
X130302287Y-60118390D01*
X130294556Y-60107749D01*
X130181971Y-59952786D01*
X130037213Y-59808028D01*
X129871613Y-59687715D01*
X129871612Y-59687714D01*
X129871610Y-59687713D01*
X129814653Y-59658691D01*
X129689223Y-59594781D01*
X129494534Y-59531522D01*
X129319995Y-59503878D01*
X129292352Y-59499500D01*
X129087648Y-59499500D01*
X129063329Y-59503351D01*
X128885465Y-59531522D01*
X128690776Y-59594781D01*
X128508386Y-59687715D01*
X128342788Y-59808027D01*
X128198174Y-59952641D01*
X128136851Y-59986125D01*
X128067159Y-59981141D01*
X128011226Y-59939269D01*
X128010174Y-59937843D01*
X127991966Y-59912781D01*
X127847219Y-59768034D01*
X127847213Y-59768028D01*
X127681613Y-59647715D01*
X127681612Y-59647714D01*
X127681610Y-59647713D01*
X127624653Y-59618691D01*
X127499223Y-59554781D01*
X127304534Y-59491522D01*
X127129995Y-59463878D01*
X127102352Y-59459500D01*
X126897648Y-59459500D01*
X126873329Y-59463351D01*
X126695465Y-59491522D01*
X126500776Y-59554781D01*
X126318386Y-59647715D01*
X126152786Y-59768028D01*
X126008028Y-59912786D01*
X125887715Y-60078386D01*
X125794781Y-60260778D01*
X125731522Y-60455469D01*
X125709018Y-60597544D01*
X125679088Y-60660679D01*
X125674226Y-60665826D01*
X119512181Y-66827872D01*
X119450858Y-66861357D01*
X119381166Y-66856373D01*
X119325233Y-66814501D01*
X119300816Y-66749037D01*
X119300500Y-66740191D01*
X119300500Y-66617648D01*
X119272345Y-66439886D01*
X119281300Y-66370593D01*
X119307134Y-66332810D01*
X122505276Y-63134670D01*
X122540870Y-63081398D01*
X122576464Y-63028129D01*
X122576465Y-63028127D01*
X122625501Y-62909744D01*
X122629428Y-62890001D01*
X122650500Y-62784069D01*
X122650500Y-61958070D01*
X122670185Y-61891031D01*
X122701613Y-61857753D01*
X122847219Y-61751966D01*
X122991966Y-61607219D01*
X122991968Y-61607215D01*
X122991971Y-61607213D01*
X123047993Y-61530104D01*
X123112287Y-61441610D01*
X123205220Y-61259219D01*
X123268477Y-61064534D01*
X123300500Y-60862352D01*
X123300500Y-60657648D01*
X123286705Y-60570549D01*
X123268477Y-60455465D01*
X123218215Y-60300776D01*
X123205220Y-60260781D01*
X123205218Y-60260778D01*
X123205218Y-60260776D01*
X123163522Y-60178945D01*
X123112287Y-60078390D01*
X123080092Y-60034077D01*
X122991971Y-59912786D01*
X122847213Y-59768028D01*
X122681613Y-59647715D01*
X122681612Y-59647714D01*
X122681610Y-59647713D01*
X122624653Y-59618691D01*
X122499223Y-59554781D01*
X122304534Y-59491522D01*
X122129995Y-59463878D01*
X122102352Y-59459500D01*
X121897648Y-59459500D01*
X121873329Y-59463351D01*
X121695465Y-59491522D01*
X121500776Y-59554781D01*
X121318386Y-59647715D01*
X121152786Y-59768028D01*
X121008028Y-59912786D01*
X120887715Y-60078386D01*
X120794781Y-60260776D01*
X120742668Y-60421163D01*
X120703230Y-60478838D01*
X120638871Y-60506036D01*
X120570025Y-60494121D01*
X120518549Y-60446876D01*
X120506806Y-60421163D01*
X120454754Y-60260968D01*
X120361859Y-60078650D01*
X120329474Y-60034077D01*
X120329474Y-60034076D01*
X119650000Y-60713551D01*
X119650000Y-60707339D01*
X119622741Y-60605606D01*
X119570080Y-60514394D01*
X119495606Y-60439920D01*
X119404394Y-60387259D01*
X119302661Y-60360000D01*
X119296446Y-60360000D01*
X119975922Y-59680524D01*
X119975921Y-59680523D01*
X119931359Y-59648147D01*
X119931350Y-59648141D01*
X119749031Y-59555244D01*
X119554417Y-59492009D01*
X119352317Y-59460000D01*
X119147683Y-59460000D01*
X118945582Y-59492009D01*
X118750968Y-59555244D01*
X118568644Y-59648143D01*
X118524077Y-59680523D01*
X118524077Y-59680524D01*
X119203554Y-60360000D01*
X119197339Y-60360000D01*
X119095606Y-60387259D01*
X119004394Y-60439920D01*
X118929920Y-60514394D01*
X118877259Y-60605606D01*
X118850000Y-60707339D01*
X118850000Y-60713553D01*
X118170524Y-60034077D01*
X118170523Y-60034077D01*
X118138143Y-60078644D01*
X118110765Y-60132378D01*
X118062790Y-60183174D01*
X117994969Y-60199969D01*
X117928834Y-60177431D01*
X117889795Y-60132378D01*
X117862284Y-60078385D01*
X117741971Y-59912786D01*
X117597213Y-59768028D01*
X117431613Y-59647715D01*
X117431612Y-59647714D01*
X117431610Y-59647713D01*
X117374653Y-59618691D01*
X117249223Y-59554781D01*
X117054534Y-59491522D01*
X116879995Y-59463878D01*
X116852352Y-59459500D01*
X116647648Y-59459500D01*
X116623329Y-59463351D01*
X116445465Y-59491522D01*
X116250776Y-59554781D01*
X116068386Y-59647715D01*
X115902786Y-59768028D01*
X115758028Y-59912786D01*
X115637715Y-60078386D01*
X115544781Y-60260776D01*
X115481522Y-60455465D01*
X115449500Y-60657648D01*
X115449500Y-60862351D01*
X115481522Y-61064534D01*
X115544781Y-61259223D01*
X115587248Y-61342567D01*
X115637585Y-61441359D01*
X115637715Y-61441613D01*
X115758028Y-61607213D01*
X115902786Y-61751971D01*
X116048383Y-61857751D01*
X116068390Y-61872287D01*
X116164976Y-61921500D01*
X116250776Y-61965218D01*
X116250778Y-61965218D01*
X116250781Y-61965220D01*
X116291533Y-61978461D01*
X116445465Y-62028477D01*
X116546557Y-62044488D01*
X116647648Y-62060500D01*
X116647649Y-62060500D01*
X116852351Y-62060500D01*
X116852352Y-62060500D01*
X117054534Y-62028477D01*
X117249219Y-61965220D01*
X117431610Y-61872287D01*
X117533276Y-61798423D01*
X117597213Y-61751971D01*
X117597215Y-61751968D01*
X117597219Y-61751966D01*
X117741966Y-61607219D01*
X117741968Y-61607215D01*
X117741971Y-61607213D01*
X117833223Y-61481613D01*
X117862287Y-61441610D01*
X117889795Y-61387621D01*
X117937769Y-61336826D01*
X118005589Y-61320030D01*
X118071725Y-61342567D01*
X118110765Y-61387621D01*
X118138141Y-61441350D01*
X118138147Y-61441359D01*
X118170523Y-61485921D01*
X118170524Y-61485922D01*
X118850000Y-60806446D01*
X118850000Y-60812661D01*
X118877259Y-60914394D01*
X118929920Y-61005606D01*
X119004394Y-61080080D01*
X119095606Y-61132741D01*
X119197339Y-61160000D01*
X119203553Y-61160000D01*
X118524076Y-61839474D01*
X118568650Y-61871859D01*
X118750968Y-61964755D01*
X118945582Y-62027990D01*
X119147683Y-62060000D01*
X119352317Y-62060000D01*
X119554417Y-62027990D01*
X119749031Y-61964755D01*
X119931349Y-61871859D01*
X119975921Y-61839474D01*
X119296447Y-61160000D01*
X119302661Y-61160000D01*
X119404394Y-61132741D01*
X119495606Y-61080080D01*
X119570080Y-61005606D01*
X119622741Y-60914394D01*
X119650000Y-60812661D01*
X119650000Y-60806447D01*
X120329474Y-61485921D01*
X120361859Y-61441349D01*
X120454755Y-61259029D01*
X120506806Y-61098837D01*
X120546244Y-61041161D01*
X120610602Y-61013963D01*
X120679449Y-61025878D01*
X120730924Y-61073122D01*
X120742668Y-61098836D01*
X120794781Y-61259223D01*
X120837248Y-61342567D01*
X120887585Y-61441359D01*
X120887715Y-61441613D01*
X121008028Y-61607213D01*
X121152784Y-61751969D01*
X121216724Y-61798423D01*
X121298385Y-61857753D01*
X121341051Y-61913081D01*
X121349500Y-61958070D01*
X121349500Y-62399191D01*
X121329815Y-62466230D01*
X121313181Y-62486872D01*
X119512181Y-64287872D01*
X119450858Y-64321357D01*
X119381166Y-64316373D01*
X119325233Y-64274501D01*
X119300816Y-64209037D01*
X119300500Y-64200191D01*
X119300500Y-64077648D01*
X119268477Y-63875465D01*
X119226226Y-63745432D01*
X119205220Y-63680781D01*
X119205218Y-63680778D01*
X119205218Y-63680776D01*
X119153865Y-63579991D01*
X119112287Y-63498390D01*
X119096892Y-63477200D01*
X118991971Y-63332786D01*
X118847213Y-63188028D01*
X118681613Y-63067715D01*
X118681612Y-63067714D01*
X118681610Y-63067713D01*
X118603922Y-63028129D01*
X118499223Y-62974781D01*
X118304534Y-62911522D01*
X118129995Y-62883878D01*
X118102352Y-62879500D01*
X117897648Y-62879500D01*
X117873329Y-62883351D01*
X117695465Y-62911522D01*
X117500776Y-62974781D01*
X117318386Y-63067715D01*
X117152786Y-63188028D01*
X117008028Y-63332786D01*
X116887715Y-63498386D01*
X116794781Y-63680776D01*
X116731522Y-63875465D01*
X116699500Y-64077648D01*
X116699500Y-64282351D01*
X116731522Y-64484534D01*
X116794781Y-64679223D01*
X116887715Y-64861613D01*
X117008028Y-65027213D01*
X117152786Y-65171971D01*
X117307749Y-65284556D01*
X117318390Y-65292287D01*
X117409840Y-65338883D01*
X117411080Y-65339515D01*
X117461876Y-65387490D01*
X117478671Y-65455311D01*
X117456134Y-65521446D01*
X117411080Y-65560485D01*
X117318386Y-65607715D01*
X117152786Y-65728028D01*
X117008028Y-65872786D01*
X116887715Y-66038386D01*
X116794781Y-66220776D01*
X116731522Y-66415465D01*
X116700695Y-66610104D01*
X116699500Y-66617648D01*
X116699500Y-66822352D01*
X116701351Y-66834038D01*
X116731522Y-67024534D01*
X116794781Y-67219223D01*
X116887715Y-67401613D01*
X117008028Y-67567213D01*
X117152786Y-67711971D01*
X117307749Y-67824556D01*
X117318390Y-67832287D01*
X117409840Y-67878883D01*
X117411080Y-67879515D01*
X117461876Y-67927490D01*
X117478671Y-67995311D01*
X117456134Y-68061446D01*
X117411080Y-68100485D01*
X117318386Y-68147715D01*
X117152786Y-68268028D01*
X117008028Y-68412786D01*
X116887715Y-68578386D01*
X116794781Y-68760776D01*
X116731522Y-68955465D01*
X116703445Y-69132741D01*
X116699500Y-69157648D01*
X116699500Y-69362352D01*
X116706800Y-69408443D01*
X116731523Y-69564535D01*
X116731524Y-69564542D01*
X116742455Y-69598183D01*
X116744450Y-69668024D01*
X116708369Y-69727856D01*
X116645668Y-69758684D01*
X116624524Y-69760500D01*
X111755476Y-69760500D01*
X111688437Y-69740815D01*
X111642682Y-69688011D01*
X111632738Y-69618853D01*
X111637545Y-69598183D01*
X111648475Y-69564542D01*
X111648475Y-69564538D01*
X111648477Y-69564534D01*
X111680500Y-69362352D01*
X111680500Y-69157648D01*
X111648477Y-68955466D01*
X111623175Y-68877596D01*
X111585218Y-68760776D01*
X111532671Y-68657648D01*
X111492287Y-68578390D01*
X111445792Y-68514394D01*
X111371971Y-68412786D01*
X111227213Y-68268028D01*
X111061614Y-68147715D01*
X111031513Y-68132378D01*
X110968917Y-68100483D01*
X110918123Y-68052511D01*
X110901328Y-67984690D01*
X110923865Y-67918555D01*
X110968917Y-67879516D01*
X111061610Y-67832287D01*
X111100874Y-67803760D01*
X111227213Y-67711971D01*
X111227215Y-67711968D01*
X111227219Y-67711966D01*
X111371966Y-67567219D01*
X111371968Y-67567215D01*
X111371971Y-67567213D01*
X111426963Y-67491522D01*
X111492287Y-67401610D01*
X111585220Y-67219219D01*
X111648477Y-67024534D01*
X111680500Y-66822352D01*
X111680500Y-66617648D01*
X111648477Y-66415466D01*
X111626780Y-66348691D01*
X111594876Y-66250500D01*
X111585220Y-66220781D01*
X111585218Y-66220778D01*
X111585218Y-66220776D01*
X111551482Y-66154567D01*
X111492287Y-66038390D01*
X111484556Y-66027749D01*
X111371971Y-65872786D01*
X111227219Y-65728034D01*
X111195065Y-65704673D01*
X111133547Y-65659978D01*
X111090882Y-65604649D01*
X111084903Y-65535036D01*
X111117508Y-65473240D01*
X111167426Y-65441955D01*
X111249334Y-65414814D01*
X111398656Y-65322712D01*
X111522712Y-65198656D01*
X111614814Y-65049334D01*
X111669999Y-64882797D01*
X111680500Y-64780009D01*
X111680499Y-63579992D01*
X111669999Y-63477203D01*
X111614814Y-63310666D01*
X111522712Y-63161344D01*
X111398656Y-63037288D01*
X111249334Y-62945186D01*
X111082797Y-62890001D01*
X111082795Y-62890000D01*
X110980010Y-62879500D01*
X109779998Y-62879500D01*
X109779981Y-62879501D01*
X109677203Y-62890000D01*
X109677200Y-62890001D01*
X109510668Y-62945185D01*
X109510663Y-62945187D01*
X109361342Y-63037289D01*
X109237289Y-63161342D01*
X109145187Y-63310663D01*
X109145185Y-63310668D01*
X109130083Y-63356243D01*
X109090001Y-63477203D01*
X109090001Y-63477204D01*
X109090000Y-63477204D01*
X109079500Y-63579983D01*
X100500499Y-63579983D01*
X100500499Y-60907648D01*
X108899500Y-60907648D01*
X108899500Y-61112351D01*
X108931522Y-61314534D01*
X108994781Y-61509223D01*
X109087715Y-61691613D01*
X109208028Y-61857213D01*
X109352786Y-62001971D01*
X109495236Y-62105465D01*
X109518390Y-62122287D01*
X109634607Y-62181503D01*
X109700776Y-62215218D01*
X109700778Y-62215218D01*
X109700781Y-62215220D01*
X109805137Y-62249127D01*
X109895465Y-62278477D01*
X109996557Y-62294488D01*
X110097648Y-62310500D01*
X110097649Y-62310500D01*
X110302351Y-62310500D01*
X110302352Y-62310500D01*
X110504534Y-62278477D01*
X110699219Y-62215220D01*
X110881610Y-62122287D01*
X110987299Y-62045500D01*
X111047213Y-62001971D01*
X111047215Y-62001968D01*
X111047219Y-62001966D01*
X111191966Y-61857219D01*
X111191968Y-61857215D01*
X111191971Y-61857213D01*
X111268432Y-61751972D01*
X111312287Y-61691610D01*
X111405220Y-61509219D01*
X111468477Y-61314534D01*
X111500500Y-61112352D01*
X111500500Y-60907648D01*
X111468477Y-60705466D01*
X111468476Y-60705462D01*
X111468476Y-60705461D01*
X111463808Y-60691094D01*
X111415913Y-60543690D01*
X111405220Y-60510781D01*
X111405218Y-60510778D01*
X111405218Y-60510776D01*
X111359557Y-60421163D01*
X111312287Y-60328390D01*
X111292228Y-60300781D01*
X111191971Y-60162786D01*
X111047213Y-60018028D01*
X110881613Y-59897715D01*
X110881612Y-59897714D01*
X110881610Y-59897713D01*
X110824653Y-59868691D01*
X110699223Y-59804781D01*
X110504534Y-59741522D01*
X110329995Y-59713878D01*
X110302352Y-59709500D01*
X110097648Y-59709500D01*
X110073329Y-59713351D01*
X109895465Y-59741522D01*
X109700776Y-59804781D01*
X109518386Y-59897715D01*
X109352786Y-60018028D01*
X109208028Y-60162786D01*
X109087715Y-60328386D01*
X108994781Y-60510776D01*
X108931522Y-60705465D01*
X108899500Y-60907648D01*
X100500499Y-60907648D01*
X100500499Y-52789983D01*
X108899500Y-52789983D01*
X108899500Y-53990001D01*
X108899501Y-53990018D01*
X108910000Y-54092796D01*
X108910001Y-54092799D01*
X108965185Y-54259331D01*
X108965187Y-54259336D01*
X108998951Y-54314076D01*
X109057288Y-54408656D01*
X109181344Y-54532712D01*
X109330666Y-54624814D01*
X109497203Y-54679999D01*
X109599991Y-54690500D01*
X110800008Y-54690499D01*
X110902797Y-54679999D01*
X111069334Y-54624814D01*
X111218656Y-54532712D01*
X111342712Y-54408656D01*
X111434814Y-54259334D01*
X111489999Y-54092797D01*
X111500500Y-53990009D01*
X111500499Y-53170807D01*
X111520183Y-53103769D01*
X111536818Y-53083127D01*
X111799866Y-52820080D01*
X112096276Y-52523670D01*
X112167465Y-52417127D01*
X112216501Y-52298744D01*
X112237045Y-52195465D01*
X112241500Y-52173071D01*
X112241500Y-45906928D01*
X112216502Y-45781261D01*
X112216501Y-45781260D01*
X112216501Y-45781256D01*
X112167465Y-45662873D01*
X112146018Y-45630775D01*
X112146018Y-45630774D01*
X112096275Y-45556328D01*
X112096272Y-45556325D01*
X111747137Y-45207191D01*
X111713652Y-45145868D01*
X111712345Y-45100112D01*
X111724611Y-45022667D01*
X111740500Y-44922352D01*
X111740500Y-44717648D01*
X111714292Y-44552179D01*
X111708477Y-44515465D01*
X111664715Y-44380781D01*
X111645220Y-44320781D01*
X111645218Y-44320778D01*
X111645218Y-44320776D01*
X111598912Y-44229896D01*
X111552287Y-44138390D01*
X111540229Y-44121794D01*
X111431971Y-43972786D01*
X111287213Y-43828028D01*
X111121612Y-43707714D01*
X111052522Y-43672511D01*
X111028917Y-43660483D01*
X110978123Y-43612511D01*
X110961328Y-43544690D01*
X110983865Y-43478555D01*
X111028917Y-43439516D01*
X111121610Y-43392287D01*
X111173358Y-43354690D01*
X111287213Y-43271971D01*
X111287215Y-43271968D01*
X111287219Y-43271966D01*
X111431966Y-43127219D01*
X111431968Y-43127215D01*
X111431971Y-43127213D01*
X111507927Y-43022667D01*
X111552287Y-42961610D01*
X111645220Y-42779219D01*
X111708477Y-42584534D01*
X111740500Y-42382352D01*
X111740500Y-42177648D01*
X111711650Y-41995497D01*
X111708477Y-41975465D01*
X111664715Y-41840781D01*
X111645220Y-41780781D01*
X111645218Y-41780778D01*
X111645218Y-41780776D01*
X111598912Y-41689896D01*
X111552287Y-41598390D01*
X111544556Y-41587749D01*
X111431971Y-41432786D01*
X111335113Y-41335928D01*
X115749500Y-41335928D01*
X115749500Y-41335931D01*
X115749500Y-52474069D01*
X115765133Y-52552661D01*
X115765506Y-52554533D01*
X115765506Y-52554535D01*
X115774497Y-52599736D01*
X115774499Y-52599744D01*
X115805299Y-52674103D01*
X115823535Y-52718127D01*
X115891657Y-52820080D01*
X115894726Y-52824673D01*
X115894727Y-52824674D01*
X119188181Y-56118127D01*
X119221666Y-56179450D01*
X119224500Y-56205808D01*
X119224500Y-56223695D01*
X119259103Y-56397658D01*
X119259106Y-56397667D01*
X119326983Y-56561540D01*
X119326990Y-56561553D01*
X119425535Y-56709034D01*
X119425538Y-56709038D01*
X119550961Y-56834461D01*
X119550965Y-56834464D01*
X119698446Y-56933009D01*
X119698459Y-56933016D01*
X119762314Y-56959465D01*
X119862334Y-57000894D01*
X119862336Y-57000894D01*
X119862341Y-57000896D01*
X120036304Y-57035499D01*
X120036307Y-57035500D01*
X120036309Y-57035500D01*
X120213693Y-57035500D01*
X120213694Y-57035499D01*
X120271682Y-57023964D01*
X120387658Y-57000896D01*
X120387661Y-57000894D01*
X120387666Y-57000894D01*
X120551547Y-56933013D01*
X120699035Y-56834464D01*
X120824464Y-56709035D01*
X120923013Y-56561547D01*
X120924479Y-56558009D01*
X120993221Y-56392048D01*
X121037061Y-56337644D01*
X121103355Y-56315579D01*
X121107782Y-56315500D01*
X121183693Y-56315500D01*
X121183694Y-56315499D01*
X121262660Y-56299792D01*
X121357658Y-56280896D01*
X121357661Y-56280894D01*
X121357666Y-56280894D01*
X121521547Y-56213013D01*
X121669035Y-56114464D01*
X121794464Y-55989035D01*
X121888238Y-55848693D01*
X121893009Y-55841553D01*
X121893009Y-55841552D01*
X121893013Y-55841547D01*
X121960894Y-55677666D01*
X121962159Y-55671309D01*
X121991005Y-55526287D01*
X121995500Y-55503691D01*
X121995500Y-55326309D01*
X121995500Y-55326306D01*
X121995499Y-55326304D01*
X121960896Y-55152341D01*
X121960893Y-55152332D01*
X121893014Y-54988454D01*
X121893012Y-54988451D01*
X121794464Y-54840965D01*
X121794461Y-54840961D01*
X121669038Y-54715538D01*
X121669034Y-54715535D01*
X121521553Y-54616990D01*
X121521540Y-54616983D01*
X121357667Y-54549106D01*
X121357658Y-54549103D01*
X121183694Y-54514500D01*
X121183691Y-54514500D01*
X121165808Y-54514500D01*
X121098769Y-54494815D01*
X121078127Y-54478181D01*
X120156819Y-53556873D01*
X120123334Y-53495550D01*
X120120500Y-53469192D01*
X120120500Y-53451306D01*
X120120499Y-53451304D01*
X120085896Y-53277341D01*
X120085893Y-53277332D01*
X120018016Y-53113459D01*
X120018009Y-53113446D01*
X119919464Y-52965965D01*
X119919461Y-52965961D01*
X119794038Y-52840538D01*
X119794034Y-52840535D01*
X119646553Y-52741990D01*
X119646540Y-52741983D01*
X119482667Y-52674106D01*
X119482658Y-52674103D01*
X119308694Y-52639500D01*
X119308691Y-52639500D01*
X119131309Y-52639500D01*
X119131306Y-52639500D01*
X118957341Y-52674103D01*
X118957332Y-52674106D01*
X118793459Y-52741983D01*
X118793446Y-52741990D01*
X118645965Y-52840535D01*
X118645961Y-52840538D01*
X118520538Y-52965961D01*
X118520535Y-52965965D01*
X118421990Y-53113446D01*
X118421985Y-53113455D01*
X118376261Y-53223845D01*
X118332420Y-53278248D01*
X118266126Y-53300313D01*
X118198427Y-53283034D01*
X118174019Y-53264073D01*
X117086819Y-52176873D01*
X117053334Y-52115550D01*
X117050500Y-52089192D01*
X117050500Y-51017426D01*
X117070185Y-50950387D01*
X117122989Y-50904632D01*
X117192147Y-50894688D01*
X117247385Y-50917108D01*
X117341260Y-50985311D01*
X117378390Y-51012287D01*
X117455244Y-51051446D01*
X117560776Y-51105218D01*
X117560778Y-51105218D01*
X117560781Y-51105220D01*
X117660784Y-51137713D01*
X117755465Y-51168477D01*
X117856557Y-51184488D01*
X117957648Y-51200500D01*
X117957649Y-51200500D01*
X118162351Y-51200500D01*
X118162352Y-51200500D01*
X118364534Y-51168477D01*
X118559219Y-51105220D01*
X118741610Y-51012287D01*
X118890214Y-50904320D01*
X118907215Y-50891969D01*
X118907215Y-50891968D01*
X118907219Y-50891966D01*
X119051966Y-50747219D01*
X119051968Y-50747215D01*
X119051971Y-50747213D01*
X119118066Y-50656239D01*
X119172287Y-50581610D01*
X119265220Y-50399219D01*
X119328477Y-50204534D01*
X119360500Y-50002352D01*
X119360500Y-49797648D01*
X119337980Y-49655465D01*
X119328477Y-49595465D01*
X119284715Y-49460781D01*
X119265220Y-49400781D01*
X119265218Y-49400778D01*
X119265218Y-49400776D01*
X119218912Y-49309896D01*
X119172287Y-49218390D01*
X119164556Y-49207749D01*
X119051971Y-49052786D01*
X118907213Y-48908028D01*
X118741614Y-48787715D01*
X118672522Y-48752511D01*
X118648917Y-48740483D01*
X118598123Y-48692511D01*
X118581328Y-48624690D01*
X118603865Y-48558555D01*
X118648917Y-48519516D01*
X118741610Y-48472287D01*
X118889786Y-48364632D01*
X118907215Y-48351969D01*
X118907215Y-48351968D01*
X118907219Y-48351966D01*
X119051966Y-48207219D01*
X119051968Y-48207215D01*
X119051971Y-48207213D01*
X119118066Y-48116239D01*
X119172287Y-48041610D01*
X119265220Y-47859219D01*
X119328477Y-47664534D01*
X119360500Y-47462352D01*
X119360500Y-47257648D01*
X119334292Y-47092179D01*
X119328477Y-47055465D01*
X119284715Y-46920781D01*
X119265220Y-46860781D01*
X119265218Y-46860778D01*
X119265218Y-46860776D01*
X119218912Y-46769896D01*
X119172287Y-46678390D01*
X119164556Y-46667749D01*
X119051971Y-46512786D01*
X118907213Y-46368028D01*
X118741614Y-46247715D01*
X118731522Y-46242573D01*
X118648917Y-46200483D01*
X118598123Y-46152511D01*
X118581328Y-46084690D01*
X118603865Y-46018555D01*
X118648917Y-45979516D01*
X118741610Y-45932287D01*
X118824629Y-45871971D01*
X118907213Y-45811971D01*
X118907215Y-45811968D01*
X118907219Y-45811966D01*
X119051966Y-45667219D01*
X119051968Y-45667215D01*
X119051971Y-45667213D01*
X119119056Y-45574877D01*
X119172287Y-45501610D01*
X119265220Y-45319219D01*
X119328477Y-45124534D01*
X119360500Y-44922352D01*
X119360500Y-44717648D01*
X119334292Y-44552179D01*
X119328477Y-44515465D01*
X119284715Y-44380781D01*
X119265220Y-44320781D01*
X119265218Y-44320778D01*
X119265218Y-44320776D01*
X119218912Y-44229896D01*
X119172287Y-44138390D01*
X119160229Y-44121794D01*
X119051971Y-43972786D01*
X118907213Y-43828028D01*
X118741612Y-43707714D01*
X118672522Y-43672511D01*
X118648917Y-43660483D01*
X118598123Y-43612511D01*
X118581328Y-43544690D01*
X118603865Y-43478555D01*
X118648917Y-43439516D01*
X118741610Y-43392287D01*
X118793358Y-43354690D01*
X118907213Y-43271971D01*
X118907215Y-43271968D01*
X118907219Y-43271966D01*
X119051966Y-43127219D01*
X119051968Y-43127215D01*
X119051971Y-43127213D01*
X119127927Y-43022667D01*
X119172287Y-42961610D01*
X119265220Y-42779219D01*
X119328477Y-42584534D01*
X119360500Y-42382352D01*
X119360500Y-42177648D01*
X119331650Y-41995497D01*
X119328477Y-41975465D01*
X119284715Y-41840781D01*
X119265220Y-41780781D01*
X119265218Y-41780778D01*
X119265218Y-41780776D01*
X119218912Y-41689896D01*
X119172287Y-41598390D01*
X119164556Y-41587749D01*
X119051971Y-41432786D01*
X118907213Y-41288028D01*
X118741614Y-41167715D01*
X118672522Y-41132511D01*
X118648917Y-41120483D01*
X118598123Y-41072511D01*
X118581328Y-41004690D01*
X118603865Y-40938555D01*
X118648917Y-40899516D01*
X118741610Y-40852287D01*
X118793358Y-40814690D01*
X118907213Y-40731971D01*
X118907215Y-40731968D01*
X118907219Y-40731966D01*
X119051966Y-40587219D01*
X119157753Y-40441613D01*
X119213082Y-40398949D01*
X119258071Y-40390500D01*
X120694071Y-40390500D01*
X120778615Y-40373682D01*
X120819744Y-40365501D01*
X120938127Y-40316465D01*
X120942568Y-40313498D01*
X120993617Y-40279388D01*
X121044669Y-40245277D01*
X126677819Y-34612125D01*
X126739142Y-34578641D01*
X126808834Y-34583625D01*
X126864767Y-34625497D01*
X126889184Y-34690961D01*
X126889500Y-34699807D01*
X126889500Y-34822351D01*
X126921522Y-35024534D01*
X126984781Y-35219223D01*
X127077715Y-35401613D01*
X127198028Y-35567213D01*
X127342786Y-35711971D01*
X127490424Y-35819234D01*
X127508390Y-35832287D01*
X127599840Y-35878883D01*
X127601080Y-35879515D01*
X127651876Y-35927490D01*
X127668671Y-35995311D01*
X127646134Y-36061446D01*
X127601080Y-36100485D01*
X127508386Y-36147715D01*
X127342786Y-36268028D01*
X127198028Y-36412786D01*
X127077715Y-36578386D01*
X126984781Y-36760776D01*
X126921522Y-36955465D01*
X126899003Y-37097648D01*
X126889500Y-37157648D01*
X126889500Y-37362352D01*
X126905593Y-37463957D01*
X126921523Y-37564534D01*
X126921522Y-37564534D01*
X126984781Y-37759223D01*
X127077715Y-37941613D01*
X127198028Y-38107213D01*
X127342786Y-38251971D01*
X127474708Y-38347816D01*
X127508390Y-38372287D01*
X127573025Y-38405220D01*
X127601080Y-38419515D01*
X127651876Y-38467490D01*
X127668671Y-38535311D01*
X127646134Y-38601446D01*
X127601080Y-38640485D01*
X127508386Y-38687715D01*
X127342786Y-38808028D01*
X127198028Y-38952786D01*
X127077715Y-39118386D01*
X126984781Y-39300776D01*
X126921522Y-39495465D01*
X126889500Y-39697648D01*
X126889500Y-39902351D01*
X126921522Y-40104534D01*
X126984781Y-40299223D01*
X127035595Y-40398949D01*
X127057334Y-40441615D01*
X127077715Y-40481613D01*
X127198028Y-40647213D01*
X127342786Y-40791971D01*
X127490811Y-40899515D01*
X127508390Y-40912287D01*
X127573025Y-40945220D01*
X127601080Y-40959515D01*
X127651876Y-41007490D01*
X127668671Y-41075311D01*
X127646134Y-41141446D01*
X127601080Y-41180485D01*
X127508386Y-41227715D01*
X127342786Y-41348028D01*
X127198028Y-41492786D01*
X127077715Y-41658386D01*
X126984781Y-41840776D01*
X126921522Y-42035465D01*
X126889500Y-42237648D01*
X126889500Y-42442351D01*
X126921522Y-42644534D01*
X126984781Y-42839223D01*
X127077714Y-43021612D01*
X127198028Y-43187213D01*
X127342786Y-43331971D01*
X127483717Y-43434361D01*
X127508390Y-43452287D01*
X127573025Y-43485220D01*
X127601080Y-43499515D01*
X127651876Y-43547490D01*
X127668671Y-43615311D01*
X127646134Y-43681446D01*
X127601080Y-43720485D01*
X127508386Y-43767715D01*
X127342786Y-43888028D01*
X127198028Y-44032786D01*
X127077715Y-44198386D01*
X126984781Y-44380776D01*
X126921522Y-44575465D01*
X126889500Y-44777648D01*
X126889500Y-44982351D01*
X126921522Y-45184534D01*
X126984781Y-45379223D01*
X127047141Y-45501610D01*
X127075023Y-45556331D01*
X127077715Y-45561613D01*
X127198028Y-45727213D01*
X127342786Y-45871971D01*
X127508385Y-45992284D01*
X127508387Y-45992285D01*
X127508390Y-45992287D01*
X127544106Y-46010485D01*
X127601630Y-46039795D01*
X127652426Y-46087770D01*
X127669221Y-46155591D01*
X127646684Y-46221725D01*
X127601630Y-46260765D01*
X127508644Y-46308143D01*
X127464077Y-46340523D01*
X127464077Y-46340524D01*
X128143554Y-47020000D01*
X128137339Y-47020000D01*
X128035606Y-47047259D01*
X127944394Y-47099920D01*
X127869920Y-47174394D01*
X127817259Y-47265606D01*
X127790000Y-47367339D01*
X127790000Y-47373553D01*
X127110524Y-46694077D01*
X127110523Y-46694077D01*
X127078143Y-46738644D01*
X126985244Y-46920968D01*
X126922009Y-47115582D01*
X126890000Y-47317682D01*
X126890000Y-47522317D01*
X126922009Y-47724417D01*
X126985244Y-47919031D01*
X127078141Y-48101350D01*
X127078147Y-48101359D01*
X127110523Y-48145921D01*
X127110524Y-48145922D01*
X127790000Y-47466446D01*
X127790000Y-47472661D01*
X127817259Y-47574394D01*
X127869920Y-47665606D01*
X127944394Y-47740080D01*
X128035606Y-47792741D01*
X128137339Y-47820000D01*
X128143553Y-47820000D01*
X127464076Y-48499474D01*
X127508650Y-48531859D01*
X127602180Y-48579515D01*
X127652976Y-48627489D01*
X127669771Y-48695310D01*
X127647234Y-48761445D01*
X127602180Y-48800485D01*
X127508644Y-48848143D01*
X127464077Y-48880523D01*
X127464077Y-48880524D01*
X128143554Y-49560000D01*
X128137339Y-49560000D01*
X128035606Y-49587259D01*
X127944394Y-49639920D01*
X127869920Y-49714394D01*
X127817259Y-49805606D01*
X127790000Y-49907339D01*
X127790000Y-49913553D01*
X127110524Y-49234077D01*
X127110523Y-49234077D01*
X127078143Y-49278644D01*
X126985244Y-49460968D01*
X126922009Y-49655582D01*
X126890000Y-49857682D01*
X126890000Y-50062317D01*
X126922009Y-50264417D01*
X126985244Y-50459031D01*
X127078141Y-50641350D01*
X127078147Y-50641359D01*
X127110523Y-50685921D01*
X127110524Y-50685922D01*
X127790000Y-50006446D01*
X127790000Y-50012661D01*
X127817259Y-50114394D01*
X127869920Y-50205606D01*
X127944394Y-50280080D01*
X128035606Y-50332741D01*
X128137339Y-50360000D01*
X128143553Y-50360000D01*
X127464076Y-51039474D01*
X127508650Y-51071859D01*
X127602180Y-51119515D01*
X127652976Y-51167489D01*
X127669771Y-51235310D01*
X127647234Y-51301445D01*
X127602180Y-51340485D01*
X127508644Y-51388143D01*
X127464077Y-51420523D01*
X127464077Y-51420524D01*
X128143554Y-52100000D01*
X128137339Y-52100000D01*
X128035606Y-52127259D01*
X127944394Y-52179920D01*
X127869920Y-52254394D01*
X127817259Y-52345606D01*
X127790000Y-52447339D01*
X127790000Y-52453553D01*
X127110524Y-51774077D01*
X127110523Y-51774077D01*
X127078143Y-51818644D01*
X126985244Y-52000968D01*
X126922009Y-52195582D01*
X126890000Y-52397682D01*
X126890000Y-52602317D01*
X126922009Y-52804417D01*
X126985244Y-52999031D01*
X127078141Y-53181350D01*
X127078147Y-53181359D01*
X127110523Y-53225921D01*
X127110524Y-53225922D01*
X127790000Y-52546446D01*
X127790000Y-52552661D01*
X127817259Y-52654394D01*
X127869920Y-52745606D01*
X127944394Y-52820080D01*
X128035606Y-52872741D01*
X128137339Y-52900000D01*
X128143553Y-52900000D01*
X127464076Y-53579474D01*
X127508650Y-53611859D01*
X127602180Y-53659515D01*
X127652976Y-53707489D01*
X127669771Y-53775310D01*
X127647234Y-53841445D01*
X127602180Y-53880485D01*
X127508644Y-53928143D01*
X127464077Y-53960523D01*
X127464077Y-53960524D01*
X128143554Y-54640000D01*
X128137339Y-54640000D01*
X128035606Y-54667259D01*
X127944394Y-54719920D01*
X127869920Y-54794394D01*
X127817259Y-54885606D01*
X127790000Y-54987339D01*
X127790000Y-54993553D01*
X127110524Y-54314077D01*
X127110523Y-54314077D01*
X127078143Y-54358644D01*
X126985244Y-54540968D01*
X126922009Y-54735582D01*
X126890000Y-54937682D01*
X126890000Y-55142317D01*
X126922009Y-55344417D01*
X126985244Y-55539031D01*
X127078141Y-55721350D01*
X127078147Y-55721359D01*
X127110523Y-55765921D01*
X127110524Y-55765922D01*
X127790000Y-55086446D01*
X127790000Y-55092661D01*
X127817259Y-55194394D01*
X127869920Y-55285606D01*
X127944394Y-55360080D01*
X128035606Y-55412741D01*
X128137339Y-55440000D01*
X128143553Y-55440000D01*
X127464076Y-56119474D01*
X127508650Y-56151859D01*
X127690968Y-56244755D01*
X127885582Y-56307990D01*
X128087683Y-56340000D01*
X128292317Y-56340000D01*
X128494417Y-56307990D01*
X128689031Y-56244755D01*
X128871349Y-56151859D01*
X128915921Y-56119474D01*
X128236447Y-55440000D01*
X128242661Y-55440000D01*
X128344394Y-55412741D01*
X128435606Y-55360080D01*
X128510080Y-55285606D01*
X128562741Y-55194394D01*
X128590000Y-55092661D01*
X128590000Y-55086447D01*
X129269474Y-55765921D01*
X129301859Y-55721349D01*
X129394755Y-55539031D01*
X129457990Y-55344417D01*
X129490000Y-55142317D01*
X129490000Y-54937682D01*
X129457990Y-54735582D01*
X129394755Y-54540968D01*
X129301859Y-54358650D01*
X129269474Y-54314077D01*
X129269474Y-54314076D01*
X128590000Y-54993551D01*
X128590000Y-54987339D01*
X128562741Y-54885606D01*
X128510080Y-54794394D01*
X128435606Y-54719920D01*
X128344394Y-54667259D01*
X128242661Y-54640000D01*
X128236446Y-54640000D01*
X128915922Y-53960524D01*
X128915921Y-53960523D01*
X128871359Y-53928147D01*
X128871350Y-53928141D01*
X128777819Y-53880485D01*
X128727023Y-53832511D01*
X128710228Y-53764690D01*
X128732765Y-53698555D01*
X128777820Y-53659515D01*
X128871346Y-53611861D01*
X128871347Y-53611861D01*
X128915921Y-53579474D01*
X128236447Y-52900000D01*
X128242661Y-52900000D01*
X128344394Y-52872741D01*
X128435606Y-52820080D01*
X128510080Y-52745606D01*
X128562741Y-52654394D01*
X128590000Y-52552661D01*
X128590000Y-52546447D01*
X129269474Y-53225921D01*
X129301859Y-53181349D01*
X129394755Y-52999031D01*
X129457990Y-52804417D01*
X129490000Y-52602317D01*
X129490000Y-52397682D01*
X129457990Y-52195582D01*
X129394755Y-52000968D01*
X129301859Y-51818650D01*
X129269474Y-51774077D01*
X129269474Y-51774076D01*
X128590000Y-52453551D01*
X128590000Y-52447339D01*
X128562741Y-52345606D01*
X128510080Y-52254394D01*
X128435606Y-52179920D01*
X128344394Y-52127259D01*
X128242661Y-52100000D01*
X128236446Y-52100000D01*
X128915922Y-51420524D01*
X128915921Y-51420523D01*
X128871359Y-51388147D01*
X128871350Y-51388141D01*
X128777819Y-51340485D01*
X128727023Y-51292511D01*
X128710228Y-51224690D01*
X128732765Y-51158555D01*
X128777820Y-51119515D01*
X128871346Y-51071861D01*
X128871347Y-51071861D01*
X128915921Y-51039474D01*
X128236447Y-50360000D01*
X128242661Y-50360000D01*
X128344394Y-50332741D01*
X128435606Y-50280080D01*
X128510080Y-50205606D01*
X128562741Y-50114394D01*
X128590000Y-50012661D01*
X128590000Y-50006447D01*
X129269474Y-50685921D01*
X129301859Y-50641349D01*
X129394755Y-50459031D01*
X129457990Y-50264417D01*
X129490000Y-50062317D01*
X129490000Y-49857682D01*
X129457990Y-49655582D01*
X129394755Y-49460968D01*
X129301859Y-49278650D01*
X129269474Y-49234077D01*
X129269474Y-49234076D01*
X128590000Y-49913551D01*
X128590000Y-49907339D01*
X128562741Y-49805606D01*
X128510080Y-49714394D01*
X128435606Y-49639920D01*
X128344394Y-49587259D01*
X128242661Y-49560000D01*
X128236446Y-49560000D01*
X128915922Y-48880524D01*
X128915921Y-48880523D01*
X128871359Y-48848147D01*
X128871350Y-48848141D01*
X128777819Y-48800485D01*
X128727023Y-48752511D01*
X128710228Y-48684690D01*
X128732765Y-48618555D01*
X128777820Y-48579515D01*
X128871346Y-48531861D01*
X128871347Y-48531861D01*
X128915921Y-48499474D01*
X128236447Y-47820000D01*
X128242661Y-47820000D01*
X128344394Y-47792741D01*
X128435606Y-47740080D01*
X128510080Y-47665606D01*
X128562741Y-47574394D01*
X128590000Y-47472661D01*
X128590000Y-47466447D01*
X129269474Y-48145921D01*
X129301859Y-48101349D01*
X129394755Y-47919031D01*
X129457990Y-47724417D01*
X129490000Y-47522317D01*
X129490000Y-47317682D01*
X129457990Y-47115582D01*
X129394755Y-46920968D01*
X129301859Y-46738650D01*
X129269474Y-46694077D01*
X129269474Y-46694076D01*
X128590000Y-47373551D01*
X128590000Y-47367339D01*
X128562741Y-47265606D01*
X128510080Y-47174394D01*
X128435606Y-47099920D01*
X128344394Y-47047259D01*
X128242661Y-47020000D01*
X128236446Y-47020000D01*
X128915922Y-46340524D01*
X128915921Y-46340523D01*
X128871359Y-46308147D01*
X128871350Y-46308141D01*
X128778369Y-46260765D01*
X128727573Y-46212790D01*
X128710778Y-46144969D01*
X128733315Y-46078835D01*
X128778370Y-46039795D01*
X128835894Y-46010485D01*
X128871610Y-45992287D01*
X128921144Y-45956298D01*
X129037213Y-45871971D01*
X129037215Y-45871968D01*
X129037219Y-45871966D01*
X129181966Y-45727219D01*
X129181968Y-45727215D01*
X129181971Y-45727213D01*
X129252037Y-45630774D01*
X129302287Y-45561610D01*
X129395220Y-45379219D01*
X129458477Y-45184534D01*
X129490500Y-44982352D01*
X129490500Y-44777648D01*
X129473657Y-44671309D01*
X129458477Y-44575465D01*
X129395218Y-44380776D01*
X129328276Y-44249397D01*
X129302287Y-44198390D01*
X129253163Y-44130776D01*
X129181971Y-44032786D01*
X129037213Y-43888028D01*
X128871614Y-43767715D01*
X128820896Y-43741873D01*
X128778917Y-43720483D01*
X128728123Y-43672511D01*
X128711328Y-43604690D01*
X128733865Y-43538555D01*
X128778917Y-43499516D01*
X128871610Y-43452287D01*
X128905292Y-43427816D01*
X129037213Y-43331971D01*
X129037215Y-43331968D01*
X129037219Y-43331966D01*
X129181966Y-43187219D01*
X129181968Y-43187215D01*
X129181971Y-43187213D01*
X129302286Y-43021612D01*
X129395218Y-42839223D01*
X129395218Y-42839222D01*
X129395220Y-42839219D01*
X129458477Y-42644534D01*
X129490500Y-42442352D01*
X129490500Y-42319808D01*
X129510185Y-42252769D01*
X129562989Y-42207014D01*
X129632147Y-42197070D01*
X129695703Y-42226095D01*
X129702181Y-42232127D01*
X131063181Y-43593127D01*
X131096666Y-43654450D01*
X131099500Y-43680808D01*
X131099500Y-55085638D01*
X131079815Y-55152677D01*
X131063181Y-55173319D01*
X131050538Y-55185961D01*
X131050535Y-55185965D01*
X130951990Y-55333446D01*
X130951983Y-55333459D01*
X130884106Y-55497332D01*
X130884103Y-55497341D01*
X130849500Y-55671304D01*
X130849500Y-55848695D01*
X130884103Y-56022658D01*
X130884106Y-56022667D01*
X130951983Y-56186540D01*
X130951990Y-56186553D01*
X131050535Y-56334034D01*
X131050538Y-56334038D01*
X131175961Y-56459461D01*
X131175965Y-56459464D01*
X131323446Y-56558009D01*
X131323459Y-56558016D01*
X131446363Y-56608923D01*
X131487334Y-56625894D01*
X131487336Y-56625894D01*
X131487341Y-56625896D01*
X131661304Y-56660499D01*
X131661307Y-56660500D01*
X131661309Y-56660500D01*
X131838693Y-56660500D01*
X131838694Y-56660499D01*
X131899592Y-56648386D01*
X132012658Y-56625896D01*
X132012661Y-56625894D01*
X132012666Y-56625894D01*
X132176547Y-56558013D01*
X132324035Y-56459464D01*
X132449464Y-56334035D01*
X132548013Y-56186547D01*
X132548014Y-56186544D01*
X132548016Y-56186541D01*
X132615025Y-56024763D01*
X132615894Y-56022666D01*
X132620932Y-55997341D01*
X132650499Y-55848695D01*
X132650500Y-55848693D01*
X132650500Y-55671306D01*
X132650499Y-55671304D01*
X132615896Y-55497341D01*
X132615893Y-55497332D01*
X132613083Y-55490549D01*
X132571489Y-55390130D01*
X132548016Y-55333459D01*
X132548009Y-55333446D01*
X132449464Y-55185965D01*
X132449461Y-55185961D01*
X132436819Y-55173319D01*
X132422115Y-55146391D01*
X132405523Y-55120573D01*
X132404631Y-55114372D01*
X132403334Y-55111996D01*
X132400500Y-55085638D01*
X132400500Y-43295928D01*
X132375502Y-43170261D01*
X132375501Y-43170260D01*
X132375501Y-43170256D01*
X132326465Y-43051873D01*
X132326465Y-43051872D01*
X132306950Y-43022667D01*
X132306244Y-43021610D01*
X132255276Y-42945330D01*
X132255274Y-42945327D01*
X132255271Y-42945324D01*
X129497137Y-40187191D01*
X129463652Y-40125868D01*
X129462345Y-40080112D01*
X129463359Y-40073713D01*
X129490500Y-39902352D01*
X129490500Y-39697648D01*
X129458477Y-39495466D01*
X129458476Y-39495464D01*
X129395218Y-39300776D01*
X129361503Y-39234607D01*
X129302287Y-39118390D01*
X129294556Y-39107749D01*
X129181971Y-38952786D01*
X129037213Y-38808028D01*
X128871614Y-38687715D01*
X128816378Y-38659571D01*
X128778917Y-38640483D01*
X128728123Y-38592511D01*
X128711328Y-38524690D01*
X128733865Y-38458555D01*
X128778917Y-38419516D01*
X128871610Y-38372287D01*
X128905292Y-38347816D01*
X129037213Y-38251971D01*
X129037215Y-38251968D01*
X129037219Y-38251966D01*
X129181966Y-38107219D01*
X129181968Y-38107215D01*
X129181971Y-38107213D01*
X129239271Y-38028345D01*
X129302287Y-37941610D01*
X129395220Y-37759219D01*
X129458477Y-37564534D01*
X129490500Y-37362352D01*
X129490500Y-37157648D01*
X129467115Y-37010001D01*
X129458477Y-36955465D01*
X129429127Y-36865137D01*
X129395220Y-36760781D01*
X129395218Y-36760778D01*
X129395218Y-36760776D01*
X129359114Y-36689920D01*
X129302287Y-36578390D01*
X129258692Y-36518386D01*
X129181971Y-36412786D01*
X129037213Y-36268028D01*
X128871614Y-36147715D01*
X128865006Y-36144348D01*
X128778917Y-36100483D01*
X128728123Y-36052511D01*
X128711328Y-35984690D01*
X128733865Y-35918555D01*
X128778917Y-35879516D01*
X128871610Y-35832287D01*
X128909469Y-35804781D01*
X129037213Y-35711971D01*
X129037215Y-35711968D01*
X129037219Y-35711966D01*
X129181966Y-35567219D01*
X129181968Y-35567215D01*
X129181971Y-35567213D01*
X129234732Y-35494590D01*
X129302287Y-35401610D01*
X129395220Y-35219219D01*
X129458477Y-35024534D01*
X129490500Y-34822352D01*
X129490500Y-34617648D01*
X129475972Y-34525921D01*
X129458477Y-34415465D01*
X129395218Y-34220776D01*
X129335929Y-34104417D01*
X129302287Y-34038390D01*
X129258884Y-33978650D01*
X129181971Y-33872786D01*
X129037219Y-33728034D01*
X129037211Y-33728028D01*
X128943547Y-33659978D01*
X128900882Y-33604649D01*
X128894903Y-33535036D01*
X128927508Y-33473240D01*
X128977426Y-33441955D01*
X129059334Y-33414814D01*
X129208656Y-33322712D01*
X129332712Y-33198656D01*
X129424814Y-33049334D01*
X129479999Y-32882797D01*
X129490500Y-32780009D01*
X129490499Y-32077648D01*
X134509500Y-32077648D01*
X134509500Y-32282351D01*
X134541522Y-32484534D01*
X134604781Y-32679223D01*
X134697715Y-32861613D01*
X134818028Y-33027213D01*
X134962786Y-33171971D01*
X135045806Y-33232287D01*
X135128390Y-33292287D01*
X135193025Y-33325220D01*
X135221080Y-33339515D01*
X135271876Y-33387490D01*
X135288671Y-33455311D01*
X135266134Y-33521446D01*
X135221080Y-33560485D01*
X135128386Y-33607715D01*
X134962786Y-33728028D01*
X134818028Y-33872786D01*
X134697715Y-34038386D01*
X134604781Y-34220776D01*
X134541522Y-34415465D01*
X134509500Y-34617648D01*
X134509500Y-34822351D01*
X134541522Y-35024534D01*
X134604781Y-35219223D01*
X134697715Y-35401613D01*
X134818028Y-35567213D01*
X134962786Y-35711971D01*
X135110424Y-35819234D01*
X135128390Y-35832287D01*
X135219840Y-35878883D01*
X135221080Y-35879515D01*
X135271876Y-35927490D01*
X135288671Y-35995311D01*
X135266134Y-36061446D01*
X135221080Y-36100485D01*
X135128386Y-36147715D01*
X134962786Y-36268028D01*
X134818028Y-36412786D01*
X134697715Y-36578386D01*
X134604781Y-36760776D01*
X134541522Y-36955465D01*
X134519003Y-37097648D01*
X134509500Y-37157648D01*
X134509500Y-37362352D01*
X134525593Y-37463957D01*
X134541523Y-37564534D01*
X134541522Y-37564534D01*
X134604781Y-37759223D01*
X134697715Y-37941613D01*
X134818028Y-38107213D01*
X134962786Y-38251971D01*
X135094708Y-38347816D01*
X135128390Y-38372287D01*
X135193025Y-38405220D01*
X135221080Y-38419515D01*
X135271876Y-38467490D01*
X135288671Y-38535311D01*
X135266134Y-38601446D01*
X135221080Y-38640485D01*
X135128386Y-38687715D01*
X134962786Y-38808028D01*
X134818028Y-38952786D01*
X134697715Y-39118386D01*
X134604781Y-39300776D01*
X134541522Y-39495465D01*
X134509500Y-39697648D01*
X134509500Y-39902351D01*
X134541522Y-40104534D01*
X134604781Y-40299223D01*
X134655595Y-40398949D01*
X134677334Y-40441615D01*
X134697715Y-40481613D01*
X134818028Y-40647213D01*
X134962786Y-40791971D01*
X135110811Y-40899515D01*
X135128390Y-40912287D01*
X135193025Y-40945220D01*
X135221080Y-40959515D01*
X135271876Y-41007490D01*
X135288671Y-41075311D01*
X135266134Y-41141446D01*
X135221080Y-41180485D01*
X135128386Y-41227715D01*
X134962786Y-41348028D01*
X134818028Y-41492786D01*
X134697715Y-41658386D01*
X134604781Y-41840776D01*
X134541522Y-42035465D01*
X134509500Y-42237648D01*
X134509500Y-42442351D01*
X134541522Y-42644534D01*
X134604781Y-42839223D01*
X134697714Y-43021612D01*
X134818028Y-43187213D01*
X134962786Y-43331971D01*
X135103717Y-43434361D01*
X135128390Y-43452287D01*
X135193025Y-43485220D01*
X135221080Y-43499515D01*
X135271876Y-43547490D01*
X135288671Y-43615311D01*
X135266134Y-43681446D01*
X135221080Y-43720485D01*
X135128386Y-43767715D01*
X134962786Y-43888028D01*
X134818028Y-44032786D01*
X134697715Y-44198386D01*
X134604781Y-44380776D01*
X134541522Y-44575465D01*
X134509500Y-44777648D01*
X134509500Y-44982351D01*
X134541522Y-45184534D01*
X134604781Y-45379223D01*
X134667141Y-45501610D01*
X134695023Y-45556331D01*
X134697715Y-45561613D01*
X134818028Y-45727213D01*
X134962786Y-45871971D01*
X135110811Y-45979515D01*
X135128390Y-45992287D01*
X135193025Y-46025220D01*
X135221080Y-46039515D01*
X135271876Y-46087490D01*
X135288671Y-46155311D01*
X135266134Y-46221446D01*
X135221080Y-46260485D01*
X135128386Y-46307715D01*
X134962786Y-46428028D01*
X134818028Y-46572786D01*
X134697715Y-46738386D01*
X134604781Y-46920776D01*
X134541522Y-47115465D01*
X134509500Y-47317648D01*
X134509500Y-47522351D01*
X134541522Y-47724534D01*
X134604781Y-47919223D01*
X134667141Y-48041610D01*
X134697585Y-48101359D01*
X134697715Y-48101613D01*
X134818028Y-48267213D01*
X134962786Y-48411971D01*
X135110811Y-48519515D01*
X135128390Y-48532287D01*
X135219840Y-48578883D01*
X135221080Y-48579515D01*
X135271876Y-48627490D01*
X135288671Y-48695311D01*
X135266134Y-48761446D01*
X135221080Y-48800485D01*
X135128386Y-48847715D01*
X134962786Y-48968028D01*
X134818028Y-49112786D01*
X134697715Y-49278386D01*
X134604781Y-49460776D01*
X134541522Y-49655465D01*
X134509500Y-49857648D01*
X134509500Y-50062351D01*
X134541522Y-50264534D01*
X134604781Y-50459223D01*
X134667009Y-50581350D01*
X134697585Y-50641359D01*
X134697715Y-50641613D01*
X134818028Y-50807213D01*
X134962786Y-50951971D01*
X135117749Y-51064556D01*
X135128390Y-51072287D01*
X135193021Y-51105218D01*
X135221080Y-51119515D01*
X135271876Y-51167490D01*
X135288671Y-51235311D01*
X135266134Y-51301446D01*
X135221080Y-51340485D01*
X135128386Y-51387715D01*
X134962786Y-51508028D01*
X134818028Y-51652786D01*
X134697715Y-51818386D01*
X134604781Y-52000776D01*
X134541522Y-52195465D01*
X134509500Y-52397648D01*
X134509500Y-52602351D01*
X134541522Y-52804534D01*
X134604781Y-52999223D01*
X134658051Y-53103769D01*
X134697585Y-53181359D01*
X134697715Y-53181613D01*
X134818028Y-53347213D01*
X134962786Y-53491971D01*
X135128385Y-53612284D01*
X135128387Y-53612285D01*
X135128390Y-53612287D01*
X135164106Y-53630485D01*
X135221630Y-53659795D01*
X135272426Y-53707770D01*
X135289221Y-53775591D01*
X135266684Y-53841725D01*
X135221630Y-53880765D01*
X135128644Y-53928143D01*
X135084077Y-53960523D01*
X135084077Y-53960524D01*
X135763554Y-54640000D01*
X135757339Y-54640000D01*
X135655606Y-54667259D01*
X135564394Y-54719920D01*
X135489920Y-54794394D01*
X135437259Y-54885606D01*
X135410000Y-54987339D01*
X135410000Y-54993553D01*
X134730524Y-54314077D01*
X134730523Y-54314077D01*
X134698143Y-54358644D01*
X134605244Y-54540968D01*
X134542009Y-54735582D01*
X134510000Y-54937682D01*
X134510000Y-55142317D01*
X134542009Y-55344417D01*
X134605244Y-55539031D01*
X134698141Y-55721350D01*
X134698147Y-55721359D01*
X134730523Y-55765921D01*
X134730524Y-55765922D01*
X135410000Y-55086446D01*
X135410000Y-55092661D01*
X135437259Y-55194394D01*
X135489920Y-55285606D01*
X135564394Y-55360080D01*
X135655606Y-55412741D01*
X135757339Y-55440000D01*
X135763553Y-55440000D01*
X135084076Y-56119474D01*
X135128650Y-56151859D01*
X135310968Y-56244755D01*
X135505582Y-56307990D01*
X135707683Y-56340000D01*
X135912317Y-56340000D01*
X136114417Y-56307990D01*
X136309031Y-56244755D01*
X136491349Y-56151859D01*
X136535921Y-56119474D01*
X135856447Y-55440000D01*
X135862661Y-55440000D01*
X135964394Y-55412741D01*
X136055606Y-55360080D01*
X136130080Y-55285606D01*
X136182741Y-55194394D01*
X136210000Y-55092661D01*
X136210000Y-55086447D01*
X136889474Y-55765921D01*
X136921859Y-55721349D01*
X137014755Y-55539031D01*
X137077990Y-55344417D01*
X137110000Y-55142317D01*
X137110000Y-54937682D01*
X137077990Y-54735582D01*
X137014755Y-54540968D01*
X136921859Y-54358650D01*
X136889474Y-54314077D01*
X136889474Y-54314076D01*
X136210000Y-54993551D01*
X136210000Y-54987339D01*
X136182741Y-54885606D01*
X136130080Y-54794394D01*
X136055606Y-54719920D01*
X135964394Y-54667259D01*
X135862661Y-54640000D01*
X135856446Y-54640000D01*
X136535922Y-53960524D01*
X136535921Y-53960523D01*
X136491359Y-53928147D01*
X136491350Y-53928141D01*
X136398369Y-53880765D01*
X136347573Y-53832790D01*
X136330778Y-53764969D01*
X136353315Y-53698835D01*
X136398370Y-53659795D01*
X136455894Y-53630485D01*
X136491610Y-53612287D01*
X136541144Y-53576298D01*
X136657213Y-53491971D01*
X136657215Y-53491968D01*
X136657219Y-53491966D01*
X136801966Y-53347219D01*
X136801968Y-53347215D01*
X136801971Y-53347213D01*
X136862375Y-53264073D01*
X136922287Y-53181610D01*
X137015220Y-52999219D01*
X137078477Y-52804534D01*
X137110500Y-52602352D01*
X137110500Y-52397648D01*
X137094834Y-52298738D01*
X137078477Y-52195465D01*
X137044047Y-52089501D01*
X137015220Y-52000781D01*
X137015218Y-52000778D01*
X137015218Y-52000776D01*
X136981503Y-51934607D01*
X136922287Y-51818390D01*
X136890092Y-51774077D01*
X136801971Y-51652786D01*
X136657213Y-51508028D01*
X136491614Y-51387715D01*
X136457050Y-51370104D01*
X136398917Y-51340483D01*
X136348123Y-51292511D01*
X136331328Y-51224690D01*
X136353865Y-51158555D01*
X136398917Y-51119516D01*
X136491610Y-51072287D01*
X136525292Y-51047816D01*
X136657213Y-50951971D01*
X136657215Y-50951968D01*
X136657219Y-50951966D01*
X136801966Y-50807219D01*
X136801968Y-50807215D01*
X136801971Y-50807213D01*
X136863092Y-50723085D01*
X136922287Y-50641610D01*
X137015220Y-50459219D01*
X137078477Y-50264534D01*
X137110500Y-50062352D01*
X137110500Y-49857648D01*
X137092754Y-49745606D01*
X137078477Y-49655465D01*
X137027963Y-49500000D01*
X137015220Y-49460781D01*
X137015218Y-49460778D01*
X137015218Y-49460776D01*
X136981503Y-49394607D01*
X136922287Y-49278390D01*
X136890092Y-49234077D01*
X136801971Y-49112786D01*
X136657213Y-48968028D01*
X136491614Y-48847715D01*
X136457050Y-48830104D01*
X136398917Y-48800483D01*
X136348123Y-48752511D01*
X136331328Y-48684690D01*
X136353865Y-48618555D01*
X136398917Y-48579516D01*
X136491610Y-48532287D01*
X136525292Y-48507816D01*
X136657213Y-48411971D01*
X136657215Y-48411968D01*
X136657219Y-48411966D01*
X136801966Y-48267219D01*
X136801968Y-48267215D01*
X136801971Y-48267213D01*
X136863092Y-48183085D01*
X136922287Y-48101610D01*
X137015220Y-47919219D01*
X137078477Y-47724534D01*
X137110500Y-47522352D01*
X137110500Y-47317648D01*
X137100997Y-47257648D01*
X137078477Y-47115465D01*
X137047458Y-47020000D01*
X137015220Y-46920781D01*
X137015218Y-46920778D01*
X137015218Y-46920776D01*
X136981503Y-46854607D01*
X136922287Y-46738390D01*
X136890092Y-46694077D01*
X136801971Y-46572786D01*
X136657213Y-46428028D01*
X136491614Y-46307715D01*
X136457050Y-46290104D01*
X136398917Y-46260483D01*
X136348123Y-46212511D01*
X136331328Y-46144690D01*
X136353865Y-46078555D01*
X136398917Y-46039516D01*
X136491610Y-45992287D01*
X136525292Y-45967816D01*
X136657213Y-45871971D01*
X136657215Y-45871968D01*
X136657219Y-45871966D01*
X136801966Y-45727219D01*
X136801968Y-45727215D01*
X136801971Y-45727213D01*
X136872037Y-45630774D01*
X136922287Y-45561610D01*
X137015220Y-45379219D01*
X137078477Y-45184534D01*
X137110500Y-44982352D01*
X137110500Y-44777648D01*
X137093657Y-44671309D01*
X137078477Y-44575465D01*
X137015218Y-44380776D01*
X136948276Y-44249397D01*
X136922287Y-44198390D01*
X136873163Y-44130776D01*
X136801971Y-44032786D01*
X136657213Y-43888028D01*
X136491614Y-43767715D01*
X136440896Y-43741873D01*
X136398917Y-43720483D01*
X136348123Y-43672511D01*
X136331328Y-43604690D01*
X136353865Y-43538555D01*
X136398917Y-43499516D01*
X136491610Y-43452287D01*
X136525292Y-43427816D01*
X136657213Y-43331971D01*
X136657215Y-43331968D01*
X136657219Y-43331966D01*
X136801966Y-43187219D01*
X136801968Y-43187215D01*
X136801971Y-43187213D01*
X136922286Y-43021612D01*
X137015218Y-42839223D01*
X137015218Y-42839222D01*
X137015220Y-42839219D01*
X137078477Y-42644534D01*
X137110500Y-42442352D01*
X137110500Y-42237648D01*
X137078477Y-42035466D01*
X137058981Y-41975465D01*
X137015218Y-41840776D01*
X136970115Y-41752258D01*
X136922287Y-41658390D01*
X136873163Y-41590776D01*
X136801971Y-41492786D01*
X136657213Y-41348028D01*
X136491614Y-41227715D01*
X136485006Y-41224348D01*
X136398917Y-41180483D01*
X136348123Y-41132511D01*
X136331328Y-41064690D01*
X136353865Y-40998555D01*
X136398917Y-40959516D01*
X136491610Y-40912287D01*
X136525292Y-40887816D01*
X136657213Y-40791971D01*
X136657215Y-40791968D01*
X136657219Y-40791966D01*
X136801966Y-40647219D01*
X136801968Y-40647215D01*
X136801971Y-40647213D01*
X136854732Y-40574590D01*
X136922287Y-40481610D01*
X137015220Y-40299219D01*
X137078477Y-40104534D01*
X137110500Y-39902352D01*
X137110500Y-39697648D01*
X137078477Y-39495466D01*
X137078476Y-39495462D01*
X137078476Y-39495461D01*
X137060811Y-39441094D01*
X137049944Y-39407648D01*
X143449500Y-39407648D01*
X143449500Y-39612351D01*
X143481522Y-39814534D01*
X143544781Y-40009223D01*
X143593345Y-40104534D01*
X143635461Y-40187191D01*
X143637715Y-40191613D01*
X143758028Y-40357213D01*
X143902786Y-40501971D01*
X144057749Y-40614556D01*
X144068390Y-40622287D01*
X144184607Y-40681503D01*
X144250776Y-40715218D01*
X144250778Y-40715218D01*
X144250781Y-40715220D01*
X144353376Y-40748555D01*
X144445465Y-40778477D01*
X144530631Y-40791966D01*
X144647648Y-40810500D01*
X144647649Y-40810500D01*
X144852351Y-40810500D01*
X144852352Y-40810500D01*
X145054534Y-40778477D01*
X145249219Y-40715220D01*
X145431610Y-40622287D01*
X145524590Y-40554732D01*
X145597213Y-40501971D01*
X145597215Y-40501968D01*
X145597219Y-40501966D01*
X145741966Y-40357219D01*
X145741968Y-40357215D01*
X145741971Y-40357213D01*
X145823296Y-40245277D01*
X145862287Y-40191610D01*
X145955220Y-40009219D01*
X146018477Y-39814534D01*
X146050500Y-39612352D01*
X146050500Y-39407648D01*
X146033483Y-39300208D01*
X146018477Y-39205465D01*
X145980797Y-39089500D01*
X145955220Y-39010781D01*
X145955218Y-39010778D01*
X145955218Y-39010776D01*
X145921503Y-38944607D01*
X145862287Y-38828390D01*
X145838063Y-38795048D01*
X145741971Y-38662786D01*
X145597213Y-38518028D01*
X145431611Y-38397713D01*
X145377621Y-38370203D01*
X145326825Y-38322228D01*
X145310031Y-38254407D01*
X145332569Y-38188272D01*
X145377624Y-38149233D01*
X145431349Y-38121859D01*
X145475921Y-38089474D01*
X144796447Y-37410000D01*
X144802661Y-37410000D01*
X144904394Y-37382741D01*
X144995606Y-37330080D01*
X145070080Y-37255606D01*
X145122741Y-37164394D01*
X145150000Y-37062661D01*
X145150000Y-37056447D01*
X145829474Y-37735921D01*
X145861859Y-37691349D01*
X145954755Y-37509031D01*
X146017990Y-37314417D01*
X146050000Y-37112317D01*
X146050000Y-36907682D01*
X146017990Y-36705582D01*
X145954754Y-36510965D01*
X145930396Y-36463160D01*
X145930395Y-36463159D01*
X145861859Y-36328650D01*
X145829474Y-36284077D01*
X145829474Y-36284076D01*
X145150000Y-36963551D01*
X145150000Y-36957339D01*
X145122741Y-36855606D01*
X145070080Y-36764394D01*
X144995606Y-36689920D01*
X144904394Y-36637259D01*
X144802661Y-36610000D01*
X144796446Y-36610000D01*
X145475922Y-35930524D01*
X145475921Y-35930523D01*
X145431359Y-35898147D01*
X145431350Y-35898141D01*
X145249031Y-35805244D01*
X145054417Y-35742009D01*
X144852317Y-35710000D01*
X144647683Y-35710000D01*
X144445582Y-35742009D01*
X144250968Y-35805244D01*
X144068644Y-35898143D01*
X144024077Y-35930523D01*
X144024077Y-35930524D01*
X144703554Y-36610000D01*
X144697339Y-36610000D01*
X144595606Y-36637259D01*
X144504394Y-36689920D01*
X144429920Y-36764394D01*
X144377259Y-36855606D01*
X144350000Y-36957339D01*
X144350000Y-36963553D01*
X143670524Y-36284077D01*
X143670523Y-36284077D01*
X143638143Y-36328644D01*
X143545244Y-36510968D01*
X143482009Y-36705582D01*
X143450000Y-36907682D01*
X143450000Y-37112317D01*
X143482009Y-37314417D01*
X143545244Y-37509031D01*
X143638141Y-37691350D01*
X143638147Y-37691359D01*
X143670523Y-37735921D01*
X143670524Y-37735922D01*
X144350000Y-37056446D01*
X144350000Y-37062661D01*
X144377259Y-37164394D01*
X144429920Y-37255606D01*
X144504394Y-37330080D01*
X144595606Y-37382741D01*
X144697339Y-37410000D01*
X144703553Y-37410000D01*
X144024076Y-38089474D01*
X144068652Y-38121861D01*
X144122376Y-38149234D01*
X144173172Y-38197208D01*
X144189968Y-38265028D01*
X144167431Y-38331164D01*
X144122379Y-38370203D01*
X144068386Y-38397714D01*
X143902786Y-38518028D01*
X143758028Y-38662786D01*
X143637715Y-38828386D01*
X143544781Y-39010776D01*
X143481522Y-39205465D01*
X143449500Y-39407648D01*
X137049944Y-39407648D01*
X137015218Y-39300776D01*
X136981503Y-39234607D01*
X136922287Y-39118390D01*
X136914556Y-39107749D01*
X136801971Y-38952786D01*
X136657213Y-38808028D01*
X136491614Y-38687715D01*
X136436378Y-38659571D01*
X136398917Y-38640483D01*
X136348123Y-38592511D01*
X136331328Y-38524690D01*
X136353865Y-38458555D01*
X136398917Y-38419516D01*
X136491610Y-38372287D01*
X136525292Y-38347816D01*
X136657213Y-38251971D01*
X136657215Y-38251968D01*
X136657219Y-38251966D01*
X136801966Y-38107219D01*
X136801968Y-38107215D01*
X136801971Y-38107213D01*
X136859271Y-38028345D01*
X136922287Y-37941610D01*
X137015220Y-37759219D01*
X137078477Y-37564534D01*
X137110500Y-37362352D01*
X137110500Y-37157648D01*
X137078477Y-36955466D01*
X137078476Y-36955462D01*
X137078476Y-36955461D01*
X137073821Y-36941134D01*
X137015218Y-36760776D01*
X136979114Y-36689920D01*
X136922287Y-36578390D01*
X136878692Y-36518386D01*
X136801971Y-36412786D01*
X136657213Y-36268028D01*
X136491614Y-36147715D01*
X136485006Y-36144348D01*
X136398917Y-36100483D01*
X136389764Y-36091839D01*
X136378100Y-36087105D01*
X136364847Y-36068306D01*
X136348123Y-36052511D01*
X136345096Y-36040289D01*
X136337842Y-36029999D01*
X136336856Y-36007016D01*
X136331328Y-35984690D01*
X136335389Y-35972772D01*
X136334850Y-35960193D01*
X136346445Y-35940327D01*
X136353865Y-35918555D01*
X136364567Y-35909280D01*
X136370072Y-35899851D01*
X136398916Y-35879516D01*
X136491610Y-35832287D01*
X136566888Y-35777595D01*
X136657213Y-35711971D01*
X136657215Y-35711968D01*
X136657219Y-35711966D01*
X136801966Y-35567219D01*
X136801968Y-35567215D01*
X136801971Y-35567213D01*
X136854732Y-35494590D01*
X136922287Y-35401610D01*
X137015220Y-35219219D01*
X137078477Y-35024534D01*
X137110500Y-34822352D01*
X137110500Y-34617648D01*
X137095972Y-34525921D01*
X137078477Y-34415465D01*
X137015218Y-34220776D01*
X136955929Y-34104417D01*
X136922287Y-34038390D01*
X136878884Y-33978650D01*
X136801971Y-33872786D01*
X136657213Y-33728028D01*
X136491614Y-33607715D01*
X136485006Y-33604348D01*
X136398917Y-33560483D01*
X136348123Y-33512511D01*
X136331328Y-33444690D01*
X136353865Y-33378555D01*
X136398917Y-33339516D01*
X136491610Y-33292287D01*
X136574198Y-33232284D01*
X136657213Y-33171971D01*
X136657215Y-33171968D01*
X136657219Y-33171966D01*
X136801966Y-33027219D01*
X136801968Y-33027215D01*
X136801971Y-33027213D01*
X136872117Y-32930663D01*
X136922287Y-32861610D01*
X137015220Y-32679219D01*
X137078477Y-32484534D01*
X137110500Y-32282352D01*
X137110500Y-32077648D01*
X137078477Y-31875466D01*
X137058981Y-31815465D01*
X137015218Y-31680776D01*
X136963865Y-31579991D01*
X136922287Y-31498390D01*
X136899967Y-31467669D01*
X136801971Y-31332786D01*
X136657213Y-31188028D01*
X136491613Y-31067715D01*
X136491612Y-31067714D01*
X136491610Y-31067713D01*
X136431898Y-31037288D01*
X136309223Y-30974781D01*
X136114534Y-30911522D01*
X135939995Y-30883878D01*
X135912352Y-30879500D01*
X135707648Y-30879500D01*
X135683329Y-30883351D01*
X135505465Y-30911522D01*
X135310776Y-30974781D01*
X135128386Y-31067715D01*
X134962786Y-31188028D01*
X134818028Y-31332786D01*
X134697715Y-31498386D01*
X134604781Y-31680776D01*
X134541522Y-31875465D01*
X134509500Y-32077648D01*
X129490499Y-32077648D01*
X129490499Y-31579992D01*
X129479999Y-31477203D01*
X129424814Y-31310666D01*
X129332712Y-31161344D01*
X129208656Y-31037288D01*
X129059334Y-30945186D01*
X128892797Y-30890001D01*
X128892795Y-30890000D01*
X128790010Y-30879500D01*
X127589998Y-30879500D01*
X127589981Y-30879501D01*
X127487203Y-30890000D01*
X127487200Y-30890001D01*
X127320668Y-30945185D01*
X127320663Y-30945187D01*
X127171342Y-31037289D01*
X127047289Y-31161342D01*
X126955187Y-31310663D01*
X126955186Y-31310666D01*
X126900001Y-31477203D01*
X126900001Y-31477204D01*
X126900000Y-31477204D01*
X126889500Y-31579983D01*
X126889500Y-32509191D01*
X126869815Y-32576230D01*
X126853181Y-32596872D01*
X120396873Y-39053181D01*
X120335550Y-39086666D01*
X120309192Y-39089500D01*
X119258071Y-39089500D01*
X119191032Y-39069815D01*
X119157754Y-39038386D01*
X119051966Y-38892781D01*
X118907219Y-38748034D01*
X118907213Y-38748028D01*
X118741614Y-38627715D01*
X118672522Y-38592511D01*
X118648917Y-38580483D01*
X118598123Y-38532511D01*
X118581328Y-38464690D01*
X118603865Y-38398555D01*
X118648917Y-38359516D01*
X118741610Y-38312287D01*
X118785465Y-38280425D01*
X118907213Y-38191971D01*
X118907215Y-38191968D01*
X118907219Y-38191966D01*
X119051966Y-38047219D01*
X119051968Y-38047215D01*
X119051971Y-38047213D01*
X119118066Y-37956239D01*
X119172287Y-37881610D01*
X119265220Y-37699219D01*
X119328477Y-37504534D01*
X119360500Y-37302352D01*
X119360500Y-37097648D01*
X119337980Y-36955464D01*
X119328477Y-36895465D01*
X119284715Y-36760781D01*
X119265220Y-36700781D01*
X119265218Y-36700778D01*
X119265218Y-36700776D01*
X119231503Y-36634607D01*
X119172287Y-36518390D01*
X119147991Y-36484949D01*
X119051971Y-36352786D01*
X118907213Y-36208028D01*
X118741614Y-36087715D01*
X118735006Y-36084348D01*
X118648917Y-36040483D01*
X118598123Y-35992511D01*
X118581328Y-35924690D01*
X118603865Y-35858555D01*
X118648917Y-35819516D01*
X118741610Y-35772287D01*
X118762770Y-35756913D01*
X118907213Y-35651971D01*
X118907215Y-35651968D01*
X118907219Y-35651966D01*
X119051966Y-35507219D01*
X119051968Y-35507215D01*
X119051971Y-35507213D01*
X119118148Y-35416127D01*
X119172287Y-35341610D01*
X119265220Y-35159219D01*
X119328477Y-34964534D01*
X119360500Y-34762352D01*
X119360500Y-34557648D01*
X119337980Y-34415465D01*
X119328477Y-34355465D01*
X119284715Y-34220781D01*
X119265220Y-34160781D01*
X119265218Y-34160778D01*
X119265218Y-34160776D01*
X119206535Y-34045606D01*
X119172287Y-33978390D01*
X119140092Y-33934077D01*
X119051971Y-33812786D01*
X118907213Y-33668028D01*
X118741614Y-33547715D01*
X118672522Y-33512511D01*
X118648917Y-33500483D01*
X118598123Y-33452511D01*
X118581328Y-33384690D01*
X118603865Y-33318555D01*
X118648917Y-33279516D01*
X118741610Y-33232287D01*
X118762770Y-33216913D01*
X118907213Y-33111971D01*
X118907215Y-33111968D01*
X118907219Y-33111966D01*
X119051966Y-32967219D01*
X119051968Y-32967215D01*
X119051971Y-32967213D01*
X119113303Y-32882795D01*
X119172287Y-32801610D01*
X119265220Y-32619219D01*
X119328477Y-32424534D01*
X119360500Y-32222352D01*
X119360500Y-32017648D01*
X119328477Y-31815466D01*
X119265220Y-31620781D01*
X119265218Y-31620778D01*
X119265218Y-31620776D01*
X119213865Y-31519991D01*
X119172287Y-31438390D01*
X119156892Y-31417200D01*
X119051971Y-31272786D01*
X118907213Y-31128028D01*
X118741613Y-31007715D01*
X118741612Y-31007714D01*
X118741610Y-31007713D01*
X118681898Y-30977288D01*
X118559223Y-30914781D01*
X118364534Y-30851522D01*
X118189995Y-30823878D01*
X118162352Y-30819500D01*
X117957648Y-30819500D01*
X117933329Y-30823351D01*
X117755465Y-30851522D01*
X117560776Y-30914781D01*
X117378386Y-31007715D01*
X117212786Y-31128028D01*
X117068028Y-31272786D01*
X116947715Y-31438386D01*
X116854781Y-31620776D01*
X116791522Y-31815465D01*
X116759500Y-32017648D01*
X116759500Y-32222351D01*
X116791522Y-32424534D01*
X116854781Y-32619223D01*
X116918691Y-32744653D01*
X116936710Y-32780016D01*
X116947715Y-32801613D01*
X117068028Y-32967213D01*
X117212786Y-33111971D01*
X117367749Y-33224556D01*
X117378390Y-33232287D01*
X117469840Y-33278883D01*
X117471080Y-33279515D01*
X117521876Y-33327490D01*
X117538671Y-33395311D01*
X117516134Y-33461446D01*
X117471080Y-33500485D01*
X117378386Y-33547715D01*
X117212786Y-33668028D01*
X117068028Y-33812786D01*
X116947715Y-33978386D01*
X116854781Y-34160776D01*
X116791522Y-34355465D01*
X116764996Y-34522946D01*
X116759500Y-34557648D01*
X116759500Y-34762352D01*
X116763878Y-34789995D01*
X116791522Y-34964534D01*
X116854781Y-35159223D01*
X116918691Y-35284653D01*
X116947585Y-35341359D01*
X116947715Y-35341613D01*
X117068028Y-35507213D01*
X117212786Y-35651971D01*
X117367749Y-35764556D01*
X117378390Y-35772287D01*
X117469840Y-35818883D01*
X117471080Y-35819515D01*
X117521876Y-35867490D01*
X117538671Y-35935311D01*
X117516134Y-36001446D01*
X117471080Y-36040485D01*
X117378386Y-36087715D01*
X117212786Y-36208028D01*
X117068028Y-36352786D01*
X116947715Y-36518386D01*
X116854781Y-36700776D01*
X116791522Y-36895465D01*
X116773382Y-37009999D01*
X116759500Y-37097648D01*
X116759500Y-37302352D01*
X116772233Y-37382741D01*
X116791523Y-37504534D01*
X116791522Y-37504534D01*
X116854781Y-37699223D01*
X116913548Y-37814558D01*
X116946446Y-37879124D01*
X116947715Y-37881613D01*
X117068028Y-38047213D01*
X117212786Y-38191971D01*
X117367749Y-38304556D01*
X117378390Y-38312287D01*
X117469840Y-38358883D01*
X117471080Y-38359515D01*
X117521876Y-38407490D01*
X117538671Y-38475311D01*
X117516134Y-38541446D01*
X117471080Y-38580485D01*
X117378386Y-38627715D01*
X117212786Y-38748028D01*
X117068028Y-38892786D01*
X116947715Y-39058386D01*
X116854781Y-39240776D01*
X116791522Y-39435465D01*
X116759500Y-39637648D01*
X116759500Y-39842352D01*
X116762890Y-39863757D01*
X116787654Y-40020111D01*
X116778699Y-40089405D01*
X116752862Y-40127190D01*
X115894724Y-40985328D01*
X115837133Y-41071519D01*
X115837134Y-41071520D01*
X115823534Y-41091874D01*
X115774499Y-41210255D01*
X115774497Y-41210261D01*
X115749500Y-41335928D01*
X111335113Y-41335928D01*
X111287213Y-41288028D01*
X111121614Y-41167715D01*
X111052522Y-41132511D01*
X111028917Y-41120483D01*
X110978123Y-41072511D01*
X110961328Y-41004690D01*
X110983865Y-40938555D01*
X111028917Y-40899516D01*
X111121610Y-40852287D01*
X111173358Y-40814690D01*
X111287213Y-40731971D01*
X111287215Y-40731968D01*
X111287219Y-40731966D01*
X111431966Y-40587219D01*
X111431968Y-40587215D01*
X111431971Y-40587213D01*
X111498066Y-40496239D01*
X111552287Y-40421610D01*
X111645220Y-40239219D01*
X111708477Y-40044534D01*
X111740500Y-39842352D01*
X111740500Y-39637648D01*
X111717980Y-39495464D01*
X111708477Y-39435465D01*
X111664715Y-39300781D01*
X111645220Y-39240781D01*
X111645218Y-39240778D01*
X111645218Y-39240776D01*
X111598912Y-39149896D01*
X111552287Y-39058390D01*
X111537753Y-39038385D01*
X111431971Y-38892786D01*
X111287217Y-38748032D01*
X111287212Y-38748028D01*
X111241615Y-38714900D01*
X111198949Y-38659571D01*
X111190500Y-38614582D01*
X111190500Y-38325416D01*
X111210185Y-38258377D01*
X111241613Y-38225099D01*
X111287219Y-38191966D01*
X111431966Y-38047219D01*
X111431968Y-38047215D01*
X111431971Y-38047213D01*
X111498066Y-37956239D01*
X111552287Y-37881610D01*
X111645220Y-37699219D01*
X111708477Y-37504534D01*
X111740500Y-37302352D01*
X111740500Y-37097648D01*
X111717980Y-36955464D01*
X111708477Y-36895465D01*
X111664715Y-36760781D01*
X111645220Y-36700781D01*
X111645218Y-36700778D01*
X111645218Y-36700776D01*
X111611503Y-36634607D01*
X111552287Y-36518390D01*
X111527991Y-36484949D01*
X111431971Y-36352786D01*
X111287213Y-36208028D01*
X111121611Y-36087713D01*
X111028369Y-36040203D01*
X110977574Y-35992229D01*
X110960779Y-35924407D01*
X110983317Y-35858273D01*
X111028371Y-35819234D01*
X111121346Y-35771861D01*
X111121347Y-35771861D01*
X111165921Y-35739474D01*
X110486447Y-35060000D01*
X110492661Y-35060000D01*
X110594394Y-35032741D01*
X110685606Y-34980080D01*
X110760080Y-34905606D01*
X110812741Y-34814394D01*
X110840000Y-34712661D01*
X110840000Y-34706448D01*
X111519474Y-35385922D01*
X111519474Y-35385921D01*
X111551859Y-35341349D01*
X111644755Y-35159031D01*
X111707990Y-34964417D01*
X111740000Y-34762317D01*
X111740000Y-34557682D01*
X111707990Y-34355582D01*
X111644755Y-34160968D01*
X111551859Y-33978650D01*
X111519474Y-33934077D01*
X111519474Y-33934076D01*
X110840000Y-34613551D01*
X110840000Y-34607339D01*
X110812741Y-34505606D01*
X110760080Y-34414394D01*
X110685606Y-34339920D01*
X110594394Y-34287259D01*
X110492661Y-34260000D01*
X110486446Y-34260000D01*
X111165922Y-33580524D01*
X111164570Y-33563349D01*
X111150299Y-33544842D01*
X111144320Y-33475229D01*
X111176925Y-33413433D01*
X111226845Y-33382148D01*
X111309334Y-33354814D01*
X111458656Y-33262712D01*
X111582712Y-33138656D01*
X111674814Y-32989334D01*
X111729999Y-32822797D01*
X111740500Y-32720009D01*
X111740499Y-31519992D01*
X111729999Y-31417203D01*
X111674814Y-31250666D01*
X111582712Y-31101344D01*
X111458656Y-30977288D01*
X111352032Y-30911522D01*
X111309336Y-30885187D01*
X111309331Y-30885185D01*
X111292175Y-30879500D01*
X111142797Y-30830001D01*
X111142795Y-30830000D01*
X111040010Y-30819500D01*
X109839998Y-30819500D01*
X109839981Y-30819501D01*
X109737203Y-30830000D01*
X109737200Y-30830001D01*
X109570668Y-30885185D01*
X109570663Y-30885187D01*
X109421342Y-30977289D01*
X109297289Y-31101342D01*
X109205187Y-31250663D01*
X109205185Y-31250668D01*
X109197858Y-31272781D01*
X109150001Y-31417203D01*
X109150001Y-31417204D01*
X109150000Y-31417204D01*
X109139500Y-31519983D01*
X109139500Y-32720001D01*
X109139501Y-32720018D01*
X109150000Y-32822796D01*
X109150001Y-32822799D01*
X109205185Y-32989331D01*
X109205187Y-32989336D01*
X109240069Y-33045888D01*
X109297288Y-33138656D01*
X109421344Y-33262712D01*
X109570666Y-33354814D01*
X109653152Y-33382147D01*
X109710597Y-33421920D01*
X109737420Y-33486436D01*
X109725105Y-33555212D01*
X109715143Y-33566975D01*
X109714077Y-33580524D01*
X110393554Y-34260000D01*
X110387339Y-34260000D01*
X110285606Y-34287259D01*
X110194394Y-34339920D01*
X110119920Y-34414394D01*
X110067259Y-34505606D01*
X110040000Y-34607339D01*
X110040000Y-34613553D01*
X109360524Y-33934077D01*
X109360523Y-33934077D01*
X109328143Y-33978644D01*
X109235244Y-34160968D01*
X109172009Y-34355582D01*
X109140000Y-34557682D01*
X109140000Y-34762317D01*
X109172009Y-34964417D01*
X109235244Y-35159031D01*
X109328141Y-35341350D01*
X109328147Y-35341359D01*
X109360523Y-35385921D01*
X109360524Y-35385922D01*
X110040000Y-34706446D01*
X110040000Y-34712661D01*
X110067259Y-34814394D01*
X110119920Y-34905606D01*
X110194394Y-34980080D01*
X110285606Y-35032741D01*
X110387339Y-35060000D01*
X110393553Y-35060000D01*
X109714076Y-35739474D01*
X109758652Y-35771861D01*
X109851628Y-35819234D01*
X109902425Y-35867208D01*
X109919220Y-35935029D01*
X109896683Y-36001164D01*
X109851630Y-36040203D01*
X109758388Y-36087713D01*
X109592786Y-36208028D01*
X109448028Y-36352786D01*
X109327715Y-36518386D01*
X109234781Y-36700776D01*
X109171522Y-36895465D01*
X109153382Y-37009999D01*
X109139500Y-37097648D01*
X109139500Y-37302352D01*
X109152233Y-37382741D01*
X109171523Y-37504534D01*
X109171522Y-37504534D01*
X109234781Y-37699223D01*
X109293548Y-37814558D01*
X109326446Y-37879124D01*
X109327715Y-37881613D01*
X109448028Y-38047213D01*
X109448034Y-38047219D01*
X109592781Y-38191966D01*
X109638384Y-38225098D01*
X109681050Y-38280425D01*
X109689500Y-38325416D01*
X109689500Y-38614582D01*
X109669815Y-38681621D01*
X109638385Y-38714900D01*
X109592787Y-38748028D01*
X109592782Y-38748032D01*
X109448028Y-38892786D01*
X109327715Y-39058386D01*
X109234781Y-39240776D01*
X109171522Y-39435465D01*
X109139500Y-39637648D01*
X109139500Y-39842352D01*
X109142890Y-39863757D01*
X109171522Y-40044534D01*
X109234781Y-40239223D01*
X109327715Y-40421613D01*
X109448028Y-40587213D01*
X109592786Y-40731971D01*
X109747211Y-40844165D01*
X109758390Y-40852287D01*
X109835244Y-40891446D01*
X109851080Y-40899515D01*
X109901876Y-40947490D01*
X109918671Y-41015311D01*
X109896134Y-41081446D01*
X109851080Y-41120485D01*
X109758386Y-41167715D01*
X109592786Y-41288028D01*
X109448028Y-41432786D01*
X109327715Y-41598386D01*
X109234781Y-41780776D01*
X109171522Y-41975465D01*
X109139500Y-42177648D01*
X109139500Y-42382352D01*
X109142890Y-42403757D01*
X109171522Y-42584534D01*
X109234781Y-42779223D01*
X109298691Y-42904653D01*
X109319416Y-42945327D01*
X109327715Y-42961613D01*
X109448028Y-43127213D01*
X109592786Y-43271971D01*
X109721260Y-43365311D01*
X109758390Y-43392287D01*
X109835244Y-43431446D01*
X109851080Y-43439515D01*
X109901876Y-43487490D01*
X109918671Y-43555311D01*
X109896134Y-43621446D01*
X109851080Y-43660485D01*
X109758388Y-43707714D01*
X109592786Y-43828028D01*
X109448028Y-43972786D01*
X109327715Y-44138386D01*
X109234781Y-44320776D01*
X109171522Y-44515465D01*
X109146840Y-44671304D01*
X109139500Y-44717648D01*
X109139500Y-44922352D01*
X109142890Y-44943757D01*
X109171522Y-45124534D01*
X109234781Y-45319223D01*
X109327715Y-45501613D01*
X109448028Y-45667213D01*
X109592786Y-45811971D01*
X109721260Y-45905311D01*
X109758390Y-45932287D01*
X109835244Y-45971446D01*
X109851080Y-45979515D01*
X109901876Y-46027490D01*
X109918671Y-46095311D01*
X109896134Y-46161446D01*
X109851080Y-46200485D01*
X109758386Y-46247715D01*
X109592786Y-46368028D01*
X109448028Y-46512786D01*
X109327715Y-46678386D01*
X109234781Y-46860776D01*
X109171522Y-47055465D01*
X109162001Y-47115582D01*
X109139500Y-47257648D01*
X109139500Y-47462352D01*
X109142890Y-47483757D01*
X109171522Y-47664534D01*
X109234781Y-47859223D01*
X109327715Y-48041613D01*
X109448028Y-48207213D01*
X109592786Y-48351971D01*
X109758385Y-48472284D01*
X109758387Y-48472285D01*
X109758390Y-48472287D01*
X109835244Y-48511446D01*
X109851630Y-48519795D01*
X109902426Y-48567770D01*
X109919221Y-48635591D01*
X109896684Y-48701725D01*
X109851630Y-48740765D01*
X109758644Y-48788143D01*
X109714077Y-48820523D01*
X109714077Y-48820524D01*
X110393553Y-49500000D01*
X110387339Y-49500000D01*
X110285606Y-49527259D01*
X110194394Y-49579920D01*
X110119920Y-49654394D01*
X110067259Y-49745606D01*
X110040000Y-49847339D01*
X110040000Y-49853553D01*
X109360524Y-49174077D01*
X109360523Y-49174077D01*
X109328143Y-49218644D01*
X109235244Y-49400968D01*
X109172009Y-49595582D01*
X109140000Y-49797682D01*
X109140000Y-50002317D01*
X109172009Y-50204417D01*
X109235244Y-50399031D01*
X109328141Y-50581350D01*
X109328147Y-50581359D01*
X109360523Y-50625921D01*
X109360524Y-50625922D01*
X110040000Y-49946446D01*
X110040000Y-49952661D01*
X110067259Y-50054394D01*
X110119920Y-50145606D01*
X110194394Y-50220080D01*
X110285606Y-50272741D01*
X110387339Y-50300000D01*
X110393552Y-50300000D01*
X109714076Y-50979474D01*
X109758650Y-51011859D01*
X109940968Y-51104755D01*
X110135582Y-51167990D01*
X110337683Y-51200000D01*
X110542317Y-51200000D01*
X110744418Y-51167989D01*
X110744424Y-51167988D01*
X110778180Y-51157020D01*
X110848021Y-51155023D01*
X110907854Y-51191103D01*
X110938684Y-51253803D01*
X110940500Y-51274950D01*
X110940500Y-51788191D01*
X110920815Y-51855230D01*
X110904181Y-51875872D01*
X110726872Y-52053181D01*
X110665549Y-52086666D01*
X110639191Y-52089500D01*
X109599998Y-52089500D01*
X109599980Y-52089501D01*
X109497203Y-52100000D01*
X109497200Y-52100001D01*
X109330668Y-52155185D01*
X109330663Y-52155187D01*
X109181342Y-52247289D01*
X109057289Y-52371342D01*
X108965187Y-52520663D01*
X108965185Y-52520668D01*
X108953963Y-52554534D01*
X108910001Y-52687203D01*
X108910001Y-52687204D01*
X108910000Y-52687204D01*
X108899500Y-52789983D01*
X100500499Y-52789983D01*
X100500499Y-28657648D01*
X115699500Y-28657648D01*
X115699500Y-28862351D01*
X115731522Y-29064534D01*
X115794781Y-29259223D01*
X115837248Y-29342567D01*
X115887585Y-29441359D01*
X115887715Y-29441613D01*
X116008028Y-29607213D01*
X116152786Y-29751971D01*
X116307749Y-29864556D01*
X116318390Y-29872287D01*
X116434607Y-29931503D01*
X116500776Y-29965218D01*
X116500778Y-29965218D01*
X116500781Y-29965220D01*
X116605137Y-29999127D01*
X116695465Y-30028477D01*
X116796557Y-30044488D01*
X116897648Y-30060500D01*
X116897649Y-30060500D01*
X117102351Y-30060500D01*
X117102352Y-30060500D01*
X117304534Y-30028477D01*
X117499219Y-29965220D01*
X117681610Y-29872287D01*
X117774590Y-29804732D01*
X117847213Y-29751971D01*
X117847215Y-29751968D01*
X117847219Y-29751966D01*
X117991966Y-29607219D01*
X117991968Y-29607215D01*
X117991971Y-29607213D01*
X118112286Y-29441611D01*
X118112415Y-29441359D01*
X118139795Y-29387621D01*
X118187769Y-29336826D01*
X118255589Y-29320030D01*
X118321725Y-29342567D01*
X118360765Y-29387621D01*
X118388141Y-29441350D01*
X118388147Y-29441359D01*
X118420523Y-29485921D01*
X118420524Y-29485922D01*
X119100000Y-28806446D01*
X119100000Y-28812661D01*
X119127259Y-28914394D01*
X119179920Y-29005606D01*
X119254394Y-29080080D01*
X119345606Y-29132741D01*
X119447339Y-29160000D01*
X119453553Y-29160000D01*
X118774076Y-29839474D01*
X118818650Y-29871859D01*
X119000968Y-29964755D01*
X119195582Y-30027990D01*
X119397683Y-30060000D01*
X119602317Y-30060000D01*
X119804417Y-30027990D01*
X119999031Y-29964755D01*
X120181349Y-29871859D01*
X120225921Y-29839474D01*
X119546447Y-29160000D01*
X119552661Y-29160000D01*
X119654394Y-29132741D01*
X119745606Y-29080080D01*
X119820080Y-29005606D01*
X119872741Y-28914394D01*
X119900000Y-28812661D01*
X119900000Y-28806448D01*
X120579474Y-29485922D01*
X120579474Y-29485921D01*
X120611859Y-29441349D01*
X120704755Y-29259031D01*
X120767990Y-29064417D01*
X120792820Y-28907648D01*
X133449500Y-28907648D01*
X133449500Y-29112351D01*
X133481522Y-29314534D01*
X133544781Y-29509223D01*
X133608691Y-29634653D01*
X133637585Y-29691359D01*
X133637715Y-29691613D01*
X133758028Y-29857213D01*
X133902786Y-30001971D01*
X134023226Y-30089474D01*
X134068390Y-30122287D01*
X134184607Y-30181503D01*
X134250776Y-30215218D01*
X134250778Y-30215218D01*
X134250781Y-30215220D01*
X134355137Y-30249127D01*
X134445465Y-30278477D01*
X134546557Y-30294488D01*
X134647648Y-30310500D01*
X134647649Y-30310500D01*
X134852351Y-30310500D01*
X134852352Y-30310500D01*
X135054534Y-30278477D01*
X135249219Y-30215220D01*
X135431610Y-30122287D01*
X135524590Y-30054732D01*
X135597213Y-30001971D01*
X135597215Y-30001968D01*
X135597219Y-30001966D01*
X135741966Y-29857219D01*
X135741968Y-29857215D01*
X135741971Y-29857213D01*
X135847264Y-29712287D01*
X135862287Y-29691610D01*
X135889795Y-29637621D01*
X135937769Y-29586826D01*
X136005589Y-29570030D01*
X136071725Y-29592567D01*
X136110765Y-29637621D01*
X136138141Y-29691350D01*
X136138147Y-29691359D01*
X136170523Y-29735921D01*
X136170524Y-29735922D01*
X136850000Y-29056446D01*
X136850000Y-29062661D01*
X136877259Y-29164394D01*
X136929920Y-29255606D01*
X137004394Y-29330080D01*
X137095606Y-29382741D01*
X137197339Y-29410000D01*
X137203553Y-29410000D01*
X136524076Y-30089474D01*
X136568650Y-30121859D01*
X136750968Y-30214755D01*
X136945582Y-30277990D01*
X137147683Y-30310000D01*
X137352317Y-30310000D01*
X137554417Y-30277990D01*
X137749031Y-30214755D01*
X137931349Y-30121859D01*
X137975921Y-30089474D01*
X137296447Y-29410000D01*
X137302661Y-29410000D01*
X137404394Y-29382741D01*
X137495606Y-29330080D01*
X137570080Y-29255606D01*
X137622741Y-29164394D01*
X137650000Y-29062661D01*
X137650000Y-29056448D01*
X138329474Y-29735922D01*
X138329474Y-29735921D01*
X138361859Y-29691349D01*
X138420674Y-29575920D01*
X138420675Y-29575918D01*
X138454754Y-29509034D01*
X138517990Y-29314417D01*
X138550000Y-29112317D01*
X138550000Y-28907682D01*
X138517990Y-28705582D01*
X138461308Y-28531135D01*
X138461307Y-28531133D01*
X138454756Y-28510971D01*
X138447985Y-28497682D01*
X151080000Y-28497682D01*
X151080000Y-28702317D01*
X151112009Y-28904417D01*
X151175244Y-29099031D01*
X151268141Y-29281350D01*
X151268147Y-29281359D01*
X151300523Y-29325921D01*
X151300524Y-29325922D01*
X151980000Y-28646446D01*
X151980000Y-28652661D01*
X152007259Y-28754394D01*
X152059920Y-28845606D01*
X152134394Y-28920080D01*
X152225606Y-28972741D01*
X152327339Y-29000000D01*
X152333553Y-29000000D01*
X151654076Y-29679474D01*
X151698650Y-29711859D01*
X151880968Y-29804755D01*
X152075582Y-29867990D01*
X152277683Y-29900000D01*
X152482317Y-29900000D01*
X152684417Y-29867990D01*
X152879031Y-29804755D01*
X153061349Y-29711859D01*
X153105921Y-29679474D01*
X152426447Y-29000000D01*
X152432661Y-29000000D01*
X152534394Y-28972741D01*
X152625606Y-28920080D01*
X152700080Y-28845606D01*
X152752741Y-28754394D01*
X152780000Y-28652661D01*
X152780000Y-28646447D01*
X153459474Y-29325921D01*
X153491859Y-29281349D01*
X153584755Y-29099031D01*
X153647990Y-28904417D01*
X153680000Y-28702317D01*
X153680000Y-28497682D01*
X153647990Y-28295582D01*
X153584755Y-28100968D01*
X153491859Y-27918650D01*
X153459474Y-27874077D01*
X153459474Y-27874076D01*
X152780000Y-28553551D01*
X152780000Y-28547339D01*
X152752741Y-28445606D01*
X152700080Y-28354394D01*
X152625606Y-28279920D01*
X152534394Y-28227259D01*
X152432661Y-28200000D01*
X152426446Y-28200000D01*
X153105922Y-27520524D01*
X153105921Y-27520523D01*
X153061359Y-27488147D01*
X153061350Y-27488141D01*
X152879031Y-27395244D01*
X152684417Y-27332009D01*
X152482317Y-27300000D01*
X152277683Y-27300000D01*
X152075582Y-27332009D01*
X151880968Y-27395244D01*
X151698644Y-27488143D01*
X151654077Y-27520523D01*
X151654077Y-27520524D01*
X152333554Y-28200000D01*
X152327339Y-28200000D01*
X152225606Y-28227259D01*
X152134394Y-28279920D01*
X152059920Y-28354394D01*
X152007259Y-28445606D01*
X151980000Y-28547339D01*
X151980000Y-28553553D01*
X151300524Y-27874077D01*
X151300523Y-27874077D01*
X151268143Y-27918644D01*
X151175244Y-28100968D01*
X151112009Y-28295582D01*
X151080000Y-28497682D01*
X138447985Y-28497682D01*
X138361859Y-28328650D01*
X138329474Y-28284077D01*
X138329474Y-28284076D01*
X137650000Y-28963551D01*
X137650000Y-28957339D01*
X137622741Y-28855606D01*
X137570080Y-28764394D01*
X137495606Y-28689920D01*
X137404394Y-28637259D01*
X137302661Y-28610000D01*
X137296446Y-28610000D01*
X137975922Y-27930524D01*
X137975921Y-27930523D01*
X137931359Y-27898147D01*
X137931350Y-27898141D01*
X137749031Y-27805244D01*
X137554417Y-27742009D01*
X137352317Y-27710000D01*
X137147683Y-27710000D01*
X136945582Y-27742009D01*
X136750968Y-27805244D01*
X136568644Y-27898143D01*
X136524077Y-27930523D01*
X136524077Y-27930524D01*
X137203554Y-28610000D01*
X137197339Y-28610000D01*
X137095606Y-28637259D01*
X137004394Y-28689920D01*
X136929920Y-28764394D01*
X136877259Y-28855606D01*
X136850000Y-28957339D01*
X136850000Y-28963553D01*
X136170524Y-28284077D01*
X136170523Y-28284077D01*
X136138143Y-28328644D01*
X136110765Y-28382378D01*
X136062790Y-28433174D01*
X135994969Y-28449969D01*
X135928834Y-28427431D01*
X135889795Y-28382378D01*
X135878393Y-28360000D01*
X135862287Y-28328390D01*
X135862285Y-28328387D01*
X135862284Y-28328385D01*
X135741971Y-28162786D01*
X135597213Y-28018028D01*
X135431613Y-27897715D01*
X135431612Y-27897714D01*
X135431610Y-27897713D01*
X135374653Y-27868691D01*
X135249223Y-27804781D01*
X135054534Y-27741522D01*
X134874399Y-27712992D01*
X134852352Y-27709500D01*
X134647648Y-27709500D01*
X134625601Y-27712992D01*
X134445465Y-27741522D01*
X134250776Y-27804781D01*
X134068386Y-27897715D01*
X133902786Y-28018028D01*
X133758028Y-28162786D01*
X133637715Y-28328386D01*
X133544781Y-28510776D01*
X133481522Y-28705465D01*
X133449500Y-28907648D01*
X120792820Y-28907648D01*
X120796664Y-28883378D01*
X120796664Y-28883377D01*
X120800000Y-28862316D01*
X120800000Y-28657682D01*
X120767990Y-28455582D01*
X120704755Y-28260968D01*
X120611859Y-28078650D01*
X120579474Y-28034077D01*
X120579474Y-28034076D01*
X119900000Y-28713551D01*
X119900000Y-28707339D01*
X119872741Y-28605606D01*
X119820080Y-28514394D01*
X119745606Y-28439920D01*
X119654394Y-28387259D01*
X119552661Y-28360000D01*
X119546446Y-28360000D01*
X120225922Y-27680524D01*
X120208824Y-27668102D01*
X120208822Y-27668099D01*
X120181359Y-27648147D01*
X120181350Y-27648141D01*
X119999031Y-27555244D01*
X119804417Y-27492009D01*
X119602317Y-27460000D01*
X119397683Y-27460000D01*
X119195582Y-27492009D01*
X119000968Y-27555244D01*
X118818644Y-27648143D01*
X118774077Y-27680523D01*
X118774077Y-27680524D01*
X119453554Y-28360000D01*
X119447339Y-28360000D01*
X119345606Y-28387259D01*
X119254394Y-28439920D01*
X119179920Y-28514394D01*
X119127259Y-28605606D01*
X119100000Y-28707339D01*
X119100000Y-28713553D01*
X118420524Y-28034077D01*
X118420523Y-28034077D01*
X118388143Y-28078644D01*
X118360765Y-28132378D01*
X118312790Y-28183174D01*
X118244969Y-28199969D01*
X118178834Y-28177431D01*
X118139795Y-28132378D01*
X118123791Y-28100968D01*
X118112287Y-28078390D01*
X118112285Y-28078387D01*
X118112284Y-28078385D01*
X117991971Y-27912786D01*
X117847213Y-27768028D01*
X117681613Y-27647715D01*
X117681612Y-27647714D01*
X117681610Y-27647713D01*
X117603724Y-27608028D01*
X117499223Y-27554781D01*
X117304534Y-27491522D01*
X117129995Y-27463878D01*
X117102352Y-27459500D01*
X116897648Y-27459500D01*
X116873329Y-27463351D01*
X116695465Y-27491522D01*
X116500776Y-27554781D01*
X116318386Y-27647715D01*
X116152786Y-27768028D01*
X116008028Y-27912786D01*
X115887715Y-28078386D01*
X115794781Y-28260776D01*
X115731522Y-28455465D01*
X115699500Y-28657648D01*
X100500499Y-28657648D01*
X100500499Y-25497648D01*
X151099500Y-25497648D01*
X151099500Y-25702351D01*
X151131522Y-25904534D01*
X151194781Y-26099223D01*
X151258691Y-26224653D01*
X151287585Y-26281359D01*
X151287715Y-26281613D01*
X151408028Y-26447213D01*
X151552786Y-26591971D01*
X151673226Y-26679474D01*
X151718390Y-26712287D01*
X151834607Y-26771503D01*
X151900776Y-26805218D01*
X151900778Y-26805218D01*
X151900781Y-26805220D01*
X152005137Y-26839127D01*
X152095465Y-26868477D01*
X152196557Y-26884488D01*
X152297648Y-26900500D01*
X152297649Y-26900500D01*
X152502351Y-26900500D01*
X152502352Y-26900500D01*
X152704534Y-26868477D01*
X152899219Y-26805220D01*
X153081610Y-26712287D01*
X153174590Y-26644732D01*
X153247213Y-26591971D01*
X153247215Y-26591968D01*
X153247219Y-26591966D01*
X153391966Y-26447219D01*
X153391968Y-26447215D01*
X153391971Y-26447213D01*
X153444732Y-26374590D01*
X153512287Y-26281610D01*
X153605220Y-26099219D01*
X153668477Y-25904534D01*
X153700500Y-25702352D01*
X153700500Y-25497682D01*
X158720000Y-25497682D01*
X158720000Y-25702317D01*
X158752009Y-25904417D01*
X158815244Y-26099031D01*
X158908141Y-26281350D01*
X158908147Y-26281359D01*
X158940523Y-26325921D01*
X158940524Y-26325922D01*
X159620000Y-25646446D01*
X159620000Y-25652661D01*
X159647259Y-25754394D01*
X159699920Y-25845606D01*
X159774394Y-25920080D01*
X159865606Y-25972741D01*
X159967339Y-26000000D01*
X159973553Y-26000000D01*
X159294076Y-26679474D01*
X159338650Y-26711859D01*
X159520968Y-26804755D01*
X159715582Y-26867990D01*
X159917683Y-26900000D01*
X160122317Y-26900000D01*
X160324417Y-26867990D01*
X160519031Y-26804755D01*
X160701349Y-26711859D01*
X160745921Y-26679474D01*
X160066447Y-26000000D01*
X160072661Y-26000000D01*
X160174394Y-25972741D01*
X160265606Y-25920080D01*
X160340080Y-25845606D01*
X160392741Y-25754394D01*
X160420000Y-25652661D01*
X160420000Y-25646448D01*
X161099474Y-26325922D01*
X161099474Y-26325921D01*
X161131859Y-26281349D01*
X161224755Y-26099031D01*
X161287990Y-25904417D01*
X161320000Y-25702317D01*
X161320000Y-25497682D01*
X161287990Y-25295582D01*
X161224755Y-25100968D01*
X161131859Y-24918650D01*
X161099474Y-24874077D01*
X161099474Y-24874076D01*
X160420000Y-25553551D01*
X160420000Y-25547339D01*
X160392741Y-25445606D01*
X160340080Y-25354394D01*
X160265606Y-25279920D01*
X160174394Y-25227259D01*
X160072661Y-25200000D01*
X160066446Y-25200000D01*
X160745922Y-24520524D01*
X160745921Y-24520523D01*
X160701359Y-24488147D01*
X160701350Y-24488141D01*
X160519031Y-24395244D01*
X160324417Y-24332009D01*
X160122317Y-24300000D01*
X159917683Y-24300000D01*
X159715582Y-24332009D01*
X159520968Y-24395244D01*
X159338644Y-24488143D01*
X159294077Y-24520523D01*
X159294077Y-24520524D01*
X159973554Y-25200000D01*
X159967339Y-25200000D01*
X159865606Y-25227259D01*
X159774394Y-25279920D01*
X159699920Y-25354394D01*
X159647259Y-25445606D01*
X159620000Y-25547339D01*
X159620000Y-25553553D01*
X158940524Y-24874077D01*
X158940523Y-24874077D01*
X158908143Y-24918644D01*
X158815244Y-25100968D01*
X158752009Y-25295582D01*
X158720000Y-25497682D01*
X153700500Y-25497682D01*
X153700500Y-25497648D01*
X153682771Y-25385713D01*
X153668477Y-25295465D01*
X153635027Y-25192517D01*
X153605220Y-25100781D01*
X153605218Y-25100778D01*
X153605218Y-25100776D01*
X153554984Y-25002187D01*
X153512287Y-24918390D01*
X153480092Y-24874077D01*
X153391971Y-24752786D01*
X153247213Y-24608028D01*
X153081613Y-24487715D01*
X153081612Y-24487714D01*
X153081610Y-24487713D01*
X153024653Y-24458691D01*
X152899223Y-24394781D01*
X152704534Y-24331522D01*
X152529995Y-24303878D01*
X152502352Y-24299500D01*
X152297648Y-24299500D01*
X152273329Y-24303351D01*
X152095465Y-24331522D01*
X151900776Y-24394781D01*
X151718386Y-24487715D01*
X151552786Y-24608028D01*
X151408028Y-24752786D01*
X151287715Y-24918386D01*
X151194781Y-25100776D01*
X151131522Y-25295465D01*
X151099500Y-25497648D01*
X100500499Y-25497648D01*
X100500499Y-25095984D01*
X100500617Y-25090575D01*
X100502157Y-25055307D01*
X100517385Y-24706528D01*
X100518325Y-24695795D01*
X100568150Y-24317333D01*
X100570023Y-24306703D01*
X100652647Y-23934014D01*
X100655445Y-23923576D01*
X100770228Y-23559528D01*
X100773916Y-23549396D01*
X100920002Y-23196713D01*
X100924555Y-23186949D01*
X101100835Y-22848317D01*
X101106213Y-22839003D01*
X101311318Y-22517053D01*
X101317509Y-22508210D01*
X101549895Y-22205360D01*
X101556833Y-22197091D01*
X101814725Y-21915652D01*
X101822351Y-21908026D01*
X102103790Y-21650134D01*
X102112059Y-21643196D01*
X102414909Y-21410810D01*
X102423752Y-21404619D01*
X102745702Y-21199514D01*
X102755023Y-21194132D01*
X103093637Y-21017861D01*
X103103411Y-21013303D01*
X103456087Y-20867219D01*
X103466233Y-20863526D01*
X103830294Y-20748739D01*
X103840708Y-20745948D01*
X104213404Y-20663324D01*
X104224024Y-20661451D01*
X104602494Y-20611625D01*
X104613226Y-20610685D01*
X104997236Y-20593919D01*
X105002579Y-20593801D01*
X105065891Y-20593801D01*
X105066013Y-20593768D01*
X177061749Y-20558267D01*
X177067132Y-20558384D01*
G37*
%TD.AperFunction*%
%TD*%
M02*
