%TF.GenerationSoftware,KiCad,Pcbnew,9.0.2*%
%TF.CreationDate,2025-07-11T05:31:07-04:00*%
%TF.ProjectId,am9511-6502,616d3935-3131-42d3-9635-30322e6b6963,rev?*%
%TF.SameCoordinates,Original*%
%TF.FileFunction,Copper,L1,Top*%
%TF.FilePolarity,Positive*%
%FSLAX46Y46*%
G04 Gerber Fmt 4.6, Leading zero omitted, Abs format (unit mm)*
G04 Created by KiCad (PCBNEW 9.0.2) date 2025-07-11 05:31:07*
%MOMM*%
%LPD*%
G01*
G04 APERTURE LIST*
G04 Aperture macros list*
%AMRoundRect*
0 Rectangle with rounded corners*
0 $1 Rounding radius*
0 $2 $3 $4 $5 $6 $7 $8 $9 X,Y pos of 4 corners*
0 Add a 4 corners polygon primitive as box body*
4,1,4,$2,$3,$4,$5,$6,$7,$8,$9,$2,$3,0*
0 Add four circle primitives for the rounded corners*
1,1,$1+$1,$2,$3*
1,1,$1+$1,$4,$5*
1,1,$1+$1,$6,$7*
1,1,$1+$1,$8,$9*
0 Add four rect primitives between the rounded corners*
20,1,$1+$1,$2,$3,$4,$5,0*
20,1,$1+$1,$4,$5,$6,$7,0*
20,1,$1+$1,$6,$7,$8,$9,0*
20,1,$1+$1,$8,$9,$2,$3,0*%
G04 Aperture macros list end*
%TA.AperFunction,ComponentPad*%
%ADD10C,1.600000*%
%TD*%
%TA.AperFunction,ComponentPad*%
%ADD11R,1.800000X1.800000*%
%TD*%
%TA.AperFunction,ComponentPad*%
%ADD12C,1.800000*%
%TD*%
%TA.AperFunction,ComponentPad*%
%ADD13RoundRect,0.250000X-0.550000X0.550000X-0.550000X-0.550000X0.550000X-0.550000X0.550000X0.550000X0*%
%TD*%
%TA.AperFunction,ComponentPad*%
%ADD14RoundRect,0.250000X0.550000X0.550000X-0.550000X0.550000X-0.550000X-0.550000X0.550000X-0.550000X0*%
%TD*%
%TA.AperFunction,ComponentPad*%
%ADD15C,3.800000*%
%TD*%
%TA.AperFunction,ComponentPad*%
%ADD16R,1.700000X1.700000*%
%TD*%
%TA.AperFunction,ComponentPad*%
%ADD17C,1.700000*%
%TD*%
%TA.AperFunction,ComponentPad*%
%ADD18RoundRect,0.250000X-0.550000X-0.550000X0.550000X-0.550000X0.550000X0.550000X-0.550000X0.550000X0*%
%TD*%
%TA.AperFunction,ComponentPad*%
%ADD19R,1.600000X1.600000*%
%TD*%
%TA.AperFunction,ComponentPad*%
%ADD20O,1.700000X1.700000*%
%TD*%
%TA.AperFunction,ViaPad*%
%ADD21C,0.800000*%
%TD*%
%TA.AperFunction,Conductor*%
%ADD22C,0.300000*%
%TD*%
%TA.AperFunction,Conductor*%
%ADD23C,0.500000*%
%TD*%
G04 APERTURE END LIST*
D10*
%TO.P,R3,1*%
%TO.N,Net-(D3-K)*%
X152400000Y-25600000D03*
%TO.P,R3,2*%
%TO.N,GND*%
X160020000Y-25600000D03*
%TD*%
%TO.P,R1,1*%
%TO.N,VCC*%
X129190000Y-60800000D03*
%TO.P,R1,2*%
%TO.N,Net-(U5A-RCext)*%
X136810000Y-60800000D03*
%TD*%
D11*
%TO.P,D3,1,K*%
%TO.N,Net-(D3-K)*%
X170800000Y-26200000D03*
D12*
%TO.P,D3,2,A*%
%TO.N,VCC*%
X168260000Y-26200000D03*
%TD*%
D13*
%TO.P,D1,1,K*%
%TO.N,Net-(D1-K)*%
X110200000Y-53390000D03*
D10*
%TO.P,D1,2,A*%
%TO.N,/RDY*%
X110200000Y-61010000D03*
%TD*%
D14*
%TO.P,C7,1*%
%TO.N,VCC*%
X169205113Y-33800000D03*
D10*
%TO.P,C7,2*%
%TO.N,GND*%
X166705113Y-33800000D03*
%TD*%
D15*
%TO.P,H3,1,1*%
%TO.N,GND*%
X105000000Y-82440000D03*
%TD*%
%TO.P,H1,1,1*%
%TO.N,GND*%
X105000000Y-25040000D03*
%TD*%
%TO.P,H4,1,1*%
%TO.N,GND*%
X177082262Y-82522267D03*
%TD*%
D10*
%TO.P,C5,1*%
%TO.N,VCC*%
X125500000Y-68760000D03*
%TO.P,C5,2*%
%TO.N,GND*%
X128000000Y-68760000D03*
%TD*%
D16*
%TO.P,J1,1,Pin_1*%
%TO.N,VCC*%
X173790364Y-32560000D03*
D17*
%TO.P,J1,2,Pin_2*%
%TO.N,GND*%
X173790364Y-35100000D03*
%TO.P,J1,3,Pin_3*%
%TO.N,/D0*%
X173790364Y-37640000D03*
%TO.P,J1,4,Pin_4*%
%TO.N,/D1*%
X173790364Y-40180000D03*
%TO.P,J1,5,Pin_5*%
%TO.N,/D2*%
X173790364Y-42720000D03*
%TO.P,J1,6,Pin_6*%
%TO.N,/D3*%
X173790364Y-45260000D03*
%TO.P,J1,7,Pin_7*%
%TO.N,/D4*%
X173790364Y-47800000D03*
%TO.P,J1,8,Pin_8*%
%TO.N,/D5*%
X173790364Y-50340000D03*
%TO.P,J1,9,Pin_9*%
%TO.N,/D6*%
X173790364Y-52880000D03*
%TO.P,J1,10,Pin_10*%
%TO.N,/D7*%
X173790364Y-55420000D03*
%TO.P,J1,11,Pin_11*%
%TO.N,/A0*%
X173790364Y-57960000D03*
%TO.P,J1,12,Pin_12*%
%TO.N,/~{CS}*%
X173790364Y-60500000D03*
%TO.P,J1,13,Pin_13*%
%TO.N,/R{slash}~{W}*%
X173790364Y-63040000D03*
%TO.P,J1,14,Pin_14*%
%TO.N,/~{RESET}*%
X173790364Y-65580000D03*
%TO.P,J1,15,Pin_15*%
%TO.N,/RDY*%
X173790364Y-68120000D03*
%TO.P,J1,16,Pin_16*%
%TO.N,/PHI2*%
X173790364Y-70660000D03*
%TO.P,J1,17,Pin_17*%
%TO.N,/~{IRQ}*%
X173790364Y-73200000D03*
%TO.P,J1,18,Pin_18*%
%TO.N,GND*%
X173790364Y-75740000D03*
%TD*%
D15*
%TO.P,H2,1,1*%
%TO.N,GND*%
X177000000Y-25040000D03*
%TD*%
D18*
%TO.P,U3,1,C*%
%TO.N,/CLK1*%
X110440000Y-32120000D03*
D10*
%TO.P,U3,2,K*%
%TO.N,GND*%
X110440000Y-34660000D03*
%TO.P,U3,3,J*%
%TO.N,VCC*%
X110440000Y-37200000D03*
%TO.P,U3,4,~{S}*%
X110440000Y-39740000D03*
%TO.P,U3,5,Q*%
%TO.N,/Q1*%
X110440000Y-42280000D03*
%TO.P,U3,6,~{Q}*%
%TO.N,Net-(D1-K)*%
X110440000Y-44820000D03*
%TO.P,U3,7,~{Q}*%
%TO.N,Net-(U3A-~{R})*%
X110440000Y-47360000D03*
%TO.P,U3,8,GND*%
%TO.N,GND*%
X110440000Y-49900000D03*
%TO.P,U3,9,Q*%
%TO.N,/Q2*%
X118060000Y-49900000D03*
%TO.P,U3,10,~{S}*%
%TO.N,VCC*%
X118060000Y-47360000D03*
%TO.P,U3,11,J*%
%TO.N,/Q1*%
X118060000Y-44820000D03*
%TO.P,U3,12,K*%
%TO.N,Net-(D1-K)*%
X118060000Y-42280000D03*
%TO.P,U3,13,C*%
%TO.N,/PHI2*%
X118060000Y-39740000D03*
%TO.P,U3,14,~{R}*%
%TO.N,/~{PAUSE}*%
X118060000Y-37200000D03*
%TO.P,U3,15,~{R}*%
%TO.N,Net-(U3A-~{R})*%
X118060000Y-34660000D03*
%TO.P,U3,16,VCC*%
%TO.N,VCC*%
X118060000Y-32120000D03*
%TD*%
D11*
%TO.P,D2,1,K*%
%TO.N,Net-(D2-K)*%
X165600000Y-26200000D03*
D12*
%TO.P,D2,2,A*%
%TO.N,/RESET*%
X163060000Y-26200000D03*
%TD*%
D18*
%TO.P,U1,1,VSS*%
%TO.N,GND*%
X148010000Y-37010000D03*
D10*
%TO.P,U1,2,VCC*%
%TO.N,VCC*%
X148010000Y-39550000D03*
%TO.P,U1,3,~{EACK}*%
X148010000Y-42090000D03*
%TO.P,U1,4,~{SVACK}*%
X148010000Y-44630000D03*
%TO.P,U1,5,SVREQ*%
%TO.N,unconnected-(U1-SVREQ-Pad5)*%
X148010000Y-47170000D03*
%TO.P,U1,6,NC*%
%TO.N,unconnected-(U1-NC-Pad6)*%
X148010000Y-49710000D03*
%TO.P,U1,7,NC*%
%TO.N,unconnected-(U1-NC-Pad7)*%
X148010000Y-52250000D03*
%TO.P,U1,8,D0*%
%TO.N,/D0*%
X148010000Y-54790000D03*
%TO.P,U1,9,D1*%
%TO.N,/D1*%
X148010000Y-57330000D03*
%TO.P,U1,10,D2*%
%TO.N,/D2*%
X148010000Y-59870000D03*
%TO.P,U1,11,D3*%
%TO.N,/D3*%
X148010000Y-62410000D03*
%TO.P,U1,12,D4*%
%TO.N,/D4*%
X148010000Y-64950000D03*
%TO.P,U1,13,D5*%
%TO.N,/D5*%
X163250000Y-64950000D03*
%TO.P,U1,14,D6*%
%TO.N,/D6*%
X163250000Y-62410000D03*
%TO.P,U1,15,D7*%
%TO.N,/D7*%
X163250000Y-59870000D03*
%TO.P,U1,16,VDD*%
%TO.N,Net-(U1-VDD)*%
X163250000Y-57330000D03*
%TO.P,U1,17,~{PAUSE}*%
%TO.N,/~{PAUSE}*%
X163250000Y-54790000D03*
%TO.P,U1,18,~{CS}*%
%TO.N,/~{CS}*%
X163250000Y-52250000D03*
%TO.P,U1,19,~{WR}*%
%TO.N,/~{WR}*%
X163250000Y-49710000D03*
%TO.P,U1,20,~{RD}*%
%TO.N,/~{RD}*%
X163250000Y-47170000D03*
%TO.P,U1,21,C/~{D}*%
%TO.N,/A0*%
X163250000Y-44630000D03*
%TO.P,U1,22,RESET*%
%TO.N,/RESET*%
X163250000Y-42090000D03*
%TO.P,U1,23,CLK*%
%TO.N,Net-(U1-CLK)*%
X163250000Y-39550000D03*
%TO.P,U1,24,~{END}*%
%TO.N,/~{IRQ}*%
X163250000Y-37010000D03*
%TD*%
%TO.P,C3,1*%
%TO.N,VCC*%
X117000000Y-28760000D03*
%TO.P,C3,2*%
%TO.N,GND*%
X119500000Y-28760000D03*
%TD*%
%TO.P,C6,1*%
%TO.N,VCC*%
X144750000Y-39510000D03*
%TO.P,C6,2*%
%TO.N,GND*%
X144750000Y-37010000D03*
%TD*%
D19*
%TO.P,X1,1,EN*%
%TO.N,VCC*%
X127130000Y-80880000D03*
D10*
%TO.P,X1,4,GND*%
%TO.N,GND*%
X134750000Y-80880000D03*
%TO.P,X1,5,OUT*%
%TO.N,Net-(U1-CLK)*%
X134750000Y-73260000D03*
%TO.P,X1,8,Vcc*%
%TO.N,VCC*%
X127130000Y-73260000D03*
%TD*%
%TO.P,C4,1*%
%TO.N,VCC*%
X116750000Y-60760000D03*
%TO.P,C4,2*%
%TO.N,GND*%
X119250000Y-60760000D03*
%TD*%
D16*
%TO.P,U4,1,GND*%
%TO.N,GND*%
X162283931Y-80802577D03*
D20*
%TO.P,U4,2,12V*%
%TO.N,Net-(U1-VDD)*%
X162283931Y-78262577D03*
%TO.P,U4,3,IN*%
%TO.N,VCC*%
X162283931Y-75722577D03*
%TO.P,U4,4,EN*%
X162283931Y-73182577D03*
%TD*%
D18*
%TO.P,U5,1,A*%
%TO.N,/~{WTRG}*%
X110380000Y-64180000D03*
D10*
%TO.P,U5,2,B*%
%TO.N,VCC*%
X110380000Y-66720000D03*
%TO.P,U5,3,Clr*%
X110380000Y-69260000D03*
%TO.P,U5,4,~{Q}*%
%TO.N,/~{WR}*%
X110380000Y-71800000D03*
%TO.P,U5,5,Q*%
%TO.N,unconnected-(U5B-Q-Pad5)*%
X110380000Y-74340000D03*
%TO.P,U5,6,Cext*%
%TO.N,GND*%
X110380000Y-76880000D03*
%TO.P,U5,7,RCext*%
X110380000Y-79420000D03*
%TO.P,U5,8,GND*%
X110380000Y-81960000D03*
%TO.P,U5,9,A*%
X118000000Y-81960000D03*
%TO.P,U5,10,B*%
X118000000Y-79420000D03*
%TO.P,U5,11,Clr*%
%TO.N,VCC*%
X118000000Y-76880000D03*
%TO.P,U5,12,~{Q}*%
%TO.N,unconnected-(U5B-~{Q}-Pad12)*%
X118000000Y-74340000D03*
%TO.P,U5,13,Q*%
%TO.N,unconnected-(U5A-Q-Pad13)*%
X118000000Y-71800000D03*
%TO.P,U5,14,Cext*%
%TO.N,Net-(U5A-Cext)*%
X118000000Y-69260000D03*
%TO.P,U5,15,RCext*%
%TO.N,Net-(U5A-RCext)*%
X118000000Y-66720000D03*
%TO.P,U5,16,VCC*%
%TO.N,VCC*%
X118000000Y-64180000D03*
%TD*%
%TO.P,C1,1*%
%TO.N,Net-(U5A-RCext)*%
X122000000Y-60760000D03*
%TO.P,C1,2*%
%TO.N,Net-(U5A-Cext)*%
X127000000Y-60760000D03*
%TD*%
%TO.P,C2,1*%
%TO.N,VCC*%
X134750000Y-29010000D03*
%TO.P,C2,2*%
%TO.N,GND*%
X137250000Y-29010000D03*
%TD*%
%TO.P,R2,1*%
%TO.N,Net-(D2-K)*%
X160000000Y-28600000D03*
%TO.P,R2,2*%
%TO.N,GND*%
X152380000Y-28600000D03*
%TD*%
D18*
%TO.P,U2,1,I1/CLK*%
%TO.N,/PHI2*%
X128190000Y-32180000D03*
D10*
%TO.P,U2,2,I2*%
%TO.N,/~{CS}*%
X128190000Y-34720000D03*
%TO.P,U2,3,I3*%
%TO.N,/R{slash}~{W}*%
X128190000Y-37260000D03*
%TO.P,U2,4,I4*%
%TO.N,/~{RESET}*%
X128190000Y-39800000D03*
%TO.P,U2,5,I5*%
%TO.N,/Q1*%
X128190000Y-42340000D03*
%TO.P,U2,6,I6*%
%TO.N,/Q2*%
X128190000Y-44880000D03*
%TO.P,U2,7,I7*%
%TO.N,GND*%
X128190000Y-47420000D03*
%TO.P,U2,8,I8*%
X128190000Y-49960000D03*
%TO.P,U2,9,I9*%
X128190000Y-52500000D03*
%TO.P,U2,10,GND*%
X128190000Y-55040000D03*
%TO.P,U2,11,I10/~{OE}*%
X135810000Y-55040000D03*
%TO.P,U2,12,IO8*%
%TO.N,unconnected-(U2-IO8-Pad12)*%
X135810000Y-52500000D03*
%TO.P,U2,13,IO7*%
%TO.N,unconnected-(U2-IO7-Pad13)*%
X135810000Y-49960000D03*
%TO.P,U2,14,IO6*%
%TO.N,/~{RD}*%
X135810000Y-47420000D03*
%TO.P,U2,15,IO5*%
%TO.N,/~{WTRG}*%
X135810000Y-44880000D03*
%TO.P,U2,16,IO4*%
%TO.N,/RESET*%
X135810000Y-42340000D03*
%TO.P,U2,17,I03*%
%TO.N,/CLK1*%
X135810000Y-39800000D03*
%TO.P,U2,18,IO2*%
%TO.N,unconnected-(U2-IO2-Pad18)*%
X135810000Y-37260000D03*
%TO.P,U2,19,IO1*%
%TO.N,unconnected-(U2-IO1-Pad19)*%
X135810000Y-34720000D03*
%TO.P,U2,20,VCC*%
%TO.N,VCC*%
X135810000Y-32180000D03*
%TD*%
D21*
%TO.N,/~{CS}*%
X145199000Y-42760000D03*
X145250000Y-61021000D03*
%TO.N,/RDY*%
X121095000Y-55415000D03*
X119220000Y-53540000D03*
%TO.N,/D5*%
X166000000Y-56260000D03*
%TO.N,/PHI2*%
X120125000Y-56135000D03*
%TO.N,/R{slash}~{W}*%
X146000000Y-45010000D03*
X146000000Y-66260000D03*
%TO.N,/~{RESET}*%
X131750000Y-55760000D03*
%TO.N,Net-(U1-CLK)*%
X153000000Y-71040000D03*
%TO.N,/~{PAUSE}*%
X144600000Y-63561000D03*
X144250000Y-44760000D03*
%TO.N,/~{WR}*%
X143600000Y-58719000D03*
%TD*%
D22*
%TO.N,Net-(U5A-RCext)*%
X135061000Y-59261000D02*
X136560000Y-60760000D01*
X118000000Y-66260000D02*
X118000000Y-66720000D01*
X122000000Y-60760000D02*
X123499000Y-59261000D01*
X123499000Y-59261000D02*
X135061000Y-59261000D01*
%TO.N,Net-(U5A-Cext)*%
X118000000Y-68760000D02*
X118000000Y-69260000D01*
D23*
%TO.N,VCC*%
X118000000Y-64180000D02*
X118000000Y-61510000D01*
X173790364Y-32560000D02*
X175540364Y-34310000D01*
X117250000Y-60760000D02*
X116750000Y-60760000D01*
X108500000Y-35260000D02*
X108500000Y-30260000D01*
X148010000Y-39550000D02*
X148010000Y-44630000D01*
X118000000Y-64180000D02*
X112920000Y-64180000D01*
X135810000Y-30070000D02*
X134750000Y-29010000D01*
X108500000Y-30260000D02*
X110000000Y-28760000D01*
X163602354Y-77041000D02*
X162283931Y-75722577D01*
X173790364Y-31770364D02*
X168310000Y-26290000D01*
X119251000Y-30929000D02*
X118060000Y-32120000D01*
X144500000Y-39510000D02*
X137170000Y-32180000D01*
X110440000Y-37200000D02*
X108500000Y-35260000D01*
X110000000Y-28760000D02*
X117000000Y-28760000D01*
X155051000Y-32509000D02*
X167954113Y-32509000D01*
X147970000Y-39510000D02*
X148010000Y-39550000D01*
X170405113Y-32560000D02*
X169205113Y-33760000D01*
X112920000Y-64180000D02*
X110380000Y-66720000D01*
X173790364Y-32560000D02*
X170405113Y-32560000D01*
X108187000Y-39453000D02*
X110440000Y-37200000D01*
X127130000Y-73260000D02*
X127130000Y-70390000D01*
X167954113Y-32509000D02*
X169205113Y-33760000D01*
X127130000Y-73260000D02*
X127130000Y-80880000D01*
X144750000Y-39510000D02*
X147970000Y-39510000D01*
X174000000Y-77041000D02*
X174339364Y-77041000D01*
X123380000Y-76880000D02*
X118000000Y-76880000D01*
X116809000Y-48611000D02*
X109921818Y-48611000D01*
X135810000Y-32180000D02*
X135810000Y-30070000D01*
X127130000Y-73260000D02*
X128381000Y-74511000D01*
X125500000Y-64200000D02*
X128940000Y-60760000D01*
X161072354Y-74511000D02*
X162283931Y-75722577D01*
X134559000Y-30929000D02*
X119251000Y-30929000D01*
X127000000Y-73260000D02*
X123380000Y-76880000D01*
X174000000Y-77041000D02*
X163602354Y-77041000D01*
X174339364Y-77041000D02*
X175540364Y-75840000D01*
X144750000Y-39510000D02*
X144500000Y-39510000D01*
X118000000Y-64180000D02*
X120920000Y-64180000D01*
X118000000Y-61510000D02*
X117250000Y-60760000D01*
X118060000Y-29820000D02*
X117000000Y-28760000D01*
X174469000Y-77041000D02*
X174000000Y-77041000D01*
X162283931Y-75722577D02*
X162283931Y-73182577D01*
X148010000Y-39550000D02*
X155051000Y-32509000D01*
X135750000Y-32120000D02*
X135810000Y-32180000D01*
X128381000Y-74511000D02*
X161072354Y-74511000D01*
X173790364Y-32560000D02*
X173790364Y-31770364D01*
X118060000Y-32120000D02*
X118060000Y-29820000D01*
X127130000Y-70390000D02*
X125500000Y-68760000D01*
X108187000Y-46876182D02*
X108187000Y-39453000D01*
X175540364Y-34310000D02*
X175540364Y-75840000D01*
X110380000Y-66720000D02*
X110380000Y-69260000D01*
X173740364Y-32510000D02*
X173790364Y-32560000D01*
X137170000Y-32180000D02*
X135810000Y-32180000D01*
X118060000Y-47360000D02*
X116809000Y-48611000D01*
X127130000Y-73260000D02*
X127000000Y-73260000D01*
X109921818Y-48611000D02*
X108187000Y-46876182D01*
X125500000Y-68760000D02*
X125500000Y-64200000D01*
X120920000Y-64180000D02*
X125500000Y-68760000D01*
X135810000Y-32180000D02*
X134559000Y-30929000D01*
D22*
%TO.N,/RESET*%
X148486760Y-45781000D02*
X148507760Y-45760000D01*
X148507760Y-45760000D02*
X156331480Y-45760000D01*
X135810000Y-42340000D02*
X139230000Y-45760000D01*
X156331480Y-45760000D02*
X160001480Y-42090000D01*
X147512240Y-45760000D02*
X147533240Y-45781000D01*
X139230000Y-45760000D02*
X147512240Y-45760000D01*
X160001480Y-42090000D02*
X163250000Y-42090000D01*
X147533240Y-45781000D02*
X148486760Y-45781000D01*
%TO.N,Net-(D2-K)*%
X160000000Y-28540000D02*
X163300000Y-28540000D01*
X163300000Y-28540000D02*
X165600000Y-26240000D01*
%TO.N,/~{CS}*%
X145199000Y-42811000D02*
X145199000Y-42760000D01*
X129341000Y-33569000D02*
X128190000Y-34720000D01*
X145199000Y-42760000D02*
X145199000Y-42481240D01*
X148486760Y-61021000D02*
X145250000Y-61021000D01*
X145199000Y-42481240D02*
X136286760Y-33569000D01*
X157257760Y-52250000D02*
X148486760Y-61021000D01*
X163250000Y-52250000D02*
X157257760Y-52250000D01*
X136286760Y-33569000D02*
X129341000Y-33569000D01*
%TO.N,/RDY*%
X123939000Y-58259000D02*
X135476042Y-58259000D01*
X146584966Y-68262000D02*
X146584971Y-68262005D01*
X146792492Y-68262000D02*
X168987508Y-68262000D01*
X169195029Y-68262005D02*
X169195034Y-68262000D01*
X141998000Y-64758001D02*
X145480000Y-68240000D01*
X169217041Y-68240000D02*
X173670364Y-68240000D01*
X173670364Y-68240000D02*
X173790364Y-68120000D01*
X121095000Y-55415000D02*
X123939000Y-58259000D01*
X146584959Y-68262000D02*
X146584966Y-68262000D01*
X111690000Y-61070000D02*
X110250000Y-61070000D01*
X119220000Y-53540000D02*
X111690000Y-61070000D01*
X145480000Y-68240000D02*
X146562959Y-68240000D01*
X135477043Y-58260000D02*
X136791480Y-58260000D01*
X169195041Y-68262000D02*
X169217041Y-68240000D01*
X141998000Y-63466520D02*
X141998000Y-64758001D01*
X146584971Y-68262005D02*
X146792492Y-68262000D01*
X135476042Y-58259000D02*
X135477043Y-58260000D01*
X168987508Y-68262000D02*
X169195029Y-68262005D01*
X136791480Y-58260000D02*
X141998000Y-63466520D01*
X146562959Y-68240000D02*
X146584959Y-68262000D01*
X169195034Y-68262000D02*
X169195041Y-68262000D01*
%TO.N,/D5*%
X173000000Y-50340000D02*
X167080000Y-56260000D01*
X173000000Y-50340000D02*
X173790364Y-50340000D01*
X167080000Y-56260000D02*
X166000000Y-56260000D01*
%TO.N,/D6*%
X162000000Y-61160000D02*
X162000000Y-59492240D01*
X163250000Y-62410000D02*
X162000000Y-61160000D01*
X167370000Y-58510000D02*
X173000000Y-52880000D01*
X162000000Y-59492240D02*
X162982240Y-58510000D01*
X162982240Y-58510000D02*
X167370000Y-58510000D01*
X173000000Y-52880000D02*
X173790364Y-52880000D01*
%TO.N,/PHI2*%
X171893369Y-68763005D02*
X173790364Y-70660000D01*
X146377439Y-68763000D02*
X146377446Y-68763000D01*
X146584983Y-68763005D02*
X146792491Y-68763005D01*
X141497000Y-64965523D02*
X145272480Y-68741000D01*
X141497000Y-63674040D02*
X141497000Y-64965523D01*
X135268522Y-58760000D02*
X135269523Y-58761000D01*
X146355439Y-68741000D02*
X146377439Y-68763000D01*
X146377446Y-68763000D02*
X146377451Y-68763005D01*
X146792491Y-68763005D02*
X146792496Y-68763000D01*
X135269523Y-58761000D02*
X136583960Y-58761000D01*
X146792496Y-68763000D02*
X168987504Y-68763000D01*
X120125000Y-56135000D02*
X122750000Y-58760000D01*
X168987509Y-68763005D02*
X171893369Y-68763005D01*
X122750000Y-58760000D02*
X135268522Y-58760000D01*
X136583960Y-58761000D02*
X141497000Y-63674040D01*
X145272480Y-68741000D02*
X146355439Y-68741000D01*
X146377457Y-68763005D02*
X146377462Y-68763010D01*
X146377462Y-68763010D02*
X146584983Y-68763005D01*
X168987504Y-68763000D02*
X168987509Y-68763005D01*
X146377451Y-68763005D02*
X146377457Y-68763005D01*
%TO.N,/D7*%
X163250000Y-59870000D02*
X169340364Y-59870000D01*
X169340364Y-59870000D02*
X173790364Y-55420000D01*
%TO.N,/D3*%
X156781000Y-53639000D02*
X148010000Y-62410000D01*
X164621000Y-53639000D02*
X156781000Y-53639000D01*
X173000000Y-45260000D02*
X164621000Y-53639000D01*
%TO.N,/D4*%
X173000000Y-47800000D02*
X164859000Y-55941000D01*
X164859000Y-55941000D02*
X157019000Y-55941000D01*
X157019000Y-55941000D02*
X148010000Y-64950000D01*
%TO.N,/D2*%
X173000000Y-42720000D02*
X164859000Y-50861000D01*
X157019000Y-50861000D02*
X148010000Y-59870000D01*
X164859000Y-50861000D02*
X157019000Y-50861000D01*
%TO.N,/R{slash}~{W}*%
X173000000Y-63040000D02*
X168780000Y-67260000D01*
X137000000Y-36010000D02*
X129440000Y-36010000D01*
X146000000Y-45010000D02*
X137000000Y-36010000D01*
X168780000Y-67260000D02*
X147000000Y-67260000D01*
X129440000Y-36010000D02*
X128190000Y-37260000D01*
X147000000Y-67260000D02*
X146000000Y-66260000D01*
%TO.N,/D0*%
X164630000Y-46010000D02*
X156790000Y-46010000D01*
X156790000Y-46010000D02*
X148010000Y-54790000D01*
X173000000Y-37640000D02*
X164630000Y-46010000D01*
%TO.N,/D1*%
X156781000Y-48559000D02*
X164621000Y-48559000D01*
X148010000Y-57330000D02*
X156781000Y-48559000D01*
X164621000Y-48559000D02*
X173000000Y-40180000D01*
%TO.N,/~{RESET}*%
X146792480Y-67761000D02*
X146770479Y-67739000D01*
X168987520Y-67761000D02*
X171168521Y-65580000D01*
X168987520Y-67761000D02*
X146792480Y-67761000D01*
X135333240Y-56191000D02*
X134902240Y-55760000D01*
X146770479Y-67739000D02*
X145687520Y-67739000D01*
X171168521Y-65580000D02*
X173790364Y-65580000D01*
X142499000Y-63259000D02*
X135431000Y-56191000D01*
X142499000Y-64550480D02*
X142499000Y-63259000D01*
X134902240Y-55760000D02*
X131750000Y-55760000D01*
X135431000Y-56191000D02*
X135333240Y-56191000D01*
X145687520Y-67739000D02*
X142499000Y-64550480D01*
%TO.N,/~{RD}*%
X139012240Y-47420000D02*
X147602240Y-56010000D01*
X135810000Y-47420000D02*
X139012240Y-47420000D01*
X148417760Y-56010000D02*
X147602240Y-56010000D01*
X157257760Y-47170000D02*
X148417760Y-56010000D01*
X163250000Y-47170000D02*
X157257760Y-47170000D01*
%TO.N,Net-(U1-VDD)*%
X163180000Y-57260000D02*
X163250000Y-57330000D01*
%TO.N,Net-(U1-CLK)*%
X150780000Y-73260000D02*
X134750000Y-73260000D01*
X153000000Y-71040000D02*
X150780000Y-73260000D01*
%TO.N,/~{PAUSE}*%
X144250000Y-44260000D02*
X144250000Y-44760000D01*
X144600000Y-63561000D02*
X148486760Y-63561000D01*
X122049000Y-41189000D02*
X118060000Y-37200000D01*
X144250000Y-44260000D02*
X141179000Y-41189000D01*
X157257760Y-54790000D02*
X163250000Y-54790000D01*
X148486760Y-63561000D02*
X157257760Y-54790000D01*
X141179000Y-41189000D02*
X122049000Y-41189000D01*
%TO.N,/~{WR}*%
X143600000Y-58719000D02*
X148452480Y-58719000D01*
X163250000Y-49710000D02*
X157461480Y-49710000D01*
X157461480Y-49710000D02*
X148452480Y-58719000D01*
%TO.N,/CLK1*%
X123676760Y-38649000D02*
X118298760Y-33271000D01*
X135810000Y-39800000D02*
X134659000Y-38649000D01*
X118298760Y-33271000D02*
X111591000Y-33271000D01*
X134659000Y-38649000D02*
X123676760Y-38649000D01*
X111591000Y-33271000D02*
X110440000Y-32120000D01*
%TO.N,/Q2*%
X123080000Y-44880000D02*
X118060000Y-49900000D01*
X128190000Y-44880000D02*
X123080000Y-44880000D01*
%TO.N,/Q1*%
X110440000Y-42280000D02*
X111920000Y-43760000D01*
X120540000Y-42340000D02*
X118060000Y-44820000D01*
X128190000Y-42340000D02*
X120540000Y-42340000D01*
X111920000Y-43760000D02*
X117000000Y-43760000D01*
X117000000Y-43760000D02*
X118060000Y-44820000D01*
%TO.N,/~{WTRG}*%
X129579000Y-51111000D02*
X122929000Y-51111000D01*
X135810000Y-44880000D02*
X129579000Y-51111000D01*
X122929000Y-51111000D02*
X110380000Y-63660000D01*
X110380000Y-63660000D02*
X110380000Y-64180000D01*
%TO.N,Net-(U3A-~{R})*%
X110201240Y-38351000D02*
X114369000Y-38351000D01*
X114369000Y-38351000D02*
X118060000Y-34660000D01*
X108788000Y-45708000D02*
X108788000Y-39764240D01*
X110440000Y-47360000D02*
X108788000Y-45708000D01*
X108788000Y-39764240D02*
X110201240Y-38351000D01*
%TO.N,Net-(D3-K)*%
X152380000Y-25540000D02*
X153680000Y-24240000D01*
X153680000Y-24240000D02*
X168800000Y-24240000D01*
X168800000Y-24240000D02*
X170600000Y-26040000D01*
%TO.N,Net-(D1-K)*%
X110440000Y-44820000D02*
X109289000Y-43669000D01*
X110082240Y-41010000D02*
X116790000Y-41010000D01*
X116790000Y-41010000D02*
X118060000Y-42280000D01*
X109289000Y-41803240D02*
X110082240Y-41010000D01*
X109289000Y-43669000D02*
X109289000Y-41803240D01*
%TD*%
M02*
