M48
; DRILL file {KiCad 9.0.2} date 2025-07-11T05:31:05-0400
; FORMAT={-:-/ absolute / inch / decimal}
; #@! TF.CreationDate,2025-07-11T05:31:05-04:00
; #@! TF.GenerationSoftware,Kicad,Pcbnew,9.0.2
; #@! TF.FileFunction,Plated,1,2,PTH
FMAT,2
INCH
; #@! TA.AperFunction,Plated,PTH,ViaDrill
T1C0.0157
; #@! TA.AperFunction,Plated,PTH,ComponentDrill
T2C0.0315
; #@! TA.AperFunction,Plated,PTH,ComponentDrill
T3C0.0354
; #@! TA.AperFunction,Plated,PTH,ComponentDrill
T4C0.0394
; #@! TA.AperFunction,Plated,PTH,ComponentDrill
T5C0.0866
%
G90
G05
T1
X4.6937Y-2.1079
X4.7293Y-2.21
X4.7675Y-2.1817
X5.187Y-2.1953
X5.6535Y-2.3118
X5.6791Y-1.7622
X5.6929Y-2.5024
X5.7165Y-1.6835
X5.7185Y-2.4024
X5.748Y-1.772
X5.748Y-2.6087
X6.0236Y-2.7969
X6.5354Y-2.215
T2
X4.3386Y-2.102
X4.3386Y-2.402
X4.3457Y-2.5268
X4.3457Y-2.6268
X4.3457Y-2.7268
X4.3457Y-2.8268
X4.3457Y-2.9268
X4.3457Y-3.0268
X4.3457Y-3.1268
X4.3457Y-3.2268
X4.348Y-1.2646
X4.348Y-1.3646
X4.348Y-1.4646
X4.348Y-1.5646
X4.348Y-1.6646
X4.348Y-1.7646
X4.348Y-1.8646
X4.348Y-1.9646
X4.5965Y-2.3921
X4.6063Y-1.1323
X4.6457Y-2.5268
X4.6457Y-2.6268
X4.6457Y-2.7268
X4.6457Y-2.8268
X4.6457Y-2.9268
X4.6457Y-3.0268
X4.6457Y-3.1268
X4.6457Y-3.2268
X4.648Y-1.2646
X4.648Y-1.3646
X4.648Y-1.4646
X4.648Y-1.5646
X4.648Y-1.6646
X4.648Y-1.7646
X4.648Y-1.8646
X4.648Y-1.9646
X4.6949Y-2.3921
X4.7047Y-1.1323
X4.8031Y-2.3921
X4.9409Y-2.7071
X5.0Y-2.3921
X5.0051Y-2.8843
X5.0051Y-3.1843
X5.0394Y-2.7071
X5.0469Y-1.2669
X5.0469Y-1.3669
X5.0469Y-1.4669
X5.0469Y-1.5669
X5.0469Y-1.6669
X5.0469Y-1.7669
X5.0469Y-1.8669
X5.0469Y-1.9669
X5.0469Y-2.0669
X5.0469Y-2.1669
X5.0862Y-2.3937
X5.3051Y-1.1421
X5.3051Y-2.8843
X5.3051Y-3.1843
X5.3469Y-1.2669
X5.3469Y-1.3669
X5.3469Y-1.4669
X5.3469Y-1.5669
X5.3469Y-1.6669
X5.3469Y-1.7669
X5.3469Y-1.8669
X5.3469Y-1.9669
X5.3469Y-2.0669
X5.3469Y-2.1669
X5.3862Y-2.3937
X5.4035Y-1.1421
X5.6988Y-1.4571
X5.6988Y-1.5555
X5.8272Y-1.4571
X5.8272Y-1.5571
X5.8272Y-1.6571
X5.8272Y-1.7571
X5.8272Y-1.8571
X5.8272Y-1.9571
X5.8272Y-2.0571
X5.8272Y-2.1571
X5.8272Y-2.2571
X5.8272Y-2.3571
X5.8272Y-2.4571
X5.8272Y-2.5571
X5.9992Y-1.126
X6.0Y-1.0079
X6.2992Y-1.126
X6.3Y-1.0079
X6.4272Y-1.4571
X6.4272Y-1.5571
X6.4272Y-1.6571
X6.4272Y-1.7571
X6.4272Y-1.8571
X6.4272Y-1.9571
X6.4272Y-2.0571
X6.4272Y-2.1571
X6.4272Y-2.2571
X6.4272Y-2.3571
X6.4272Y-2.4571
X6.4272Y-2.5571
X6.5632Y-1.3307
X6.6616Y-1.3307
T3
X6.4197Y-1.0315
X6.5197Y-1.0315
X6.6244Y-1.0315
X6.7244Y-1.0315
T4
X6.3891Y-2.8812
X6.3891Y-2.9812
X6.3891Y-3.0812
X6.3891Y-3.1812
X6.8421Y-1.2819
X6.8421Y-1.3819
X6.8421Y-1.4819
X6.8421Y-1.5819
X6.8421Y-1.6819
X6.8421Y-1.7819
X6.8421Y-1.8819
X6.8421Y-1.9819
X6.8421Y-2.0819
X6.8421Y-2.1819
X6.8421Y-2.2819
X6.8421Y-2.3819
X6.8421Y-2.4819
X6.8421Y-2.5819
X6.8421Y-2.6819
X6.8421Y-2.7819
X6.8421Y-2.8819
X6.8421Y-2.9819
T5
X4.1339Y-0.9858
X4.1339Y-3.2457
X6.9685Y-0.9858
X6.9717Y-3.2489
M30
