%TF.GenerationSoftware,KiCad,Pcbnew,9.0.2*%
%TF.CreationDate,2025-07-10T13:47:21-04:00*%
%TF.ProjectId,am9511-6502,616d3935-3131-42d3-9635-30322e6b6963,rev?*%
%TF.SameCoordinates,Original*%
%TF.FileFunction,Legend,Top*%
%TF.FilePolarity,Positive*%
%FSLAX46Y46*%
G04 Gerber Fmt 4.6, Leading zero omitted, Abs format (unit mm)*
G04 Created by KiCad (PCBNEW 9.0.2) date 2025-07-10 13:47:21*
%MOMM*%
%LPD*%
G01*
G04 APERTURE LIST*
%ADD10C,0.100000*%
%ADD11C,0.150000*%
%ADD12C,0.120000*%
G04 APERTURE END LIST*
D10*
X184046629Y-84596895D02*
X184046629Y-83796895D01*
X184046629Y-83796895D02*
X184237105Y-83796895D01*
X184237105Y-83796895D02*
X184351391Y-83834990D01*
X184351391Y-83834990D02*
X184427581Y-83911180D01*
X184427581Y-83911180D02*
X184465676Y-83987371D01*
X184465676Y-83987371D02*
X184503772Y-84139752D01*
X184503772Y-84139752D02*
X184503772Y-84254038D01*
X184503772Y-84254038D02*
X184465676Y-84406419D01*
X184465676Y-84406419D02*
X184427581Y-84482609D01*
X184427581Y-84482609D02*
X184351391Y-84558800D01*
X184351391Y-84558800D02*
X184237105Y-84596895D01*
X184237105Y-84596895D02*
X184046629Y-84596895D01*
X184770438Y-83796895D02*
X185303772Y-83796895D01*
X185303772Y-83796895D02*
X184960914Y-84596895D01*
X184513408Y-92200231D02*
X184246741Y-91819278D01*
X184056265Y-92200231D02*
X184056265Y-91400231D01*
X184056265Y-91400231D02*
X184361027Y-91400231D01*
X184361027Y-91400231D02*
X184437217Y-91438326D01*
X184437217Y-91438326D02*
X184475312Y-91476421D01*
X184475312Y-91476421D02*
X184513408Y-91552612D01*
X184513408Y-91552612D02*
X184513408Y-91666897D01*
X184513408Y-91666897D02*
X184475312Y-91743088D01*
X184475312Y-91743088D02*
X184437217Y-91781183D01*
X184437217Y-91781183D02*
X184361027Y-91819278D01*
X184361027Y-91819278D02*
X184056265Y-91819278D01*
X185427693Y-91362136D02*
X184741979Y-92390707D01*
X185618169Y-91400231D02*
X185808645Y-92200231D01*
X185808645Y-92200231D02*
X185961026Y-91628802D01*
X185961026Y-91628802D02*
X186113407Y-92200231D01*
X186113407Y-92200231D02*
X186303884Y-91400231D01*
X185583884Y-91178136D02*
X186338170Y-91178136D01*
X184503772Y-94846895D02*
X184237105Y-94465942D01*
X184046629Y-94846895D02*
X184046629Y-94046895D01*
X184046629Y-94046895D02*
X184351391Y-94046895D01*
X184351391Y-94046895D02*
X184427581Y-94084990D01*
X184427581Y-94084990D02*
X184465676Y-94123085D01*
X184465676Y-94123085D02*
X184503772Y-94199276D01*
X184503772Y-94199276D02*
X184503772Y-94313561D01*
X184503772Y-94313561D02*
X184465676Y-94389752D01*
X184465676Y-94389752D02*
X184427581Y-94427847D01*
X184427581Y-94427847D02*
X184351391Y-94465942D01*
X184351391Y-94465942D02*
X184046629Y-94465942D01*
X184846629Y-94427847D02*
X185113295Y-94427847D01*
X185227581Y-94846895D02*
X184846629Y-94846895D01*
X184846629Y-94846895D02*
X184846629Y-94046895D01*
X184846629Y-94046895D02*
X185227581Y-94046895D01*
X185532343Y-94808800D02*
X185646629Y-94846895D01*
X185646629Y-94846895D02*
X185837105Y-94846895D01*
X185837105Y-94846895D02*
X185913296Y-94808800D01*
X185913296Y-94808800D02*
X185951391Y-94770704D01*
X185951391Y-94770704D02*
X185989486Y-94694514D01*
X185989486Y-94694514D02*
X185989486Y-94618323D01*
X185989486Y-94618323D02*
X185951391Y-94542133D01*
X185951391Y-94542133D02*
X185913296Y-94504038D01*
X185913296Y-94504038D02*
X185837105Y-94465942D01*
X185837105Y-94465942D02*
X185684724Y-94427847D01*
X185684724Y-94427847D02*
X185608534Y-94389752D01*
X185608534Y-94389752D02*
X185570439Y-94351657D01*
X185570439Y-94351657D02*
X185532343Y-94275466D01*
X185532343Y-94275466D02*
X185532343Y-94199276D01*
X185532343Y-94199276D02*
X185570439Y-94123085D01*
X185570439Y-94123085D02*
X185608534Y-94084990D01*
X185608534Y-94084990D02*
X185684724Y-94046895D01*
X185684724Y-94046895D02*
X185875201Y-94046895D01*
X185875201Y-94046895D02*
X185989486Y-94084990D01*
X183936153Y-93824800D02*
X186061868Y-93824800D01*
X113856265Y-52576760D02*
X114332455Y-52576760D01*
X113761027Y-52862475D02*
X114094360Y-51862475D01*
X114094360Y-51862475D02*
X114427693Y-52862475D01*
X114761027Y-52862475D02*
X114761027Y-51862475D01*
X114761027Y-51862475D02*
X115094360Y-52576760D01*
X115094360Y-52576760D02*
X115427693Y-51862475D01*
X115427693Y-51862475D02*
X115427693Y-52862475D01*
X115951503Y-52862475D02*
X116141979Y-52862475D01*
X116141979Y-52862475D02*
X116237217Y-52814856D01*
X116237217Y-52814856D02*
X116284836Y-52767236D01*
X116284836Y-52767236D02*
X116380074Y-52624379D01*
X116380074Y-52624379D02*
X116427693Y-52433903D01*
X116427693Y-52433903D02*
X116427693Y-52052951D01*
X116427693Y-52052951D02*
X116380074Y-51957713D01*
X116380074Y-51957713D02*
X116332455Y-51910094D01*
X116332455Y-51910094D02*
X116237217Y-51862475D01*
X116237217Y-51862475D02*
X116046741Y-51862475D01*
X116046741Y-51862475D02*
X115951503Y-51910094D01*
X115951503Y-51910094D02*
X115903884Y-51957713D01*
X115903884Y-51957713D02*
X115856265Y-52052951D01*
X115856265Y-52052951D02*
X115856265Y-52291046D01*
X115856265Y-52291046D02*
X115903884Y-52386284D01*
X115903884Y-52386284D02*
X115951503Y-52433903D01*
X115951503Y-52433903D02*
X116046741Y-52481522D01*
X116046741Y-52481522D02*
X116237217Y-52481522D01*
X116237217Y-52481522D02*
X116332455Y-52433903D01*
X116332455Y-52433903D02*
X116380074Y-52386284D01*
X116380074Y-52386284D02*
X116427693Y-52291046D01*
X117332455Y-51862475D02*
X116856265Y-51862475D01*
X116856265Y-51862475D02*
X116808646Y-52338665D01*
X116808646Y-52338665D02*
X116856265Y-52291046D01*
X116856265Y-52291046D02*
X116951503Y-52243427D01*
X116951503Y-52243427D02*
X117189598Y-52243427D01*
X117189598Y-52243427D02*
X117284836Y-52291046D01*
X117284836Y-52291046D02*
X117332455Y-52338665D01*
X117332455Y-52338665D02*
X117380074Y-52433903D01*
X117380074Y-52433903D02*
X117380074Y-52671998D01*
X117380074Y-52671998D02*
X117332455Y-52767236D01*
X117332455Y-52767236D02*
X117284836Y-52814856D01*
X117284836Y-52814856D02*
X117189598Y-52862475D01*
X117189598Y-52862475D02*
X116951503Y-52862475D01*
X116951503Y-52862475D02*
X116856265Y-52814856D01*
X116856265Y-52814856D02*
X116808646Y-52767236D01*
X118332455Y-52862475D02*
X117761027Y-52862475D01*
X118046741Y-52862475D02*
X118046741Y-51862475D01*
X118046741Y-51862475D02*
X117951503Y-52005332D01*
X117951503Y-52005332D02*
X117856265Y-52100570D01*
X117856265Y-52100570D02*
X117761027Y-52148189D01*
X119284836Y-52862475D02*
X118713408Y-52862475D01*
X118999122Y-52862475D02*
X118999122Y-51862475D01*
X118999122Y-51862475D02*
X118903884Y-52005332D01*
X118903884Y-52005332D02*
X118808646Y-52100570D01*
X118808646Y-52100570D02*
X118713408Y-52148189D01*
X120427694Y-52576760D02*
X120903884Y-52576760D01*
X120332456Y-52862475D02*
X120665789Y-51862475D01*
X120665789Y-51862475D02*
X120999122Y-52862475D01*
X121332456Y-52862475D02*
X121332456Y-52195808D01*
X121332456Y-52386284D02*
X121380075Y-52291046D01*
X121380075Y-52291046D02*
X121427694Y-52243427D01*
X121427694Y-52243427D02*
X121522932Y-52195808D01*
X121522932Y-52195808D02*
X121618170Y-52195808D01*
X121951504Y-52862475D02*
X121951504Y-52195808D01*
X121951504Y-51862475D02*
X121903885Y-51910094D01*
X121903885Y-51910094D02*
X121951504Y-51957713D01*
X121951504Y-51957713D02*
X121999123Y-51910094D01*
X121999123Y-51910094D02*
X121951504Y-51862475D01*
X121951504Y-51862475D02*
X121951504Y-51957713D01*
X122284837Y-52195808D02*
X122665789Y-52195808D01*
X122427694Y-51862475D02*
X122427694Y-52719617D01*
X122427694Y-52719617D02*
X122475313Y-52814856D01*
X122475313Y-52814856D02*
X122570551Y-52862475D01*
X122570551Y-52862475D02*
X122665789Y-52862475D01*
X122999123Y-52862475D02*
X122999123Y-51862475D01*
X123427694Y-52862475D02*
X123427694Y-52338665D01*
X123427694Y-52338665D02*
X123380075Y-52243427D01*
X123380075Y-52243427D02*
X123284837Y-52195808D01*
X123284837Y-52195808D02*
X123141980Y-52195808D01*
X123141980Y-52195808D02*
X123046742Y-52243427D01*
X123046742Y-52243427D02*
X122999123Y-52291046D01*
X123903885Y-52862475D02*
X123903885Y-52195808D01*
X123903885Y-52291046D02*
X123951504Y-52243427D01*
X123951504Y-52243427D02*
X124046742Y-52195808D01*
X124046742Y-52195808D02*
X124189599Y-52195808D01*
X124189599Y-52195808D02*
X124284837Y-52243427D01*
X124284837Y-52243427D02*
X124332456Y-52338665D01*
X124332456Y-52338665D02*
X124332456Y-52862475D01*
X124332456Y-52338665D02*
X124380075Y-52243427D01*
X124380075Y-52243427D02*
X124475313Y-52195808D01*
X124475313Y-52195808D02*
X124618170Y-52195808D01*
X124618170Y-52195808D02*
X124713409Y-52243427D01*
X124713409Y-52243427D02*
X124761028Y-52338665D01*
X124761028Y-52338665D02*
X124761028Y-52862475D01*
X125618170Y-52814856D02*
X125522932Y-52862475D01*
X125522932Y-52862475D02*
X125332456Y-52862475D01*
X125332456Y-52862475D02*
X125237218Y-52814856D01*
X125237218Y-52814856D02*
X125189599Y-52719617D01*
X125189599Y-52719617D02*
X125189599Y-52338665D01*
X125189599Y-52338665D02*
X125237218Y-52243427D01*
X125237218Y-52243427D02*
X125332456Y-52195808D01*
X125332456Y-52195808D02*
X125522932Y-52195808D01*
X125522932Y-52195808D02*
X125618170Y-52243427D01*
X125618170Y-52243427D02*
X125665789Y-52338665D01*
X125665789Y-52338665D02*
X125665789Y-52433903D01*
X125665789Y-52433903D02*
X125189599Y-52529141D01*
X125951504Y-52195808D02*
X126332456Y-52195808D01*
X126094361Y-51862475D02*
X126094361Y-52719617D01*
X126094361Y-52719617D02*
X126141980Y-52814856D01*
X126141980Y-52814856D02*
X126237218Y-52862475D01*
X126237218Y-52862475D02*
X126332456Y-52862475D01*
X126665790Y-52862475D02*
X126665790Y-52195808D01*
X126665790Y-51862475D02*
X126618171Y-51910094D01*
X126618171Y-51910094D02*
X126665790Y-51957713D01*
X126665790Y-51957713D02*
X126713409Y-51910094D01*
X126713409Y-51910094D02*
X126665790Y-51862475D01*
X126665790Y-51862475D02*
X126665790Y-51957713D01*
X127570551Y-52814856D02*
X127475313Y-52862475D01*
X127475313Y-52862475D02*
X127284837Y-52862475D01*
X127284837Y-52862475D02*
X127189599Y-52814856D01*
X127189599Y-52814856D02*
X127141980Y-52767236D01*
X127141980Y-52767236D02*
X127094361Y-52671998D01*
X127094361Y-52671998D02*
X127094361Y-52386284D01*
X127094361Y-52386284D02*
X127141980Y-52291046D01*
X127141980Y-52291046D02*
X127189599Y-52243427D01*
X127189599Y-52243427D02*
X127284837Y-52195808D01*
X127284837Y-52195808D02*
X127475313Y-52195808D01*
X127475313Y-52195808D02*
X127570551Y-52243427D01*
X128761028Y-52862475D02*
X128761028Y-51862475D01*
X128761028Y-51862475D02*
X129141980Y-51862475D01*
X129141980Y-51862475D02*
X129237218Y-51910094D01*
X129237218Y-51910094D02*
X129284837Y-51957713D01*
X129284837Y-51957713D02*
X129332456Y-52052951D01*
X129332456Y-52052951D02*
X129332456Y-52195808D01*
X129332456Y-52195808D02*
X129284837Y-52291046D01*
X129284837Y-52291046D02*
X129237218Y-52338665D01*
X129237218Y-52338665D02*
X129141980Y-52386284D01*
X129141980Y-52386284D02*
X128761028Y-52386284D01*
X129761028Y-52862475D02*
X129761028Y-52195808D01*
X129761028Y-52386284D02*
X129808647Y-52291046D01*
X129808647Y-52291046D02*
X129856266Y-52243427D01*
X129856266Y-52243427D02*
X129951504Y-52195808D01*
X129951504Y-52195808D02*
X130046742Y-52195808D01*
X130522933Y-52862475D02*
X130427695Y-52814856D01*
X130427695Y-52814856D02*
X130380076Y-52767236D01*
X130380076Y-52767236D02*
X130332457Y-52671998D01*
X130332457Y-52671998D02*
X130332457Y-52386284D01*
X130332457Y-52386284D02*
X130380076Y-52291046D01*
X130380076Y-52291046D02*
X130427695Y-52243427D01*
X130427695Y-52243427D02*
X130522933Y-52195808D01*
X130522933Y-52195808D02*
X130665790Y-52195808D01*
X130665790Y-52195808D02*
X130761028Y-52243427D01*
X130761028Y-52243427D02*
X130808647Y-52291046D01*
X130808647Y-52291046D02*
X130856266Y-52386284D01*
X130856266Y-52386284D02*
X130856266Y-52671998D01*
X130856266Y-52671998D02*
X130808647Y-52767236D01*
X130808647Y-52767236D02*
X130761028Y-52814856D01*
X130761028Y-52814856D02*
X130665790Y-52862475D01*
X130665790Y-52862475D02*
X130522933Y-52862475D01*
X131713409Y-52814856D02*
X131618171Y-52862475D01*
X131618171Y-52862475D02*
X131427695Y-52862475D01*
X131427695Y-52862475D02*
X131332457Y-52814856D01*
X131332457Y-52814856D02*
X131284838Y-52767236D01*
X131284838Y-52767236D02*
X131237219Y-52671998D01*
X131237219Y-52671998D02*
X131237219Y-52386284D01*
X131237219Y-52386284D02*
X131284838Y-52291046D01*
X131284838Y-52291046D02*
X131332457Y-52243427D01*
X131332457Y-52243427D02*
X131427695Y-52195808D01*
X131427695Y-52195808D02*
X131618171Y-52195808D01*
X131618171Y-52195808D02*
X131713409Y-52243427D01*
X132522933Y-52814856D02*
X132427695Y-52862475D01*
X132427695Y-52862475D02*
X132237219Y-52862475D01*
X132237219Y-52862475D02*
X132141981Y-52814856D01*
X132141981Y-52814856D02*
X132094362Y-52719617D01*
X132094362Y-52719617D02*
X132094362Y-52338665D01*
X132094362Y-52338665D02*
X132141981Y-52243427D01*
X132141981Y-52243427D02*
X132237219Y-52195808D01*
X132237219Y-52195808D02*
X132427695Y-52195808D01*
X132427695Y-52195808D02*
X132522933Y-52243427D01*
X132522933Y-52243427D02*
X132570552Y-52338665D01*
X132570552Y-52338665D02*
X132570552Y-52433903D01*
X132570552Y-52433903D02*
X132094362Y-52529141D01*
X132951505Y-52814856D02*
X133046743Y-52862475D01*
X133046743Y-52862475D02*
X133237219Y-52862475D01*
X133237219Y-52862475D02*
X133332457Y-52814856D01*
X133332457Y-52814856D02*
X133380076Y-52719617D01*
X133380076Y-52719617D02*
X133380076Y-52671998D01*
X133380076Y-52671998D02*
X133332457Y-52576760D01*
X133332457Y-52576760D02*
X133237219Y-52529141D01*
X133237219Y-52529141D02*
X133094362Y-52529141D01*
X133094362Y-52529141D02*
X132999124Y-52481522D01*
X132999124Y-52481522D02*
X132951505Y-52386284D01*
X132951505Y-52386284D02*
X132951505Y-52338665D01*
X132951505Y-52338665D02*
X132999124Y-52243427D01*
X132999124Y-52243427D02*
X133094362Y-52195808D01*
X133094362Y-52195808D02*
X133237219Y-52195808D01*
X133237219Y-52195808D02*
X133332457Y-52243427D01*
X133761029Y-52814856D02*
X133856267Y-52862475D01*
X133856267Y-52862475D02*
X134046743Y-52862475D01*
X134046743Y-52862475D02*
X134141981Y-52814856D01*
X134141981Y-52814856D02*
X134189600Y-52719617D01*
X134189600Y-52719617D02*
X134189600Y-52671998D01*
X134189600Y-52671998D02*
X134141981Y-52576760D01*
X134141981Y-52576760D02*
X134046743Y-52529141D01*
X134046743Y-52529141D02*
X133903886Y-52529141D01*
X133903886Y-52529141D02*
X133808648Y-52481522D01*
X133808648Y-52481522D02*
X133761029Y-52386284D01*
X133761029Y-52386284D02*
X133761029Y-52338665D01*
X133761029Y-52338665D02*
X133808648Y-52243427D01*
X133808648Y-52243427D02*
X133903886Y-52195808D01*
X133903886Y-52195808D02*
X134046743Y-52195808D01*
X134046743Y-52195808D02*
X134141981Y-52243427D01*
X134618172Y-52862475D02*
X134618172Y-52195808D01*
X134618172Y-51862475D02*
X134570553Y-51910094D01*
X134570553Y-51910094D02*
X134618172Y-51957713D01*
X134618172Y-51957713D02*
X134665791Y-51910094D01*
X134665791Y-51910094D02*
X134618172Y-51862475D01*
X134618172Y-51862475D02*
X134618172Y-51957713D01*
X135094362Y-52195808D02*
X135094362Y-52862475D01*
X135094362Y-52291046D02*
X135141981Y-52243427D01*
X135141981Y-52243427D02*
X135237219Y-52195808D01*
X135237219Y-52195808D02*
X135380076Y-52195808D01*
X135380076Y-52195808D02*
X135475314Y-52243427D01*
X135475314Y-52243427D02*
X135522933Y-52338665D01*
X135522933Y-52338665D02*
X135522933Y-52862475D01*
X136427695Y-52195808D02*
X136427695Y-53005332D01*
X136427695Y-53005332D02*
X136380076Y-53100570D01*
X136380076Y-53100570D02*
X136332457Y-53148189D01*
X136332457Y-53148189D02*
X136237219Y-53195808D01*
X136237219Y-53195808D02*
X136094362Y-53195808D01*
X136094362Y-53195808D02*
X135999124Y-53148189D01*
X136427695Y-52814856D02*
X136332457Y-52862475D01*
X136332457Y-52862475D02*
X136141981Y-52862475D01*
X136141981Y-52862475D02*
X136046743Y-52814856D01*
X136046743Y-52814856D02*
X135999124Y-52767236D01*
X135999124Y-52767236D02*
X135951505Y-52671998D01*
X135951505Y-52671998D02*
X135951505Y-52386284D01*
X135951505Y-52386284D02*
X135999124Y-52291046D01*
X135999124Y-52291046D02*
X136046743Y-52243427D01*
X136046743Y-52243427D02*
X136141981Y-52195808D01*
X136141981Y-52195808D02*
X136332457Y-52195808D01*
X136332457Y-52195808D02*
X136427695Y-52243427D01*
X137665791Y-51862475D02*
X137665791Y-52671998D01*
X137665791Y-52671998D02*
X137713410Y-52767236D01*
X137713410Y-52767236D02*
X137761029Y-52814856D01*
X137761029Y-52814856D02*
X137856267Y-52862475D01*
X137856267Y-52862475D02*
X138046743Y-52862475D01*
X138046743Y-52862475D02*
X138141981Y-52814856D01*
X138141981Y-52814856D02*
X138189600Y-52767236D01*
X138189600Y-52767236D02*
X138237219Y-52671998D01*
X138237219Y-52671998D02*
X138237219Y-51862475D01*
X138713410Y-52195808D02*
X138713410Y-52862475D01*
X138713410Y-52291046D02*
X138761029Y-52243427D01*
X138761029Y-52243427D02*
X138856267Y-52195808D01*
X138856267Y-52195808D02*
X138999124Y-52195808D01*
X138999124Y-52195808D02*
X139094362Y-52243427D01*
X139094362Y-52243427D02*
X139141981Y-52338665D01*
X139141981Y-52338665D02*
X139141981Y-52862475D01*
X139618172Y-52862475D02*
X139618172Y-52195808D01*
X139618172Y-51862475D02*
X139570553Y-51910094D01*
X139570553Y-51910094D02*
X139618172Y-51957713D01*
X139618172Y-51957713D02*
X139665791Y-51910094D01*
X139665791Y-51910094D02*
X139618172Y-51862475D01*
X139618172Y-51862475D02*
X139618172Y-51957713D01*
X139951505Y-52195808D02*
X140332457Y-52195808D01*
X140094362Y-51862475D02*
X140094362Y-52719617D01*
X140094362Y-52719617D02*
X140141981Y-52814856D01*
X140141981Y-52814856D02*
X140237219Y-52862475D01*
X140237219Y-52862475D02*
X140332457Y-52862475D01*
X113808646Y-53805752D02*
X113999122Y-54472419D01*
X113999122Y-54472419D02*
X114189598Y-53996228D01*
X114189598Y-53996228D02*
X114380074Y-54472419D01*
X114380074Y-54472419D02*
X114570550Y-53805752D01*
X114951503Y-54472419D02*
X114951503Y-53805752D01*
X114951503Y-53472419D02*
X114903884Y-53520038D01*
X114903884Y-53520038D02*
X114951503Y-53567657D01*
X114951503Y-53567657D02*
X114999122Y-53520038D01*
X114999122Y-53520038D02*
X114951503Y-53472419D01*
X114951503Y-53472419D02*
X114951503Y-53567657D01*
X115284836Y-53805752D02*
X115665788Y-53805752D01*
X115427693Y-53472419D02*
X115427693Y-54329561D01*
X115427693Y-54329561D02*
X115475312Y-54424800D01*
X115475312Y-54424800D02*
X115570550Y-54472419D01*
X115570550Y-54472419D02*
X115665788Y-54472419D01*
X115999122Y-54472419D02*
X115999122Y-53472419D01*
X116427693Y-54472419D02*
X116427693Y-53948609D01*
X116427693Y-53948609D02*
X116380074Y-53853371D01*
X116380074Y-53853371D02*
X116284836Y-53805752D01*
X116284836Y-53805752D02*
X116141979Y-53805752D01*
X116141979Y-53805752D02*
X116046741Y-53853371D01*
X116046741Y-53853371D02*
X115999122Y-53900990D01*
X118094360Y-53472419D02*
X117903884Y-53472419D01*
X117903884Y-53472419D02*
X117808646Y-53520038D01*
X117808646Y-53520038D02*
X117761027Y-53567657D01*
X117761027Y-53567657D02*
X117665789Y-53710514D01*
X117665789Y-53710514D02*
X117618170Y-53900990D01*
X117618170Y-53900990D02*
X117618170Y-54281942D01*
X117618170Y-54281942D02*
X117665789Y-54377180D01*
X117665789Y-54377180D02*
X117713408Y-54424800D01*
X117713408Y-54424800D02*
X117808646Y-54472419D01*
X117808646Y-54472419D02*
X117999122Y-54472419D01*
X117999122Y-54472419D02*
X118094360Y-54424800D01*
X118094360Y-54424800D02*
X118141979Y-54377180D01*
X118141979Y-54377180D02*
X118189598Y-54281942D01*
X118189598Y-54281942D02*
X118189598Y-54043847D01*
X118189598Y-54043847D02*
X118141979Y-53948609D01*
X118141979Y-53948609D02*
X118094360Y-53900990D01*
X118094360Y-53900990D02*
X117999122Y-53853371D01*
X117999122Y-53853371D02*
X117808646Y-53853371D01*
X117808646Y-53853371D02*
X117713408Y-53900990D01*
X117713408Y-53900990D02*
X117665789Y-53948609D01*
X117665789Y-53948609D02*
X117618170Y-54043847D01*
X119094360Y-53472419D02*
X118618170Y-53472419D01*
X118618170Y-53472419D02*
X118570551Y-53948609D01*
X118570551Y-53948609D02*
X118618170Y-53900990D01*
X118618170Y-53900990D02*
X118713408Y-53853371D01*
X118713408Y-53853371D02*
X118951503Y-53853371D01*
X118951503Y-53853371D02*
X119046741Y-53900990D01*
X119046741Y-53900990D02*
X119094360Y-53948609D01*
X119094360Y-53948609D02*
X119141979Y-54043847D01*
X119141979Y-54043847D02*
X119141979Y-54281942D01*
X119141979Y-54281942D02*
X119094360Y-54377180D01*
X119094360Y-54377180D02*
X119046741Y-54424800D01*
X119046741Y-54424800D02*
X118951503Y-54472419D01*
X118951503Y-54472419D02*
X118713408Y-54472419D01*
X118713408Y-54472419D02*
X118618170Y-54424800D01*
X118618170Y-54424800D02*
X118570551Y-54377180D01*
X119761027Y-53472419D02*
X119856265Y-53472419D01*
X119856265Y-53472419D02*
X119951503Y-53520038D01*
X119951503Y-53520038D02*
X119999122Y-53567657D01*
X119999122Y-53567657D02*
X120046741Y-53662895D01*
X120046741Y-53662895D02*
X120094360Y-53853371D01*
X120094360Y-53853371D02*
X120094360Y-54091466D01*
X120094360Y-54091466D02*
X120046741Y-54281942D01*
X120046741Y-54281942D02*
X119999122Y-54377180D01*
X119999122Y-54377180D02*
X119951503Y-54424800D01*
X119951503Y-54424800D02*
X119856265Y-54472419D01*
X119856265Y-54472419D02*
X119761027Y-54472419D01*
X119761027Y-54472419D02*
X119665789Y-54424800D01*
X119665789Y-54424800D02*
X119618170Y-54377180D01*
X119618170Y-54377180D02*
X119570551Y-54281942D01*
X119570551Y-54281942D02*
X119522932Y-54091466D01*
X119522932Y-54091466D02*
X119522932Y-53853371D01*
X119522932Y-53853371D02*
X119570551Y-53662895D01*
X119570551Y-53662895D02*
X119618170Y-53567657D01*
X119618170Y-53567657D02*
X119665789Y-53520038D01*
X119665789Y-53520038D02*
X119761027Y-53472419D01*
X120475313Y-53567657D02*
X120522932Y-53520038D01*
X120522932Y-53520038D02*
X120618170Y-53472419D01*
X120618170Y-53472419D02*
X120856265Y-53472419D01*
X120856265Y-53472419D02*
X120951503Y-53520038D01*
X120951503Y-53520038D02*
X120999122Y-53567657D01*
X120999122Y-53567657D02*
X121046741Y-53662895D01*
X121046741Y-53662895D02*
X121046741Y-53758133D01*
X121046741Y-53758133D02*
X120999122Y-53900990D01*
X120999122Y-53900990D02*
X120427694Y-54472419D01*
X120427694Y-54472419D02*
X121046741Y-54472419D01*
X122570551Y-53948609D02*
X122713408Y-53996228D01*
X122713408Y-53996228D02*
X122761027Y-54043847D01*
X122761027Y-54043847D02*
X122808646Y-54139085D01*
X122808646Y-54139085D02*
X122808646Y-54281942D01*
X122808646Y-54281942D02*
X122761027Y-54377180D01*
X122761027Y-54377180D02*
X122713408Y-54424800D01*
X122713408Y-54424800D02*
X122618170Y-54472419D01*
X122618170Y-54472419D02*
X122237218Y-54472419D01*
X122237218Y-54472419D02*
X122237218Y-53472419D01*
X122237218Y-53472419D02*
X122570551Y-53472419D01*
X122570551Y-53472419D02*
X122665789Y-53520038D01*
X122665789Y-53520038D02*
X122713408Y-53567657D01*
X122713408Y-53567657D02*
X122761027Y-53662895D01*
X122761027Y-53662895D02*
X122761027Y-53758133D01*
X122761027Y-53758133D02*
X122713408Y-53853371D01*
X122713408Y-53853371D02*
X122665789Y-53900990D01*
X122665789Y-53900990D02*
X122570551Y-53948609D01*
X122570551Y-53948609D02*
X122237218Y-53948609D01*
X123665789Y-53805752D02*
X123665789Y-54472419D01*
X123237218Y-53805752D02*
X123237218Y-54329561D01*
X123237218Y-54329561D02*
X123284837Y-54424800D01*
X123284837Y-54424800D02*
X123380075Y-54472419D01*
X123380075Y-54472419D02*
X123522932Y-54472419D01*
X123522932Y-54472419D02*
X123618170Y-54424800D01*
X123618170Y-54424800D02*
X123665789Y-54377180D01*
X124094361Y-54424800D02*
X124189599Y-54472419D01*
X124189599Y-54472419D02*
X124380075Y-54472419D01*
X124380075Y-54472419D02*
X124475313Y-54424800D01*
X124475313Y-54424800D02*
X124522932Y-54329561D01*
X124522932Y-54329561D02*
X124522932Y-54281942D01*
X124522932Y-54281942D02*
X124475313Y-54186704D01*
X124475313Y-54186704D02*
X124380075Y-54139085D01*
X124380075Y-54139085D02*
X124237218Y-54139085D01*
X124237218Y-54139085D02*
X124141980Y-54091466D01*
X124141980Y-54091466D02*
X124094361Y-53996228D01*
X124094361Y-53996228D02*
X124094361Y-53948609D01*
X124094361Y-53948609D02*
X124141980Y-53853371D01*
X124141980Y-53853371D02*
X124237218Y-53805752D01*
X124237218Y-53805752D02*
X124380075Y-53805752D01*
X124380075Y-53805752D02*
X124475313Y-53853371D01*
X125713409Y-54472419D02*
X125713409Y-53472419D01*
X126189599Y-53805752D02*
X126189599Y-54472419D01*
X126189599Y-53900990D02*
X126237218Y-53853371D01*
X126237218Y-53853371D02*
X126332456Y-53805752D01*
X126332456Y-53805752D02*
X126475313Y-53805752D01*
X126475313Y-53805752D02*
X126570551Y-53853371D01*
X126570551Y-53853371D02*
X126618170Y-53948609D01*
X126618170Y-53948609D02*
X126618170Y-54472419D01*
X126951504Y-53805752D02*
X127332456Y-53805752D01*
X127094361Y-53472419D02*
X127094361Y-54329561D01*
X127094361Y-54329561D02*
X127141980Y-54424800D01*
X127141980Y-54424800D02*
X127237218Y-54472419D01*
X127237218Y-54472419D02*
X127332456Y-54472419D01*
X128046742Y-54424800D02*
X127951504Y-54472419D01*
X127951504Y-54472419D02*
X127761028Y-54472419D01*
X127761028Y-54472419D02*
X127665790Y-54424800D01*
X127665790Y-54424800D02*
X127618171Y-54329561D01*
X127618171Y-54329561D02*
X127618171Y-53948609D01*
X127618171Y-53948609D02*
X127665790Y-53853371D01*
X127665790Y-53853371D02*
X127761028Y-53805752D01*
X127761028Y-53805752D02*
X127951504Y-53805752D01*
X127951504Y-53805752D02*
X128046742Y-53853371D01*
X128046742Y-53853371D02*
X128094361Y-53948609D01*
X128094361Y-53948609D02*
X128094361Y-54043847D01*
X128094361Y-54043847D02*
X127618171Y-54139085D01*
X128522933Y-54472419D02*
X128522933Y-53805752D01*
X128522933Y-53996228D02*
X128570552Y-53900990D01*
X128570552Y-53900990D02*
X128618171Y-53853371D01*
X128618171Y-53853371D02*
X128713409Y-53805752D01*
X128713409Y-53805752D02*
X128808647Y-53805752D01*
X128999124Y-53805752D02*
X129380076Y-53805752D01*
X129141981Y-54472419D02*
X129141981Y-53615276D01*
X129141981Y-53615276D02*
X129189600Y-53520038D01*
X129189600Y-53520038D02*
X129284838Y-53472419D01*
X129284838Y-53472419D02*
X129380076Y-53472419D01*
X130141981Y-54472419D02*
X130141981Y-53948609D01*
X130141981Y-53948609D02*
X130094362Y-53853371D01*
X130094362Y-53853371D02*
X129999124Y-53805752D01*
X129999124Y-53805752D02*
X129808648Y-53805752D01*
X129808648Y-53805752D02*
X129713410Y-53853371D01*
X130141981Y-54424800D02*
X130046743Y-54472419D01*
X130046743Y-54472419D02*
X129808648Y-54472419D01*
X129808648Y-54472419D02*
X129713410Y-54424800D01*
X129713410Y-54424800D02*
X129665791Y-54329561D01*
X129665791Y-54329561D02*
X129665791Y-54234323D01*
X129665791Y-54234323D02*
X129713410Y-54139085D01*
X129713410Y-54139085D02*
X129808648Y-54091466D01*
X129808648Y-54091466D02*
X130046743Y-54091466D01*
X130046743Y-54091466D02*
X130141981Y-54043847D01*
X131046743Y-54424800D02*
X130951505Y-54472419D01*
X130951505Y-54472419D02*
X130761029Y-54472419D01*
X130761029Y-54472419D02*
X130665791Y-54424800D01*
X130665791Y-54424800D02*
X130618172Y-54377180D01*
X130618172Y-54377180D02*
X130570553Y-54281942D01*
X130570553Y-54281942D02*
X130570553Y-53996228D01*
X130570553Y-53996228D02*
X130618172Y-53900990D01*
X130618172Y-53900990D02*
X130665791Y-53853371D01*
X130665791Y-53853371D02*
X130761029Y-53805752D01*
X130761029Y-53805752D02*
X130951505Y-53805752D01*
X130951505Y-53805752D02*
X131046743Y-53853371D01*
X131856267Y-54424800D02*
X131761029Y-54472419D01*
X131761029Y-54472419D02*
X131570553Y-54472419D01*
X131570553Y-54472419D02*
X131475315Y-54424800D01*
X131475315Y-54424800D02*
X131427696Y-54329561D01*
X131427696Y-54329561D02*
X131427696Y-53948609D01*
X131427696Y-53948609D02*
X131475315Y-53853371D01*
X131475315Y-53853371D02*
X131570553Y-53805752D01*
X131570553Y-53805752D02*
X131761029Y-53805752D01*
X131761029Y-53805752D02*
X131856267Y-53853371D01*
X131856267Y-53853371D02*
X131903886Y-53948609D01*
X131903886Y-53948609D02*
X131903886Y-54043847D01*
X131903886Y-54043847D02*
X131427696Y-54139085D01*
X183932343Y-61046895D02*
X184199010Y-61846895D01*
X184199010Y-61846895D02*
X184465676Y-61046895D01*
X185189486Y-61770704D02*
X185151390Y-61808800D01*
X185151390Y-61808800D02*
X185037105Y-61846895D01*
X185037105Y-61846895D02*
X184960914Y-61846895D01*
X184960914Y-61846895D02*
X184846628Y-61808800D01*
X184846628Y-61808800D02*
X184770438Y-61732609D01*
X184770438Y-61732609D02*
X184732343Y-61656419D01*
X184732343Y-61656419D02*
X184694247Y-61504038D01*
X184694247Y-61504038D02*
X184694247Y-61389752D01*
X184694247Y-61389752D02*
X184732343Y-61237371D01*
X184732343Y-61237371D02*
X184770438Y-61161180D01*
X184770438Y-61161180D02*
X184846628Y-61084990D01*
X184846628Y-61084990D02*
X184960914Y-61046895D01*
X184960914Y-61046895D02*
X185037105Y-61046895D01*
X185037105Y-61046895D02*
X185151390Y-61084990D01*
X185151390Y-61084990D02*
X185189486Y-61123085D01*
X185989486Y-61770704D02*
X185951390Y-61808800D01*
X185951390Y-61808800D02*
X185837105Y-61846895D01*
X185837105Y-61846895D02*
X185760914Y-61846895D01*
X185760914Y-61846895D02*
X185646628Y-61808800D01*
X185646628Y-61808800D02*
X185570438Y-61732609D01*
X185570438Y-61732609D02*
X185532343Y-61656419D01*
X185532343Y-61656419D02*
X185494247Y-61504038D01*
X185494247Y-61504038D02*
X185494247Y-61389752D01*
X185494247Y-61389752D02*
X185532343Y-61237371D01*
X185532343Y-61237371D02*
X185570438Y-61161180D01*
X185570438Y-61161180D02*
X185646628Y-61084990D01*
X185646628Y-61084990D02*
X185760914Y-61046895D01*
X185760914Y-61046895D02*
X185837105Y-61046895D01*
X185837105Y-61046895D02*
X185951390Y-61084990D01*
X185951390Y-61084990D02*
X185989486Y-61123085D01*
X184046629Y-71846895D02*
X184046629Y-71046895D01*
X184046629Y-71046895D02*
X184237105Y-71046895D01*
X184237105Y-71046895D02*
X184351391Y-71084990D01*
X184351391Y-71084990D02*
X184427581Y-71161180D01*
X184427581Y-71161180D02*
X184465676Y-71237371D01*
X184465676Y-71237371D02*
X184503772Y-71389752D01*
X184503772Y-71389752D02*
X184503772Y-71504038D01*
X184503772Y-71504038D02*
X184465676Y-71656419D01*
X184465676Y-71656419D02*
X184427581Y-71732609D01*
X184427581Y-71732609D02*
X184351391Y-71808800D01*
X184351391Y-71808800D02*
X184237105Y-71846895D01*
X184237105Y-71846895D02*
X184046629Y-71846895D01*
X184808533Y-71123085D02*
X184846629Y-71084990D01*
X184846629Y-71084990D02*
X184922819Y-71046895D01*
X184922819Y-71046895D02*
X185113295Y-71046895D01*
X185113295Y-71046895D02*
X185189486Y-71084990D01*
X185189486Y-71084990D02*
X185227581Y-71123085D01*
X185227581Y-71123085D02*
X185265676Y-71199276D01*
X185265676Y-71199276D02*
X185265676Y-71275466D01*
X185265676Y-71275466D02*
X185227581Y-71389752D01*
X185227581Y-71389752D02*
X184770438Y-71846895D01*
X184770438Y-71846895D02*
X185265676Y-71846895D01*
X184046629Y-99866895D02*
X184046629Y-99066895D01*
X184046629Y-99066895D02*
X184351391Y-99066895D01*
X184351391Y-99066895D02*
X184427581Y-99104990D01*
X184427581Y-99104990D02*
X184465676Y-99143085D01*
X184465676Y-99143085D02*
X184503772Y-99219276D01*
X184503772Y-99219276D02*
X184503772Y-99333561D01*
X184503772Y-99333561D02*
X184465676Y-99409752D01*
X184465676Y-99409752D02*
X184427581Y-99447847D01*
X184427581Y-99447847D02*
X184351391Y-99485942D01*
X184351391Y-99485942D02*
X184046629Y-99485942D01*
X184846629Y-99866895D02*
X184846629Y-99066895D01*
X184846629Y-99447847D02*
X185303772Y-99447847D01*
X185303772Y-99866895D02*
X185303772Y-99066895D01*
X185684724Y-99866895D02*
X185684724Y-99066895D01*
X186027580Y-99143085D02*
X186065676Y-99104990D01*
X186065676Y-99104990D02*
X186141866Y-99066895D01*
X186141866Y-99066895D02*
X186332342Y-99066895D01*
X186332342Y-99066895D02*
X186408533Y-99104990D01*
X186408533Y-99104990D02*
X186446628Y-99143085D01*
X186446628Y-99143085D02*
X186484723Y-99219276D01*
X186484723Y-99219276D02*
X186484723Y-99295466D01*
X186484723Y-99295466D02*
X186446628Y-99409752D01*
X186446628Y-99409752D02*
X185989485Y-99866895D01*
X185989485Y-99866895D02*
X186484723Y-99866895D01*
X184046629Y-77096895D02*
X184046629Y-76296895D01*
X184046629Y-76296895D02*
X184237105Y-76296895D01*
X184237105Y-76296895D02*
X184351391Y-76334990D01*
X184351391Y-76334990D02*
X184427581Y-76411180D01*
X184427581Y-76411180D02*
X184465676Y-76487371D01*
X184465676Y-76487371D02*
X184503772Y-76639752D01*
X184503772Y-76639752D02*
X184503772Y-76754038D01*
X184503772Y-76754038D02*
X184465676Y-76906419D01*
X184465676Y-76906419D02*
X184427581Y-76982609D01*
X184427581Y-76982609D02*
X184351391Y-77058800D01*
X184351391Y-77058800D02*
X184237105Y-77096895D01*
X184237105Y-77096895D02*
X184046629Y-77096895D01*
X185189486Y-76563561D02*
X185189486Y-77096895D01*
X184999010Y-76258800D02*
X184808533Y-76830228D01*
X184808533Y-76830228D02*
X185303772Y-76830228D01*
X173152381Y-53696895D02*
X173152381Y-52896895D01*
X173152381Y-52896895D02*
X173457143Y-52896895D01*
X173457143Y-52896895D02*
X173533333Y-52934990D01*
X173533333Y-52934990D02*
X173571428Y-52973085D01*
X173571428Y-52973085D02*
X173609524Y-53049276D01*
X173609524Y-53049276D02*
X173609524Y-53163561D01*
X173609524Y-53163561D02*
X173571428Y-53239752D01*
X173571428Y-53239752D02*
X173533333Y-53277847D01*
X173533333Y-53277847D02*
X173457143Y-53315942D01*
X173457143Y-53315942D02*
X173152381Y-53315942D01*
X174104762Y-52896895D02*
X174257143Y-52896895D01*
X174257143Y-52896895D02*
X174333333Y-52934990D01*
X174333333Y-52934990D02*
X174409524Y-53011180D01*
X174409524Y-53011180D02*
X174447619Y-53163561D01*
X174447619Y-53163561D02*
X174447619Y-53430228D01*
X174447619Y-53430228D02*
X174409524Y-53582609D01*
X174409524Y-53582609D02*
X174333333Y-53658800D01*
X174333333Y-53658800D02*
X174257143Y-53696895D01*
X174257143Y-53696895D02*
X174104762Y-53696895D01*
X174104762Y-53696895D02*
X174028571Y-53658800D01*
X174028571Y-53658800D02*
X173952381Y-53582609D01*
X173952381Y-53582609D02*
X173914285Y-53430228D01*
X173914285Y-53430228D02*
X173914285Y-53163561D01*
X173914285Y-53163561D02*
X173952381Y-53011180D01*
X173952381Y-53011180D02*
X174028571Y-52934990D01*
X174028571Y-52934990D02*
X174104762Y-52896895D01*
X174714285Y-52896895D02*
X174904761Y-53696895D01*
X174904761Y-53696895D02*
X175057142Y-53125466D01*
X175057142Y-53125466D02*
X175209523Y-53696895D01*
X175209523Y-53696895D02*
X175400000Y-52896895D01*
X175704762Y-53277847D02*
X175971428Y-53277847D01*
X176085714Y-53696895D02*
X175704762Y-53696895D01*
X175704762Y-53696895D02*
X175704762Y-52896895D01*
X175704762Y-52896895D02*
X176085714Y-52896895D01*
X176885715Y-53696895D02*
X176619048Y-53315942D01*
X176428572Y-53696895D02*
X176428572Y-52896895D01*
X176428572Y-52896895D02*
X176733334Y-52896895D01*
X176733334Y-52896895D02*
X176809524Y-52934990D01*
X176809524Y-52934990D02*
X176847619Y-52973085D01*
X176847619Y-52973085D02*
X176885715Y-53049276D01*
X176885715Y-53049276D02*
X176885715Y-53163561D01*
X176885715Y-53163561D02*
X176847619Y-53239752D01*
X176847619Y-53239752D02*
X176809524Y-53277847D01*
X176809524Y-53277847D02*
X176733334Y-53315942D01*
X176733334Y-53315942D02*
X176428572Y-53315942D01*
X184070500Y-86972095D02*
X184451453Y-86972095D01*
X183994310Y-87200667D02*
X184260977Y-86400667D01*
X184260977Y-86400667D02*
X184527643Y-87200667D01*
X184946691Y-86400667D02*
X185022881Y-86400667D01*
X185022881Y-86400667D02*
X185099072Y-86438762D01*
X185099072Y-86438762D02*
X185137167Y-86476857D01*
X185137167Y-86476857D02*
X185175262Y-86553048D01*
X185175262Y-86553048D02*
X185213357Y-86705429D01*
X185213357Y-86705429D02*
X185213357Y-86895905D01*
X185213357Y-86895905D02*
X185175262Y-87048286D01*
X185175262Y-87048286D02*
X185137167Y-87124476D01*
X185137167Y-87124476D02*
X185099072Y-87162572D01*
X185099072Y-87162572D02*
X185022881Y-87200667D01*
X185022881Y-87200667D02*
X184946691Y-87200667D01*
X184946691Y-87200667D02*
X184870500Y-87162572D01*
X184870500Y-87162572D02*
X184832405Y-87124476D01*
X184832405Y-87124476D02*
X184794310Y-87048286D01*
X184794310Y-87048286D02*
X184756214Y-86895905D01*
X184756214Y-86895905D02*
X184756214Y-86705429D01*
X184756214Y-86705429D02*
X184794310Y-86553048D01*
X184794310Y-86553048D02*
X184832405Y-86476857D01*
X184832405Y-86476857D02*
X184870500Y-86438762D01*
X184870500Y-86438762D02*
X184946691Y-86400667D01*
X184046629Y-82096895D02*
X184046629Y-81296895D01*
X184046629Y-81296895D02*
X184237105Y-81296895D01*
X184237105Y-81296895D02*
X184351391Y-81334990D01*
X184351391Y-81334990D02*
X184427581Y-81411180D01*
X184427581Y-81411180D02*
X184465676Y-81487371D01*
X184465676Y-81487371D02*
X184503772Y-81639752D01*
X184503772Y-81639752D02*
X184503772Y-81754038D01*
X184503772Y-81754038D02*
X184465676Y-81906419D01*
X184465676Y-81906419D02*
X184427581Y-81982609D01*
X184427581Y-81982609D02*
X184351391Y-82058800D01*
X184351391Y-82058800D02*
X184237105Y-82096895D01*
X184237105Y-82096895D02*
X184046629Y-82096895D01*
X185189486Y-81296895D02*
X185037105Y-81296895D01*
X185037105Y-81296895D02*
X184960914Y-81334990D01*
X184960914Y-81334990D02*
X184922819Y-81373085D01*
X184922819Y-81373085D02*
X184846629Y-81487371D01*
X184846629Y-81487371D02*
X184808533Y-81639752D01*
X184808533Y-81639752D02*
X184808533Y-81944514D01*
X184808533Y-81944514D02*
X184846629Y-82020704D01*
X184846629Y-82020704D02*
X184884724Y-82058800D01*
X184884724Y-82058800D02*
X184960914Y-82096895D01*
X184960914Y-82096895D02*
X185113295Y-82096895D01*
X185113295Y-82096895D02*
X185189486Y-82058800D01*
X185189486Y-82058800D02*
X185227581Y-82020704D01*
X185227581Y-82020704D02*
X185265676Y-81944514D01*
X185265676Y-81944514D02*
X185265676Y-81754038D01*
X185265676Y-81754038D02*
X185227581Y-81677847D01*
X185227581Y-81677847D02*
X185189486Y-81639752D01*
X185189486Y-81639752D02*
X185113295Y-81601657D01*
X185113295Y-81601657D02*
X184960914Y-81601657D01*
X184960914Y-81601657D02*
X184884724Y-81639752D01*
X184884724Y-81639752D02*
X184846629Y-81677847D01*
X184846629Y-81677847D02*
X184808533Y-81754038D01*
X184503772Y-97296895D02*
X184237105Y-96915942D01*
X184046629Y-97296895D02*
X184046629Y-96496895D01*
X184046629Y-96496895D02*
X184351391Y-96496895D01*
X184351391Y-96496895D02*
X184427581Y-96534990D01*
X184427581Y-96534990D02*
X184465676Y-96573085D01*
X184465676Y-96573085D02*
X184503772Y-96649276D01*
X184503772Y-96649276D02*
X184503772Y-96763561D01*
X184503772Y-96763561D02*
X184465676Y-96839752D01*
X184465676Y-96839752D02*
X184427581Y-96877847D01*
X184427581Y-96877847D02*
X184351391Y-96915942D01*
X184351391Y-96915942D02*
X184046629Y-96915942D01*
X184846629Y-97296895D02*
X184846629Y-96496895D01*
X184846629Y-96496895D02*
X185037105Y-96496895D01*
X185037105Y-96496895D02*
X185151391Y-96534990D01*
X185151391Y-96534990D02*
X185227581Y-96611180D01*
X185227581Y-96611180D02*
X185265676Y-96687371D01*
X185265676Y-96687371D02*
X185303772Y-96839752D01*
X185303772Y-96839752D02*
X185303772Y-96954038D01*
X185303772Y-96954038D02*
X185265676Y-97106419D01*
X185265676Y-97106419D02*
X185227581Y-97182609D01*
X185227581Y-97182609D02*
X185151391Y-97258800D01*
X185151391Y-97258800D02*
X185037105Y-97296895D01*
X185037105Y-97296895D02*
X184846629Y-97296895D01*
X185799010Y-96915942D02*
X185799010Y-97296895D01*
X185532343Y-96496895D02*
X185799010Y-96915942D01*
X185799010Y-96915942D02*
X186065676Y-96496895D01*
X184465676Y-63584990D02*
X184389486Y-63546895D01*
X184389486Y-63546895D02*
X184275200Y-63546895D01*
X184275200Y-63546895D02*
X184160914Y-63584990D01*
X184160914Y-63584990D02*
X184084724Y-63661180D01*
X184084724Y-63661180D02*
X184046629Y-63737371D01*
X184046629Y-63737371D02*
X184008533Y-63889752D01*
X184008533Y-63889752D02*
X184008533Y-64004038D01*
X184008533Y-64004038D02*
X184046629Y-64156419D01*
X184046629Y-64156419D02*
X184084724Y-64232609D01*
X184084724Y-64232609D02*
X184160914Y-64308800D01*
X184160914Y-64308800D02*
X184275200Y-64346895D01*
X184275200Y-64346895D02*
X184351391Y-64346895D01*
X184351391Y-64346895D02*
X184465676Y-64308800D01*
X184465676Y-64308800D02*
X184503772Y-64270704D01*
X184503772Y-64270704D02*
X184503772Y-64004038D01*
X184503772Y-64004038D02*
X184351391Y-64004038D01*
X184846629Y-64346895D02*
X184846629Y-63546895D01*
X184846629Y-63546895D02*
X185303772Y-64346895D01*
X185303772Y-64346895D02*
X185303772Y-63546895D01*
X185684724Y-64346895D02*
X185684724Y-63546895D01*
X185684724Y-63546895D02*
X185875200Y-63546895D01*
X185875200Y-63546895D02*
X185989486Y-63584990D01*
X185989486Y-63584990D02*
X186065676Y-63661180D01*
X186065676Y-63661180D02*
X186103771Y-63737371D01*
X186103771Y-63737371D02*
X186141867Y-63889752D01*
X186141867Y-63889752D02*
X186141867Y-64004038D01*
X186141867Y-64004038D02*
X186103771Y-64156419D01*
X186103771Y-64156419D02*
X186065676Y-64232609D01*
X186065676Y-64232609D02*
X185989486Y-64308800D01*
X185989486Y-64308800D02*
X185875200Y-64346895D01*
X185875200Y-64346895D02*
X185684724Y-64346895D01*
X184046629Y-74596895D02*
X184046629Y-73796895D01*
X184046629Y-73796895D02*
X184237105Y-73796895D01*
X184237105Y-73796895D02*
X184351391Y-73834990D01*
X184351391Y-73834990D02*
X184427581Y-73911180D01*
X184427581Y-73911180D02*
X184465676Y-73987371D01*
X184465676Y-73987371D02*
X184503772Y-74139752D01*
X184503772Y-74139752D02*
X184503772Y-74254038D01*
X184503772Y-74254038D02*
X184465676Y-74406419D01*
X184465676Y-74406419D02*
X184427581Y-74482609D01*
X184427581Y-74482609D02*
X184351391Y-74558800D01*
X184351391Y-74558800D02*
X184237105Y-74596895D01*
X184237105Y-74596895D02*
X184046629Y-74596895D01*
X184770438Y-73796895D02*
X185265676Y-73796895D01*
X185265676Y-73796895D02*
X184999010Y-74101657D01*
X184999010Y-74101657D02*
X185113295Y-74101657D01*
X185113295Y-74101657D02*
X185189486Y-74139752D01*
X185189486Y-74139752D02*
X185227581Y-74177847D01*
X185227581Y-74177847D02*
X185265676Y-74254038D01*
X185265676Y-74254038D02*
X185265676Y-74444514D01*
X185265676Y-74444514D02*
X185227581Y-74520704D01*
X185227581Y-74520704D02*
X185189486Y-74558800D01*
X185189486Y-74558800D02*
X185113295Y-74596895D01*
X185113295Y-74596895D02*
X184884724Y-74596895D01*
X184884724Y-74596895D02*
X184808533Y-74558800D01*
X184808533Y-74558800D02*
X184770438Y-74520704D01*
X184503772Y-89620704D02*
X184465676Y-89658800D01*
X184465676Y-89658800D02*
X184351391Y-89696895D01*
X184351391Y-89696895D02*
X184275200Y-89696895D01*
X184275200Y-89696895D02*
X184160914Y-89658800D01*
X184160914Y-89658800D02*
X184084724Y-89582609D01*
X184084724Y-89582609D02*
X184046629Y-89506419D01*
X184046629Y-89506419D02*
X184008533Y-89354038D01*
X184008533Y-89354038D02*
X184008533Y-89239752D01*
X184008533Y-89239752D02*
X184046629Y-89087371D01*
X184046629Y-89087371D02*
X184084724Y-89011180D01*
X184084724Y-89011180D02*
X184160914Y-88934990D01*
X184160914Y-88934990D02*
X184275200Y-88896895D01*
X184275200Y-88896895D02*
X184351391Y-88896895D01*
X184351391Y-88896895D02*
X184465676Y-88934990D01*
X184465676Y-88934990D02*
X184503772Y-88973085D01*
X184808533Y-89658800D02*
X184922819Y-89696895D01*
X184922819Y-89696895D02*
X185113295Y-89696895D01*
X185113295Y-89696895D02*
X185189486Y-89658800D01*
X185189486Y-89658800D02*
X185227581Y-89620704D01*
X185227581Y-89620704D02*
X185265676Y-89544514D01*
X185265676Y-89544514D02*
X185265676Y-89468323D01*
X185265676Y-89468323D02*
X185227581Y-89392133D01*
X185227581Y-89392133D02*
X185189486Y-89354038D01*
X185189486Y-89354038D02*
X185113295Y-89315942D01*
X185113295Y-89315942D02*
X184960914Y-89277847D01*
X184960914Y-89277847D02*
X184884724Y-89239752D01*
X184884724Y-89239752D02*
X184846629Y-89201657D01*
X184846629Y-89201657D02*
X184808533Y-89125466D01*
X184808533Y-89125466D02*
X184808533Y-89049276D01*
X184808533Y-89049276D02*
X184846629Y-88973085D01*
X184846629Y-88973085D02*
X184884724Y-88934990D01*
X184884724Y-88934990D02*
X184960914Y-88896895D01*
X184960914Y-88896895D02*
X185151391Y-88896895D01*
X185151391Y-88896895D02*
X185265676Y-88934990D01*
X183936153Y-88674800D02*
X185338058Y-88674800D01*
X184046629Y-69346895D02*
X184046629Y-68546895D01*
X184046629Y-68546895D02*
X184237105Y-68546895D01*
X184237105Y-68546895D02*
X184351391Y-68584990D01*
X184351391Y-68584990D02*
X184427581Y-68661180D01*
X184427581Y-68661180D02*
X184465676Y-68737371D01*
X184465676Y-68737371D02*
X184503772Y-68889752D01*
X184503772Y-68889752D02*
X184503772Y-69004038D01*
X184503772Y-69004038D02*
X184465676Y-69156419D01*
X184465676Y-69156419D02*
X184427581Y-69232609D01*
X184427581Y-69232609D02*
X184351391Y-69308800D01*
X184351391Y-69308800D02*
X184237105Y-69346895D01*
X184237105Y-69346895D02*
X184046629Y-69346895D01*
X185265676Y-69346895D02*
X184808533Y-69346895D01*
X185037105Y-69346895D02*
X185037105Y-68546895D01*
X185037105Y-68546895D02*
X184960914Y-68661180D01*
X184960914Y-68661180D02*
X184884724Y-68737371D01*
X184884724Y-68737371D02*
X184808533Y-68775466D01*
X184046629Y-66846895D02*
X184046629Y-66046895D01*
X184046629Y-66046895D02*
X184237105Y-66046895D01*
X184237105Y-66046895D02*
X184351391Y-66084990D01*
X184351391Y-66084990D02*
X184427581Y-66161180D01*
X184427581Y-66161180D02*
X184465676Y-66237371D01*
X184465676Y-66237371D02*
X184503772Y-66389752D01*
X184503772Y-66389752D02*
X184503772Y-66504038D01*
X184503772Y-66504038D02*
X184465676Y-66656419D01*
X184465676Y-66656419D02*
X184427581Y-66732609D01*
X184427581Y-66732609D02*
X184351391Y-66808800D01*
X184351391Y-66808800D02*
X184237105Y-66846895D01*
X184237105Y-66846895D02*
X184046629Y-66846895D01*
X184999010Y-66046895D02*
X185075200Y-66046895D01*
X185075200Y-66046895D02*
X185151391Y-66084990D01*
X185151391Y-66084990D02*
X185189486Y-66123085D01*
X185189486Y-66123085D02*
X185227581Y-66199276D01*
X185227581Y-66199276D02*
X185265676Y-66351657D01*
X185265676Y-66351657D02*
X185265676Y-66542133D01*
X185265676Y-66542133D02*
X185227581Y-66694514D01*
X185227581Y-66694514D02*
X185189486Y-66770704D01*
X185189486Y-66770704D02*
X185151391Y-66808800D01*
X185151391Y-66808800D02*
X185075200Y-66846895D01*
X185075200Y-66846895D02*
X184999010Y-66846895D01*
X184999010Y-66846895D02*
X184922819Y-66808800D01*
X184922819Y-66808800D02*
X184884724Y-66770704D01*
X184884724Y-66770704D02*
X184846629Y-66694514D01*
X184846629Y-66694514D02*
X184808533Y-66542133D01*
X184808533Y-66542133D02*
X184808533Y-66351657D01*
X184808533Y-66351657D02*
X184846629Y-66199276D01*
X184846629Y-66199276D02*
X184884724Y-66123085D01*
X184884724Y-66123085D02*
X184922819Y-66084990D01*
X184922819Y-66084990D02*
X184999010Y-66046895D01*
X184465676Y-104134990D02*
X184389486Y-104096895D01*
X184389486Y-104096895D02*
X184275200Y-104096895D01*
X184275200Y-104096895D02*
X184160914Y-104134990D01*
X184160914Y-104134990D02*
X184084724Y-104211180D01*
X184084724Y-104211180D02*
X184046629Y-104287371D01*
X184046629Y-104287371D02*
X184008533Y-104439752D01*
X184008533Y-104439752D02*
X184008533Y-104554038D01*
X184008533Y-104554038D02*
X184046629Y-104706419D01*
X184046629Y-104706419D02*
X184084724Y-104782609D01*
X184084724Y-104782609D02*
X184160914Y-104858800D01*
X184160914Y-104858800D02*
X184275200Y-104896895D01*
X184275200Y-104896895D02*
X184351391Y-104896895D01*
X184351391Y-104896895D02*
X184465676Y-104858800D01*
X184465676Y-104858800D02*
X184503772Y-104820704D01*
X184503772Y-104820704D02*
X184503772Y-104554038D01*
X184503772Y-104554038D02*
X184351391Y-104554038D01*
X184846629Y-104896895D02*
X184846629Y-104096895D01*
X184846629Y-104096895D02*
X185303772Y-104896895D01*
X185303772Y-104896895D02*
X185303772Y-104096895D01*
X185684724Y-104896895D02*
X185684724Y-104096895D01*
X185684724Y-104096895D02*
X185875200Y-104096895D01*
X185875200Y-104096895D02*
X185989486Y-104134990D01*
X185989486Y-104134990D02*
X186065676Y-104211180D01*
X186065676Y-104211180D02*
X186103771Y-104287371D01*
X186103771Y-104287371D02*
X186141867Y-104439752D01*
X186141867Y-104439752D02*
X186141867Y-104554038D01*
X186141867Y-104554038D02*
X186103771Y-104706419D01*
X186103771Y-104706419D02*
X186065676Y-104782609D01*
X186065676Y-104782609D02*
X185989486Y-104858800D01*
X185989486Y-104858800D02*
X185875200Y-104896895D01*
X185875200Y-104896895D02*
X185684724Y-104896895D01*
X184046629Y-79596895D02*
X184046629Y-78796895D01*
X184046629Y-78796895D02*
X184237105Y-78796895D01*
X184237105Y-78796895D02*
X184351391Y-78834990D01*
X184351391Y-78834990D02*
X184427581Y-78911180D01*
X184427581Y-78911180D02*
X184465676Y-78987371D01*
X184465676Y-78987371D02*
X184503772Y-79139752D01*
X184503772Y-79139752D02*
X184503772Y-79254038D01*
X184503772Y-79254038D02*
X184465676Y-79406419D01*
X184465676Y-79406419D02*
X184427581Y-79482609D01*
X184427581Y-79482609D02*
X184351391Y-79558800D01*
X184351391Y-79558800D02*
X184237105Y-79596895D01*
X184237105Y-79596895D02*
X184046629Y-79596895D01*
X185227581Y-78796895D02*
X184846629Y-78796895D01*
X184846629Y-78796895D02*
X184808533Y-79177847D01*
X184808533Y-79177847D02*
X184846629Y-79139752D01*
X184846629Y-79139752D02*
X184922819Y-79101657D01*
X184922819Y-79101657D02*
X185113295Y-79101657D01*
X185113295Y-79101657D02*
X185189486Y-79139752D01*
X185189486Y-79139752D02*
X185227581Y-79177847D01*
X185227581Y-79177847D02*
X185265676Y-79254038D01*
X185265676Y-79254038D02*
X185265676Y-79444514D01*
X185265676Y-79444514D02*
X185227581Y-79520704D01*
X185227581Y-79520704D02*
X185189486Y-79558800D01*
X185189486Y-79558800D02*
X185113295Y-79596895D01*
X185113295Y-79596895D02*
X184922819Y-79596895D01*
X184922819Y-79596895D02*
X184846629Y-79558800D01*
X184846629Y-79558800D02*
X184808533Y-79520704D01*
X184040950Y-102518424D02*
X184040950Y-101718424D01*
X184879045Y-102518424D02*
X184612378Y-102137471D01*
X184421902Y-102518424D02*
X184421902Y-101718424D01*
X184421902Y-101718424D02*
X184726664Y-101718424D01*
X184726664Y-101718424D02*
X184802854Y-101756519D01*
X184802854Y-101756519D02*
X184840949Y-101794614D01*
X184840949Y-101794614D02*
X184879045Y-101870805D01*
X184879045Y-101870805D02*
X184879045Y-101985090D01*
X184879045Y-101985090D02*
X184840949Y-102061281D01*
X184840949Y-102061281D02*
X184802854Y-102099376D01*
X184802854Y-102099376D02*
X184726664Y-102137471D01*
X184726664Y-102137471D02*
X184421902Y-102137471D01*
X185755235Y-102594614D02*
X185679045Y-102556519D01*
X185679045Y-102556519D02*
X185602854Y-102480329D01*
X185602854Y-102480329D02*
X185488568Y-102366043D01*
X185488568Y-102366043D02*
X185412378Y-102327948D01*
X185412378Y-102327948D02*
X185336187Y-102327948D01*
X185374283Y-102518424D02*
X185298092Y-102480329D01*
X185298092Y-102480329D02*
X185221902Y-102404138D01*
X185221902Y-102404138D02*
X185183806Y-102251757D01*
X185183806Y-102251757D02*
X185183806Y-101985090D01*
X185183806Y-101985090D02*
X185221902Y-101832709D01*
X185221902Y-101832709D02*
X185298092Y-101756519D01*
X185298092Y-101756519D02*
X185374283Y-101718424D01*
X185374283Y-101718424D02*
X185526664Y-101718424D01*
X185526664Y-101718424D02*
X185602854Y-101756519D01*
X185602854Y-101756519D02*
X185679045Y-101832709D01*
X185679045Y-101832709D02*
X185717140Y-101985090D01*
X185717140Y-101985090D02*
X185717140Y-102251757D01*
X185717140Y-102251757D02*
X185679045Y-102404138D01*
X185679045Y-102404138D02*
X185602854Y-102480329D01*
X185602854Y-102480329D02*
X185526664Y-102518424D01*
X185526664Y-102518424D02*
X185374283Y-102518424D01*
X183930474Y-101496329D02*
X185789521Y-101496329D01*
X168663095Y-53696895D02*
X168396428Y-53315942D01*
X168205952Y-53696895D02*
X168205952Y-52896895D01*
X168205952Y-52896895D02*
X168510714Y-52896895D01*
X168510714Y-52896895D02*
X168586904Y-52934990D01*
X168586904Y-52934990D02*
X168624999Y-52973085D01*
X168624999Y-52973085D02*
X168663095Y-53049276D01*
X168663095Y-53049276D02*
X168663095Y-53163561D01*
X168663095Y-53163561D02*
X168624999Y-53239752D01*
X168624999Y-53239752D02*
X168586904Y-53277847D01*
X168586904Y-53277847D02*
X168510714Y-53315942D01*
X168510714Y-53315942D02*
X168205952Y-53315942D01*
X169005952Y-53277847D02*
X169272618Y-53277847D01*
X169386904Y-53696895D02*
X169005952Y-53696895D01*
X169005952Y-53696895D02*
X169005952Y-52896895D01*
X169005952Y-52896895D02*
X169386904Y-52896895D01*
X169691666Y-53658800D02*
X169805952Y-53696895D01*
X169805952Y-53696895D02*
X169996428Y-53696895D01*
X169996428Y-53696895D02*
X170072619Y-53658800D01*
X170072619Y-53658800D02*
X170110714Y-53620704D01*
X170110714Y-53620704D02*
X170148809Y-53544514D01*
X170148809Y-53544514D02*
X170148809Y-53468323D01*
X170148809Y-53468323D02*
X170110714Y-53392133D01*
X170110714Y-53392133D02*
X170072619Y-53354038D01*
X170072619Y-53354038D02*
X169996428Y-53315942D01*
X169996428Y-53315942D02*
X169844047Y-53277847D01*
X169844047Y-53277847D02*
X169767857Y-53239752D01*
X169767857Y-53239752D02*
X169729762Y-53201657D01*
X169729762Y-53201657D02*
X169691666Y-53125466D01*
X169691666Y-53125466D02*
X169691666Y-53049276D01*
X169691666Y-53049276D02*
X169729762Y-52973085D01*
X169729762Y-52973085D02*
X169767857Y-52934990D01*
X169767857Y-52934990D02*
X169844047Y-52896895D01*
X169844047Y-52896895D02*
X170034524Y-52896895D01*
X170034524Y-52896895D02*
X170148809Y-52934990D01*
X170491667Y-53277847D02*
X170758333Y-53277847D01*
X170872619Y-53696895D02*
X170491667Y-53696895D01*
X170491667Y-53696895D02*
X170491667Y-52896895D01*
X170491667Y-52896895D02*
X170872619Y-52896895D01*
X171101191Y-52896895D02*
X171558334Y-52896895D01*
X171329762Y-53696895D02*
X171329762Y-52896895D01*
D11*
X161363333Y-61454819D02*
X161030000Y-60978628D01*
X160791905Y-61454819D02*
X160791905Y-60454819D01*
X160791905Y-60454819D02*
X161172857Y-60454819D01*
X161172857Y-60454819D02*
X161268095Y-60502438D01*
X161268095Y-60502438D02*
X161315714Y-60550057D01*
X161315714Y-60550057D02*
X161363333Y-60645295D01*
X161363333Y-60645295D02*
X161363333Y-60788152D01*
X161363333Y-60788152D02*
X161315714Y-60883390D01*
X161315714Y-60883390D02*
X161268095Y-60931009D01*
X161268095Y-60931009D02*
X161172857Y-60978628D01*
X161172857Y-60978628D02*
X160791905Y-60978628D01*
X162268095Y-60454819D02*
X161791905Y-60454819D01*
X161791905Y-60454819D02*
X161744286Y-60931009D01*
X161744286Y-60931009D02*
X161791905Y-60883390D01*
X161791905Y-60883390D02*
X161887143Y-60835771D01*
X161887143Y-60835771D02*
X162125238Y-60835771D01*
X162125238Y-60835771D02*
X162220476Y-60883390D01*
X162220476Y-60883390D02*
X162268095Y-60931009D01*
X162268095Y-60931009D02*
X162315714Y-61026247D01*
X162315714Y-61026247D02*
X162315714Y-61264342D01*
X162315714Y-61264342D02*
X162268095Y-61359580D01*
X162268095Y-61359580D02*
X162220476Y-61407200D01*
X162220476Y-61407200D02*
X162125238Y-61454819D01*
X162125238Y-61454819D02*
X161887143Y-61454819D01*
X161887143Y-61454819D02*
X161791905Y-61407200D01*
X161791905Y-61407200D02*
X161744286Y-61359580D01*
X173188446Y-67829580D02*
X173140827Y-67877200D01*
X173140827Y-67877200D02*
X172997970Y-67924819D01*
X172997970Y-67924819D02*
X172902732Y-67924819D01*
X172902732Y-67924819D02*
X172759875Y-67877200D01*
X172759875Y-67877200D02*
X172664637Y-67781961D01*
X172664637Y-67781961D02*
X172617018Y-67686723D01*
X172617018Y-67686723D02*
X172569399Y-67496247D01*
X172569399Y-67496247D02*
X172569399Y-67353390D01*
X172569399Y-67353390D02*
X172617018Y-67162914D01*
X172617018Y-67162914D02*
X172664637Y-67067676D01*
X172664637Y-67067676D02*
X172759875Y-66972438D01*
X172759875Y-66972438D02*
X172902732Y-66924819D01*
X172902732Y-66924819D02*
X172997970Y-66924819D01*
X172997970Y-66924819D02*
X173140827Y-66972438D01*
X173140827Y-66972438D02*
X173188446Y-67020057D01*
X173759875Y-67353390D02*
X173664637Y-67305771D01*
X173664637Y-67305771D02*
X173617018Y-67258152D01*
X173617018Y-67258152D02*
X173569399Y-67162914D01*
X173569399Y-67162914D02*
X173569399Y-67115295D01*
X173569399Y-67115295D02*
X173617018Y-67020057D01*
X173617018Y-67020057D02*
X173664637Y-66972438D01*
X173664637Y-66972438D02*
X173759875Y-66924819D01*
X173759875Y-66924819D02*
X173950351Y-66924819D01*
X173950351Y-66924819D02*
X174045589Y-66972438D01*
X174045589Y-66972438D02*
X174093208Y-67020057D01*
X174093208Y-67020057D02*
X174140827Y-67115295D01*
X174140827Y-67115295D02*
X174140827Y-67162914D01*
X174140827Y-67162914D02*
X174093208Y-67258152D01*
X174093208Y-67258152D02*
X174045589Y-67305771D01*
X174045589Y-67305771D02*
X173950351Y-67353390D01*
X173950351Y-67353390D02*
X173759875Y-67353390D01*
X173759875Y-67353390D02*
X173664637Y-67401009D01*
X173664637Y-67401009D02*
X173617018Y-67448628D01*
X173617018Y-67448628D02*
X173569399Y-67543866D01*
X173569399Y-67543866D02*
X173569399Y-67734342D01*
X173569399Y-67734342D02*
X173617018Y-67829580D01*
X173617018Y-67829580D02*
X173664637Y-67877200D01*
X173664637Y-67877200D02*
X173759875Y-67924819D01*
X173759875Y-67924819D02*
X173950351Y-67924819D01*
X173950351Y-67924819D02*
X174045589Y-67877200D01*
X174045589Y-67877200D02*
X174093208Y-67829580D01*
X174093208Y-67829580D02*
X174140827Y-67734342D01*
X174140827Y-67734342D02*
X174140827Y-67543866D01*
X174140827Y-67543866D02*
X174093208Y-67448628D01*
X174093208Y-67448628D02*
X174045589Y-67401009D01*
X174045589Y-67401009D02*
X173950351Y-67353390D01*
X131983333Y-96579580D02*
X131935714Y-96627200D01*
X131935714Y-96627200D02*
X131792857Y-96674819D01*
X131792857Y-96674819D02*
X131697619Y-96674819D01*
X131697619Y-96674819D02*
X131554762Y-96627200D01*
X131554762Y-96627200D02*
X131459524Y-96531961D01*
X131459524Y-96531961D02*
X131411905Y-96436723D01*
X131411905Y-96436723D02*
X131364286Y-96246247D01*
X131364286Y-96246247D02*
X131364286Y-96103390D01*
X131364286Y-96103390D02*
X131411905Y-95912914D01*
X131411905Y-95912914D02*
X131459524Y-95817676D01*
X131459524Y-95817676D02*
X131554762Y-95722438D01*
X131554762Y-95722438D02*
X131697619Y-95674819D01*
X131697619Y-95674819D02*
X131792857Y-95674819D01*
X131792857Y-95674819D02*
X131935714Y-95722438D01*
X131935714Y-95722438D02*
X131983333Y-95770057D01*
X132888095Y-95674819D02*
X132411905Y-95674819D01*
X132411905Y-95674819D02*
X132364286Y-96151009D01*
X132364286Y-96151009D02*
X132411905Y-96103390D01*
X132411905Y-96103390D02*
X132507143Y-96055771D01*
X132507143Y-96055771D02*
X132745238Y-96055771D01*
X132745238Y-96055771D02*
X132840476Y-96103390D01*
X132840476Y-96103390D02*
X132888095Y-96151009D01*
X132888095Y-96151009D02*
X132935714Y-96246247D01*
X132935714Y-96246247D02*
X132935714Y-96484342D01*
X132935714Y-96484342D02*
X132888095Y-96579580D01*
X132888095Y-96579580D02*
X132840476Y-96627200D01*
X132840476Y-96627200D02*
X132745238Y-96674819D01*
X132745238Y-96674819D02*
X132507143Y-96674819D01*
X132507143Y-96674819D02*
X132411905Y-96627200D01*
X132411905Y-96627200D02*
X132364286Y-96579580D01*
X168991905Y-59614819D02*
X168991905Y-58614819D01*
X168991905Y-58614819D02*
X169230000Y-58614819D01*
X169230000Y-58614819D02*
X169372857Y-58662438D01*
X169372857Y-58662438D02*
X169468095Y-58757676D01*
X169468095Y-58757676D02*
X169515714Y-58852914D01*
X169515714Y-58852914D02*
X169563333Y-59043390D01*
X169563333Y-59043390D02*
X169563333Y-59186247D01*
X169563333Y-59186247D02*
X169515714Y-59376723D01*
X169515714Y-59376723D02*
X169468095Y-59471961D01*
X169468095Y-59471961D02*
X169372857Y-59567200D01*
X169372857Y-59567200D02*
X169230000Y-59614819D01*
X169230000Y-59614819D02*
X168991905Y-59614819D01*
X170515714Y-59614819D02*
X169944286Y-59614819D01*
X170230000Y-59614819D02*
X170230000Y-58614819D01*
X170230000Y-58614819D02*
X170134762Y-58757676D01*
X170134762Y-58757676D02*
X170039524Y-58852914D01*
X170039524Y-58852914D02*
X169944286Y-58900533D01*
X183242030Y-59254819D02*
X183242030Y-59969104D01*
X183242030Y-59969104D02*
X183194411Y-60111961D01*
X183194411Y-60111961D02*
X183099173Y-60207200D01*
X183099173Y-60207200D02*
X182956316Y-60254819D01*
X182956316Y-60254819D02*
X182861078Y-60254819D01*
X184242030Y-60254819D02*
X183670602Y-60254819D01*
X183956316Y-60254819D02*
X183956316Y-59254819D01*
X183956316Y-59254819D02*
X183861078Y-59397676D01*
X183861078Y-59397676D02*
X183765840Y-59492914D01*
X183765840Y-59492914D02*
X183670602Y-59540533D01*
X118888095Y-59204819D02*
X118888095Y-60014342D01*
X118888095Y-60014342D02*
X118935714Y-60109580D01*
X118935714Y-60109580D02*
X118983333Y-60157200D01*
X118983333Y-60157200D02*
X119078571Y-60204819D01*
X119078571Y-60204819D02*
X119269047Y-60204819D01*
X119269047Y-60204819D02*
X119364285Y-60157200D01*
X119364285Y-60157200D02*
X119411904Y-60109580D01*
X119411904Y-60109580D02*
X119459523Y-60014342D01*
X119459523Y-60014342D02*
X119459523Y-59204819D01*
X119840476Y-59204819D02*
X120459523Y-59204819D01*
X120459523Y-59204819D02*
X120126190Y-59585771D01*
X120126190Y-59585771D02*
X120269047Y-59585771D01*
X120269047Y-59585771D02*
X120364285Y-59633390D01*
X120364285Y-59633390D02*
X120411904Y-59681009D01*
X120411904Y-59681009D02*
X120459523Y-59776247D01*
X120459523Y-59776247D02*
X120459523Y-60014342D01*
X120459523Y-60014342D02*
X120411904Y-60109580D01*
X120411904Y-60109580D02*
X120364285Y-60157200D01*
X120364285Y-60157200D02*
X120269047Y-60204819D01*
X120269047Y-60204819D02*
X119983333Y-60204819D01*
X119983333Y-60204819D02*
X119888095Y-60157200D01*
X119888095Y-60157200D02*
X119840476Y-60109580D01*
X161423333Y-53454819D02*
X161090000Y-52978628D01*
X160851905Y-53454819D02*
X160851905Y-52454819D01*
X160851905Y-52454819D02*
X161232857Y-52454819D01*
X161232857Y-52454819D02*
X161328095Y-52502438D01*
X161328095Y-52502438D02*
X161375714Y-52550057D01*
X161375714Y-52550057D02*
X161423333Y-52645295D01*
X161423333Y-52645295D02*
X161423333Y-52788152D01*
X161423333Y-52788152D02*
X161375714Y-52883390D01*
X161375714Y-52883390D02*
X161328095Y-52931009D01*
X161328095Y-52931009D02*
X161232857Y-52978628D01*
X161232857Y-52978628D02*
X160851905Y-52978628D01*
X162280476Y-52454819D02*
X162090000Y-52454819D01*
X162090000Y-52454819D02*
X161994762Y-52502438D01*
X161994762Y-52502438D02*
X161947143Y-52550057D01*
X161947143Y-52550057D02*
X161851905Y-52692914D01*
X161851905Y-52692914D02*
X161804286Y-52883390D01*
X161804286Y-52883390D02*
X161804286Y-53264342D01*
X161804286Y-53264342D02*
X161851905Y-53359580D01*
X161851905Y-53359580D02*
X161899524Y-53407200D01*
X161899524Y-53407200D02*
X161994762Y-53454819D01*
X161994762Y-53454819D02*
X162185238Y-53454819D01*
X162185238Y-53454819D02*
X162280476Y-53407200D01*
X162280476Y-53407200D02*
X162328095Y-53359580D01*
X162328095Y-53359580D02*
X162375714Y-53264342D01*
X162375714Y-53264342D02*
X162375714Y-53026247D01*
X162375714Y-53026247D02*
X162328095Y-52931009D01*
X162328095Y-52931009D02*
X162280476Y-52883390D01*
X162280476Y-52883390D02*
X162185238Y-52835771D01*
X162185238Y-52835771D02*
X161994762Y-52835771D01*
X161994762Y-52835771D02*
X161899524Y-52883390D01*
X161899524Y-52883390D02*
X161851905Y-52931009D01*
X161851905Y-52931009D02*
X161804286Y-53026247D01*
X174241905Y-59614819D02*
X174241905Y-58614819D01*
X174241905Y-58614819D02*
X174480000Y-58614819D01*
X174480000Y-58614819D02*
X174622857Y-58662438D01*
X174622857Y-58662438D02*
X174718095Y-58757676D01*
X174718095Y-58757676D02*
X174765714Y-58852914D01*
X174765714Y-58852914D02*
X174813333Y-59043390D01*
X174813333Y-59043390D02*
X174813333Y-59186247D01*
X174813333Y-59186247D02*
X174765714Y-59376723D01*
X174765714Y-59376723D02*
X174718095Y-59471961D01*
X174718095Y-59471961D02*
X174622857Y-59567200D01*
X174622857Y-59567200D02*
X174480000Y-59614819D01*
X174480000Y-59614819D02*
X174241905Y-59614819D01*
X175194286Y-58710057D02*
X175241905Y-58662438D01*
X175241905Y-58662438D02*
X175337143Y-58614819D01*
X175337143Y-58614819D02*
X175575238Y-58614819D01*
X175575238Y-58614819D02*
X175670476Y-58662438D01*
X175670476Y-58662438D02*
X175718095Y-58710057D01*
X175718095Y-58710057D02*
X175765714Y-58805295D01*
X175765714Y-58805295D02*
X175765714Y-58900533D01*
X175765714Y-58900533D02*
X175718095Y-59043390D01*
X175718095Y-59043390D02*
X175146667Y-59614819D01*
X175146667Y-59614819D02*
X175765714Y-59614819D01*
X160268095Y-64094819D02*
X160268095Y-64904342D01*
X160268095Y-64904342D02*
X160315714Y-64999580D01*
X160315714Y-64999580D02*
X160363333Y-65047200D01*
X160363333Y-65047200D02*
X160458571Y-65094819D01*
X160458571Y-65094819D02*
X160649047Y-65094819D01*
X160649047Y-65094819D02*
X160744285Y-65047200D01*
X160744285Y-65047200D02*
X160791904Y-64999580D01*
X160791904Y-64999580D02*
X160839523Y-64904342D01*
X160839523Y-64904342D02*
X160839523Y-64094819D01*
X161839523Y-65094819D02*
X161268095Y-65094819D01*
X161553809Y-65094819D02*
X161553809Y-64094819D01*
X161553809Y-64094819D02*
X161458571Y-64237676D01*
X161458571Y-64237676D02*
X161363333Y-64332914D01*
X161363333Y-64332914D02*
X161268095Y-64380533D01*
X123483333Y-56579580D02*
X123435714Y-56627200D01*
X123435714Y-56627200D02*
X123292857Y-56674819D01*
X123292857Y-56674819D02*
X123197619Y-56674819D01*
X123197619Y-56674819D02*
X123054762Y-56627200D01*
X123054762Y-56627200D02*
X122959524Y-56531961D01*
X122959524Y-56531961D02*
X122911905Y-56436723D01*
X122911905Y-56436723D02*
X122864286Y-56246247D01*
X122864286Y-56246247D02*
X122864286Y-56103390D01*
X122864286Y-56103390D02*
X122911905Y-55912914D01*
X122911905Y-55912914D02*
X122959524Y-55817676D01*
X122959524Y-55817676D02*
X123054762Y-55722438D01*
X123054762Y-55722438D02*
X123197619Y-55674819D01*
X123197619Y-55674819D02*
X123292857Y-55674819D01*
X123292857Y-55674819D02*
X123435714Y-55722438D01*
X123435714Y-55722438D02*
X123483333Y-55770057D01*
X123816667Y-55674819D02*
X124435714Y-55674819D01*
X124435714Y-55674819D02*
X124102381Y-56055771D01*
X124102381Y-56055771D02*
X124245238Y-56055771D01*
X124245238Y-56055771D02*
X124340476Y-56103390D01*
X124340476Y-56103390D02*
X124388095Y-56151009D01*
X124388095Y-56151009D02*
X124435714Y-56246247D01*
X124435714Y-56246247D02*
X124435714Y-56484342D01*
X124435714Y-56484342D02*
X124388095Y-56579580D01*
X124388095Y-56579580D02*
X124340476Y-56627200D01*
X124340476Y-56627200D02*
X124245238Y-56674819D01*
X124245238Y-56674819D02*
X123959524Y-56674819D01*
X123959524Y-56674819D02*
X123864286Y-56627200D01*
X123864286Y-56627200D02*
X123816667Y-56579580D01*
X148009580Y-68386666D02*
X148057200Y-68434285D01*
X148057200Y-68434285D02*
X148104819Y-68577142D01*
X148104819Y-68577142D02*
X148104819Y-68672380D01*
X148104819Y-68672380D02*
X148057200Y-68815237D01*
X148057200Y-68815237D02*
X147961961Y-68910475D01*
X147961961Y-68910475D02*
X147866723Y-68958094D01*
X147866723Y-68958094D02*
X147676247Y-69005713D01*
X147676247Y-69005713D02*
X147533390Y-69005713D01*
X147533390Y-69005713D02*
X147342914Y-68958094D01*
X147342914Y-68958094D02*
X147247676Y-68910475D01*
X147247676Y-68910475D02*
X147152438Y-68815237D01*
X147152438Y-68815237D02*
X147104819Y-68672380D01*
X147104819Y-68672380D02*
X147104819Y-68577142D01*
X147104819Y-68577142D02*
X147152438Y-68434285D01*
X147152438Y-68434285D02*
X147200057Y-68386666D01*
X147104819Y-67529523D02*
X147104819Y-67719999D01*
X147104819Y-67719999D02*
X147152438Y-67815237D01*
X147152438Y-67815237D02*
X147200057Y-67862856D01*
X147200057Y-67862856D02*
X147342914Y-67958094D01*
X147342914Y-67958094D02*
X147533390Y-68005713D01*
X147533390Y-68005713D02*
X147914342Y-68005713D01*
X147914342Y-68005713D02*
X148009580Y-67958094D01*
X148009580Y-67958094D02*
X148057200Y-67910475D01*
X148057200Y-67910475D02*
X148104819Y-67815237D01*
X148104819Y-67815237D02*
X148104819Y-67624761D01*
X148104819Y-67624761D02*
X148057200Y-67529523D01*
X148057200Y-67529523D02*
X148009580Y-67481904D01*
X148009580Y-67481904D02*
X147914342Y-67434285D01*
X147914342Y-67434285D02*
X147676247Y-67434285D01*
X147676247Y-67434285D02*
X147581009Y-67481904D01*
X147581009Y-67481904D02*
X147533390Y-67529523D01*
X147533390Y-67529523D02*
X147485771Y-67624761D01*
X147485771Y-67624761D02*
X147485771Y-67815237D01*
X147485771Y-67815237D02*
X147533390Y-67910475D01*
X147533390Y-67910475D02*
X147581009Y-67958094D01*
X147581009Y-67958094D02*
X147676247Y-68005713D01*
X135530476Y-99034819D02*
X136197142Y-100034819D01*
X136197142Y-99034819D02*
X135530476Y-100034819D01*
X137101904Y-100034819D02*
X136530476Y-100034819D01*
X136816190Y-100034819D02*
X136816190Y-99034819D01*
X136816190Y-99034819D02*
X136720952Y-99177676D01*
X136720952Y-99177676D02*
X136625714Y-99272914D01*
X136625714Y-99272914D02*
X136530476Y-99320533D01*
X123233333Y-88579580D02*
X123185714Y-88627200D01*
X123185714Y-88627200D02*
X123042857Y-88674819D01*
X123042857Y-88674819D02*
X122947619Y-88674819D01*
X122947619Y-88674819D02*
X122804762Y-88627200D01*
X122804762Y-88627200D02*
X122709524Y-88531961D01*
X122709524Y-88531961D02*
X122661905Y-88436723D01*
X122661905Y-88436723D02*
X122614286Y-88246247D01*
X122614286Y-88246247D02*
X122614286Y-88103390D01*
X122614286Y-88103390D02*
X122661905Y-87912914D01*
X122661905Y-87912914D02*
X122709524Y-87817676D01*
X122709524Y-87817676D02*
X122804762Y-87722438D01*
X122804762Y-87722438D02*
X122947619Y-87674819D01*
X122947619Y-87674819D02*
X123042857Y-87674819D01*
X123042857Y-87674819D02*
X123185714Y-87722438D01*
X123185714Y-87722438D02*
X123233333Y-87770057D01*
X124090476Y-88008152D02*
X124090476Y-88674819D01*
X123852381Y-87627200D02*
X123614286Y-88341485D01*
X123614286Y-88341485D02*
X124233333Y-88341485D01*
X156978750Y-107731904D02*
X157788273Y-107731904D01*
X157788273Y-107731904D02*
X157883511Y-107684285D01*
X157883511Y-107684285D02*
X157931131Y-107636666D01*
X157931131Y-107636666D02*
X157978750Y-107541428D01*
X157978750Y-107541428D02*
X157978750Y-107350952D01*
X157978750Y-107350952D02*
X157931131Y-107255714D01*
X157931131Y-107255714D02*
X157883511Y-107208095D01*
X157883511Y-107208095D02*
X157788273Y-107160476D01*
X157788273Y-107160476D02*
X156978750Y-107160476D01*
X157312083Y-106255714D02*
X157978750Y-106255714D01*
X156931131Y-106493809D02*
X157645416Y-106731904D01*
X157645416Y-106731904D02*
X157645416Y-106112857D01*
X118828095Y-91264819D02*
X118828095Y-92074342D01*
X118828095Y-92074342D02*
X118875714Y-92169580D01*
X118875714Y-92169580D02*
X118923333Y-92217200D01*
X118923333Y-92217200D02*
X119018571Y-92264819D01*
X119018571Y-92264819D02*
X119209047Y-92264819D01*
X119209047Y-92264819D02*
X119304285Y-92217200D01*
X119304285Y-92217200D02*
X119351904Y-92169580D01*
X119351904Y-92169580D02*
X119399523Y-92074342D01*
X119399523Y-92074342D02*
X119399523Y-91264819D01*
X120351904Y-91264819D02*
X119875714Y-91264819D01*
X119875714Y-91264819D02*
X119828095Y-91741009D01*
X119828095Y-91741009D02*
X119875714Y-91693390D01*
X119875714Y-91693390D02*
X119970952Y-91645771D01*
X119970952Y-91645771D02*
X120209047Y-91645771D01*
X120209047Y-91645771D02*
X120304285Y-91693390D01*
X120304285Y-91693390D02*
X120351904Y-91741009D01*
X120351904Y-91741009D02*
X120399523Y-91836247D01*
X120399523Y-91836247D02*
X120399523Y-92074342D01*
X120399523Y-92074342D02*
X120351904Y-92169580D01*
X120351904Y-92169580D02*
X120304285Y-92217200D01*
X120304285Y-92217200D02*
X120209047Y-92264819D01*
X120209047Y-92264819D02*
X119970952Y-92264819D01*
X119970952Y-92264819D02*
X119875714Y-92217200D01*
X119875714Y-92217200D02*
X119828095Y-92169580D01*
X129733333Y-88579580D02*
X129685714Y-88627200D01*
X129685714Y-88627200D02*
X129542857Y-88674819D01*
X129542857Y-88674819D02*
X129447619Y-88674819D01*
X129447619Y-88674819D02*
X129304762Y-88627200D01*
X129304762Y-88627200D02*
X129209524Y-88531961D01*
X129209524Y-88531961D02*
X129161905Y-88436723D01*
X129161905Y-88436723D02*
X129114286Y-88246247D01*
X129114286Y-88246247D02*
X129114286Y-88103390D01*
X129114286Y-88103390D02*
X129161905Y-87912914D01*
X129161905Y-87912914D02*
X129209524Y-87817676D01*
X129209524Y-87817676D02*
X129304762Y-87722438D01*
X129304762Y-87722438D02*
X129447619Y-87674819D01*
X129447619Y-87674819D02*
X129542857Y-87674819D01*
X129542857Y-87674819D02*
X129685714Y-87722438D01*
X129685714Y-87722438D02*
X129733333Y-87770057D01*
X130685714Y-88674819D02*
X130114286Y-88674819D01*
X130400000Y-88674819D02*
X130400000Y-87674819D01*
X130400000Y-87674819D02*
X130304762Y-87817676D01*
X130304762Y-87817676D02*
X130209524Y-87912914D01*
X130209524Y-87912914D02*
X130114286Y-87960533D01*
X141233333Y-56829580D02*
X141185714Y-56877200D01*
X141185714Y-56877200D02*
X141042857Y-56924819D01*
X141042857Y-56924819D02*
X140947619Y-56924819D01*
X140947619Y-56924819D02*
X140804762Y-56877200D01*
X140804762Y-56877200D02*
X140709524Y-56781961D01*
X140709524Y-56781961D02*
X140661905Y-56686723D01*
X140661905Y-56686723D02*
X140614286Y-56496247D01*
X140614286Y-56496247D02*
X140614286Y-56353390D01*
X140614286Y-56353390D02*
X140661905Y-56162914D01*
X140661905Y-56162914D02*
X140709524Y-56067676D01*
X140709524Y-56067676D02*
X140804762Y-55972438D01*
X140804762Y-55972438D02*
X140947619Y-55924819D01*
X140947619Y-55924819D02*
X141042857Y-55924819D01*
X141042857Y-55924819D02*
X141185714Y-55972438D01*
X141185714Y-55972438D02*
X141233333Y-56020057D01*
X141614286Y-56020057D02*
X141661905Y-55972438D01*
X141661905Y-55972438D02*
X141757143Y-55924819D01*
X141757143Y-55924819D02*
X141995238Y-55924819D01*
X141995238Y-55924819D02*
X142090476Y-55972438D01*
X142090476Y-55972438D02*
X142138095Y-56020057D01*
X142138095Y-56020057D02*
X142185714Y-56115295D01*
X142185714Y-56115295D02*
X142185714Y-56210533D01*
X142185714Y-56210533D02*
X142138095Y-56353390D01*
X142138095Y-56353390D02*
X141566667Y-56924819D01*
X141566667Y-56924819D02*
X142185714Y-56924819D01*
X138233333Y-88804819D02*
X137900000Y-88328628D01*
X137661905Y-88804819D02*
X137661905Y-87804819D01*
X137661905Y-87804819D02*
X138042857Y-87804819D01*
X138042857Y-87804819D02*
X138138095Y-87852438D01*
X138138095Y-87852438D02*
X138185714Y-87900057D01*
X138185714Y-87900057D02*
X138233333Y-87995295D01*
X138233333Y-87995295D02*
X138233333Y-88138152D01*
X138233333Y-88138152D02*
X138185714Y-88233390D01*
X138185714Y-88233390D02*
X138138095Y-88281009D01*
X138138095Y-88281009D02*
X138042857Y-88328628D01*
X138042857Y-88328628D02*
X137661905Y-88328628D01*
X138614286Y-87900057D02*
X138661905Y-87852438D01*
X138661905Y-87852438D02*
X138757143Y-87804819D01*
X138757143Y-87804819D02*
X138995238Y-87804819D01*
X138995238Y-87804819D02*
X139090476Y-87852438D01*
X139090476Y-87852438D02*
X139138095Y-87900057D01*
X139138095Y-87900057D02*
X139185714Y-87995295D01*
X139185714Y-87995295D02*
X139185714Y-88090533D01*
X139185714Y-88090533D02*
X139138095Y-88233390D01*
X139138095Y-88233390D02*
X138566667Y-88804819D01*
X138566667Y-88804819D02*
X139185714Y-88804819D01*
X118224819Y-87958094D02*
X117224819Y-87958094D01*
X117224819Y-87958094D02*
X117224819Y-87719999D01*
X117224819Y-87719999D02*
X117272438Y-87577142D01*
X117272438Y-87577142D02*
X117367676Y-87481904D01*
X117367676Y-87481904D02*
X117462914Y-87434285D01*
X117462914Y-87434285D02*
X117653390Y-87386666D01*
X117653390Y-87386666D02*
X117796247Y-87386666D01*
X117796247Y-87386666D02*
X117986723Y-87434285D01*
X117986723Y-87434285D02*
X118081961Y-87481904D01*
X118081961Y-87481904D02*
X118177200Y-87577142D01*
X118177200Y-87577142D02*
X118224819Y-87719999D01*
X118224819Y-87719999D02*
X118224819Y-87958094D01*
X117224819Y-87053332D02*
X117224819Y-86434285D01*
X117224819Y-86434285D02*
X117605771Y-86767618D01*
X117605771Y-86767618D02*
X117605771Y-86624761D01*
X117605771Y-86624761D02*
X117653390Y-86529523D01*
X117653390Y-86529523D02*
X117701009Y-86481904D01*
X117701009Y-86481904D02*
X117796247Y-86434285D01*
X117796247Y-86434285D02*
X118034342Y-86434285D01*
X118034342Y-86434285D02*
X118129580Y-86481904D01*
X118129580Y-86481904D02*
X118177200Y-86529523D01*
X118177200Y-86529523D02*
X118224819Y-86624761D01*
X118224819Y-86624761D02*
X118224819Y-86910475D01*
X118224819Y-86910475D02*
X118177200Y-87005713D01*
X118177200Y-87005713D02*
X118129580Y-87053332D01*
X117904819Y-83671904D02*
X116904819Y-83671904D01*
X117904819Y-83100476D02*
X117333390Y-83529047D01*
X116904819Y-83100476D02*
X117476247Y-83671904D01*
X136638095Y-59264819D02*
X136638095Y-60074342D01*
X136638095Y-60074342D02*
X136685714Y-60169580D01*
X136685714Y-60169580D02*
X136733333Y-60217200D01*
X136733333Y-60217200D02*
X136828571Y-60264819D01*
X136828571Y-60264819D02*
X137019047Y-60264819D01*
X137019047Y-60264819D02*
X137114285Y-60217200D01*
X137114285Y-60217200D02*
X137161904Y-60169580D01*
X137161904Y-60169580D02*
X137209523Y-60074342D01*
X137209523Y-60074342D02*
X137209523Y-59264819D01*
X137638095Y-59360057D02*
X137685714Y-59312438D01*
X137685714Y-59312438D02*
X137780952Y-59264819D01*
X137780952Y-59264819D02*
X138019047Y-59264819D01*
X138019047Y-59264819D02*
X138114285Y-59312438D01*
X138114285Y-59312438D02*
X138161904Y-59360057D01*
X138161904Y-59360057D02*
X138209523Y-59455295D01*
X138209523Y-59455295D02*
X138209523Y-59550533D01*
X138209523Y-59550533D02*
X138161904Y-59693390D01*
X138161904Y-59693390D02*
X137590476Y-60264819D01*
X137590476Y-60264819D02*
X138209523Y-60264819D01*
D12*
%TO.C,R5*%
X158320000Y-57130000D02*
X158320000Y-57460000D01*
X158320000Y-59870000D02*
X158320000Y-59540000D01*
X164860000Y-57130000D02*
X158320000Y-57130000D01*
X164860000Y-57460000D02*
X164860000Y-57130000D01*
X164860000Y-59540000D02*
X164860000Y-59870000D01*
X164860000Y-59870000D02*
X158320000Y-59870000D01*
%TO.C,C8*%
X170755113Y-64003000D02*
X170755113Y-63437000D01*
X170795113Y-64237000D02*
X170795113Y-63203000D01*
X170835113Y-64397000D02*
X170835113Y-63043000D01*
X170875113Y-64525000D02*
X170875113Y-62915000D01*
X170915113Y-64634000D02*
X170915113Y-62806000D01*
X170955113Y-64731000D02*
X170955113Y-62709000D01*
X170995113Y-64818000D02*
X170995113Y-62622000D01*
X171035113Y-64897000D02*
X171035113Y-62543000D01*
X171075113Y-62680000D02*
X171075113Y-62469000D01*
X171075113Y-64971000D02*
X171075113Y-64760000D01*
X171115113Y-62680000D02*
X171115113Y-62401000D01*
X171115113Y-65039000D02*
X171115113Y-64760000D01*
X171155113Y-62680000D02*
X171155113Y-62337000D01*
X171155113Y-65103000D02*
X171155113Y-64760000D01*
X171195113Y-62680000D02*
X171195113Y-62277000D01*
X171195113Y-65163000D02*
X171195113Y-64760000D01*
X171235113Y-62680000D02*
X171235113Y-62221000D01*
X171235113Y-65219000D02*
X171235113Y-64760000D01*
X171275113Y-62680000D02*
X171275113Y-62167000D01*
X171275113Y-65273000D02*
X171275113Y-64760000D01*
X171315113Y-62680000D02*
X171315113Y-62116000D01*
X171315113Y-65324000D02*
X171315113Y-64760000D01*
X171355113Y-62680000D02*
X171355113Y-62068000D01*
X171355113Y-65372000D02*
X171355113Y-64760000D01*
X171395113Y-62680000D02*
X171395113Y-62021000D01*
X171395113Y-65419000D02*
X171395113Y-64760000D01*
X171435113Y-62680000D02*
X171435113Y-61977000D01*
X171435113Y-65463000D02*
X171435113Y-64760000D01*
X171475113Y-62680000D02*
X171475113Y-61935000D01*
X171475113Y-65505000D02*
X171475113Y-64760000D01*
X171515113Y-62680000D02*
X171515113Y-61895000D01*
X171515113Y-65545000D02*
X171515113Y-64760000D01*
X171555113Y-62680000D02*
X171555113Y-61856000D01*
X171555113Y-65584000D02*
X171555113Y-64760000D01*
X171595113Y-62680000D02*
X171595113Y-61819000D01*
X171595113Y-65621000D02*
X171595113Y-64760000D01*
X171635113Y-62680000D02*
X171635113Y-61784000D01*
X171635113Y-65656000D02*
X171635113Y-64760000D01*
X171675113Y-62680000D02*
X171675113Y-61750000D01*
X171675113Y-65690000D02*
X171675113Y-64760000D01*
X171715113Y-62680000D02*
X171715113Y-61717000D01*
X171715113Y-65723000D02*
X171715113Y-64760000D01*
X171755113Y-62680000D02*
X171755113Y-61685000D01*
X171755113Y-65755000D02*
X171755113Y-64760000D01*
X171795113Y-62680000D02*
X171795113Y-61655000D01*
X171795113Y-65785000D02*
X171795113Y-64760000D01*
X171835113Y-62680000D02*
X171835113Y-61626000D01*
X171835113Y-65814000D02*
X171835113Y-64760000D01*
X171875113Y-62680000D02*
X171875113Y-61598000D01*
X171875113Y-65842000D02*
X171875113Y-64760000D01*
X171915113Y-62680000D02*
X171915113Y-61571000D01*
X171915113Y-65869000D02*
X171915113Y-64760000D01*
X171955113Y-62680000D02*
X171955113Y-61545000D01*
X171955113Y-65895000D02*
X171955113Y-64760000D01*
X171995113Y-62680000D02*
X171995113Y-61521000D01*
X171995113Y-65919000D02*
X171995113Y-64760000D01*
X172035113Y-62680000D02*
X172035113Y-61497000D01*
X172035113Y-65943000D02*
X172035113Y-64760000D01*
X172075113Y-62680000D02*
X172075113Y-61474000D01*
X172075113Y-65966000D02*
X172075113Y-64760000D01*
X172115113Y-62680000D02*
X172115113Y-61452000D01*
X172115113Y-65988000D02*
X172115113Y-64760000D01*
X172155113Y-62680000D02*
X172155113Y-61431000D01*
X172155113Y-66009000D02*
X172155113Y-64760000D01*
X172195113Y-62680000D02*
X172195113Y-61411000D01*
X172195113Y-66029000D02*
X172195113Y-64760000D01*
X172235113Y-62680000D02*
X172235113Y-61391000D01*
X172235113Y-66049000D02*
X172235113Y-64760000D01*
X172275113Y-62680000D02*
X172275113Y-61373000D01*
X172275113Y-66067000D02*
X172275113Y-64760000D01*
X172315113Y-62680000D02*
X172315113Y-61355000D01*
X172315113Y-66085000D02*
X172315113Y-64760000D01*
X172355113Y-62680000D02*
X172355113Y-61338000D01*
X172355113Y-66102000D02*
X172355113Y-64760000D01*
X172395113Y-62680000D02*
X172395113Y-61322000D01*
X172395113Y-66118000D02*
X172395113Y-64760000D01*
X172435113Y-62680000D02*
X172435113Y-61307000D01*
X172435113Y-66133000D02*
X172435113Y-64760000D01*
X172475113Y-62680000D02*
X172475113Y-61292000D01*
X172475113Y-66148000D02*
X172475113Y-64760000D01*
X172515113Y-62680000D02*
X172515113Y-61278000D01*
X172515113Y-66162000D02*
X172515113Y-64760000D01*
X172555113Y-62680000D02*
X172555113Y-61265000D01*
X172555113Y-66175000D02*
X172555113Y-64760000D01*
X172595113Y-62680000D02*
X172595113Y-61253000D01*
X172595113Y-66187000D02*
X172595113Y-64760000D01*
X172635113Y-62680000D02*
X172635113Y-61241000D01*
X172635113Y-66199000D02*
X172635113Y-64760000D01*
X172675113Y-62680000D02*
X172675113Y-61230000D01*
X172675113Y-66210000D02*
X172675113Y-64760000D01*
X172715113Y-62680000D02*
X172715113Y-61219000D01*
X172715113Y-66221000D02*
X172715113Y-64760000D01*
X172755113Y-62680000D02*
X172755113Y-61210000D01*
X172755113Y-66230000D02*
X172755113Y-64760000D01*
X172795113Y-62680000D02*
X172795113Y-61201000D01*
X172795113Y-66239000D02*
X172795113Y-64760000D01*
X172835113Y-62680000D02*
X172835113Y-61192000D01*
X172835113Y-66248000D02*
X172835113Y-64760000D01*
X172875113Y-62680000D02*
X172875113Y-61184000D01*
X172875113Y-66256000D02*
X172875113Y-64760000D01*
X172915113Y-62680000D02*
X172915113Y-61177000D01*
X172915113Y-66263000D02*
X172915113Y-64760000D01*
X172955113Y-62680000D02*
X172955113Y-61171000D01*
X172955113Y-66269000D02*
X172955113Y-64760000D01*
X172995113Y-62680000D02*
X172995113Y-61165000D01*
X172995113Y-66275000D02*
X172995113Y-64760000D01*
X173035113Y-62680000D02*
X173035113Y-61160000D01*
X173035113Y-66280000D02*
X173035113Y-64760000D01*
X173075113Y-62680000D02*
X173075113Y-61155000D01*
X173075113Y-66285000D02*
X173075113Y-64760000D01*
X173115113Y-62680000D02*
X173115113Y-61151000D01*
X173115113Y-66289000D02*
X173115113Y-64760000D01*
X173155113Y-66292000D02*
X173155113Y-61148000D01*
X173195113Y-66295000D02*
X173195113Y-61145000D01*
X173235113Y-66297000D02*
X173235113Y-61143000D01*
X173275113Y-66299000D02*
X173275113Y-61141000D01*
X173315113Y-66300000D02*
X173315113Y-61140000D01*
X173355113Y-66300000D02*
X173355113Y-61140000D01*
X175909888Y-65445000D02*
X175909888Y-64945000D01*
X176159888Y-65195000D02*
X175659888Y-65195000D01*
X175975113Y-63720000D02*
G75*
G02*
X170735113Y-63720000I-2620000J0D01*
G01*
X170735113Y-63720000D02*
G75*
G02*
X175975113Y-63720000I2620000J0D01*
G01*
%TO.C,C5*%
X129530000Y-97350000D02*
X129530000Y-100090000D01*
X129530000Y-97350000D02*
X134770000Y-97350000D01*
X129530000Y-100090000D02*
X134770000Y-100090000D01*
X134770000Y-97350000D02*
X134770000Y-100090000D01*
%TO.C,D1*%
X171290000Y-55120000D02*
X171290000Y-54964000D01*
X171290000Y-57436000D02*
X171290000Y-57280000D01*
X168058563Y-55120000D02*
G75*
G02*
X171290000Y-54964484I1671437J-1080000D01*
G01*
X168689039Y-55120000D02*
G75*
G02*
X170770961Y-55120000I1040961J-1080000D01*
G01*
X170770961Y-57280000D02*
G75*
G02*
X168689039Y-57280000I-1040961J1080000D01*
G01*
X171290000Y-57435516D02*
G75*
G02*
X168058563Y-57280000I-1560000J1235516D01*
G01*
%TO.C,J1*%
X177920364Y-61250000D02*
X179190364Y-61250000D01*
X177920364Y-62520000D02*
X177920364Y-61250000D01*
X180267722Y-64630000D02*
X180580364Y-64630000D01*
X180267722Y-65490000D02*
X180580364Y-65490000D01*
X180267722Y-67170000D02*
X180580364Y-67170000D01*
X180267722Y-68030000D02*
X180580364Y-68030000D01*
X180267722Y-69710000D02*
X180580364Y-69710000D01*
X180267722Y-70570000D02*
X180580364Y-70570000D01*
X180267722Y-72250000D02*
X180580364Y-72250000D01*
X180267722Y-73110000D02*
X180580364Y-73110000D01*
X180267722Y-74790000D02*
X180580364Y-74790000D01*
X180267722Y-75650000D02*
X180580364Y-75650000D01*
X180267722Y-77330000D02*
X180580364Y-77330000D01*
X180267722Y-78190000D02*
X180580364Y-78190000D01*
X180267722Y-79870000D02*
X180580364Y-79870000D01*
X180267722Y-80730000D02*
X180580364Y-80730000D01*
X180267722Y-82410000D02*
X180580364Y-82410000D01*
X180267722Y-83270000D02*
X180580364Y-83270000D01*
X180267722Y-84950000D02*
X180580364Y-84950000D01*
X180267722Y-85810000D02*
X180580364Y-85810000D01*
X180267722Y-87490000D02*
X180580364Y-87490000D01*
X180267722Y-88350000D02*
X180580364Y-88350000D01*
X180267722Y-90030000D02*
X180580364Y-90030000D01*
X180267722Y-90890000D02*
X180580364Y-90890000D01*
X180267722Y-92570000D02*
X180580364Y-92570000D01*
X180267722Y-93430000D02*
X180580364Y-93430000D01*
X180267722Y-95110000D02*
X180580364Y-95110000D01*
X180267722Y-95970000D02*
X180580364Y-95970000D01*
X180267722Y-97650000D02*
X180580364Y-97650000D01*
X180267722Y-98510000D02*
X180580364Y-98510000D01*
X180267722Y-100190000D02*
X180580364Y-100190000D01*
X180267722Y-101050000D02*
X180580364Y-101050000D01*
X180267722Y-102730000D02*
X180580364Y-102730000D01*
X180267722Y-103590000D02*
X180580364Y-103590000D01*
X180267722Y-105270000D02*
X180580364Y-105270000D01*
X180267722Y-106130000D02*
X180580364Y-106130000D01*
X180350364Y-62090000D02*
X180580364Y-62090000D01*
X180350364Y-62950000D02*
X180580364Y-62950000D01*
X180580364Y-61140000D02*
X180580364Y-107080000D01*
X180580364Y-63790000D02*
X183340364Y-63790000D01*
X180580364Y-66330000D02*
X183340364Y-66330000D01*
X180580364Y-68870000D02*
X183340364Y-68870000D01*
X180580364Y-71410000D02*
X183340364Y-71410000D01*
X180580364Y-73950000D02*
X183340364Y-73950000D01*
X180580364Y-76490000D02*
X183340364Y-76490000D01*
X180580364Y-79030000D02*
X183340364Y-79030000D01*
X180580364Y-81570000D02*
X183340364Y-81570000D01*
X180580364Y-84110000D02*
X183340364Y-84110000D01*
X180580364Y-86650000D02*
X183340364Y-86650000D01*
X180580364Y-89190000D02*
X183340364Y-89190000D01*
X180580364Y-91730000D02*
X183340364Y-91730000D01*
X180580364Y-94270000D02*
X183340364Y-94270000D01*
X180580364Y-96810000D02*
X183340364Y-96810000D01*
X180580364Y-99350000D02*
X183340364Y-99350000D01*
X180580364Y-101890000D02*
X183340364Y-101890000D01*
X180580364Y-104430000D02*
X183340364Y-104430000D01*
X180580364Y-107080000D02*
X183340364Y-107080000D01*
X183340364Y-61140000D02*
X180580364Y-61140000D01*
X183340364Y-64630000D02*
X186810364Y-64630000D01*
X183340364Y-67170000D02*
X186810364Y-67170000D01*
X183340364Y-69710000D02*
X186810364Y-69710000D01*
X183340364Y-72250000D02*
X186810364Y-72250000D01*
X183340364Y-74790000D02*
X186810364Y-74790000D01*
X183340364Y-77330000D02*
X186810364Y-77330000D01*
X183340364Y-79870000D02*
X186810364Y-79870000D01*
X183340364Y-82410000D02*
X186810364Y-82410000D01*
X183340364Y-84950000D02*
X186810364Y-84950000D01*
X183340364Y-87490000D02*
X186810364Y-87490000D01*
X183340364Y-90030000D02*
X186810364Y-90030000D01*
X183340364Y-92570000D02*
X186810364Y-92570000D01*
X183340364Y-95110000D02*
X186810364Y-95110000D01*
X183340364Y-97650000D02*
X186810364Y-97650000D01*
X183340364Y-100190000D02*
X186810364Y-100190000D01*
X183340364Y-102730000D02*
X186810364Y-102730000D01*
X183340364Y-105270000D02*
X186810364Y-105270000D01*
X183340364Y-107080000D02*
X183340364Y-61140000D01*
X186810364Y-64630000D02*
X186810364Y-65490000D01*
X186810364Y-65490000D02*
X183340364Y-65490000D01*
X186810364Y-67170000D02*
X186810364Y-68030000D01*
X186810364Y-68030000D02*
X183340364Y-68030000D01*
X186810364Y-69710000D02*
X186810364Y-70570000D01*
X186810364Y-70570000D02*
X183340364Y-70570000D01*
X186810364Y-72250000D02*
X186810364Y-73110000D01*
X186810364Y-73110000D02*
X183340364Y-73110000D01*
X186810364Y-74790000D02*
X186810364Y-75650000D01*
X186810364Y-75650000D02*
X183340364Y-75650000D01*
X186810364Y-77330000D02*
X186810364Y-78190000D01*
X186810364Y-78190000D02*
X183340364Y-78190000D01*
X186810364Y-79870000D02*
X186810364Y-80730000D01*
X186810364Y-80730000D02*
X183340364Y-80730000D01*
X186810364Y-82410000D02*
X186810364Y-83270000D01*
X186810364Y-83270000D02*
X183340364Y-83270000D01*
X186810364Y-84950000D02*
X186810364Y-85810000D01*
X186810364Y-85810000D02*
X183340364Y-85810000D01*
X186810364Y-87490000D02*
X186810364Y-88350000D01*
X186810364Y-88350000D02*
X183340364Y-88350000D01*
X186810364Y-90030000D02*
X186810364Y-90890000D01*
X186810364Y-90890000D02*
X183340364Y-90890000D01*
X186810364Y-92570000D02*
X186810364Y-93430000D01*
X186810364Y-93430000D02*
X183340364Y-93430000D01*
X186810364Y-95110000D02*
X186810364Y-95970000D01*
X186810364Y-95970000D02*
X183340364Y-95970000D01*
X186810364Y-97650000D02*
X186810364Y-98510000D01*
X186810364Y-98510000D02*
X183340364Y-98510000D01*
X186810364Y-100190000D02*
X186810364Y-101050000D01*
X186810364Y-101050000D02*
X183340364Y-101050000D01*
X186810364Y-102730000D02*
X186810364Y-103590000D01*
X186810364Y-103590000D02*
X183340364Y-103590000D01*
X186810364Y-105270000D02*
X186810364Y-106130000D01*
X186810364Y-106130000D02*
X183340364Y-106130000D01*
X183340364Y-62090000D02*
X186800364Y-62090000D01*
X186800364Y-62950000D01*
X183340364Y-62950000D01*
X183340364Y-62090000D01*
G36*
X183340364Y-62090000D02*
G01*
X186800364Y-62090000D01*
X186800364Y-62950000D01*
X183340364Y-62950000D01*
X183340364Y-62090000D01*
G37*
%TO.C,U3*%
X117000000Y-60750000D02*
X117000000Y-81190000D01*
X117000000Y-81190000D02*
X122300000Y-81190000D01*
X118650000Y-60750000D02*
X117000000Y-60750000D01*
X122300000Y-60750000D02*
X120650000Y-60750000D01*
X122300000Y-81190000D02*
X122300000Y-60750000D01*
X114510000Y-60690000D02*
X124790000Y-60690000D01*
X124790000Y-81250000D01*
X114510000Y-81250000D01*
X114510000Y-60690000D01*
X120650000Y-60750000D02*
G75*
G02*
X118650000Y-60750000I-1000000J0D01*
G01*
%TO.C,R6*%
X158320000Y-54130000D02*
X164860000Y-54130000D01*
X158320000Y-54460000D02*
X158320000Y-54130000D01*
X158320000Y-56540000D02*
X158320000Y-56870000D01*
X158320000Y-56870000D02*
X164860000Y-56870000D01*
X164860000Y-54130000D02*
X164860000Y-54460000D01*
X164860000Y-56870000D02*
X164860000Y-56540000D01*
%TO.C,D2*%
X176540000Y-55120000D02*
X176540000Y-54964000D01*
X176540000Y-57436000D02*
X176540000Y-57280000D01*
X173308563Y-55120000D02*
G75*
G02*
X176540000Y-54964484I1671437J-1080000D01*
G01*
X173939039Y-55120000D02*
G75*
G02*
X176020961Y-55120000I1040961J-1080000D01*
G01*
X176020961Y-57280000D02*
G75*
G02*
X173939039Y-57280000I-1040961J1080000D01*
G01*
X176540000Y-57435516D02*
G75*
G02*
X173308563Y-57280000I-1560000J1235516D01*
G01*
%TO.C,U1*%
X154570000Y-65640000D02*
X154570000Y-96240000D01*
X154570000Y-96240000D02*
X167490000Y-96240000D01*
X160030000Y-65640000D02*
X154570000Y-65640000D01*
X167490000Y-65640000D02*
X162030000Y-65640000D01*
X167490000Y-96240000D02*
X167490000Y-65640000D01*
X152080000Y-65580000D02*
X169980000Y-65580000D01*
X169980000Y-96300000D01*
X152080000Y-96300000D01*
X152080000Y-65580000D01*
X162030000Y-65640000D02*
G75*
G02*
X160030000Y-65640000I-1000000J0D01*
G01*
%TO.C,C3*%
X121030000Y-57350000D02*
X121030000Y-60090000D01*
X121030000Y-57350000D02*
X126270000Y-57350000D01*
X121030000Y-60090000D02*
X126270000Y-60090000D01*
X126270000Y-57350000D02*
X126270000Y-60090000D01*
%TO.C,C6*%
X148780000Y-65600000D02*
X151520000Y-65600000D01*
X148780000Y-70840000D02*
X148780000Y-65600000D01*
X148780000Y-70840000D02*
X151520000Y-70840000D01*
X151520000Y-70840000D02*
X151520000Y-65600000D01*
%TO.C,X1*%
X129890000Y-101330000D02*
X129890000Y-113480000D01*
X129890000Y-113480000D02*
X142040000Y-113480000D01*
X142040000Y-100580000D02*
X130640000Y-100580000D01*
X142790000Y-112730000D02*
X142790000Y-101330000D01*
X129890000Y-101330000D02*
G75*
G02*
X130640000Y-100580000I750000J0D01*
G01*
X142040000Y-100580000D02*
G75*
G02*
X142790000Y-101330000I0J-750000D01*
G01*
X142790000Y-112730000D02*
G75*
G02*
X142040000Y-113480000I-750000J0D01*
G01*
%TO.C,C4*%
X120780000Y-89350000D02*
X120780000Y-92090000D01*
X120780000Y-89350000D02*
X126020000Y-89350000D01*
X120780000Y-92090000D02*
X126020000Y-92090000D01*
X126020000Y-89350000D02*
X126020000Y-92090000D01*
%TO.C,U4*%
X166353931Y-109492577D02*
X166353931Y-101812577D01*
X169013931Y-101812577D02*
X166353931Y-101812577D01*
X169013931Y-109492577D02*
X166353931Y-109492577D01*
X169013931Y-109492577D02*
X169013931Y-101812577D01*
X169013931Y-110762577D02*
X169013931Y-112092577D01*
X169013931Y-112092577D02*
X167683931Y-112092577D01*
D10*
X170223931Y-113302577D02*
X146576069Y-113302577D01*
X146576069Y-100602577D01*
X170223931Y-100602577D01*
X170223931Y-113302577D01*
D12*
%TO.C,U5*%
X116940000Y-92810000D02*
X116940000Y-113250000D01*
X116940000Y-113250000D02*
X122240000Y-113250000D01*
X118590000Y-92810000D02*
X116940000Y-92810000D01*
X122240000Y-92810000D02*
X120590000Y-92810000D01*
X122240000Y-113250000D02*
X122240000Y-92810000D01*
X114450000Y-92750000D02*
X124730000Y-92750000D01*
X124730000Y-113310000D01*
X114450000Y-113310000D01*
X114450000Y-92750000D01*
X120590000Y-92810000D02*
G75*
G02*
X118590000Y-92810000I-1000000J0D01*
G01*
%TO.C,C1*%
X127280000Y-89350000D02*
X127280000Y-89687000D01*
X127280000Y-89350000D02*
X132520000Y-89350000D01*
X127280000Y-91753000D02*
X127280000Y-92090000D01*
X127280000Y-92090000D02*
X132520000Y-92090000D01*
X132520000Y-89350000D02*
X132520000Y-89687000D01*
X132520000Y-91753000D02*
X132520000Y-92090000D01*
%TO.C,C2*%
X138780000Y-57600000D02*
X138780000Y-60340000D01*
X138780000Y-57600000D02*
X144020000Y-57600000D01*
X138780000Y-60340000D02*
X144020000Y-60340000D01*
X144020000Y-57600000D02*
X144020000Y-60340000D01*
%TO.C,R2*%
X135130000Y-89350000D02*
X141670000Y-89350000D01*
X135130000Y-89680000D02*
X135130000Y-89350000D01*
X135130000Y-91760000D02*
X135130000Y-92090000D01*
X135130000Y-92090000D02*
X141670000Y-92090000D01*
X141670000Y-89350000D02*
X141670000Y-89680000D01*
X141670000Y-92090000D02*
X141670000Y-91760000D01*
%TO.C,D3*%
X115650000Y-84450000D02*
X115650000Y-85100000D01*
X115650000Y-89990000D02*
X115650000Y-89340000D01*
X116770000Y-85700000D02*
X114530000Y-85700000D01*
X116770000Y-85820000D02*
X114530000Y-85820000D01*
X116770000Y-85940000D02*
X114530000Y-85940000D01*
X116770000Y-85100000D02*
X114530000Y-85100000D01*
X114530000Y-89340000D01*
X116770000Y-89340000D01*
X116770000Y-85100000D01*
%TO.C,U2*%
X134750000Y-60810000D02*
X134750000Y-86330000D01*
X134750000Y-86330000D02*
X140050000Y-86330000D01*
X136400000Y-60810000D02*
X134750000Y-60810000D01*
X140050000Y-60810000D02*
X138400000Y-60810000D01*
X140050000Y-86330000D02*
X140050000Y-60810000D01*
X132260000Y-60750000D02*
X142540000Y-60750000D01*
X142540000Y-86390000D01*
X132260000Y-86390000D01*
X132260000Y-60750000D01*
X138400000Y-60810000D02*
G75*
G02*
X136400000Y-60810000I-1000000J0D01*
G01*
%TD*%
M02*
