%TF.GenerationSoftware,KiCad,Pcbnew,9.0.2*%
%TF.CreationDate,2025-07-10T13:47:20-04:00*%
%TF.ProjectId,am9511-6502,616d3935-3131-42d3-9635-30322e6b6963,rev?*%
%TF.SameCoordinates,Original*%
%TF.FileFunction,Copper,L1,Top*%
%TF.FilePolarity,Positive*%
%FSLAX46Y46*%
G04 Gerber Fmt 4.6, Leading zero omitted, Abs format (unit mm)*
G04 Created by KiCad (PCBNEW 9.0.2) date 2025-07-10 13:47:20*
%MOMM*%
%LPD*%
G01*
G04 APERTURE LIST*
G04 Aperture macros list*
%AMRoundRect*
0 Rectangle with rounded corners*
0 $1 Rounding radius*
0 $2 $3 $4 $5 $6 $7 $8 $9 X,Y pos of 4 corners*
0 Add a 4 corners polygon primitive as box body*
4,1,4,$2,$3,$4,$5,$6,$7,$8,$9,$2,$3,0*
0 Add four circle primitives for the rounded corners*
1,1,$1+$1,$2,$3*
1,1,$1+$1,$4,$5*
1,1,$1+$1,$6,$7*
1,1,$1+$1,$8,$9*
0 Add four rect primitives between the rounded corners*
20,1,$1+$1,$2,$3,$4,$5,0*
20,1,$1+$1,$4,$5,$6,$7,0*
20,1,$1+$1,$6,$7,$8,$9,0*
20,1,$1+$1,$8,$9,$2,$3,0*%
G04 Aperture macros list end*
%TA.AperFunction,ComponentPad*%
%ADD10C,1.600000*%
%TD*%
%TA.AperFunction,ComponentPad*%
%ADD11RoundRect,0.250000X0.550000X0.550000X-0.550000X0.550000X-0.550000X-0.550000X0.550000X-0.550000X0*%
%TD*%
%TA.AperFunction,ComponentPad*%
%ADD12C,3.800000*%
%TD*%
%TA.AperFunction,ComponentPad*%
%ADD13R,1.800000X1.800000*%
%TD*%
%TA.AperFunction,ComponentPad*%
%ADD14C,1.800000*%
%TD*%
%TA.AperFunction,ComponentPad*%
%ADD15R,1.700000X1.700000*%
%TD*%
%TA.AperFunction,ComponentPad*%
%ADD16C,1.700000*%
%TD*%
%TA.AperFunction,ComponentPad*%
%ADD17RoundRect,0.250000X-0.550000X-0.550000X0.550000X-0.550000X0.550000X0.550000X-0.550000X0.550000X0*%
%TD*%
%TA.AperFunction,ComponentPad*%
%ADD18R,1.600000X1.600000*%
%TD*%
%TA.AperFunction,ComponentPad*%
%ADD19O,1.700000X1.700000*%
%TD*%
%TA.AperFunction,ComponentPad*%
%ADD20RoundRect,0.250000X-0.550000X0.550000X-0.550000X-0.550000X0.550000X-0.550000X0.550000X0.550000X0*%
%TD*%
%TA.AperFunction,ViaPad*%
%ADD21C,0.800000*%
%TD*%
%TA.AperFunction,Conductor*%
%ADD22C,0.300000*%
%TD*%
%TA.AperFunction,Conductor*%
%ADD23C,0.500000*%
%TD*%
G04 APERTURE END LIST*
D10*
%TO.P,R5,1*%
%TO.N,Net-(D1-K)*%
X165400000Y-58500000D03*
%TO.P,R5,2*%
%TO.N,GND*%
X157780000Y-58500000D03*
%TD*%
D11*
%TO.P,C8,1*%
%TO.N,VCC*%
X174605113Y-63720000D03*
D10*
%TO.P,C8,2*%
%TO.N,GND*%
X172105113Y-63720000D03*
%TD*%
D12*
%TO.P,H3,1,1*%
%TO.N,GND*%
X110400000Y-112400000D03*
%TD*%
%TO.P,H1,1,1*%
%TO.N,GND*%
X110400000Y-55000000D03*
%TD*%
%TO.P,H4,1,1*%
%TO.N,GND*%
X182482262Y-112482267D03*
%TD*%
D10*
%TO.P,C5,1*%
%TO.N,VCC*%
X130900000Y-98720000D03*
%TO.P,C5,2*%
%TO.N,GND*%
X133400000Y-98720000D03*
%TD*%
D13*
%TO.P,D1,1,K*%
%TO.N,Net-(D1-K)*%
X171000000Y-56200000D03*
D14*
%TO.P,D1,2,A*%
%TO.N,/RESET*%
X168460000Y-56200000D03*
%TD*%
D15*
%TO.P,J1,1,Pin_1*%
%TO.N,VCC*%
X179190364Y-62520000D03*
D16*
%TO.P,J1,2,Pin_2*%
%TO.N,GND*%
X179190364Y-65060000D03*
%TO.P,J1,3,Pin_3*%
%TO.N,/D0*%
X179190364Y-67600000D03*
%TO.P,J1,4,Pin_4*%
%TO.N,/D1*%
X179190364Y-70140000D03*
%TO.P,J1,5,Pin_5*%
%TO.N,/D2*%
X179190364Y-72680000D03*
%TO.P,J1,6,Pin_6*%
%TO.N,/D3*%
X179190364Y-75220000D03*
%TO.P,J1,7,Pin_7*%
%TO.N,/D4*%
X179190364Y-77760000D03*
%TO.P,J1,8,Pin_8*%
%TO.N,/D5*%
X179190364Y-80300000D03*
%TO.P,J1,9,Pin_9*%
%TO.N,/D6*%
X179190364Y-82840000D03*
%TO.P,J1,10,Pin_10*%
%TO.N,/D7*%
X179190364Y-85380000D03*
%TO.P,J1,11,Pin_11*%
%TO.N,/A0*%
X179190364Y-87920000D03*
%TO.P,J1,12,Pin_12*%
%TO.N,/~{CS}*%
X179190364Y-90460000D03*
%TO.P,J1,13,Pin_13*%
%TO.N,/R{slash}~{W}*%
X179190364Y-93000000D03*
%TO.P,J1,14,Pin_14*%
%TO.N,/~{RESET}*%
X179190364Y-95540000D03*
%TO.P,J1,15,Pin_15*%
%TO.N,/RDY*%
X179190364Y-98080000D03*
%TO.P,J1,16,Pin_16*%
%TO.N,/PHI2*%
X179190364Y-100620000D03*
%TO.P,J1,17,Pin_17*%
%TO.N,/~{IRQ}*%
X179190364Y-103160000D03*
%TO.P,J1,18,Pin_18*%
%TO.N,GND*%
X179190364Y-105700000D03*
%TD*%
D12*
%TO.P,H2,1,1*%
%TO.N,GND*%
X182400000Y-55000000D03*
%TD*%
D17*
%TO.P,U3,1,C*%
%TO.N,/CLK1*%
X115840000Y-62080000D03*
D10*
%TO.P,U3,2,K*%
%TO.N,GND*%
X115840000Y-64620000D03*
%TO.P,U3,3,J*%
%TO.N,VCC*%
X115840000Y-67160000D03*
%TO.P,U3,4,~{S}*%
X115840000Y-69700000D03*
%TO.P,U3,5,Q*%
%TO.N,/Q1*%
X115840000Y-72240000D03*
%TO.P,U3,6,~{Q}*%
%TO.N,Net-(D3-K)*%
X115840000Y-74780000D03*
%TO.P,U3,7,~{Q}*%
%TO.N,Net-(U3A-~{R})*%
X115840000Y-77320000D03*
%TO.P,U3,8,GND*%
%TO.N,GND*%
X115840000Y-79860000D03*
%TO.P,U3,9,Q*%
%TO.N,/Q2*%
X123460000Y-79860000D03*
%TO.P,U3,10,~{S}*%
%TO.N,VCC*%
X123460000Y-77320000D03*
%TO.P,U3,11,J*%
%TO.N,/Q1*%
X123460000Y-74780000D03*
%TO.P,U3,12,K*%
%TO.N,Net-(D3-K)*%
X123460000Y-72240000D03*
%TO.P,U3,13,C*%
%TO.N,/PHI2*%
X123460000Y-69700000D03*
%TO.P,U3,14,~{R}*%
%TO.N,/~{PAUSE}*%
X123460000Y-67160000D03*
%TO.P,U3,15,~{R}*%
%TO.N,Net-(U3A-~{R})*%
X123460000Y-64620000D03*
%TO.P,U3,16,VCC*%
%TO.N,VCC*%
X123460000Y-62080000D03*
%TD*%
%TO.P,R6,1*%
%TO.N,Net-(D2-K)*%
X157780000Y-55500000D03*
%TO.P,R6,2*%
%TO.N,GND*%
X165400000Y-55500000D03*
%TD*%
D13*
%TO.P,D2,1,K*%
%TO.N,Net-(D2-K)*%
X176250000Y-56200000D03*
D14*
%TO.P,D2,2,A*%
%TO.N,VCC*%
X173710000Y-56200000D03*
%TD*%
D17*
%TO.P,U1,1,VSS*%
%TO.N,GND*%
X153410000Y-66970000D03*
D10*
%TO.P,U1,2,VCC*%
%TO.N,VCC*%
X153410000Y-69510000D03*
%TO.P,U1,3,~{EACK}*%
X153410000Y-72050000D03*
%TO.P,U1,4,~{SVACK}*%
X153410000Y-74590000D03*
%TO.P,U1,5,SVREQ*%
%TO.N,unconnected-(U1-SVREQ-Pad5)*%
X153410000Y-77130000D03*
%TO.P,U1,6,NC*%
%TO.N,unconnected-(U1-NC-Pad6)*%
X153410000Y-79670000D03*
%TO.P,U1,7,NC*%
%TO.N,unconnected-(U1-NC-Pad7)*%
X153410000Y-82210000D03*
%TO.P,U1,8,D0*%
%TO.N,/D0*%
X153410000Y-84750000D03*
%TO.P,U1,9,D1*%
%TO.N,/D1*%
X153410000Y-87290000D03*
%TO.P,U1,10,D2*%
%TO.N,/D2*%
X153410000Y-89830000D03*
%TO.P,U1,11,D3*%
%TO.N,/D3*%
X153410000Y-92370000D03*
%TO.P,U1,12,D4*%
%TO.N,/D4*%
X153410000Y-94910000D03*
%TO.P,U1,13,D5*%
%TO.N,/D5*%
X168650000Y-94910000D03*
%TO.P,U1,14,D6*%
%TO.N,/D6*%
X168650000Y-92370000D03*
%TO.P,U1,15,D7*%
%TO.N,/D7*%
X168650000Y-89830000D03*
%TO.P,U1,16,VDD*%
%TO.N,Net-(U1-VDD)*%
X168650000Y-87290000D03*
%TO.P,U1,17,~{PAUSE}*%
%TO.N,/~{PAUSE}*%
X168650000Y-84750000D03*
%TO.P,U1,18,~{CS}*%
%TO.N,/~{CS}*%
X168650000Y-82210000D03*
%TO.P,U1,19,~{WR}*%
%TO.N,/~{WR}*%
X168650000Y-79670000D03*
%TO.P,U1,20,~{RD}*%
%TO.N,/~{RD}*%
X168650000Y-77130000D03*
%TO.P,U1,21,C/~{D}*%
%TO.N,/A0*%
X168650000Y-74590000D03*
%TO.P,U1,22,RESET*%
%TO.N,/RESET*%
X168650000Y-72050000D03*
%TO.P,U1,23,CLK*%
%TO.N,Net-(U1-CLK)*%
X168650000Y-69510000D03*
%TO.P,U1,24,~{END}*%
%TO.N,/~{IRQ}*%
X168650000Y-66970000D03*
%TD*%
%TO.P,C3,1*%
%TO.N,VCC*%
X122400000Y-58720000D03*
%TO.P,C3,2*%
%TO.N,GND*%
X124900000Y-58720000D03*
%TD*%
%TO.P,C6,1*%
%TO.N,VCC*%
X150150000Y-69470000D03*
%TO.P,C6,2*%
%TO.N,GND*%
X150150000Y-66970000D03*
%TD*%
D18*
%TO.P,X1,1,EN*%
%TO.N,VCC*%
X132530000Y-110840000D03*
D10*
%TO.P,X1,4,GND*%
%TO.N,GND*%
X140150000Y-110840000D03*
%TO.P,X1,5,OUT*%
%TO.N,Net-(U1-CLK)*%
X140150000Y-103220000D03*
%TO.P,X1,8,Vcc*%
%TO.N,VCC*%
X132530000Y-103220000D03*
%TD*%
%TO.P,C4,1*%
%TO.N,VCC*%
X122150000Y-90720000D03*
%TO.P,C4,2*%
%TO.N,GND*%
X124650000Y-90720000D03*
%TD*%
D15*
%TO.P,U4,1,GND*%
%TO.N,GND*%
X167683931Y-110762577D03*
D19*
%TO.P,U4,2,12V*%
%TO.N,Net-(U1-VDD)*%
X167683931Y-108222577D03*
%TO.P,U4,3,IN*%
%TO.N,VCC*%
X167683931Y-105682577D03*
%TO.P,U4,4,EN*%
X167683931Y-103142577D03*
%TD*%
D17*
%TO.P,U5,1,A*%
%TO.N,/~{WTRG}*%
X115780000Y-94140000D03*
D10*
%TO.P,U5,2,B*%
%TO.N,VCC*%
X115780000Y-96680000D03*
%TO.P,U5,3,Clr*%
X115780000Y-99220000D03*
%TO.P,U5,4,~{Q}*%
%TO.N,/~{WR}*%
X115780000Y-101760000D03*
%TO.P,U5,5,Q*%
%TO.N,unconnected-(U5B-Q-Pad5)*%
X115780000Y-104300000D03*
%TO.P,U5,6,Cext*%
%TO.N,GND*%
X115780000Y-106840000D03*
%TO.P,U5,7,RCext*%
X115780000Y-109380000D03*
%TO.P,U5,8,GND*%
X115780000Y-111920000D03*
%TO.P,U5,9,A*%
X123400000Y-111920000D03*
%TO.P,U5,10,B*%
X123400000Y-109380000D03*
%TO.P,U5,11,Clr*%
%TO.N,VCC*%
X123400000Y-106840000D03*
%TO.P,U5,12,~{Q}*%
%TO.N,unconnected-(U5B-~{Q}-Pad12)*%
X123400000Y-104300000D03*
%TO.P,U5,13,Q*%
%TO.N,unconnected-(U5A-Q-Pad13)*%
X123400000Y-101760000D03*
%TO.P,U5,14,Cext*%
%TO.N,Net-(U5A-Cext)*%
X123400000Y-99220000D03*
%TO.P,U5,15,RCext*%
%TO.N,Net-(U5A-RCext)*%
X123400000Y-96680000D03*
%TO.P,U5,16,VCC*%
%TO.N,VCC*%
X123400000Y-94140000D03*
%TD*%
%TO.P,C1,1*%
%TO.N,Net-(U5A-RCext)*%
X127400000Y-90720000D03*
%TO.P,C1,2*%
%TO.N,Net-(U5A-Cext)*%
X132400000Y-90720000D03*
%TD*%
%TO.P,C2,1*%
%TO.N,VCC*%
X140150000Y-58970000D03*
%TO.P,C2,2*%
%TO.N,GND*%
X142650000Y-58970000D03*
%TD*%
%TO.P,R2,1*%
%TO.N,VCC*%
X134590000Y-90720000D03*
%TO.P,R2,2*%
%TO.N,Net-(U5A-RCext)*%
X142210000Y-90720000D03*
%TD*%
D20*
%TO.P,D3,1,K*%
%TO.N,Net-(D3-K)*%
X115650000Y-83410000D03*
D10*
%TO.P,D3,2,A*%
%TO.N,/RDY*%
X115650000Y-91030000D03*
%TD*%
D17*
%TO.P,U2,1,I1/CLK*%
%TO.N,/PHI2*%
X133590000Y-62140000D03*
D10*
%TO.P,U2,2,I2*%
%TO.N,/~{CS}*%
X133590000Y-64680000D03*
%TO.P,U2,3,I3*%
%TO.N,/R{slash}~{W}*%
X133590000Y-67220000D03*
%TO.P,U2,4,I4*%
%TO.N,/~{RESET}*%
X133590000Y-69760000D03*
%TO.P,U2,5,I5*%
%TO.N,/Q1*%
X133590000Y-72300000D03*
%TO.P,U2,6,I6*%
%TO.N,/Q2*%
X133590000Y-74840000D03*
%TO.P,U2,7,I7*%
%TO.N,GND*%
X133590000Y-77380000D03*
%TO.P,U2,8,I8*%
X133590000Y-79920000D03*
%TO.P,U2,9,I9*%
X133590000Y-82460000D03*
%TO.P,U2,10,GND*%
X133590000Y-85000000D03*
%TO.P,U2,11,I10/~{OE}*%
X141210000Y-85000000D03*
%TO.P,U2,12,IO8*%
%TO.N,unconnected-(U2-IO8-Pad12)*%
X141210000Y-82460000D03*
%TO.P,U2,13,IO7*%
%TO.N,unconnected-(U2-IO7-Pad13)*%
X141210000Y-79920000D03*
%TO.P,U2,14,IO6*%
%TO.N,/~{RD}*%
X141210000Y-77380000D03*
%TO.P,U2,15,IO5*%
%TO.N,/~{WTRG}*%
X141210000Y-74840000D03*
%TO.P,U2,16,IO4*%
%TO.N,/RESET*%
X141210000Y-72300000D03*
%TO.P,U2,17,I03*%
%TO.N,/CLK1*%
X141210000Y-69760000D03*
%TO.P,U2,18,IO2*%
%TO.N,unconnected-(U2-IO2-Pad18)*%
X141210000Y-67220000D03*
%TO.P,U2,19,IO1*%
%TO.N,unconnected-(U2-IO1-Pad19)*%
X141210000Y-64680000D03*
%TO.P,U2,20,VCC*%
%TO.N,VCC*%
X141210000Y-62140000D03*
%TD*%
D21*
%TO.N,/~{CS}*%
X150599000Y-72720000D03*
X150650000Y-90981000D03*
%TO.N,/RDY*%
X126495000Y-85375000D03*
X124620000Y-83500000D03*
%TO.N,/D5*%
X171400000Y-86220000D03*
%TO.N,/PHI2*%
X125525000Y-86095000D03*
%TO.N,/R{slash}~{W}*%
X151400000Y-74970000D03*
X151400000Y-96220000D03*
%TO.N,/~{RESET}*%
X137150000Y-85720000D03*
%TO.N,Net-(U1-CLK)*%
X158400000Y-101000000D03*
%TO.N,/~{PAUSE}*%
X150000000Y-93521000D03*
X149650000Y-74720000D03*
%TO.N,/~{WR}*%
X149000000Y-88679000D03*
%TD*%
D22*
%TO.N,Net-(U5A-RCext)*%
X140461000Y-89221000D02*
X141960000Y-90720000D01*
X123400000Y-96220000D02*
X123400000Y-96680000D01*
X127400000Y-90720000D02*
X128899000Y-89221000D01*
X128899000Y-89221000D02*
X140461000Y-89221000D01*
%TO.N,Net-(U5A-Cext)*%
X123400000Y-98720000D02*
X123400000Y-99220000D01*
D23*
%TO.N,VCC*%
X123400000Y-94140000D02*
X123400000Y-91470000D01*
X179190364Y-62520000D02*
X180940364Y-64270000D01*
X122650000Y-90720000D02*
X122150000Y-90720000D01*
X113900000Y-65220000D02*
X113900000Y-60220000D01*
X153410000Y-69510000D02*
X153410000Y-74590000D01*
X123400000Y-94140000D02*
X118320000Y-94140000D01*
X141210000Y-60030000D02*
X140150000Y-58970000D01*
X113900000Y-60220000D02*
X115400000Y-58720000D01*
X169002354Y-107001000D02*
X167683931Y-105682577D01*
X179190364Y-61730364D02*
X173710000Y-56250000D01*
X124651000Y-60889000D02*
X123460000Y-62080000D01*
X149900000Y-69470000D02*
X142570000Y-62140000D01*
X115840000Y-67160000D02*
X113900000Y-65220000D01*
X115400000Y-58720000D02*
X122400000Y-58720000D01*
X160451000Y-62469000D02*
X173354113Y-62469000D01*
X153370000Y-69470000D02*
X153410000Y-69510000D01*
X175805113Y-62520000D02*
X174605113Y-63720000D01*
X118320000Y-94140000D02*
X115780000Y-96680000D01*
X179190364Y-62520000D02*
X175805113Y-62520000D01*
X113587000Y-69413000D02*
X115840000Y-67160000D01*
X132530000Y-103220000D02*
X132530000Y-100350000D01*
X173354113Y-62469000D02*
X174605113Y-63720000D01*
X132530000Y-103220000D02*
X132530000Y-110840000D01*
X150150000Y-69470000D02*
X153370000Y-69470000D01*
X179400000Y-107001000D02*
X179739364Y-107001000D01*
X128780000Y-106840000D02*
X123400000Y-106840000D01*
X122209000Y-78571000D02*
X115321818Y-78571000D01*
X141210000Y-62140000D02*
X141210000Y-60030000D01*
X132530000Y-103220000D02*
X133781000Y-104471000D01*
X130900000Y-94160000D02*
X134340000Y-90720000D01*
X166472354Y-104471000D02*
X167683931Y-105682577D01*
X139959000Y-60889000D02*
X124651000Y-60889000D01*
X132400000Y-103220000D02*
X128780000Y-106840000D01*
X179400000Y-107001000D02*
X169002354Y-107001000D01*
X179739364Y-107001000D02*
X180940364Y-105800000D01*
X150150000Y-69470000D02*
X149900000Y-69470000D01*
X123400000Y-94140000D02*
X126320000Y-94140000D01*
X123400000Y-91470000D02*
X122650000Y-90720000D01*
X123460000Y-59780000D02*
X122400000Y-58720000D01*
X179869000Y-107001000D02*
X179400000Y-107001000D01*
X167683931Y-105682577D02*
X167683931Y-103142577D01*
X153410000Y-69510000D02*
X160451000Y-62469000D01*
X141150000Y-62080000D02*
X141210000Y-62140000D01*
X133781000Y-104471000D02*
X166472354Y-104471000D01*
X179190364Y-62520000D02*
X179190364Y-61730364D01*
X123460000Y-62080000D02*
X123460000Y-59780000D01*
X132530000Y-100350000D02*
X130900000Y-98720000D01*
X113587000Y-76836182D02*
X113587000Y-69413000D01*
X180940364Y-64270000D02*
X180940364Y-105800000D01*
X115780000Y-96680000D02*
X115780000Y-99220000D01*
X179140364Y-62470000D02*
X179190364Y-62520000D01*
X142570000Y-62140000D02*
X141210000Y-62140000D01*
X123460000Y-77320000D02*
X122209000Y-78571000D01*
X132530000Y-103220000D02*
X132400000Y-103220000D01*
X115321818Y-78571000D02*
X113587000Y-76836182D01*
X130900000Y-98720000D02*
X130900000Y-94160000D01*
X126320000Y-94140000D02*
X130900000Y-98720000D01*
X141210000Y-62140000D02*
X139959000Y-60889000D01*
D22*
%TO.N,/RESET*%
X153886760Y-75741000D02*
X153907760Y-75720000D01*
X153907760Y-75720000D02*
X161731480Y-75720000D01*
X141210000Y-72300000D02*
X144630000Y-75720000D01*
X161731480Y-75720000D02*
X165401480Y-72050000D01*
X152912240Y-75720000D02*
X152933240Y-75741000D01*
X144630000Y-75720000D02*
X152912240Y-75720000D01*
X165401480Y-72050000D02*
X168650000Y-72050000D01*
X152933240Y-75741000D02*
X153886760Y-75741000D01*
%TO.N,Net-(D1-K)*%
X165400000Y-58500000D02*
X168700000Y-58500000D01*
X168700000Y-58500000D02*
X171000000Y-56200000D01*
%TO.N,/~{CS}*%
X150599000Y-72771000D02*
X150599000Y-72720000D01*
X134741000Y-63529000D02*
X133590000Y-64680000D01*
X150599000Y-72720000D02*
X150599000Y-72441240D01*
X153886760Y-90981000D02*
X150650000Y-90981000D01*
X150599000Y-72441240D02*
X141686760Y-63529000D01*
X162657760Y-82210000D02*
X153886760Y-90981000D01*
X168650000Y-82210000D02*
X162657760Y-82210000D01*
X141686760Y-63529000D02*
X134741000Y-63529000D01*
%TO.N,/RDY*%
X129339000Y-88219000D02*
X140876042Y-88219000D01*
X151984966Y-98222000D02*
X151984971Y-98222005D01*
X152192492Y-98222000D02*
X174387508Y-98222000D01*
X174595029Y-98222005D02*
X174595034Y-98222000D01*
X147398000Y-94718001D02*
X150880000Y-98200000D01*
X174617041Y-98200000D02*
X179070364Y-98200000D01*
X179070364Y-98200000D02*
X179190364Y-98080000D01*
X126495000Y-85375000D02*
X129339000Y-88219000D01*
X151984959Y-98222000D02*
X151984966Y-98222000D01*
X117090000Y-91030000D02*
X115650000Y-91030000D01*
X124620000Y-83500000D02*
X117090000Y-91030000D01*
X150880000Y-98200000D02*
X151962959Y-98200000D01*
X140877043Y-88220000D02*
X142191480Y-88220000D01*
X174595041Y-98222000D02*
X174617041Y-98200000D01*
X147398000Y-93426520D02*
X147398000Y-94718001D01*
X151984971Y-98222005D02*
X152192492Y-98222000D01*
X140876042Y-88219000D02*
X140877043Y-88220000D01*
X174387508Y-98222000D02*
X174595029Y-98222005D01*
X142191480Y-88220000D02*
X147398000Y-93426520D01*
X151962959Y-98200000D02*
X151984959Y-98222000D01*
X174595034Y-98222000D02*
X174595041Y-98222000D01*
%TO.N,/D5*%
X178400000Y-80300000D02*
X172480000Y-86220000D01*
X178400000Y-80300000D02*
X179190364Y-80300000D01*
X172480000Y-86220000D02*
X171400000Y-86220000D01*
%TO.N,/D6*%
X167400000Y-91120000D02*
X167400000Y-89452240D01*
X168650000Y-92370000D02*
X167400000Y-91120000D01*
X172770000Y-88470000D02*
X178400000Y-82840000D01*
X167400000Y-89452240D02*
X168382240Y-88470000D01*
X168382240Y-88470000D02*
X172770000Y-88470000D01*
X178400000Y-82840000D02*
X179190364Y-82840000D01*
%TO.N,/PHI2*%
X177293369Y-98723005D02*
X179190364Y-100620000D01*
X151777439Y-98723000D02*
X151777446Y-98723000D01*
X151984983Y-98723005D02*
X152192491Y-98723005D01*
X146897000Y-94925523D02*
X150672480Y-98701000D01*
X146897000Y-93634040D02*
X146897000Y-94925523D01*
X140668522Y-88720000D02*
X140669523Y-88721000D01*
X151755439Y-98701000D02*
X151777439Y-98723000D01*
X151777446Y-98723000D02*
X151777451Y-98723005D01*
X152192491Y-98723005D02*
X152192496Y-98723000D01*
X140669523Y-88721000D02*
X141983960Y-88721000D01*
X152192496Y-98723000D02*
X174387504Y-98723000D01*
X125525000Y-86095000D02*
X128150000Y-88720000D01*
X174387509Y-98723005D02*
X177293369Y-98723005D01*
X128150000Y-88720000D02*
X140668522Y-88720000D01*
X141983960Y-88721000D02*
X146897000Y-93634040D01*
X150672480Y-98701000D02*
X151755439Y-98701000D01*
X151777457Y-98723005D02*
X151777462Y-98723010D01*
X151777462Y-98723010D02*
X151984983Y-98723005D01*
X174387504Y-98723000D02*
X174387509Y-98723005D01*
X151777451Y-98723005D02*
X151777457Y-98723005D01*
%TO.N,/D7*%
X168650000Y-89830000D02*
X174740364Y-89830000D01*
X174740364Y-89830000D02*
X179190364Y-85380000D01*
%TO.N,/D3*%
X162181000Y-83599000D02*
X153410000Y-92370000D01*
X170021000Y-83599000D02*
X162181000Y-83599000D01*
X178400000Y-75220000D02*
X170021000Y-83599000D01*
%TO.N,/D4*%
X178400000Y-77760000D02*
X170259000Y-85901000D01*
X170259000Y-85901000D02*
X162419000Y-85901000D01*
X162419000Y-85901000D02*
X153410000Y-94910000D01*
%TO.N,/D2*%
X178400000Y-72680000D02*
X170259000Y-80821000D01*
X162419000Y-80821000D02*
X153410000Y-89830000D01*
X170259000Y-80821000D02*
X162419000Y-80821000D01*
%TO.N,/R{slash}~{W}*%
X178400000Y-93000000D02*
X174180000Y-97220000D01*
X142400000Y-65970000D02*
X134840000Y-65970000D01*
X151400000Y-74970000D02*
X142400000Y-65970000D01*
X174180000Y-97220000D02*
X152400000Y-97220000D01*
X134840000Y-65970000D02*
X133590000Y-67220000D01*
X152400000Y-97220000D02*
X151400000Y-96220000D01*
%TO.N,/D0*%
X170030000Y-75970000D02*
X162190000Y-75970000D01*
X162190000Y-75970000D02*
X153410000Y-84750000D01*
X178400000Y-67600000D02*
X170030000Y-75970000D01*
%TO.N,/D1*%
X162181000Y-78519000D02*
X170021000Y-78519000D01*
X153410000Y-87290000D02*
X162181000Y-78519000D01*
X170021000Y-78519000D02*
X178400000Y-70140000D01*
%TO.N,/~{RESET}*%
X152192480Y-97721000D02*
X152170479Y-97699000D01*
X174387520Y-97721000D02*
X176568521Y-95540000D01*
X174387520Y-97721000D02*
X152192480Y-97721000D01*
X140733240Y-86151000D02*
X140302240Y-85720000D01*
X152170479Y-97699000D02*
X151087520Y-97699000D01*
X176568521Y-95540000D02*
X179190364Y-95540000D01*
X147899000Y-93219000D02*
X140831000Y-86151000D01*
X147899000Y-94510480D02*
X147899000Y-93219000D01*
X140302240Y-85720000D02*
X137150000Y-85720000D01*
X140831000Y-86151000D02*
X140733240Y-86151000D01*
X151087520Y-97699000D02*
X147899000Y-94510480D01*
%TO.N,/~{RD}*%
X144412240Y-77380000D02*
X153002240Y-85970000D01*
X141210000Y-77380000D02*
X144412240Y-77380000D01*
X153817760Y-85970000D02*
X153002240Y-85970000D01*
X162657760Y-77130000D02*
X153817760Y-85970000D01*
X168650000Y-77130000D02*
X162657760Y-77130000D01*
%TO.N,Net-(U1-VDD)*%
X168580000Y-87220000D02*
X168650000Y-87290000D01*
%TO.N,Net-(U1-CLK)*%
X156180000Y-103220000D02*
X140150000Y-103220000D01*
X158400000Y-101000000D02*
X156180000Y-103220000D01*
%TO.N,/~{PAUSE}*%
X149650000Y-74220000D02*
X149650000Y-74720000D01*
X150000000Y-93521000D02*
X153886760Y-93521000D01*
X127449000Y-71149000D02*
X123460000Y-67160000D01*
X149650000Y-74220000D02*
X146579000Y-71149000D01*
X162657760Y-84750000D02*
X168650000Y-84750000D01*
X153886760Y-93521000D02*
X162657760Y-84750000D01*
X146579000Y-71149000D02*
X127449000Y-71149000D01*
%TO.N,/~{WR}*%
X149000000Y-88679000D02*
X153852480Y-88679000D01*
X168650000Y-79670000D02*
X162861480Y-79670000D01*
X162861480Y-79670000D02*
X153852480Y-88679000D01*
%TO.N,/CLK1*%
X129076760Y-68609000D02*
X123698760Y-63231000D01*
X141210000Y-69760000D02*
X140059000Y-68609000D01*
X123698760Y-63231000D02*
X116991000Y-63231000D01*
X140059000Y-68609000D02*
X129076760Y-68609000D01*
X116991000Y-63231000D02*
X115840000Y-62080000D01*
%TO.N,/Q2*%
X128480000Y-74840000D02*
X123460000Y-79860000D01*
X133590000Y-74840000D02*
X128480000Y-74840000D01*
%TO.N,/Q1*%
X115840000Y-72240000D02*
X117320000Y-73720000D01*
X125940000Y-72300000D02*
X123460000Y-74780000D01*
X133590000Y-72300000D02*
X125940000Y-72300000D01*
X117320000Y-73720000D02*
X122400000Y-73720000D01*
X122400000Y-73720000D02*
X123460000Y-74780000D01*
%TO.N,/~{WTRG}*%
X134979000Y-81071000D02*
X128329000Y-81071000D01*
X141210000Y-74840000D02*
X134979000Y-81071000D01*
X128329000Y-81071000D02*
X115780000Y-93620000D01*
X115780000Y-93620000D02*
X115780000Y-94140000D01*
%TO.N,Net-(U3A-~{R})*%
X115601240Y-68311000D02*
X119769000Y-68311000D01*
X119769000Y-68311000D02*
X123460000Y-64620000D01*
X114188000Y-75668000D02*
X114188000Y-69724240D01*
X115840000Y-77320000D02*
X114188000Y-75668000D01*
X114188000Y-69724240D02*
X115601240Y-68311000D01*
%TO.N,Net-(D2-K)*%
X157780000Y-55500000D02*
X159080000Y-54200000D01*
X159080000Y-54200000D02*
X174200000Y-54200000D01*
X174200000Y-54200000D02*
X176000000Y-56000000D01*
%TO.N,Net-(D3-K)*%
X115840000Y-74780000D02*
X114689000Y-73629000D01*
X115482240Y-70970000D02*
X122190000Y-70970000D01*
X122190000Y-70970000D02*
X123460000Y-72240000D01*
X114689000Y-71763240D02*
X115482240Y-70970000D01*
X114689000Y-73629000D02*
X114689000Y-71763240D01*
%TD*%
M02*
