M48
; DRILL file {KiCad 9.0.2} date 2025-07-10T13:47:17-0400
; FORMAT={-:-/ absolute / inch / decimal}
; #@! TF.CreationDate,2025-07-10T13:47:17-04:00
; #@! TF.GenerationSoftware,Kicad,Pcbnew,9.0.2
; #@! TF.FileFunction,Plated,1,2,PTH
FMAT,2
INCH
; #@! TA.AperFunction,Plated,PTH,ViaDrill
T1C0.0157
; #@! TA.AperFunction,Plated,PTH,ComponentDrill
T2C0.0315
; #@! TA.AperFunction,Plated,PTH,ComponentDrill
T3C0.0354
; #@! TA.AperFunction,Plated,PTH,ComponentDrill
T4C0.0394
; #@! TA.AperFunction,Plated,PTH,ComponentDrill
T5C0.0866
%
G90
G05
T1
X4.9063Y-3.2874
X4.9419Y-3.3896
X4.9801Y-3.3612
X5.3996Y-3.3748
X5.8661Y-3.4913
X5.8917Y-2.9417
X5.9055Y-3.6819
X5.9291Y-2.863
X5.9311Y-3.5819
X5.9606Y-2.9516
X5.9606Y-3.7882
X6.2362Y-3.9764
X6.748Y-3.3945
T2
X4.5531Y-3.2839
X4.5531Y-3.5839
X4.5583Y-3.7063
X4.5583Y-3.8063
X4.5583Y-3.9063
X4.5583Y-4.0063
X4.5583Y-4.1063
X4.5583Y-4.2063
X4.5583Y-4.3063
X4.5583Y-4.4063
X4.5606Y-2.4441
X4.5606Y-2.5441
X4.5606Y-2.6441
X4.5606Y-2.7441
X4.5606Y-2.8441
X4.5606Y-2.9441
X4.5606Y-3.0441
X4.5606Y-3.1441
X4.8091Y-3.5717
X4.8189Y-2.3118
X4.8583Y-3.7063
X4.8583Y-3.8063
X4.8583Y-3.9063
X4.8583Y-4.0063
X4.8583Y-4.1063
X4.8583Y-4.2063
X4.8583Y-4.3063
X4.8583Y-4.4063
X4.8606Y-2.4441
X4.8606Y-2.5441
X4.8606Y-2.6441
X4.8606Y-2.7441
X4.8606Y-2.8441
X4.8606Y-2.9441
X4.8606Y-3.0441
X4.8606Y-3.1441
X4.9075Y-3.5717
X4.9173Y-2.3118
X5.0157Y-3.5717
X5.1535Y-3.8866
X5.2126Y-3.5717
X5.2177Y-4.0638
X5.2177Y-4.3638
X5.252Y-3.8866
X5.2594Y-2.4465
X5.2594Y-2.5465
X5.2594Y-2.6465
X5.2594Y-2.7465
X5.2594Y-2.8465
X5.2594Y-2.9465
X5.2594Y-3.0465
X5.2594Y-3.1465
X5.2594Y-3.2465
X5.2594Y-3.3465
X5.2988Y-3.5717
X5.5177Y-2.3217
X5.5177Y-4.0638
X5.5177Y-4.3638
X5.5594Y-2.4465
X5.5594Y-2.5465
X5.5594Y-2.6465
X5.5594Y-2.7465
X5.5594Y-2.8465
X5.5594Y-2.9465
X5.5594Y-3.0465
X5.5594Y-3.1465
X5.5594Y-3.2465
X5.5594Y-3.3465
X5.5988Y-3.5717
X5.6161Y-2.3217
X5.9114Y-2.6366
X5.9114Y-2.735
X6.0398Y-2.6366
X6.0398Y-2.7366
X6.0398Y-2.8366
X6.0398Y-2.9366
X6.0398Y-3.0366
X6.0398Y-3.1366
X6.0398Y-3.2366
X6.0398Y-3.3366
X6.0398Y-3.4366
X6.0398Y-3.5366
X6.0398Y-3.6366
X6.0398Y-3.7366
X6.2118Y-2.185
X6.2118Y-2.3031
X6.5118Y-2.185
X6.5118Y-2.3031
X6.6398Y-2.6366
X6.6398Y-2.7366
X6.6398Y-2.8366
X6.6398Y-2.9366
X6.6398Y-3.0366
X6.6398Y-3.1366
X6.6398Y-3.2366
X6.6398Y-3.3366
X6.6398Y-3.4366
X6.6398Y-3.5366
X6.6398Y-3.6366
X6.6398Y-3.7366
X6.7758Y-2.5087
X6.8742Y-2.5087
T3
X6.6323Y-2.2126
X6.7323Y-2.2126
X6.839Y-2.2126
X6.939Y-2.2126
T4
X6.6017Y-4.0607
X6.6017Y-4.1607
X6.6017Y-4.2607
X6.6017Y-4.3607
X7.0547Y-2.4614
X7.0547Y-2.5614
X7.0547Y-2.6614
X7.0547Y-2.7614
X7.0547Y-2.8614
X7.0547Y-2.9614
X7.0547Y-3.0614
X7.0547Y-3.1614
X7.0547Y-3.2614
X7.0547Y-3.3614
X7.0547Y-3.4614
X7.0547Y-3.5614
X7.0547Y-3.6614
X7.0547Y-3.7614
X7.0547Y-3.8614
X7.0547Y-3.9614
X7.0547Y-4.0614
X7.0547Y-4.1614
T5
X4.3465Y-2.1654
X4.3465Y-4.4252
X7.1811Y-2.1654
X7.1843Y-4.4284
M30
