%TF.GenerationSoftware,KiCad,Pcbnew,9.0.2*%
%TF.CreationDate,2025-07-11T05:31:08-04:00*%
%TF.ProjectId,am9511-6502,616d3935-3131-42d3-9635-30322e6b6963,rev?*%
%TF.SameCoordinates,Original*%
%TF.FileFunction,Legend,Bot*%
%TF.FilePolarity,Positive*%
%FSLAX46Y46*%
G04 Gerber Fmt 4.6, Leading zero omitted, Abs format (unit mm)*
G04 Created by KiCad (PCBNEW 9.0.2) date 2025-07-11 05:31:08*
%MOMM*%
%LPD*%
G01*
G04 APERTURE LIST*
%ADD10C,0.100000*%
G04 APERTURE END LIST*
D10*
X154016666Y-86162419D02*
X154016666Y-85162419D01*
X154016666Y-85162419D02*
X153778571Y-85162419D01*
X153778571Y-85162419D02*
X153635714Y-85210038D01*
X153635714Y-85210038D02*
X153540476Y-85305276D01*
X153540476Y-85305276D02*
X153492857Y-85400514D01*
X153492857Y-85400514D02*
X153445238Y-85590990D01*
X153445238Y-85590990D02*
X153445238Y-85733847D01*
X153445238Y-85733847D02*
X153492857Y-85924323D01*
X153492857Y-85924323D02*
X153540476Y-86019561D01*
X153540476Y-86019561D02*
X153635714Y-86114800D01*
X153635714Y-86114800D02*
X153778571Y-86162419D01*
X153778571Y-86162419D02*
X154016666Y-86162419D01*
X152635714Y-86114800D02*
X152730952Y-86162419D01*
X152730952Y-86162419D02*
X152921428Y-86162419D01*
X152921428Y-86162419D02*
X153016666Y-86114800D01*
X153016666Y-86114800D02*
X153064285Y-86019561D01*
X153064285Y-86019561D02*
X153064285Y-85638609D01*
X153064285Y-85638609D02*
X153016666Y-85543371D01*
X153016666Y-85543371D02*
X152921428Y-85495752D01*
X152921428Y-85495752D02*
X152730952Y-85495752D01*
X152730952Y-85495752D02*
X152635714Y-85543371D01*
X152635714Y-85543371D02*
X152588095Y-85638609D01*
X152588095Y-85638609D02*
X152588095Y-85733847D01*
X152588095Y-85733847D02*
X153064285Y-85829085D01*
X152207142Y-86114800D02*
X152111904Y-86162419D01*
X152111904Y-86162419D02*
X151921428Y-86162419D01*
X151921428Y-86162419D02*
X151826190Y-86114800D01*
X151826190Y-86114800D02*
X151778571Y-86019561D01*
X151778571Y-86019561D02*
X151778571Y-85971942D01*
X151778571Y-85971942D02*
X151826190Y-85876704D01*
X151826190Y-85876704D02*
X151921428Y-85829085D01*
X151921428Y-85829085D02*
X152064285Y-85829085D01*
X152064285Y-85829085D02*
X152159523Y-85781466D01*
X152159523Y-85781466D02*
X152207142Y-85686228D01*
X152207142Y-85686228D02*
X152207142Y-85638609D01*
X152207142Y-85638609D02*
X152159523Y-85543371D01*
X152159523Y-85543371D02*
X152064285Y-85495752D01*
X152064285Y-85495752D02*
X151921428Y-85495752D01*
X151921428Y-85495752D02*
X151826190Y-85543371D01*
X151349999Y-86162419D02*
X151349999Y-85495752D01*
X151349999Y-85162419D02*
X151397618Y-85210038D01*
X151397618Y-85210038D02*
X151349999Y-85257657D01*
X151349999Y-85257657D02*
X151302380Y-85210038D01*
X151302380Y-85210038D02*
X151349999Y-85162419D01*
X151349999Y-85162419D02*
X151349999Y-85257657D01*
X150445238Y-85495752D02*
X150445238Y-86305276D01*
X150445238Y-86305276D02*
X150492857Y-86400514D01*
X150492857Y-86400514D02*
X150540476Y-86448133D01*
X150540476Y-86448133D02*
X150635714Y-86495752D01*
X150635714Y-86495752D02*
X150778571Y-86495752D01*
X150778571Y-86495752D02*
X150873809Y-86448133D01*
X150445238Y-86114800D02*
X150540476Y-86162419D01*
X150540476Y-86162419D02*
X150730952Y-86162419D01*
X150730952Y-86162419D02*
X150826190Y-86114800D01*
X150826190Y-86114800D02*
X150873809Y-86067180D01*
X150873809Y-86067180D02*
X150921428Y-85971942D01*
X150921428Y-85971942D02*
X150921428Y-85686228D01*
X150921428Y-85686228D02*
X150873809Y-85590990D01*
X150873809Y-85590990D02*
X150826190Y-85543371D01*
X150826190Y-85543371D02*
X150730952Y-85495752D01*
X150730952Y-85495752D02*
X150540476Y-85495752D01*
X150540476Y-85495752D02*
X150445238Y-85543371D01*
X149969047Y-85495752D02*
X149969047Y-86162419D01*
X149969047Y-85590990D02*
X149921428Y-85543371D01*
X149921428Y-85543371D02*
X149826190Y-85495752D01*
X149826190Y-85495752D02*
X149683333Y-85495752D01*
X149683333Y-85495752D02*
X149588095Y-85543371D01*
X149588095Y-85543371D02*
X149540476Y-85638609D01*
X149540476Y-85638609D02*
X149540476Y-86162419D01*
X148683333Y-86114800D02*
X148778571Y-86162419D01*
X148778571Y-86162419D02*
X148969047Y-86162419D01*
X148969047Y-86162419D02*
X149064285Y-86114800D01*
X149064285Y-86114800D02*
X149111904Y-86019561D01*
X149111904Y-86019561D02*
X149111904Y-85638609D01*
X149111904Y-85638609D02*
X149064285Y-85543371D01*
X149064285Y-85543371D02*
X148969047Y-85495752D01*
X148969047Y-85495752D02*
X148778571Y-85495752D01*
X148778571Y-85495752D02*
X148683333Y-85543371D01*
X148683333Y-85543371D02*
X148635714Y-85638609D01*
X148635714Y-85638609D02*
X148635714Y-85733847D01*
X148635714Y-85733847D02*
X149111904Y-85829085D01*
X147778571Y-86162419D02*
X147778571Y-85162419D01*
X147778571Y-86114800D02*
X147873809Y-86162419D01*
X147873809Y-86162419D02*
X148064285Y-86162419D01*
X148064285Y-86162419D02*
X148159523Y-86114800D01*
X148159523Y-86114800D02*
X148207142Y-86067180D01*
X148207142Y-86067180D02*
X148254761Y-85971942D01*
X148254761Y-85971942D02*
X148254761Y-85686228D01*
X148254761Y-85686228D02*
X148207142Y-85590990D01*
X148207142Y-85590990D02*
X148159523Y-85543371D01*
X148159523Y-85543371D02*
X148064285Y-85495752D01*
X148064285Y-85495752D02*
X147873809Y-85495752D01*
X147873809Y-85495752D02*
X147778571Y-85543371D01*
X146540475Y-86162419D02*
X146540475Y-85495752D01*
X146540475Y-85162419D02*
X146588094Y-85210038D01*
X146588094Y-85210038D02*
X146540475Y-85257657D01*
X146540475Y-85257657D02*
X146492856Y-85210038D01*
X146492856Y-85210038D02*
X146540475Y-85162419D01*
X146540475Y-85162419D02*
X146540475Y-85257657D01*
X146064285Y-85495752D02*
X146064285Y-86162419D01*
X146064285Y-85590990D02*
X146016666Y-85543371D01*
X146016666Y-85543371D02*
X145921428Y-85495752D01*
X145921428Y-85495752D02*
X145778571Y-85495752D01*
X145778571Y-85495752D02*
X145683333Y-85543371D01*
X145683333Y-85543371D02*
X145635714Y-85638609D01*
X145635714Y-85638609D02*
X145635714Y-86162419D01*
X144064285Y-85638609D02*
X143921428Y-85686228D01*
X143921428Y-85686228D02*
X143873809Y-85733847D01*
X143873809Y-85733847D02*
X143826190Y-85829085D01*
X143826190Y-85829085D02*
X143826190Y-85971942D01*
X143826190Y-85971942D02*
X143873809Y-86067180D01*
X143873809Y-86067180D02*
X143921428Y-86114800D01*
X143921428Y-86114800D02*
X144016666Y-86162419D01*
X144016666Y-86162419D02*
X144397618Y-86162419D01*
X144397618Y-86162419D02*
X144397618Y-85162419D01*
X144397618Y-85162419D02*
X144064285Y-85162419D01*
X144064285Y-85162419D02*
X143969047Y-85210038D01*
X143969047Y-85210038D02*
X143921428Y-85257657D01*
X143921428Y-85257657D02*
X143873809Y-85352895D01*
X143873809Y-85352895D02*
X143873809Y-85448133D01*
X143873809Y-85448133D02*
X143921428Y-85543371D01*
X143921428Y-85543371D02*
X143969047Y-85590990D01*
X143969047Y-85590990D02*
X144064285Y-85638609D01*
X144064285Y-85638609D02*
X144397618Y-85638609D01*
X143254761Y-86162419D02*
X143349999Y-86114800D01*
X143349999Y-86114800D02*
X143397618Y-86019561D01*
X143397618Y-86019561D02*
X143397618Y-85162419D01*
X142445237Y-86162419D02*
X142445237Y-85638609D01*
X142445237Y-85638609D02*
X142492856Y-85543371D01*
X142492856Y-85543371D02*
X142588094Y-85495752D01*
X142588094Y-85495752D02*
X142778570Y-85495752D01*
X142778570Y-85495752D02*
X142873808Y-85543371D01*
X142445237Y-86114800D02*
X142540475Y-86162419D01*
X142540475Y-86162419D02*
X142778570Y-86162419D01*
X142778570Y-86162419D02*
X142873808Y-86114800D01*
X142873808Y-86114800D02*
X142921427Y-86019561D01*
X142921427Y-86019561D02*
X142921427Y-85924323D01*
X142921427Y-85924323D02*
X142873808Y-85829085D01*
X142873808Y-85829085D02*
X142778570Y-85781466D01*
X142778570Y-85781466D02*
X142540475Y-85781466D01*
X142540475Y-85781466D02*
X142445237Y-85733847D01*
X141540475Y-86114800D02*
X141635713Y-86162419D01*
X141635713Y-86162419D02*
X141826189Y-86162419D01*
X141826189Y-86162419D02*
X141921427Y-86114800D01*
X141921427Y-86114800D02*
X141969046Y-86067180D01*
X141969046Y-86067180D02*
X142016665Y-85971942D01*
X142016665Y-85971942D02*
X142016665Y-85686228D01*
X142016665Y-85686228D02*
X141969046Y-85590990D01*
X141969046Y-85590990D02*
X141921427Y-85543371D01*
X141921427Y-85543371D02*
X141826189Y-85495752D01*
X141826189Y-85495752D02*
X141635713Y-85495752D01*
X141635713Y-85495752D02*
X141540475Y-85543371D01*
X141111903Y-86162419D02*
X141111903Y-85162419D01*
X141016665Y-85781466D02*
X140730951Y-86162419D01*
X140730951Y-85495752D02*
X141111903Y-85876704D01*
X140349998Y-86114800D02*
X140254760Y-86162419D01*
X140254760Y-86162419D02*
X140064284Y-86162419D01*
X140064284Y-86162419D02*
X139969046Y-86114800D01*
X139969046Y-86114800D02*
X139921427Y-86019561D01*
X139921427Y-86019561D02*
X139921427Y-85971942D01*
X139921427Y-85971942D02*
X139969046Y-85876704D01*
X139969046Y-85876704D02*
X140064284Y-85829085D01*
X140064284Y-85829085D02*
X140207141Y-85829085D01*
X140207141Y-85829085D02*
X140302379Y-85781466D01*
X140302379Y-85781466D02*
X140349998Y-85686228D01*
X140349998Y-85686228D02*
X140349998Y-85638609D01*
X140349998Y-85638609D02*
X140302379Y-85543371D01*
X140302379Y-85543371D02*
X140207141Y-85495752D01*
X140207141Y-85495752D02*
X140064284Y-85495752D01*
X140064284Y-85495752D02*
X139969046Y-85543371D01*
X139492855Y-86162419D02*
X139492855Y-85162419D01*
X139492855Y-85543371D02*
X139397617Y-85495752D01*
X139397617Y-85495752D02*
X139207141Y-85495752D01*
X139207141Y-85495752D02*
X139111903Y-85543371D01*
X139111903Y-85543371D02*
X139064284Y-85590990D01*
X139064284Y-85590990D02*
X139016665Y-85686228D01*
X139016665Y-85686228D02*
X139016665Y-85971942D01*
X139016665Y-85971942D02*
X139064284Y-86067180D01*
X139064284Y-86067180D02*
X139111903Y-86114800D01*
X139111903Y-86114800D02*
X139207141Y-86162419D01*
X139207141Y-86162419D02*
X139397617Y-86162419D01*
X139397617Y-86162419D02*
X139492855Y-86114800D01*
X138159522Y-85495752D02*
X138159522Y-86162419D01*
X138588093Y-85495752D02*
X138588093Y-86019561D01*
X138588093Y-86019561D02*
X138540474Y-86114800D01*
X138540474Y-86114800D02*
X138445236Y-86162419D01*
X138445236Y-86162419D02*
X138302379Y-86162419D01*
X138302379Y-86162419D02*
X138207141Y-86114800D01*
X138207141Y-86114800D02*
X138159522Y-86067180D01*
X137683331Y-86162419D02*
X137683331Y-85495752D01*
X137683331Y-85686228D02*
X137635712Y-85590990D01*
X137635712Y-85590990D02*
X137588093Y-85543371D01*
X137588093Y-85543371D02*
X137492855Y-85495752D01*
X137492855Y-85495752D02*
X137397617Y-85495752D01*
X136635712Y-85495752D02*
X136635712Y-86305276D01*
X136635712Y-86305276D02*
X136683331Y-86400514D01*
X136683331Y-86400514D02*
X136730950Y-86448133D01*
X136730950Y-86448133D02*
X136826188Y-86495752D01*
X136826188Y-86495752D02*
X136969045Y-86495752D01*
X136969045Y-86495752D02*
X137064283Y-86448133D01*
X136635712Y-86114800D02*
X136730950Y-86162419D01*
X136730950Y-86162419D02*
X136921426Y-86162419D01*
X136921426Y-86162419D02*
X137016664Y-86114800D01*
X137016664Y-86114800D02*
X137064283Y-86067180D01*
X137064283Y-86067180D02*
X137111902Y-85971942D01*
X137111902Y-85971942D02*
X137111902Y-85686228D01*
X137111902Y-85686228D02*
X137064283Y-85590990D01*
X137064283Y-85590990D02*
X137016664Y-85543371D01*
X137016664Y-85543371D02*
X136921426Y-85495752D01*
X136921426Y-85495752D02*
X136730950Y-85495752D01*
X136730950Y-85495752D02*
X136635712Y-85543371D01*
X136111902Y-86114800D02*
X136111902Y-86162419D01*
X136111902Y-86162419D02*
X136159521Y-86257657D01*
X136159521Y-86257657D02*
X136207140Y-86305276D01*
X135064283Y-85162419D02*
X134730950Y-86162419D01*
X134730950Y-86162419D02*
X134397617Y-85162419D01*
X134064283Y-86162419D02*
X134064283Y-85495752D01*
X134064283Y-85162419D02*
X134111902Y-85210038D01*
X134111902Y-85210038D02*
X134064283Y-85257657D01*
X134064283Y-85257657D02*
X134016664Y-85210038D01*
X134016664Y-85210038D02*
X134064283Y-85162419D01*
X134064283Y-85162419D02*
X134064283Y-85257657D01*
X133588093Y-86162419D02*
X133588093Y-85495752D01*
X133588093Y-85686228D02*
X133540474Y-85590990D01*
X133540474Y-85590990D02*
X133492855Y-85543371D01*
X133492855Y-85543371D02*
X133397617Y-85495752D01*
X133397617Y-85495752D02*
X133302379Y-85495752D01*
X132540474Y-85495752D02*
X132540474Y-86305276D01*
X132540474Y-86305276D02*
X132588093Y-86400514D01*
X132588093Y-86400514D02*
X132635712Y-86448133D01*
X132635712Y-86448133D02*
X132730950Y-86495752D01*
X132730950Y-86495752D02*
X132873807Y-86495752D01*
X132873807Y-86495752D02*
X132969045Y-86448133D01*
X132540474Y-86114800D02*
X132635712Y-86162419D01*
X132635712Y-86162419D02*
X132826188Y-86162419D01*
X132826188Y-86162419D02*
X132921426Y-86114800D01*
X132921426Y-86114800D02*
X132969045Y-86067180D01*
X132969045Y-86067180D02*
X133016664Y-85971942D01*
X133016664Y-85971942D02*
X133016664Y-85686228D01*
X133016664Y-85686228D02*
X132969045Y-85590990D01*
X132969045Y-85590990D02*
X132921426Y-85543371D01*
X132921426Y-85543371D02*
X132826188Y-85495752D01*
X132826188Y-85495752D02*
X132635712Y-85495752D01*
X132635712Y-85495752D02*
X132540474Y-85543371D01*
X132064283Y-86162419D02*
X132064283Y-85495752D01*
X132064283Y-85162419D02*
X132111902Y-85210038D01*
X132111902Y-85210038D02*
X132064283Y-85257657D01*
X132064283Y-85257657D02*
X132016664Y-85210038D01*
X132016664Y-85210038D02*
X132064283Y-85162419D01*
X132064283Y-85162419D02*
X132064283Y-85257657D01*
X131588093Y-85495752D02*
X131588093Y-86162419D01*
X131588093Y-85590990D02*
X131540474Y-85543371D01*
X131540474Y-85543371D02*
X131445236Y-85495752D01*
X131445236Y-85495752D02*
X131302379Y-85495752D01*
X131302379Y-85495752D02*
X131207141Y-85543371D01*
X131207141Y-85543371D02*
X131159522Y-85638609D01*
X131159522Y-85638609D02*
X131159522Y-86162419D01*
X130683331Y-86162419D02*
X130683331Y-85495752D01*
X130683331Y-85162419D02*
X130730950Y-85210038D01*
X130730950Y-85210038D02*
X130683331Y-85257657D01*
X130683331Y-85257657D02*
X130635712Y-85210038D01*
X130635712Y-85210038D02*
X130683331Y-85162419D01*
X130683331Y-85162419D02*
X130683331Y-85257657D01*
X129778570Y-86162419D02*
X129778570Y-85638609D01*
X129778570Y-85638609D02*
X129826189Y-85543371D01*
X129826189Y-85543371D02*
X129921427Y-85495752D01*
X129921427Y-85495752D02*
X130111903Y-85495752D01*
X130111903Y-85495752D02*
X130207141Y-85543371D01*
X129778570Y-86114800D02*
X129873808Y-86162419D01*
X129873808Y-86162419D02*
X130111903Y-86162419D01*
X130111903Y-86162419D02*
X130207141Y-86114800D01*
X130207141Y-86114800D02*
X130254760Y-86019561D01*
X130254760Y-86019561D02*
X130254760Y-85924323D01*
X130254760Y-85924323D02*
X130207141Y-85829085D01*
X130207141Y-85829085D02*
X130111903Y-85781466D01*
X130111903Y-85781466D02*
X129873808Y-85781466D01*
X129873808Y-85781466D02*
X129778570Y-85733847D01*
X129254760Y-86114800D02*
X129254760Y-86162419D01*
X129254760Y-86162419D02*
X129302379Y-86257657D01*
X129302379Y-86257657D02*
X129349998Y-86305276D01*
X128064284Y-85162419D02*
X128064284Y-85971942D01*
X128064284Y-85971942D02*
X128016665Y-86067180D01*
X128016665Y-86067180D02*
X127969046Y-86114800D01*
X127969046Y-86114800D02*
X127873808Y-86162419D01*
X127873808Y-86162419D02*
X127683332Y-86162419D01*
X127683332Y-86162419D02*
X127588094Y-86114800D01*
X127588094Y-86114800D02*
X127540475Y-86067180D01*
X127540475Y-86067180D02*
X127492856Y-85971942D01*
X127492856Y-85971942D02*
X127492856Y-85162419D01*
X127064284Y-86114800D02*
X126921427Y-86162419D01*
X126921427Y-86162419D02*
X126683332Y-86162419D01*
X126683332Y-86162419D02*
X126588094Y-86114800D01*
X126588094Y-86114800D02*
X126540475Y-86067180D01*
X126540475Y-86067180D02*
X126492856Y-85971942D01*
X126492856Y-85971942D02*
X126492856Y-85876704D01*
X126492856Y-85876704D02*
X126540475Y-85781466D01*
X126540475Y-85781466D02*
X126588094Y-85733847D01*
X126588094Y-85733847D02*
X126683332Y-85686228D01*
X126683332Y-85686228D02*
X126873808Y-85638609D01*
X126873808Y-85638609D02*
X126969046Y-85590990D01*
X126969046Y-85590990D02*
X127016665Y-85543371D01*
X127016665Y-85543371D02*
X127064284Y-85448133D01*
X127064284Y-85448133D02*
X127064284Y-85352895D01*
X127064284Y-85352895D02*
X127016665Y-85257657D01*
X127016665Y-85257657D02*
X126969046Y-85210038D01*
X126969046Y-85210038D02*
X126873808Y-85162419D01*
X126873808Y-85162419D02*
X126635713Y-85162419D01*
X126635713Y-85162419D02*
X126492856Y-85210038D01*
X126111903Y-85876704D02*
X125635713Y-85876704D01*
X126207141Y-86162419D02*
X125873808Y-85162419D01*
X125873808Y-85162419D02*
X125540475Y-86162419D01*
M02*
