%TF.GenerationSoftware,KiCad,Pcbnew,9.0.2*%
%TF.CreationDate,2025-07-10T13:47:21-04:00*%
%TF.ProjectId,am9511-6502,616d3935-3131-42d3-9635-30322e6b6963,rev?*%
%TF.SameCoordinates,Original*%
%TF.FileFunction,Soldermask,Top*%
%TF.FilePolarity,Negative*%
%FSLAX46Y46*%
G04 Gerber Fmt 4.6, Leading zero omitted, Abs format (unit mm)*
G04 Created by KiCad (PCBNEW 9.0.2) date 2025-07-10 13:47:21*
%MOMM*%
%LPD*%
G01*
G04 APERTURE LIST*
G04 Aperture macros list*
%AMRoundRect*
0 Rectangle with rounded corners*
0 $1 Rounding radius*
0 $2 $3 $4 $5 $6 $7 $8 $9 X,Y pos of 4 corners*
0 Add a 4 corners polygon primitive as box body*
4,1,4,$2,$3,$4,$5,$6,$7,$8,$9,$2,$3,0*
0 Add four circle primitives for the rounded corners*
1,1,$1+$1,$2,$3*
1,1,$1+$1,$4,$5*
1,1,$1+$1,$6,$7*
1,1,$1+$1,$8,$9*
0 Add four rect primitives between the rounded corners*
20,1,$1+$1,$2,$3,$4,$5,0*
20,1,$1+$1,$4,$5,$6,$7,0*
20,1,$1+$1,$6,$7,$8,$9,0*
20,1,$1+$1,$8,$9,$2,$3,0*%
G04 Aperture macros list end*
%ADD10C,1.600000*%
%ADD11RoundRect,0.250000X0.550000X0.550000X-0.550000X0.550000X-0.550000X-0.550000X0.550000X-0.550000X0*%
%ADD12C,3.800000*%
%ADD13R,1.800000X1.800000*%
%ADD14C,1.800000*%
%ADD15R,1.700000X1.700000*%
%ADD16C,1.700000*%
%ADD17RoundRect,0.250000X-0.550000X-0.550000X0.550000X-0.550000X0.550000X0.550000X-0.550000X0.550000X0*%
%ADD18R,1.600000X1.600000*%
%ADD19O,1.700000X1.700000*%
%ADD20RoundRect,0.250000X-0.550000X0.550000X-0.550000X-0.550000X0.550000X-0.550000X0.550000X0.550000X0*%
G04 APERTURE END LIST*
D10*
%TO.C,R5*%
X165400000Y-58500000D03*
X157780000Y-58500000D03*
%TD*%
D11*
%TO.C,C8*%
X174605113Y-63720000D03*
D10*
X172105113Y-63720000D03*
%TD*%
D12*
%TO.C,H3*%
X110400000Y-112400000D03*
%TD*%
%TO.C,H1*%
X110400000Y-55000000D03*
%TD*%
%TO.C,H4*%
X182482262Y-112482267D03*
%TD*%
D10*
%TO.C,C5*%
X130900000Y-98720000D03*
X133400000Y-98720000D03*
%TD*%
D13*
%TO.C,D1*%
X171000000Y-56200000D03*
D14*
X168460000Y-56200000D03*
%TD*%
D15*
%TO.C,J1*%
X179190364Y-62520000D03*
D16*
X179190364Y-65060000D03*
X179190364Y-67600000D03*
X179190364Y-70140000D03*
X179190364Y-72680000D03*
X179190364Y-75220000D03*
X179190364Y-77760000D03*
X179190364Y-80300000D03*
X179190364Y-82840000D03*
X179190364Y-85380000D03*
X179190364Y-87920000D03*
X179190364Y-90460000D03*
X179190364Y-93000000D03*
X179190364Y-95540000D03*
X179190364Y-98080000D03*
X179190364Y-100620000D03*
X179190364Y-103160000D03*
X179190364Y-105700000D03*
%TD*%
D12*
%TO.C,H2*%
X182400000Y-55000000D03*
%TD*%
D17*
%TO.C,U3*%
X115840000Y-62080000D03*
D10*
X115840000Y-64620000D03*
X115840000Y-67160000D03*
X115840000Y-69700000D03*
X115840000Y-72240000D03*
X115840000Y-74780000D03*
X115840000Y-77320000D03*
X115840000Y-79860000D03*
X123460000Y-79860000D03*
X123460000Y-77320000D03*
X123460000Y-74780000D03*
X123460000Y-72240000D03*
X123460000Y-69700000D03*
X123460000Y-67160000D03*
X123460000Y-64620000D03*
X123460000Y-62080000D03*
%TD*%
%TO.C,R6*%
X157780000Y-55500000D03*
X165400000Y-55500000D03*
%TD*%
D13*
%TO.C,D2*%
X176250000Y-56200000D03*
D14*
X173710000Y-56200000D03*
%TD*%
D17*
%TO.C,U1*%
X153410000Y-66970000D03*
D10*
X153410000Y-69510000D03*
X153410000Y-72050000D03*
X153410000Y-74590000D03*
X153410000Y-77130000D03*
X153410000Y-79670000D03*
X153410000Y-82210000D03*
X153410000Y-84750000D03*
X153410000Y-87290000D03*
X153410000Y-89830000D03*
X153410000Y-92370000D03*
X153410000Y-94910000D03*
X168650000Y-94910000D03*
X168650000Y-92370000D03*
X168650000Y-89830000D03*
X168650000Y-87290000D03*
X168650000Y-84750000D03*
X168650000Y-82210000D03*
X168650000Y-79670000D03*
X168650000Y-77130000D03*
X168650000Y-74590000D03*
X168650000Y-72050000D03*
X168650000Y-69510000D03*
X168650000Y-66970000D03*
%TD*%
%TO.C,C3*%
X122400000Y-58720000D03*
X124900000Y-58720000D03*
%TD*%
%TO.C,C6*%
X150150000Y-69470000D03*
X150150000Y-66970000D03*
%TD*%
D18*
%TO.C,X1*%
X132530000Y-110840000D03*
D10*
X140150000Y-110840000D03*
X140150000Y-103220000D03*
X132530000Y-103220000D03*
%TD*%
%TO.C,C4*%
X122150000Y-90720000D03*
X124650000Y-90720000D03*
%TD*%
D15*
%TO.C,U4*%
X167683931Y-110762577D03*
D19*
X167683931Y-108222577D03*
X167683931Y-105682577D03*
X167683931Y-103142577D03*
%TD*%
D17*
%TO.C,U5*%
X115780000Y-94140000D03*
D10*
X115780000Y-96680000D03*
X115780000Y-99220000D03*
X115780000Y-101760000D03*
X115780000Y-104300000D03*
X115780000Y-106840000D03*
X115780000Y-109380000D03*
X115780000Y-111920000D03*
X123400000Y-111920000D03*
X123400000Y-109380000D03*
X123400000Y-106840000D03*
X123400000Y-104300000D03*
X123400000Y-101760000D03*
X123400000Y-99220000D03*
X123400000Y-96680000D03*
X123400000Y-94140000D03*
%TD*%
%TO.C,C1*%
X127400000Y-90720000D03*
X132400000Y-90720000D03*
%TD*%
%TO.C,C2*%
X140150000Y-58970000D03*
X142650000Y-58970000D03*
%TD*%
%TO.C,R2*%
X134590000Y-90720000D03*
X142210000Y-90720000D03*
%TD*%
D20*
%TO.C,D3*%
X115650000Y-83410000D03*
D10*
X115650000Y-91030000D03*
%TD*%
D17*
%TO.C,U2*%
X133590000Y-62140000D03*
D10*
X133590000Y-64680000D03*
X133590000Y-67220000D03*
X133590000Y-69760000D03*
X133590000Y-72300000D03*
X133590000Y-74840000D03*
X133590000Y-77380000D03*
X133590000Y-79920000D03*
X133590000Y-82460000D03*
X133590000Y-85000000D03*
X141210000Y-85000000D03*
X141210000Y-82460000D03*
X141210000Y-79920000D03*
X141210000Y-77380000D03*
X141210000Y-74840000D03*
X141210000Y-72300000D03*
X141210000Y-69760000D03*
X141210000Y-67220000D03*
X141210000Y-64680000D03*
X141210000Y-62140000D03*
%TD*%
M02*
