%TF.GenerationSoftware,KiCad,Pcbnew,9.0.2*%
%TF.CreationDate,2025-07-11T05:31:08-04:00*%
%TF.ProjectId,am9511-6502,616d3935-3131-42d3-9635-30322e6b6963,rev?*%
%TF.SameCoordinates,Original*%
%TF.FileFunction,Soldermask,Bot*%
%TF.FilePolarity,Negative*%
%FSLAX46Y46*%
G04 Gerber Fmt 4.6, Leading zero omitted, Abs format (unit mm)*
G04 Created by KiCad (PCBNEW 9.0.2) date 2025-07-11 05:31:08*
%MOMM*%
%LPD*%
G01*
G04 APERTURE LIST*
G04 Aperture macros list*
%AMRoundRect*
0 Rectangle with rounded corners*
0 $1 Rounding radius*
0 $2 $3 $4 $5 $6 $7 $8 $9 X,Y pos of 4 corners*
0 Add a 4 corners polygon primitive as box body*
4,1,4,$2,$3,$4,$5,$6,$7,$8,$9,$2,$3,0*
0 Add four circle primitives for the rounded corners*
1,1,$1+$1,$2,$3*
1,1,$1+$1,$4,$5*
1,1,$1+$1,$6,$7*
1,1,$1+$1,$8,$9*
0 Add four rect primitives between the rounded corners*
20,1,$1+$1,$2,$3,$4,$5,0*
20,1,$1+$1,$4,$5,$6,$7,0*
20,1,$1+$1,$6,$7,$8,$9,0*
20,1,$1+$1,$8,$9,$2,$3,0*%
G04 Aperture macros list end*
%ADD10C,1.600000*%
%ADD11R,1.800000X1.800000*%
%ADD12C,1.800000*%
%ADD13RoundRect,0.250000X-0.550000X0.550000X-0.550000X-0.550000X0.550000X-0.550000X0.550000X0.550000X0*%
%ADD14RoundRect,0.250000X0.550000X0.550000X-0.550000X0.550000X-0.550000X-0.550000X0.550000X-0.550000X0*%
%ADD15C,3.800000*%
%ADD16R,1.700000X1.700000*%
%ADD17C,1.700000*%
%ADD18RoundRect,0.250000X-0.550000X-0.550000X0.550000X-0.550000X0.550000X0.550000X-0.550000X0.550000X0*%
%ADD19R,1.600000X1.600000*%
%ADD20O,1.700000X1.700000*%
G04 APERTURE END LIST*
D10*
%TO.C,R3*%
X152400000Y-25600000D03*
X160020000Y-25600000D03*
%TD*%
%TO.C,R1*%
X129190000Y-60800000D03*
X136810000Y-60800000D03*
%TD*%
D11*
%TO.C,D3*%
X170800000Y-26200000D03*
D12*
X168260000Y-26200000D03*
%TD*%
D13*
%TO.C,D1*%
X110200000Y-53390000D03*
D10*
X110200000Y-61010000D03*
%TD*%
D14*
%TO.C,C7*%
X169205113Y-33800000D03*
D10*
X166705113Y-33800000D03*
%TD*%
D15*
%TO.C,H3*%
X105000000Y-82440000D03*
%TD*%
%TO.C,H1*%
X105000000Y-25040000D03*
%TD*%
%TO.C,H4*%
X177082262Y-82522267D03*
%TD*%
D10*
%TO.C,C5*%
X125500000Y-68760000D03*
X128000000Y-68760000D03*
%TD*%
D16*
%TO.C,J1*%
X173790364Y-32560000D03*
D17*
X173790364Y-35100000D03*
X173790364Y-37640000D03*
X173790364Y-40180000D03*
X173790364Y-42720000D03*
X173790364Y-45260000D03*
X173790364Y-47800000D03*
X173790364Y-50340000D03*
X173790364Y-52880000D03*
X173790364Y-55420000D03*
X173790364Y-57960000D03*
X173790364Y-60500000D03*
X173790364Y-63040000D03*
X173790364Y-65580000D03*
X173790364Y-68120000D03*
X173790364Y-70660000D03*
X173790364Y-73200000D03*
X173790364Y-75740000D03*
%TD*%
D15*
%TO.C,H2*%
X177000000Y-25040000D03*
%TD*%
D18*
%TO.C,U3*%
X110440000Y-32120000D03*
D10*
X110440000Y-34660000D03*
X110440000Y-37200000D03*
X110440000Y-39740000D03*
X110440000Y-42280000D03*
X110440000Y-44820000D03*
X110440000Y-47360000D03*
X110440000Y-49900000D03*
X118060000Y-49900000D03*
X118060000Y-47360000D03*
X118060000Y-44820000D03*
X118060000Y-42280000D03*
X118060000Y-39740000D03*
X118060000Y-37200000D03*
X118060000Y-34660000D03*
X118060000Y-32120000D03*
%TD*%
D11*
%TO.C,D2*%
X165600000Y-26200000D03*
D12*
X163060000Y-26200000D03*
%TD*%
D18*
%TO.C,U1*%
X148010000Y-37010000D03*
D10*
X148010000Y-39550000D03*
X148010000Y-42090000D03*
X148010000Y-44630000D03*
X148010000Y-47170000D03*
X148010000Y-49710000D03*
X148010000Y-52250000D03*
X148010000Y-54790000D03*
X148010000Y-57330000D03*
X148010000Y-59870000D03*
X148010000Y-62410000D03*
X148010000Y-64950000D03*
X163250000Y-64950000D03*
X163250000Y-62410000D03*
X163250000Y-59870000D03*
X163250000Y-57330000D03*
X163250000Y-54790000D03*
X163250000Y-52250000D03*
X163250000Y-49710000D03*
X163250000Y-47170000D03*
X163250000Y-44630000D03*
X163250000Y-42090000D03*
X163250000Y-39550000D03*
X163250000Y-37010000D03*
%TD*%
%TO.C,C3*%
X117000000Y-28760000D03*
X119500000Y-28760000D03*
%TD*%
%TO.C,C6*%
X144750000Y-39510000D03*
X144750000Y-37010000D03*
%TD*%
D19*
%TO.C,X1*%
X127130000Y-80880000D03*
D10*
X134750000Y-80880000D03*
X134750000Y-73260000D03*
X127130000Y-73260000D03*
%TD*%
%TO.C,C4*%
X116750000Y-60760000D03*
X119250000Y-60760000D03*
%TD*%
D16*
%TO.C,U4*%
X162283931Y-80802577D03*
D20*
X162283931Y-78262577D03*
X162283931Y-75722577D03*
X162283931Y-73182577D03*
%TD*%
D18*
%TO.C,U5*%
X110380000Y-64180000D03*
D10*
X110380000Y-66720000D03*
X110380000Y-69260000D03*
X110380000Y-71800000D03*
X110380000Y-74340000D03*
X110380000Y-76880000D03*
X110380000Y-79420000D03*
X110380000Y-81960000D03*
X118000000Y-81960000D03*
X118000000Y-79420000D03*
X118000000Y-76880000D03*
X118000000Y-74340000D03*
X118000000Y-71800000D03*
X118000000Y-69260000D03*
X118000000Y-66720000D03*
X118000000Y-64180000D03*
%TD*%
%TO.C,C1*%
X122000000Y-60760000D03*
X127000000Y-60760000D03*
%TD*%
%TO.C,C2*%
X134750000Y-29010000D03*
X137250000Y-29010000D03*
%TD*%
%TO.C,R2*%
X160000000Y-28600000D03*
X152380000Y-28600000D03*
%TD*%
D18*
%TO.C,U2*%
X128190000Y-32180000D03*
D10*
X128190000Y-34720000D03*
X128190000Y-37260000D03*
X128190000Y-39800000D03*
X128190000Y-42340000D03*
X128190000Y-44880000D03*
X128190000Y-47420000D03*
X128190000Y-49960000D03*
X128190000Y-52500000D03*
X128190000Y-55040000D03*
X135810000Y-55040000D03*
X135810000Y-52500000D03*
X135810000Y-49960000D03*
X135810000Y-47420000D03*
X135810000Y-44880000D03*
X135810000Y-42340000D03*
X135810000Y-39800000D03*
X135810000Y-37260000D03*
X135810000Y-34720000D03*
X135810000Y-32180000D03*
%TD*%
M02*
