%TF.GenerationSoftware,KiCad,Pcbnew,9.0.2*%
%TF.CreationDate,2025-07-10T13:47:21-04:00*%
%TF.ProjectId,am9511-6502,616d3935-3131-42d3-9635-30322e6b6963,rev?*%
%TF.SameCoordinates,Original*%
%TF.FileFunction,Legend,Bot*%
%TF.FilePolarity,Positive*%
%FSLAX46Y46*%
G04 Gerber Fmt 4.6, Leading zero omitted, Abs format (unit mm)*
G04 Created by KiCad (PCBNEW 9.0.2) date 2025-07-10 13:47:21*
%MOMM*%
%LPD*%
G01*
G04 APERTURE LIST*
%ADD10C,0.100000*%
G04 APERTURE END LIST*
D10*
X159416666Y-116122419D02*
X159416666Y-115122419D01*
X159416666Y-115122419D02*
X159178571Y-115122419D01*
X159178571Y-115122419D02*
X159035714Y-115170038D01*
X159035714Y-115170038D02*
X158940476Y-115265276D01*
X158940476Y-115265276D02*
X158892857Y-115360514D01*
X158892857Y-115360514D02*
X158845238Y-115550990D01*
X158845238Y-115550990D02*
X158845238Y-115693847D01*
X158845238Y-115693847D02*
X158892857Y-115884323D01*
X158892857Y-115884323D02*
X158940476Y-115979561D01*
X158940476Y-115979561D02*
X159035714Y-116074800D01*
X159035714Y-116074800D02*
X159178571Y-116122419D01*
X159178571Y-116122419D02*
X159416666Y-116122419D01*
X158035714Y-116074800D02*
X158130952Y-116122419D01*
X158130952Y-116122419D02*
X158321428Y-116122419D01*
X158321428Y-116122419D02*
X158416666Y-116074800D01*
X158416666Y-116074800D02*
X158464285Y-115979561D01*
X158464285Y-115979561D02*
X158464285Y-115598609D01*
X158464285Y-115598609D02*
X158416666Y-115503371D01*
X158416666Y-115503371D02*
X158321428Y-115455752D01*
X158321428Y-115455752D02*
X158130952Y-115455752D01*
X158130952Y-115455752D02*
X158035714Y-115503371D01*
X158035714Y-115503371D02*
X157988095Y-115598609D01*
X157988095Y-115598609D02*
X157988095Y-115693847D01*
X157988095Y-115693847D02*
X158464285Y-115789085D01*
X157607142Y-116074800D02*
X157511904Y-116122419D01*
X157511904Y-116122419D02*
X157321428Y-116122419D01*
X157321428Y-116122419D02*
X157226190Y-116074800D01*
X157226190Y-116074800D02*
X157178571Y-115979561D01*
X157178571Y-115979561D02*
X157178571Y-115931942D01*
X157178571Y-115931942D02*
X157226190Y-115836704D01*
X157226190Y-115836704D02*
X157321428Y-115789085D01*
X157321428Y-115789085D02*
X157464285Y-115789085D01*
X157464285Y-115789085D02*
X157559523Y-115741466D01*
X157559523Y-115741466D02*
X157607142Y-115646228D01*
X157607142Y-115646228D02*
X157607142Y-115598609D01*
X157607142Y-115598609D02*
X157559523Y-115503371D01*
X157559523Y-115503371D02*
X157464285Y-115455752D01*
X157464285Y-115455752D02*
X157321428Y-115455752D01*
X157321428Y-115455752D02*
X157226190Y-115503371D01*
X156749999Y-116122419D02*
X156749999Y-115455752D01*
X156749999Y-115122419D02*
X156797618Y-115170038D01*
X156797618Y-115170038D02*
X156749999Y-115217657D01*
X156749999Y-115217657D02*
X156702380Y-115170038D01*
X156702380Y-115170038D02*
X156749999Y-115122419D01*
X156749999Y-115122419D02*
X156749999Y-115217657D01*
X155845238Y-115455752D02*
X155845238Y-116265276D01*
X155845238Y-116265276D02*
X155892857Y-116360514D01*
X155892857Y-116360514D02*
X155940476Y-116408133D01*
X155940476Y-116408133D02*
X156035714Y-116455752D01*
X156035714Y-116455752D02*
X156178571Y-116455752D01*
X156178571Y-116455752D02*
X156273809Y-116408133D01*
X155845238Y-116074800D02*
X155940476Y-116122419D01*
X155940476Y-116122419D02*
X156130952Y-116122419D01*
X156130952Y-116122419D02*
X156226190Y-116074800D01*
X156226190Y-116074800D02*
X156273809Y-116027180D01*
X156273809Y-116027180D02*
X156321428Y-115931942D01*
X156321428Y-115931942D02*
X156321428Y-115646228D01*
X156321428Y-115646228D02*
X156273809Y-115550990D01*
X156273809Y-115550990D02*
X156226190Y-115503371D01*
X156226190Y-115503371D02*
X156130952Y-115455752D01*
X156130952Y-115455752D02*
X155940476Y-115455752D01*
X155940476Y-115455752D02*
X155845238Y-115503371D01*
X155369047Y-115455752D02*
X155369047Y-116122419D01*
X155369047Y-115550990D02*
X155321428Y-115503371D01*
X155321428Y-115503371D02*
X155226190Y-115455752D01*
X155226190Y-115455752D02*
X155083333Y-115455752D01*
X155083333Y-115455752D02*
X154988095Y-115503371D01*
X154988095Y-115503371D02*
X154940476Y-115598609D01*
X154940476Y-115598609D02*
X154940476Y-116122419D01*
X154083333Y-116074800D02*
X154178571Y-116122419D01*
X154178571Y-116122419D02*
X154369047Y-116122419D01*
X154369047Y-116122419D02*
X154464285Y-116074800D01*
X154464285Y-116074800D02*
X154511904Y-115979561D01*
X154511904Y-115979561D02*
X154511904Y-115598609D01*
X154511904Y-115598609D02*
X154464285Y-115503371D01*
X154464285Y-115503371D02*
X154369047Y-115455752D01*
X154369047Y-115455752D02*
X154178571Y-115455752D01*
X154178571Y-115455752D02*
X154083333Y-115503371D01*
X154083333Y-115503371D02*
X154035714Y-115598609D01*
X154035714Y-115598609D02*
X154035714Y-115693847D01*
X154035714Y-115693847D02*
X154511904Y-115789085D01*
X153178571Y-116122419D02*
X153178571Y-115122419D01*
X153178571Y-116074800D02*
X153273809Y-116122419D01*
X153273809Y-116122419D02*
X153464285Y-116122419D01*
X153464285Y-116122419D02*
X153559523Y-116074800D01*
X153559523Y-116074800D02*
X153607142Y-116027180D01*
X153607142Y-116027180D02*
X153654761Y-115931942D01*
X153654761Y-115931942D02*
X153654761Y-115646228D01*
X153654761Y-115646228D02*
X153607142Y-115550990D01*
X153607142Y-115550990D02*
X153559523Y-115503371D01*
X153559523Y-115503371D02*
X153464285Y-115455752D01*
X153464285Y-115455752D02*
X153273809Y-115455752D01*
X153273809Y-115455752D02*
X153178571Y-115503371D01*
X151940475Y-116122419D02*
X151940475Y-115455752D01*
X151940475Y-115122419D02*
X151988094Y-115170038D01*
X151988094Y-115170038D02*
X151940475Y-115217657D01*
X151940475Y-115217657D02*
X151892856Y-115170038D01*
X151892856Y-115170038D02*
X151940475Y-115122419D01*
X151940475Y-115122419D02*
X151940475Y-115217657D01*
X151464285Y-115455752D02*
X151464285Y-116122419D01*
X151464285Y-115550990D02*
X151416666Y-115503371D01*
X151416666Y-115503371D02*
X151321428Y-115455752D01*
X151321428Y-115455752D02*
X151178571Y-115455752D01*
X151178571Y-115455752D02*
X151083333Y-115503371D01*
X151083333Y-115503371D02*
X151035714Y-115598609D01*
X151035714Y-115598609D02*
X151035714Y-116122419D01*
X149464285Y-115598609D02*
X149321428Y-115646228D01*
X149321428Y-115646228D02*
X149273809Y-115693847D01*
X149273809Y-115693847D02*
X149226190Y-115789085D01*
X149226190Y-115789085D02*
X149226190Y-115931942D01*
X149226190Y-115931942D02*
X149273809Y-116027180D01*
X149273809Y-116027180D02*
X149321428Y-116074800D01*
X149321428Y-116074800D02*
X149416666Y-116122419D01*
X149416666Y-116122419D02*
X149797618Y-116122419D01*
X149797618Y-116122419D02*
X149797618Y-115122419D01*
X149797618Y-115122419D02*
X149464285Y-115122419D01*
X149464285Y-115122419D02*
X149369047Y-115170038D01*
X149369047Y-115170038D02*
X149321428Y-115217657D01*
X149321428Y-115217657D02*
X149273809Y-115312895D01*
X149273809Y-115312895D02*
X149273809Y-115408133D01*
X149273809Y-115408133D02*
X149321428Y-115503371D01*
X149321428Y-115503371D02*
X149369047Y-115550990D01*
X149369047Y-115550990D02*
X149464285Y-115598609D01*
X149464285Y-115598609D02*
X149797618Y-115598609D01*
X148654761Y-116122419D02*
X148749999Y-116074800D01*
X148749999Y-116074800D02*
X148797618Y-115979561D01*
X148797618Y-115979561D02*
X148797618Y-115122419D01*
X147845237Y-116122419D02*
X147845237Y-115598609D01*
X147845237Y-115598609D02*
X147892856Y-115503371D01*
X147892856Y-115503371D02*
X147988094Y-115455752D01*
X147988094Y-115455752D02*
X148178570Y-115455752D01*
X148178570Y-115455752D02*
X148273808Y-115503371D01*
X147845237Y-116074800D02*
X147940475Y-116122419D01*
X147940475Y-116122419D02*
X148178570Y-116122419D01*
X148178570Y-116122419D02*
X148273808Y-116074800D01*
X148273808Y-116074800D02*
X148321427Y-115979561D01*
X148321427Y-115979561D02*
X148321427Y-115884323D01*
X148321427Y-115884323D02*
X148273808Y-115789085D01*
X148273808Y-115789085D02*
X148178570Y-115741466D01*
X148178570Y-115741466D02*
X147940475Y-115741466D01*
X147940475Y-115741466D02*
X147845237Y-115693847D01*
X146940475Y-116074800D02*
X147035713Y-116122419D01*
X147035713Y-116122419D02*
X147226189Y-116122419D01*
X147226189Y-116122419D02*
X147321427Y-116074800D01*
X147321427Y-116074800D02*
X147369046Y-116027180D01*
X147369046Y-116027180D02*
X147416665Y-115931942D01*
X147416665Y-115931942D02*
X147416665Y-115646228D01*
X147416665Y-115646228D02*
X147369046Y-115550990D01*
X147369046Y-115550990D02*
X147321427Y-115503371D01*
X147321427Y-115503371D02*
X147226189Y-115455752D01*
X147226189Y-115455752D02*
X147035713Y-115455752D01*
X147035713Y-115455752D02*
X146940475Y-115503371D01*
X146511903Y-116122419D02*
X146511903Y-115122419D01*
X146416665Y-115741466D02*
X146130951Y-116122419D01*
X146130951Y-115455752D02*
X146511903Y-115836704D01*
X145749998Y-116074800D02*
X145654760Y-116122419D01*
X145654760Y-116122419D02*
X145464284Y-116122419D01*
X145464284Y-116122419D02*
X145369046Y-116074800D01*
X145369046Y-116074800D02*
X145321427Y-115979561D01*
X145321427Y-115979561D02*
X145321427Y-115931942D01*
X145321427Y-115931942D02*
X145369046Y-115836704D01*
X145369046Y-115836704D02*
X145464284Y-115789085D01*
X145464284Y-115789085D02*
X145607141Y-115789085D01*
X145607141Y-115789085D02*
X145702379Y-115741466D01*
X145702379Y-115741466D02*
X145749998Y-115646228D01*
X145749998Y-115646228D02*
X145749998Y-115598609D01*
X145749998Y-115598609D02*
X145702379Y-115503371D01*
X145702379Y-115503371D02*
X145607141Y-115455752D01*
X145607141Y-115455752D02*
X145464284Y-115455752D01*
X145464284Y-115455752D02*
X145369046Y-115503371D01*
X144892855Y-116122419D02*
X144892855Y-115122419D01*
X144892855Y-115503371D02*
X144797617Y-115455752D01*
X144797617Y-115455752D02*
X144607141Y-115455752D01*
X144607141Y-115455752D02*
X144511903Y-115503371D01*
X144511903Y-115503371D02*
X144464284Y-115550990D01*
X144464284Y-115550990D02*
X144416665Y-115646228D01*
X144416665Y-115646228D02*
X144416665Y-115931942D01*
X144416665Y-115931942D02*
X144464284Y-116027180D01*
X144464284Y-116027180D02*
X144511903Y-116074800D01*
X144511903Y-116074800D02*
X144607141Y-116122419D01*
X144607141Y-116122419D02*
X144797617Y-116122419D01*
X144797617Y-116122419D02*
X144892855Y-116074800D01*
X143559522Y-115455752D02*
X143559522Y-116122419D01*
X143988093Y-115455752D02*
X143988093Y-115979561D01*
X143988093Y-115979561D02*
X143940474Y-116074800D01*
X143940474Y-116074800D02*
X143845236Y-116122419D01*
X143845236Y-116122419D02*
X143702379Y-116122419D01*
X143702379Y-116122419D02*
X143607141Y-116074800D01*
X143607141Y-116074800D02*
X143559522Y-116027180D01*
X143083331Y-116122419D02*
X143083331Y-115455752D01*
X143083331Y-115646228D02*
X143035712Y-115550990D01*
X143035712Y-115550990D02*
X142988093Y-115503371D01*
X142988093Y-115503371D02*
X142892855Y-115455752D01*
X142892855Y-115455752D02*
X142797617Y-115455752D01*
X142035712Y-115455752D02*
X142035712Y-116265276D01*
X142035712Y-116265276D02*
X142083331Y-116360514D01*
X142083331Y-116360514D02*
X142130950Y-116408133D01*
X142130950Y-116408133D02*
X142226188Y-116455752D01*
X142226188Y-116455752D02*
X142369045Y-116455752D01*
X142369045Y-116455752D02*
X142464283Y-116408133D01*
X142035712Y-116074800D02*
X142130950Y-116122419D01*
X142130950Y-116122419D02*
X142321426Y-116122419D01*
X142321426Y-116122419D02*
X142416664Y-116074800D01*
X142416664Y-116074800D02*
X142464283Y-116027180D01*
X142464283Y-116027180D02*
X142511902Y-115931942D01*
X142511902Y-115931942D02*
X142511902Y-115646228D01*
X142511902Y-115646228D02*
X142464283Y-115550990D01*
X142464283Y-115550990D02*
X142416664Y-115503371D01*
X142416664Y-115503371D02*
X142321426Y-115455752D01*
X142321426Y-115455752D02*
X142130950Y-115455752D01*
X142130950Y-115455752D02*
X142035712Y-115503371D01*
X141511902Y-116074800D02*
X141511902Y-116122419D01*
X141511902Y-116122419D02*
X141559521Y-116217657D01*
X141559521Y-116217657D02*
X141607140Y-116265276D01*
X140464283Y-115122419D02*
X140130950Y-116122419D01*
X140130950Y-116122419D02*
X139797617Y-115122419D01*
X139464283Y-116122419D02*
X139464283Y-115455752D01*
X139464283Y-115122419D02*
X139511902Y-115170038D01*
X139511902Y-115170038D02*
X139464283Y-115217657D01*
X139464283Y-115217657D02*
X139416664Y-115170038D01*
X139416664Y-115170038D02*
X139464283Y-115122419D01*
X139464283Y-115122419D02*
X139464283Y-115217657D01*
X138988093Y-116122419D02*
X138988093Y-115455752D01*
X138988093Y-115646228D02*
X138940474Y-115550990D01*
X138940474Y-115550990D02*
X138892855Y-115503371D01*
X138892855Y-115503371D02*
X138797617Y-115455752D01*
X138797617Y-115455752D02*
X138702379Y-115455752D01*
X137940474Y-115455752D02*
X137940474Y-116265276D01*
X137940474Y-116265276D02*
X137988093Y-116360514D01*
X137988093Y-116360514D02*
X138035712Y-116408133D01*
X138035712Y-116408133D02*
X138130950Y-116455752D01*
X138130950Y-116455752D02*
X138273807Y-116455752D01*
X138273807Y-116455752D02*
X138369045Y-116408133D01*
X137940474Y-116074800D02*
X138035712Y-116122419D01*
X138035712Y-116122419D02*
X138226188Y-116122419D01*
X138226188Y-116122419D02*
X138321426Y-116074800D01*
X138321426Y-116074800D02*
X138369045Y-116027180D01*
X138369045Y-116027180D02*
X138416664Y-115931942D01*
X138416664Y-115931942D02*
X138416664Y-115646228D01*
X138416664Y-115646228D02*
X138369045Y-115550990D01*
X138369045Y-115550990D02*
X138321426Y-115503371D01*
X138321426Y-115503371D02*
X138226188Y-115455752D01*
X138226188Y-115455752D02*
X138035712Y-115455752D01*
X138035712Y-115455752D02*
X137940474Y-115503371D01*
X137464283Y-116122419D02*
X137464283Y-115455752D01*
X137464283Y-115122419D02*
X137511902Y-115170038D01*
X137511902Y-115170038D02*
X137464283Y-115217657D01*
X137464283Y-115217657D02*
X137416664Y-115170038D01*
X137416664Y-115170038D02*
X137464283Y-115122419D01*
X137464283Y-115122419D02*
X137464283Y-115217657D01*
X136988093Y-115455752D02*
X136988093Y-116122419D01*
X136988093Y-115550990D02*
X136940474Y-115503371D01*
X136940474Y-115503371D02*
X136845236Y-115455752D01*
X136845236Y-115455752D02*
X136702379Y-115455752D01*
X136702379Y-115455752D02*
X136607141Y-115503371D01*
X136607141Y-115503371D02*
X136559522Y-115598609D01*
X136559522Y-115598609D02*
X136559522Y-116122419D01*
X136083331Y-116122419D02*
X136083331Y-115455752D01*
X136083331Y-115122419D02*
X136130950Y-115170038D01*
X136130950Y-115170038D02*
X136083331Y-115217657D01*
X136083331Y-115217657D02*
X136035712Y-115170038D01*
X136035712Y-115170038D02*
X136083331Y-115122419D01*
X136083331Y-115122419D02*
X136083331Y-115217657D01*
X135178570Y-116122419D02*
X135178570Y-115598609D01*
X135178570Y-115598609D02*
X135226189Y-115503371D01*
X135226189Y-115503371D02*
X135321427Y-115455752D01*
X135321427Y-115455752D02*
X135511903Y-115455752D01*
X135511903Y-115455752D02*
X135607141Y-115503371D01*
X135178570Y-116074800D02*
X135273808Y-116122419D01*
X135273808Y-116122419D02*
X135511903Y-116122419D01*
X135511903Y-116122419D02*
X135607141Y-116074800D01*
X135607141Y-116074800D02*
X135654760Y-115979561D01*
X135654760Y-115979561D02*
X135654760Y-115884323D01*
X135654760Y-115884323D02*
X135607141Y-115789085D01*
X135607141Y-115789085D02*
X135511903Y-115741466D01*
X135511903Y-115741466D02*
X135273808Y-115741466D01*
X135273808Y-115741466D02*
X135178570Y-115693847D01*
X134654760Y-116074800D02*
X134654760Y-116122419D01*
X134654760Y-116122419D02*
X134702379Y-116217657D01*
X134702379Y-116217657D02*
X134749998Y-116265276D01*
X133464284Y-115122419D02*
X133464284Y-115931942D01*
X133464284Y-115931942D02*
X133416665Y-116027180D01*
X133416665Y-116027180D02*
X133369046Y-116074800D01*
X133369046Y-116074800D02*
X133273808Y-116122419D01*
X133273808Y-116122419D02*
X133083332Y-116122419D01*
X133083332Y-116122419D02*
X132988094Y-116074800D01*
X132988094Y-116074800D02*
X132940475Y-116027180D01*
X132940475Y-116027180D02*
X132892856Y-115931942D01*
X132892856Y-115931942D02*
X132892856Y-115122419D01*
X132464284Y-116074800D02*
X132321427Y-116122419D01*
X132321427Y-116122419D02*
X132083332Y-116122419D01*
X132083332Y-116122419D02*
X131988094Y-116074800D01*
X131988094Y-116074800D02*
X131940475Y-116027180D01*
X131940475Y-116027180D02*
X131892856Y-115931942D01*
X131892856Y-115931942D02*
X131892856Y-115836704D01*
X131892856Y-115836704D02*
X131940475Y-115741466D01*
X131940475Y-115741466D02*
X131988094Y-115693847D01*
X131988094Y-115693847D02*
X132083332Y-115646228D01*
X132083332Y-115646228D02*
X132273808Y-115598609D01*
X132273808Y-115598609D02*
X132369046Y-115550990D01*
X132369046Y-115550990D02*
X132416665Y-115503371D01*
X132416665Y-115503371D02*
X132464284Y-115408133D01*
X132464284Y-115408133D02*
X132464284Y-115312895D01*
X132464284Y-115312895D02*
X132416665Y-115217657D01*
X132416665Y-115217657D02*
X132369046Y-115170038D01*
X132369046Y-115170038D02*
X132273808Y-115122419D01*
X132273808Y-115122419D02*
X132035713Y-115122419D01*
X132035713Y-115122419D02*
X131892856Y-115170038D01*
X131511903Y-115836704D02*
X131035713Y-115836704D01*
X131607141Y-116122419D02*
X131273808Y-115122419D01*
X131273808Y-115122419D02*
X130940475Y-116122419D01*
M02*
